<?xml version="1.0" encoding="UTF-8" standalone="no"?>
<!DOCTYPE svg PUBLIC "-//W3C//DTD SVG 1.1//EN" "http://www.w3.org/Graphics/SVG/1.1/DTD/svg11.dtd">
<svg width="100%" height="100%" viewBox="0 0 14291 3882" version="1.1" xmlns="http://www.w3.org/2000/svg" xmlns:xlink="http://www.w3.org/1999/xlink" xml:space="preserve" xmlns:serif="http://www.serif.com/" style="fill-rule:evenodd;clip-rule:evenodd;stroke-linecap:round;stroke-linejoin:round;">
    <g transform="matrix(5.55556,0,0,5.55556,0,0)">
        <g id="p-0">
        </g>
        <g id="p-1">
            <path d="M75.118,614.126L57.685,614.126C57.402,614.126 57.685,614.409 57.685,614.126L57.685,605.693C57.685,605.409 57.402,605.693 57.685,605.693L75.118,605.693C75.402,605.693 75.118,605.409 75.118,605.693L75.118,614.126C75.118,614.409 75.402,614.126 75.118,614.126Z" style="fill:none;fill-rule:nonzero;stroke:rgb(0,0,255);stroke-width:0.03px;"/>
            <path d="M111.118,614.126L93.685,614.126C93.402,614.126 93.685,614.409 93.685,614.126L93.685,605.693C93.685,605.409 93.402,605.693 93.685,605.693L111.118,605.693C111.402,605.693 111.118,605.409 111.118,605.693L111.118,614.126C111.118,614.409 111.402,614.126 111.118,614.126Z" style="fill:none;fill-rule:nonzero;stroke:rgb(0,0,255);stroke-width:0.03px;"/>
            <path d="M147.118,614.126L129.685,614.126C129.402,614.126 129.685,614.409 129.685,614.126L129.685,605.693C129.685,605.409 129.402,605.693 129.685,605.693L147.118,605.693C147.402,605.693 147.118,605.409 147.118,605.693L147.118,614.126C147.118,614.409 147.402,614.126 147.118,614.126Z" style="fill:none;fill-rule:nonzero;stroke:rgb(0,0,255);stroke-width:0.03px;"/>
            <path d="M183.118,614.126L165.685,614.126C165.402,614.126 165.685,614.409 165.685,614.126L165.685,605.693C165.685,605.409 165.402,605.693 165.685,605.693L183.118,605.693C183.402,605.693 183.118,605.409 183.118,605.693L183.118,614.126C183.118,614.409 183.402,614.126 183.118,614.126Z" style="fill:none;fill-rule:nonzero;stroke:rgb(0,0,255);stroke-width:0.03px;"/>
            <path d="M219.118,614.126L201.685,614.126C201.402,614.126 201.685,614.409 201.685,614.126L201.685,605.693C201.685,605.409 201.402,605.693 201.685,605.693L219.118,605.693C219.402,605.693 219.118,605.409 219.118,605.693L219.118,614.126C219.118,614.409 219.402,614.126 219.118,614.126Z" style="fill:none;fill-rule:nonzero;stroke:rgb(0,0,255);stroke-width:0.03px;"/>
            <path d="M255.118,614.126L237.685,614.126C237.402,614.126 237.685,614.409 237.685,614.126L237.685,605.693C237.685,605.409 237.402,605.693 237.685,605.693L255.118,605.693C255.402,605.693 255.118,605.409 255.118,605.693L255.118,614.126C255.118,614.409 255.402,614.126 255.118,614.126Z" style="fill:none;fill-rule:nonzero;stroke:rgb(0,0,255);stroke-width:0.03px;"/>
            <path d="M291.118,614.126L273.685,614.126C273.402,614.126 273.685,614.409 273.685,614.126L273.685,605.693C273.685,605.409 273.402,605.693 273.685,605.693L291.118,605.693C291.402,605.693 291.118,605.409 291.118,605.693L291.118,614.126C291.118,614.409 291.402,614.126 291.118,614.126Z" style="fill:none;fill-rule:nonzero;stroke:rgb(0,0,255);stroke-width:0.03px;"/>
            <path d="M327.118,614.126L309.685,614.126C309.402,614.126 309.685,614.409 309.685,614.126L309.685,605.693C309.685,605.409 309.402,605.693 309.685,605.693L327.118,605.693C327.402,605.693 327.118,605.409 327.118,605.693L327.118,614.126C327.118,614.409 327.402,614.126 327.118,614.126Z" style="fill:none;fill-rule:nonzero;stroke:rgb(0,0,255);stroke-width:0.03px;"/>
            <path d="M363.118,614.126L345.685,614.126C345.402,614.126 345.685,614.409 345.685,614.126L345.685,605.693C345.685,605.409 345.402,605.693 345.685,605.693L363.118,605.693C363.402,605.693 363.118,605.409 363.118,605.693L363.118,614.126C363.118,614.409 363.402,614.126 363.118,614.126Z" style="fill:none;fill-rule:nonzero;stroke:rgb(0,0,255);stroke-width:0.03px;"/>
            <path d="M399.118,614.126L381.685,614.126C381.402,614.126 381.685,614.409 381.685,614.126L381.685,605.693C381.685,605.409 381.402,605.693 381.685,605.693L399.118,605.693C399.402,605.693 399.118,605.409 399.118,605.693L399.118,614.126C399.118,614.409 399.402,614.126 399.118,614.126Z" style="fill:none;fill-rule:nonzero;stroke:rgb(0,0,255);stroke-width:0.03px;"/>
            <path d="M435.118,614.126L417.685,614.126C417.402,614.126 417.685,614.409 417.685,614.126L417.685,605.693C417.685,605.409 417.402,605.693 417.685,605.693L435.118,605.693C435.402,605.693 435.118,605.409 435.118,605.693L435.118,614.126C435.118,614.409 435.402,614.126 435.118,614.126Z" style="fill:none;fill-rule:nonzero;stroke:rgb(0,0,255);stroke-width:0.03px;"/>
            <path d="M471.118,614.126L453.685,614.126C453.402,614.126 453.685,614.409 453.685,614.126L453.685,605.693C453.685,605.409 453.402,605.693 453.685,605.693L471.118,605.693C471.402,605.693 471.118,605.409 471.118,605.693L471.118,614.126C471.118,614.409 471.402,614.126 471.118,614.126Z" style="fill:none;fill-rule:nonzero;stroke:rgb(0,0,255);stroke-width:0.03px;"/>
            <path d="M516.149,607.74L507.73,609.996C507.458,610.07 507.804,610.271 507.73,609.996L505.548,601.852C505.474,601.577 505.276,601.926 505.548,601.852L522.388,597.339C522.66,597.266 522.315,597.064 522.388,597.339L524.571,605.486C524.645,605.758 524.843,605.412 524.571,605.486L516.149,607.74Z" style="fill:none;fill-rule:nonzero;stroke:rgb(0,0,255);stroke-width:0.03px;"/>
            <path d="M559.412,582.763L553.249,588.926C553.048,589.127 553.45,589.127 553.249,588.926L547.285,582.965C547.087,582.763 547.087,583.163 547.285,582.965L559.613,570.637C559.814,570.436 559.412,570.436 559.613,570.637L565.577,576.601C565.778,576.799 565.778,576.4 565.577,576.601L559.412,582.763Z" style="fill:none;fill-rule:nonzero;stroke:rgb(0,0,255);stroke-width:0.03px;"/>
            <path d="M586.647,531.082L582.134,547.92C582.06,548.195 582.409,547.994 582.134,547.92L573.987,545.737C573.715,545.664 573.917,546.012 573.987,545.737L578.5,528.9C578.574,528.625 578.228,528.826 578.5,528.9L586.647,531.082C586.919,531.156 586.721,530.807 586.647,531.082Z" style="fill:none;fill-rule:nonzero;stroke:rgb(0,0,255);stroke-width:0.03px;"/>
            <path d="M590.777,486.176L590.777,494.895C590.777,495.179 591.06,494.892 590.777,494.895L582.341,494.895C582.06,494.892 582.344,495.179 582.341,494.895L582.341,477.459C582.344,477.176 582.06,477.462 582.341,477.459L590.774,477.459C591.06,477.462 590.777,477.176 590.774,477.459L590.774,486.176L590.777,486.176Z" style="fill:none;fill-rule:nonzero;stroke:rgb(0,0,255);stroke-width:0.03px;"/>
            <path d="M37.63,627.908L59.811,627.908C60.094,627.908 59.811,627.625 59.811,627.911L59.811,636.625C59.811,636.783 59.939,636.908 60.094,636.908L78.094,636.908C78.25,636.908 78.378,636.783 78.378,636.625L78.378,627.908C78.378,627.625 78.094,627.908 78.378,627.908L95.811,627.908C96.094,627.908 95.811,627.625 95.811,627.911L95.811,636.625C95.811,636.783 95.939,636.908 96.094,636.908L114.094,636.908C114.25,636.908 114.378,636.783 114.378,636.625L114.378,627.911C114.378,627.625 114.094,627.908 114.378,627.911L131.811,627.911C132.094,627.908 131.811,627.625 131.811,627.908L131.811,636.625C131.811,636.783 131.939,636.908 132.094,636.908L150.094,636.908C150.25,636.908 150.378,636.783 150.378,636.625L150.378,627.908C150.378,627.625 150.094,627.908 150.378,627.908L167.811,627.908C168.094,627.908 167.811,627.625 167.811,627.911L167.811,636.625C167.811,636.783 167.939,636.908 168.094,636.908L186.094,636.908C186.25,636.908 186.378,636.783 186.378,636.625L186.378,627.911C186.378,627.625 186.094,627.908 186.378,627.911L203.811,627.911C204.094,627.908 203.811,627.625 203.811,627.911L203.811,636.625C203.811,636.783 203.939,636.908 204.094,636.908L222.094,636.908C222.25,636.908 222.378,636.783 222.378,636.625L222.378,627.911C222.378,627.625 222.094,627.908 222.378,627.911L239.811,627.911C240.094,627.908 239.811,627.625 239.811,627.908L239.811,636.625C239.811,636.783 239.939,636.908 240.094,636.908L258.094,636.908C258.25,636.908 258.378,636.783 258.378,636.625L258.378,627.911C258.378,627.625 258.094,627.908 258.378,627.911L275.811,627.911C276.094,627.908 275.811,627.625 275.811,627.908L275.811,636.625C275.811,636.783 275.939,636.908 276.094,636.908L294.094,636.908C294.25,636.908 294.378,636.783 294.378,636.625L294.378,627.911C294.378,627.625 294.094,627.908 294.378,627.911L311.811,627.911C312.094,627.908 311.811,627.625 311.811,627.911L311.811,636.625C311.811,636.783 311.939,636.908 312.094,636.908L330.094,636.908C330.25,636.908 330.378,636.783 330.378,636.625L330.378,627.911C330.378,627.625 330.094,627.908 330.378,627.911L347.811,627.911C348.094,627.908 347.811,627.625 347.811,627.911L347.811,636.625C347.811,636.783 347.939,636.908 348.094,636.908L366.094,636.908C366.25,636.908 366.378,636.783 366.378,636.625L366.378,627.908C366.378,627.625 366.094,627.908 366.378,627.908L383.811,627.908C384.094,627.908 383.811,627.625 383.811,627.911L383.811,636.625C383.811,636.783 383.939,636.908 384.094,636.908L402.094,636.908C402.25,636.908 402.378,636.783 402.378,636.625L402.378,627.911C402.378,627.625 402.094,627.908 402.378,627.911L419.811,627.911C420.094,627.908 419.811,627.625 419.811,627.911L419.811,636.625C419.811,636.783 419.939,636.908 420.094,636.908L438.094,636.908C438.25,636.908 438.378,636.783 438.378,636.625L438.378,627.911C438.378,627.625 438.094,627.908 438.378,627.911L455.811,627.911C456.094,627.908 455.811,627.625 455.811,627.911L455.811,636.625C455.811,636.783 455.939,636.908 456.094,636.908L474.094,636.908C474.25,636.908 474.378,636.783 474.378,636.625L474.378,627.908C474.378,627.625 474.094,627.908 474.378,627.908L491.811,627.908C492.094,627.908 491.811,627.625 491.811,627.911L491.811,636.625C491.811,636.783 491.939,636.908 492.094,636.908L510.094,636.908C510.25,636.908 510.378,636.783 510.378,636.625L510.378,627.908C510.378,627.625 510.094,627.908 510.378,627.908L527.811,627.908C528.094,627.908 527.811,627.625 527.811,627.911L527.811,636.625C527.811,636.783 527.939,636.908 528.094,636.908L546.094,636.908C546.25,636.908 546.378,636.783 546.378,636.625L546.378,627.908C546.378,627.625 546.094,627.908 546.378,627.908L563.811,627.908C564.094,627.908 563.811,627.625 563.811,627.911L563.811,636.625C563.811,636.783 563.939,636.908 564.094,636.908L582.094,636.908C582.25,636.908 582.378,636.783 582.378,636.625L582.378,627.908C582.378,627.625 582.094,627.908 582.378,627.908L604.559,627.908C604.715,627.908 604.843,627.783 604.843,627.625L604.843,605.869C604.843,605.585 604.559,605.869 604.843,605.869L613.559,605.869C613.715,605.869 613.843,605.744 613.843,605.585L613.843,587.585C613.843,587.429 613.715,587.302 613.559,587.302L604.843,587.302C604.559,587.302 604.843,587.585 604.843,587.305L604.843,569.871C604.843,569.585 604.559,569.869 604.843,569.871L613.559,569.871C613.715,569.869 613.843,569.744 613.843,569.585L613.843,551.585C613.843,551.429 613.715,551.302 613.559,551.302L604.843,551.302C604.559,551.302 604.843,551.585 604.843,551.302L604.843,533.871C604.843,533.585 604.559,533.869 604.843,533.871L613.559,533.871C613.715,533.869 613.843,533.744 613.843,533.585L613.843,515.585C613.843,515.429 613.715,515.302 613.559,515.302L604.843,515.302C604.559,515.302 604.843,515.585 604.843,515.305L604.843,497.869C604.843,497.585 604.559,497.869 604.843,497.869L613.559,497.869C613.715,497.869 613.843,497.744 613.843,497.585L613.843,479.585C613.843,479.429 613.715,479.302 613.559,479.302L604.843,479.302C604.559,479.302 604.843,479.585 604.843,479.302L604.843,457.829C604.843,457.546 604.559,457.829 604.843,457.829L613.559,457.829C613.715,457.829 613.843,457.705 613.843,457.546C613.843,436.014 608.173,414.862 597.407,396.213C586.641,377.563 571.156,362.078 552.509,351.312C533.86,340.546 512.705,334.877 491.173,334.877L37.63,334.877C37.474,334.877 37.346,335.004 37.346,335.16L37.346,350.609C37.346,350.892 37.63,350.609 37.346,350.609L28.63,350.609C28.474,350.609 28.346,350.736 28.346,350.892L28.346,368.892C28.346,369.051 28.474,369.176 28.63,369.176L37.346,369.176C37.63,369.176 37.346,368.892 37.346,369.176L37.346,386.609C37.346,386.892 37.63,386.609 37.346,386.609L28.63,386.609C28.474,386.609 28.346,386.736 28.346,386.892L28.346,404.892C28.346,405.051 28.474,405.176 28.63,405.176L37.346,405.176C37.63,405.176 37.346,404.892 37.346,405.176L37.346,422.609C37.346,422.892 37.63,422.609 37.346,422.609L28.63,422.609C28.474,422.609 28.346,422.736 28.346,422.892L28.346,440.892C28.346,441.051 28.474,441.176 28.63,441.176L37.346,441.176C37.63,441.176 37.346,440.892 37.346,441.176L37.346,458.609C37.346,458.892 37.63,458.609 37.346,458.609L28.63,458.609C28.474,458.609 28.346,458.736 28.346,458.892L28.346,476.892C28.346,477.051 28.474,477.176 28.63,477.176L37.346,477.176C37.63,477.176 37.346,476.892 37.346,477.176L37.346,494.609C37.346,494.892 37.63,494.609 37.346,494.609L28.63,494.609C28.474,494.609 28.346,494.736 28.346,494.892L28.346,512.892C28.346,513.051 28.474,513.176 28.63,513.176L37.346,513.176C37.63,513.176 37.346,512.892 37.346,513.176L37.346,530.609C37.346,530.892 37.63,530.609 37.346,530.609L28.63,530.609C28.474,530.609 28.346,530.736 28.346,530.892L28.346,548.892C28.346,549.051 28.474,549.176 28.63,549.176L37.346,549.176C37.63,549.176 37.346,548.892 37.346,549.176L37.346,566.609C37.346,566.892 37.63,566.609 37.346,566.609L28.63,566.609C28.474,566.609 28.346,566.736 28.346,566.892L28.346,584.892C28.346,585.051 28.474,585.176 28.63,585.176L37.346,585.176C37.63,585.176 37.346,584.892 37.346,585.176L37.346,602.609C37.346,602.892 37.63,602.609 37.346,602.609L28.63,602.609C28.474,602.609 28.346,602.736 28.346,602.892L28.346,620.892C28.346,621.051 28.474,621.176 28.63,621.176L37.346,621.176C37.63,621.176 37.346,620.892 37.346,621.176L37.346,627.625" style="fill:none;fill-rule:nonzero;stroke:black;stroke-width:0.03px;"/>
        </g>
        <g id="p-2">
            <path d="M665.116,614.126L647.68,614.126C647.399,614.126 647.683,614.409 647.68,614.126L647.68,605.693C647.683,605.409 647.399,605.693 647.683,605.693L665.113,605.693C665.399,605.693 665.116,605.409 665.113,605.693L665.113,614.126C665.116,614.409 665.399,614.126 665.116,614.126Z" style="fill:none;fill-rule:nonzero;stroke:rgb(0,0,255);stroke-width:0.03px;"/>
            <path d="M701.113,614.126L683.68,614.126C683.399,614.126 683.683,614.409 683.68,614.126L683.68,605.693C683.683,605.409 683.399,605.693 683.683,605.693L701.116,605.693C701.399,605.693 701.116,605.409 701.116,605.693L701.116,614.126C701.116,614.409 701.399,614.126 701.113,614.126Z" style="fill:none;fill-rule:nonzero;stroke:rgb(0,0,255);stroke-width:0.03px;"/>
            <path d="M737.116,614.126L719.68,614.126C719.399,614.126 719.683,614.409 719.68,614.126L719.68,605.693C719.683,605.409 719.399,605.693 719.683,605.693L737.113,605.693C737.399,605.693 737.116,605.409 737.113,605.693L737.113,614.126C737.116,614.409 737.399,614.126 737.116,614.126Z" style="fill:none;fill-rule:nonzero;stroke:rgb(0,0,255);stroke-width:0.03px;"/>
            <path d="M773.116,614.126L755.68,614.126C755.399,614.126 755.683,614.409 755.68,614.126L755.68,605.693C755.683,605.409 755.399,605.693 755.68,605.693L773.116,605.693C773.399,605.693 773.116,605.409 773.116,605.693L773.116,614.126C773.116,614.409 773.399,614.126 773.116,614.126Z" style="fill:none;fill-rule:nonzero;stroke:rgb(0,0,255);stroke-width:0.03px;"/>
            <path d="M809.116,614.126L791.683,614.126C791.399,614.126 791.683,614.409 791.683,614.126L791.683,605.693C791.683,605.409 791.399,605.693 791.683,605.693L809.116,605.693C809.399,605.693 809.116,605.409 809.116,605.693L809.116,614.126C809.116,614.409 809.399,614.126 809.116,614.126Z" style="fill:none;fill-rule:nonzero;stroke:rgb(0,0,255);stroke-width:0.03px;"/>
            <path d="M845.116,614.126L827.68,614.126C827.399,614.126 827.683,614.409 827.68,614.126L827.68,605.693C827.683,605.409 827.399,605.693 827.683,605.693L845.113,605.693C845.399,605.693 845.116,605.409 845.113,605.693L845.113,614.126C845.116,614.409 845.399,614.126 845.116,614.126Z" style="fill:none;fill-rule:nonzero;stroke:rgb(0,0,255);stroke-width:0.03px;"/>
            <path d="M881.116,614.126L863.68,614.126C863.399,614.126 863.683,614.409 863.68,614.126L863.68,605.693C863.683,605.409 863.399,605.693 863.68,605.693L881.116,605.693C881.399,605.693 881.116,605.409 881.116,605.693L881.116,614.126C881.116,614.409 881.399,614.126 881.116,614.126Z" style="fill:none;fill-rule:nonzero;stroke:rgb(0,0,255);stroke-width:0.03px;"/>
            <path d="M917.113,614.126L899.683,614.126C899.399,614.126 899.683,614.409 899.683,614.126L899.683,605.693C899.683,605.409 899.399,605.693 899.683,605.693L917.113,605.693C917.399,605.693 917.116,605.409 917.113,605.693L917.113,614.126C917.116,614.409 917.399,614.126 917.113,614.126Z" style="fill:none;fill-rule:nonzero;stroke:rgb(0,0,255);stroke-width:0.03px;"/>
            <path d="M953.116,614.126L935.68,614.126C935.399,614.126 935.683,614.409 935.68,614.126L935.68,605.693C935.683,605.409 935.399,605.693 935.683,605.693L953.116,605.693C953.399,605.693 953.116,605.409 953.116,605.693L953.116,614.126C953.116,614.409 953.399,614.126 953.116,614.126Z" style="fill:none;fill-rule:nonzero;stroke:rgb(0,0,255);stroke-width:0.03px;"/>
            <path d="M989.116,614.126L971.68,614.126C971.399,614.126 971.683,614.409 971.68,614.126L971.68,605.693C971.683,605.409 971.399,605.693 971.683,605.693L989.116,605.693C989.399,605.693 989.116,605.409 989.116,605.693L989.116,614.126C989.116,614.409 989.399,614.126 989.116,614.126Z" style="fill:none;fill-rule:nonzero;stroke:rgb(0,0,255);stroke-width:0.03px;"/>
            <path d="M1025.12,614.126L1007.68,614.126C1007.4,614.126 1007.68,614.409 1007.68,614.126L1007.68,605.693C1007.68,605.409 1007.4,605.693 1007.68,605.693L1025.11,605.693C1025.4,605.693 1025.12,605.409 1025.11,605.693L1025.11,614.126C1025.12,614.409 1025.4,614.126 1025.12,614.126Z" style="fill:none;fill-rule:nonzero;stroke:rgb(0,0,255);stroke-width:0.03px;"/>
            <path d="M1061.12,614.126L1043.68,614.126C1043.4,614.126 1043.68,614.409 1043.68,614.126L1043.68,605.693C1043.68,605.409 1043.4,605.693 1043.68,605.693L1061.12,605.693C1061.4,605.693 1061.12,605.409 1061.12,605.693L1061.12,614.126C1061.12,614.409 1061.4,614.126 1061.12,614.126Z" style="fill:none;fill-rule:nonzero;stroke:rgb(0,0,255);stroke-width:0.03px;"/>
            <path d="M1106.15,607.74L1097.73,609.996C1097.45,610.07 1097.8,610.271 1097.73,609.996L1095.55,601.852C1095.47,601.577 1095.27,601.926 1095.55,601.852L1112.38,597.339C1112.66,597.266 1112.31,597.064 1112.38,597.339L1114.57,605.486C1114.64,605.758 1114.84,605.412 1114.57,605.486L1106.15,607.74Z" style="fill:none;fill-rule:nonzero;stroke:rgb(0,0,255);stroke-width:0.03px;"/>
            <path d="M1155.57,576.601L1143.25,588.926C1143.05,589.127 1143.44,589.127 1143.25,588.926L1137.28,582.965C1137.08,582.763 1137.08,583.163 1137.28,582.965L1149.61,570.637C1149.81,570.436 1149.41,570.436 1149.61,570.637L1155.57,576.601C1155.77,576.799 1155.77,576.4 1155.57,576.601Z" style="fill:none;fill-rule:nonzero;stroke:rgb(0,0,255);stroke-width:0.03px;"/>
            <path d="M1174.38,539.501L1172.13,547.92C1172.06,548.195 1172.4,547.994 1172.13,547.92L1163.99,545.737C1163.71,545.664 1163.91,546.012 1163.99,545.737L1168.5,528.9C1168.57,528.625 1168.22,528.826 1168.5,528.9L1176.64,531.082C1176.92,531.156 1176.71,530.807 1176.64,531.082L1174.38,539.501Z" style="fill:none;fill-rule:nonzero;stroke:rgb(0,0,255);stroke-width:0.03px;"/>
            <path d="M1180.77,477.462L1180.77,494.892C1180.77,495.179 1181.06,494.892 1180.77,494.892L1172.34,494.892C1172.06,494.892 1172.34,495.179 1172.34,494.892L1172.34,477.459C1172.34,477.176 1172.06,477.462 1172.34,477.459L1180.77,477.459C1181.06,477.462 1180.77,477.176 1180.77,477.462Z" style="fill:none;fill-rule:nonzero;stroke:rgb(0,0,255);stroke-width:0.03px;"/>
            <path d="M627.627,627.908L649.806,627.908C650.092,627.908 649.809,627.625 649.806,627.908L649.806,636.625C649.809,636.783 649.933,636.908 650.092,636.908L668.092,636.908C668.248,636.908 668.375,636.783 668.375,636.625L668.375,627.911C668.375,627.625 668.092,627.908 668.375,627.911L685.809,627.911C686.092,627.908 685.809,627.625 685.809,627.911L685.809,636.625C685.809,636.783 685.933,636.908 686.092,636.908L704.092,636.908C704.248,636.908 704.375,636.783 704.375,636.625L704.375,627.911C704.375,627.625 704.092,627.908 704.373,627.911L721.809,627.911C722.092,627.908 721.809,627.625 721.809,627.911L721.809,636.625C721.809,636.783 721.933,636.908 722.092,636.908L740.092,636.908C740.248,636.908 740.375,636.783 740.375,636.625L740.375,627.911C740.375,627.625 740.092,627.908 740.375,627.911L757.806,627.911C758.092,627.908 757.809,627.625 757.806,627.911L757.806,636.625C757.809,636.783 757.933,636.908 758.092,636.908L776.092,636.908C776.248,636.908 776.375,636.783 776.375,636.625L776.375,627.911C776.375,627.625 776.092,627.908 776.375,627.911L793.806,627.911C794.092,627.908 793.809,627.625 793.806,627.911L793.806,636.625C793.809,636.783 793.933,636.908 794.092,636.908L812.092,636.908C812.248,636.908 812.375,636.783 812.375,636.625L812.375,627.908C812.375,627.625 812.092,627.908 812.373,627.908L829.809,627.908C830.092,627.908 829.809,627.625 829.809,627.908L829.809,636.625C829.809,636.783 829.933,636.908 830.092,636.908L848.092,636.908C848.248,636.908 848.375,636.783 848.375,636.625L848.375,627.908C848.375,627.625 848.092,627.908 848.375,627.908L865.809,627.908C866.092,627.908 865.809,627.625 865.809,627.908L865.809,636.625C865.809,636.783 865.933,636.908 866.092,636.908L884.092,636.908C884.248,636.908 884.375,636.783 884.375,636.625L884.375,627.911C884.375,627.625 884.092,627.908 884.375,627.911L901.806,627.911C902.092,627.908 901.809,627.625 901.806,627.908L901.806,636.625C901.809,636.783 901.933,636.908 902.092,636.908L920.092,636.908C920.248,636.908 920.375,636.783 920.375,636.625L920.375,627.911C920.375,627.625 920.092,627.908 920.373,627.911L937.809,627.911C938.092,627.908 937.809,627.625 937.809,627.908L937.809,636.625C937.809,636.783 937.933,636.908 938.092,636.908L956.092,636.908C956.248,636.908 956.375,636.783 956.375,636.625L956.375,627.908C956.375,627.625 956.092,627.908 956.375,627.908L973.809,627.908C974.092,627.908 973.809,627.625 973.809,627.911L973.809,636.625C973.809,636.783 973.933,636.908 974.092,636.908L992.092,636.908C992.248,636.908 992.375,636.783 992.375,636.625L992.375,627.911C992.375,627.625 992.092,627.908 992.375,627.911L1009.81,627.911C1010.09,627.908 1009.81,627.625 1009.81,627.908L1009.81,636.625C1009.81,636.783 1009.93,636.908 1010.09,636.908L1028.09,636.908C1028.25,636.908 1028.38,636.783 1028.38,636.625L1028.38,627.911C1028.38,627.625 1028.09,627.908 1028.38,627.911L1045.81,627.911C1046.09,627.908 1045.81,627.625 1045.81,627.908L1045.81,636.625C1045.81,636.783 1045.93,636.908 1046.09,636.908L1064.09,636.908C1064.25,636.908 1064.38,636.783 1064.38,636.625L1064.38,627.908C1064.38,627.625 1064.09,627.908 1064.38,627.908L1081.81,627.908C1082.09,627.908 1081.81,627.625 1081.81,627.908L1081.81,636.625C1081.81,636.783 1081.93,636.908 1082.09,636.908L1100.09,636.908C1100.25,636.908 1100.38,636.783 1100.38,636.625L1100.38,627.911C1100.38,627.625 1100.09,627.908 1100.38,627.911L1117.81,627.911C1118.09,627.908 1117.81,627.625 1117.81,627.908L1117.81,636.625C1117.81,636.783 1117.93,636.908 1118.09,636.908L1136.09,636.908C1136.25,636.908 1136.38,636.783 1136.38,636.625L1136.38,627.911C1136.38,627.625 1136.09,627.908 1136.38,627.911L1153.81,627.911C1154.09,627.908 1153.81,627.625 1153.81,627.908L1153.81,636.625C1153.81,636.783 1153.93,636.908 1154.09,636.908L1172.09,636.908C1172.25,636.908 1172.38,636.783 1172.38,636.625L1172.38,627.908C1172.38,627.625 1172.09,627.908 1172.38,627.908L1194.56,627.908C1194.71,627.908 1194.84,627.783 1194.84,627.625L1194.84,605.869C1194.84,605.585 1194.56,605.869 1194.84,605.869L1203.56,605.869C1203.71,605.869 1203.84,605.744 1203.84,605.585L1203.84,587.585C1203.84,587.429 1203.71,587.302 1203.56,587.302L1194.84,587.302C1194.56,587.302 1194.84,587.585 1194.84,587.302L1194.84,569.871C1194.84,569.585 1194.56,569.869 1194.84,569.871L1203.56,569.871C1203.71,569.869 1203.84,569.744 1203.84,569.585L1203.84,551.585C1203.84,551.429 1203.71,551.302 1203.56,551.302L1194.84,551.302C1194.56,551.302 1194.84,551.585 1194.84,551.302L1194.84,533.869C1194.84,533.585 1194.56,533.869 1194.84,533.869L1203.56,533.869C1203.71,533.869 1203.84,533.744 1203.84,533.585L1203.84,515.585C1203.84,515.429 1203.71,515.302 1203.56,515.302L1194.84,515.302C1194.56,515.302 1194.84,515.585 1194.84,515.302L1194.84,497.869C1194.84,497.585 1194.56,497.869 1194.84,497.869L1203.56,497.869C1203.71,497.869 1203.84,497.744 1203.84,497.585L1203.84,479.585C1203.84,479.429 1203.71,479.302 1203.56,479.302L1194.84,479.302C1194.56,479.302 1194.84,479.585 1194.84,479.302L1194.84,457.829C1194.84,457.546 1194.56,457.829 1194.84,457.829L1203.56,457.829C1203.71,457.829 1203.84,457.705 1203.84,457.546C1203.84,436.014 1198.17,414.862 1187.4,396.213C1176.64,377.563 1161.15,362.078 1142.5,351.312C1123.86,340.546 1102.7,334.877 1081.17,334.877L627.627,334.877C627.469,334.877 627.344,335.004 627.344,335.16L627.344,350.609C627.344,350.892 627.627,350.609 627.341,350.609L618.627,350.609C618.469,350.609 618.344,350.736 618.344,350.892L618.344,368.892C618.344,369.051 618.469,369.176 618.627,369.176L627.344,369.176C627.627,369.176 627.344,368.892 627.344,369.176L627.344,386.612C627.344,386.892 627.627,386.609 627.344,386.612L618.627,386.612C618.469,386.609 618.344,386.736 618.344,386.892L618.344,404.892C618.344,405.051 618.469,405.176 618.627,405.176L627.344,405.176C627.627,405.176 627.344,404.892 627.344,405.176L627.344,422.609C627.344,422.892 627.627,422.609 627.344,422.609L618.627,422.609C618.469,422.609 618.344,422.736 618.344,422.892L618.344,440.892C618.344,441.051 618.469,441.176 618.627,441.176L627.344,441.176C627.627,441.176 627.344,440.892 627.344,441.176L627.344,458.612C627.344,458.892 627.627,458.609 627.344,458.612L618.627,458.612C618.469,458.609 618.344,458.736 618.344,458.892L618.344,476.892C618.344,477.051 618.469,477.176 618.627,477.176L627.344,477.176C627.627,477.176 627.344,476.892 627.344,477.179L627.344,494.609C627.344,494.892 627.627,494.609 627.344,494.609L618.627,494.609C618.469,494.609 618.344,494.736 618.344,494.892L618.344,512.892C618.344,513.051 618.469,513.176 618.627,513.176L627.341,513.176C627.627,513.176 627.344,512.892 627.341,513.176L627.341,530.609C627.344,530.892 627.627,530.609 627.344,530.609L618.627,530.609C618.469,530.609 618.344,530.736 618.344,530.892L618.344,548.892C618.344,549.051 618.469,549.176 618.627,549.176L627.341,549.176C627.627,549.176 627.344,548.892 627.341,549.179L627.341,566.609C627.344,566.892 627.627,566.609 627.344,566.609L618.627,566.609C618.469,566.609 618.344,566.736 618.344,566.892L618.344,584.892C618.344,585.051 618.469,585.176 618.627,585.176L627.344,585.176C627.627,585.176 627.344,584.892 627.344,585.176L627.344,602.609C627.344,602.892 627.627,602.609 627.344,602.609L618.627,602.609C618.469,602.609 618.344,602.736 618.344,602.892L618.344,620.892C618.344,621.051 618.469,621.176 618.627,621.176L627.341,621.176C627.627,621.176 627.344,620.892 627.341,621.179L627.341,627.625" style="fill:none;fill-rule:nonzero;stroke:black;stroke-width:0.03px;"/>
        </g>
        <g id="p-3">
            <path d="M1208.62,627.908L1224.07,627.908C1224.35,627.908 1224.07,627.625 1224.07,627.911L1224.07,636.625C1224.07,636.783 1224.2,636.908 1224.35,636.908L1242.35,636.908C1242.51,636.908 1242.64,636.783 1242.64,636.625L1242.64,627.908C1242.64,627.625 1242.35,627.908 1242.64,627.908L1260.07,627.908C1260.35,627.908 1260.07,627.625 1260.07,627.911L1260.07,636.625C1260.07,636.783 1260.2,636.908 1260.35,636.908L1278.35,636.908C1278.51,636.908 1278.64,636.783 1278.64,636.625L1278.64,627.911C1278.64,627.625 1278.35,627.908 1278.64,627.911L1296.07,627.911C1296.35,627.908 1296.07,627.625 1296.07,627.911L1296.07,636.625C1296.07,636.783 1296.2,636.908 1296.35,636.908L1314.35,636.908C1314.51,636.908 1314.64,636.783 1314.64,636.625L1314.64,627.911C1314.64,627.625 1314.35,627.908 1314.64,627.911L1332.07,627.911C1332.35,627.908 1332.07,627.625 1332.07,627.911L1332.07,636.625C1332.07,636.783 1332.2,636.908 1332.35,636.908L1350.35,636.908C1350.51,636.908 1350.64,636.783 1350.64,636.625L1350.64,627.911C1350.64,627.625 1350.35,627.908 1350.64,627.911L1368.07,627.911C1368.35,627.908 1368.07,627.625 1368.07,627.911L1368.07,636.625C1368.07,636.783 1368.2,636.908 1368.35,636.908L1386.35,636.908C1386.51,636.908 1386.64,636.783 1386.64,636.625L1386.64,627.908C1386.64,627.625 1386.35,627.908 1386.64,627.908L1404.07,627.908C1404.35,627.908 1404.07,627.625 1404.07,627.908L1404.07,636.625C1404.07,636.783 1404.2,636.908 1404.35,636.908L1422.35,636.908C1422.51,636.908 1422.64,636.783 1422.64,636.625L1422.64,627.911C1422.64,627.625 1422.35,627.908 1422.64,627.911L1440.07,627.911C1440.35,627.908 1440.07,627.625 1440.07,627.911L1440.07,636.625C1440.07,636.783 1440.2,636.908 1440.35,636.908L1458.35,636.908C1458.51,636.908 1458.64,636.783 1458.64,636.625L1458.64,627.911C1458.64,627.625 1458.35,627.908 1458.64,627.911L1476.07,627.911C1476.35,627.908 1476.07,627.625 1476.07,627.911L1476.07,636.625C1476.07,636.783 1476.2,636.908 1476.35,636.908L1494.35,636.908C1494.51,636.908 1494.64,636.783 1494.64,636.625L1494.64,627.908C1494.64,627.625 1494.35,627.908 1494.64,627.908L1510.09,627.908C1510.24,627.908 1510.37,627.783 1510.37,627.625L1510.37,620.892C1510.37,620.736 1510.24,620.609 1510.09,620.609L1501.37,620.609C1501.09,620.609 1501.37,620.892 1501.37,620.609L1501.37,603.176C1501.37,602.892 1501.09,603.176 1501.37,603.176L1510.09,603.176C1510.24,603.176 1510.37,603.051 1510.37,602.892L1510.37,584.892C1510.37,584.736 1510.24,584.609 1510.09,584.609L1501.37,584.609C1501.09,584.609 1501.37,584.892 1501.37,584.609L1501.37,567.176C1501.37,566.892 1501.09,567.176 1501.37,567.176L1510.09,567.176C1510.24,567.176 1510.37,567.051 1510.37,566.892L1510.37,548.892C1510.37,548.736 1510.24,548.609 1510.09,548.609L1501.37,548.609C1501.09,548.609 1501.37,548.892 1501.37,548.609L1501.37,531.176C1501.37,530.892 1501.09,531.176 1501.37,531.176L1510.09,531.176C1510.24,531.176 1510.37,531.051 1510.37,530.892L1510.37,512.892C1510.37,512.736 1510.24,512.609 1510.09,512.609L1501.37,512.609C1501.09,512.609 1501.37,512.892 1501.37,512.612L1501.37,495.176C1501.37,494.892 1501.09,495.176 1501.37,495.176L1510.09,495.176C1510.24,495.176 1510.37,495.051 1510.37,494.892L1510.37,476.892C1510.37,476.736 1510.24,476.609 1510.09,476.609L1501.37,476.609C1501.09,476.609 1501.37,476.892 1501.37,476.609L1501.37,459.176C1501.37,458.892 1501.09,459.176 1501.37,459.176L1510.09,459.176C1510.24,459.176 1510.37,459.051 1510.37,458.892L1510.37,440.892C1510.37,440.736 1510.24,440.612 1510.09,440.612L1501.37,440.612C1501.09,440.612 1501.37,440.892 1501.37,440.609L1501.37,423.179C1501.37,422.895 1501.09,423.176 1501.37,423.179L1510.09,423.179C1510.24,423.176 1510.37,423.051 1510.37,422.895L1510.37,404.892C1510.37,404.736 1510.24,404.612 1510.09,404.612L1501.37,404.612C1501.09,404.612 1501.37,404.892 1501.37,404.612L1501.37,387.176C1501.37,386.895 1501.09,387.176 1501.37,387.176L1510.09,387.176C1510.24,387.176 1510.37,387.051 1510.37,386.895L1510.37,368.892C1510.37,368.736 1510.24,368.612 1510.09,368.612L1501.37,368.612C1501.09,368.612 1501.37,368.892 1501.37,368.609L1501.37,351.176C1501.37,350.895 1501.09,351.179 1501.37,351.176L1510.09,351.176C1510.24,351.179 1510.37,351.051 1510.37,350.895L1510.37,335.163C1510.37,335.004 1510.24,334.879 1510.09,334.879L1208.62,334.879C1208.47,334.879 1208.34,335.004 1208.34,335.163L1208.34,350.895C1208.34,351.051 1208.47,351.179 1208.62,351.179L1217.34,351.179C1217.62,351.179 1217.34,350.895 1217.34,351.176L1217.34,368.612C1217.34,368.892 1217.62,368.612 1217.34,368.612L1208.62,368.612C1208.47,368.612 1208.34,368.736 1208.34,368.892L1208.34,386.895C1208.34,387.051 1208.47,387.176 1208.62,387.176L1217.34,387.176C1217.62,387.176 1217.34,386.895 1217.34,387.176L1217.34,404.609C1217.34,404.892 1217.62,404.612 1217.34,404.609L1208.62,404.609C1208.47,404.612 1208.34,404.736 1208.34,404.892L1208.34,422.895C1208.34,423.051 1208.47,423.176 1208.62,423.176L1217.34,423.176C1217.62,423.176 1217.34,422.895 1217.34,423.176L1217.34,440.612C1217.34,440.892 1217.62,440.612 1217.34,440.612L1208.62,440.612C1208.47,440.612 1208.34,440.736 1208.34,440.892L1208.34,458.892C1208.34,459.051 1208.47,459.176 1208.62,459.176L1217.34,459.176C1217.62,459.176 1217.34,458.892 1217.34,459.176L1217.34,476.609C1217.34,476.892 1217.62,476.609 1217.34,476.609L1208.62,476.609C1208.47,476.609 1208.34,476.736 1208.34,476.892L1208.34,494.892C1208.34,495.051 1208.47,495.176 1208.62,495.176L1217.34,495.176C1217.62,495.176 1217.34,494.892 1217.34,495.176L1217.34,512.612C1217.34,512.892 1217.62,512.609 1217.34,512.612L1208.62,512.612C1208.47,512.609 1208.34,512.736 1208.34,512.892L1208.34,530.892C1208.34,531.051 1208.47,531.176 1208.62,531.176L1217.34,531.176C1217.62,531.176 1217.34,530.892 1217.34,531.179L1217.34,548.612C1217.34,548.892 1217.62,548.609 1217.34,548.612L1208.62,548.612C1208.47,548.609 1208.34,548.736 1208.34,548.892L1208.34,566.892C1208.34,567.051 1208.47,567.176 1208.62,567.176L1217.34,567.176C1217.62,567.176 1217.34,566.892 1217.34,567.176L1217.34,584.609C1217.34,584.892 1217.62,584.609 1217.34,584.609L1208.62,584.609C1208.47,584.609 1208.34,584.736 1208.34,584.892L1208.34,602.892C1208.34,603.051 1208.47,603.176 1208.62,603.176L1217.34,603.176C1217.62,603.176 1217.34,602.892 1217.34,603.176L1217.34,620.612C1217.34,620.892 1217.62,620.609 1217.34,620.612L1208.62,620.612C1208.47,620.609 1208.34,620.736 1208.34,620.892L1208.34,627.625C1208.34,627.783 1208.47,627.908 1208.62,627.908Z" style="fill:none;fill-rule:nonzero;stroke:black;stroke-width:0.03px;"/>
        </g>
        <g id="p-4">
            <path d="M1524.15,627.908L1530.6,627.908C1530.88,627.908 1530.6,627.625 1530.6,627.911L1530.6,636.625C1530.6,636.783 1530.73,636.908 1530.88,636.908L1548.88,636.908C1549.04,636.908 1549.17,636.783 1549.17,636.625L1549.17,627.908C1549.17,627.625 1548.88,627.908 1549.17,627.908L1566.6,627.908C1566.88,627.908 1566.6,627.625 1566.6,627.908L1566.6,636.625C1566.6,636.783 1566.73,636.908 1566.88,636.908L1584.88,636.908C1585.04,636.908 1585.17,636.783 1585.17,636.625L1585.17,627.911C1585.17,627.625 1584.88,627.908 1585.17,627.911L1602.6,627.911C1602.88,627.908 1602.6,627.625 1602.6,627.911L1602.6,636.625C1602.6,636.783 1602.73,636.908 1602.88,636.908L1620.88,636.908C1621.04,636.908 1621.17,636.783 1621.17,636.625L1621.17,627.911C1621.17,627.625 1620.88,627.908 1621.17,627.911L1638.6,627.911C1638.89,627.908 1638.6,627.625 1638.6,627.911L1638.6,636.625C1638.6,636.783 1638.73,636.908 1638.89,636.908L1656.89,636.908C1657.04,636.908 1657.17,636.783 1657.17,636.625L1657.17,627.908C1657.17,627.625 1656.89,627.908 1657.17,627.908L1674.6,627.908C1674.89,627.908 1674.6,627.625 1674.6,627.908L1674.6,636.625C1674.6,636.783 1674.73,636.908 1674.89,636.908L1692.89,636.908C1693.04,636.908 1693.17,636.783 1693.17,636.625L1693.17,627.911C1693.17,627.625 1692.89,627.908 1693.17,627.911L1710.6,627.911C1710.89,627.908 1710.6,627.625 1710.6,627.911L1710.6,636.625C1710.6,636.783 1710.73,636.908 1710.89,636.908L1728.89,636.908C1729.04,636.908 1729.17,636.783 1729.17,636.625L1729.17,627.908C1729.17,627.625 1728.89,627.908 1729.17,627.908L1746.6,627.908C1746.89,627.908 1746.6,627.625 1746.6,627.911L1746.6,636.625C1746.6,636.783 1746.73,636.908 1746.89,636.908L1764.89,636.908C1765.04,636.908 1765.17,636.783 1765.17,636.625L1765.17,627.908C1765.17,627.625 1764.89,627.908 1765.17,627.908L1782.6,627.908C1782.89,627.908 1782.6,627.625 1782.6,627.911L1782.6,636.625C1782.6,636.783 1782.73,636.908 1782.89,636.908L1800.89,636.908C1801.04,636.908 1801.17,636.783 1801.17,636.625L1801.17,627.911C1801.17,627.625 1800.89,627.908 1801.17,627.911L1816.62,627.911C1816.78,627.908 1816.9,627.783 1816.9,627.625L1816.9,605.585C1816.9,605.429 1816.78,605.302 1816.62,605.302L1807.9,605.302C1807.62,605.302 1807.9,605.585 1807.9,605.305L1807.9,587.871C1807.9,587.585 1807.62,587.869 1807.9,587.871L1816.62,587.871C1816.78,587.869 1816.9,587.744 1816.9,587.585L1816.9,569.585C1816.9,569.429 1816.78,569.302 1816.62,569.302L1807.9,569.302C1807.62,569.302 1807.9,569.585 1807.9,569.305L1807.9,551.869C1807.9,551.585 1807.62,551.869 1807.9,551.869L1816.62,551.869C1816.78,551.869 1816.9,551.744 1816.9,551.585L1816.9,533.585C1816.9,533.429 1816.78,533.302 1816.62,533.302L1807.9,533.302C1807.62,533.302 1807.9,533.585 1807.9,533.302L1807.9,515.869C1807.9,515.585 1807.62,515.869 1807.9,515.869L1816.62,515.869C1816.78,515.869 1816.9,515.744 1816.9,515.585L1816.9,497.585C1816.9,497.429 1816.78,497.302 1816.62,497.302L1807.9,497.302C1807.62,497.302 1807.9,497.585 1807.9,497.305L1807.9,479.871C1807.9,479.585 1807.62,479.869 1807.9,479.871L1816.62,479.871C1816.78,479.869 1816.9,479.744 1816.9,479.585L1816.9,457.546C1816.9,457.39 1816.78,457.262 1816.62,457.262L1515.15,457.262C1515,457.262 1514.87,457.39 1514.87,457.546L1514.87,479.585C1514.87,479.744 1515,479.869 1515.15,479.869L1523.87,479.869C1524.15,479.869 1523.87,479.585 1523.87,479.871L1523.87,497.302C1523.87,497.585 1524.15,497.302 1523.87,497.302L1515.15,497.302C1515,497.302 1514.87,497.429 1514.87,497.585L1514.87,515.585C1514.87,515.744 1515,515.869 1515.15,515.869L1523.87,515.869C1524.15,515.869 1523.87,515.585 1523.87,515.869L1523.87,533.302C1523.87,533.585 1524.15,533.302 1523.87,533.302L1515.15,533.302C1515,533.302 1514.87,533.429 1514.87,533.585L1514.87,551.585C1514.87,551.744 1515,551.869 1515.15,551.869L1523.87,551.869C1524.15,551.869 1523.87,551.585 1523.87,551.869L1523.87,569.302C1523.87,569.585 1524.15,569.302 1523.87,569.302L1515.15,569.302C1515,569.302 1514.87,569.429 1514.87,569.585L1514.87,587.585C1514.87,587.744 1515,587.869 1515.15,587.869L1523.87,587.869C1524.15,587.869 1523.87,587.585 1523.87,587.869L1523.87,605.302C1523.87,605.585 1524.15,605.302 1523.87,605.302L1515.15,605.302C1515,605.302 1514.87,605.429 1514.87,605.585L1514.87,627.625C1514.87,627.783 1515,627.908 1515.15,627.908L1524.15,627.908L1524.15,627.908Z" style="fill:none;fill-rule:nonzero;stroke:black;stroke-width:0.03px;"/>
        </g>
        <g id="p-5">
            <path d="M1821.68,636.908L1935.07,636.908C1935.23,636.908 1935.35,636.783 1935.35,636.625L1935.35,523.239C1935.35,523.191 1935.34,523.142 1935.32,523.097C1935.29,523.054 1935.26,523.02 1935.21,522.995C1935.17,522.969 1935.12,522.955 1935.07,522.955C1935.02,522.955 1934.97,522.969 1934.93,522.995C1934.89,523.02 1934.85,523.054 1934.82,523.097C1934.8,523.142 1934.79,523.191 1934.79,523.239C1934.79,543.093 1929.56,562.598 1919.63,579.79C1909.71,596.985 1895.43,611.263 1878.24,621.19C1861.04,631.117 1841.54,636.341 1821.68,636.341C1821.74,636.341 1821.78,636.355 1821.83,636.381C1821.87,636.406 1821.91,636.44 1821.93,636.483C1821.95,636.528 1821.97,636.576 1821.97,636.625C1821.97,636.676 1821.95,636.724 1821.93,636.766C1821.91,636.812 1821.87,636.846 1821.83,636.871C1821.78,636.897 1821.74,636.908 1821.68,636.908M1935.07,518.457L1821.68,518.457C1821.53,518.457 1821.4,518.584 1821.4,518.74L1821.4,632.126C1821.4,632.177 1821.42,632.225 1821.44,632.268C1821.46,632.31 1821.5,632.347 1821.54,632.373C1821.59,632.395 1821.63,632.409 1821.68,632.409C1821.74,632.409 1821.78,632.395 1821.83,632.373C1821.87,632.347 1821.91,632.31 1821.93,632.268C1821.95,632.225 1821.97,632.177 1821.97,632.126C1821.97,612.272 1827.2,592.77 1837.12,575.575C1847.05,558.38 1861.33,544.105 1878.52,534.178C1895.72,524.251 1915.22,519.024 1935.07,519.024C1935.02,519.024 1934.97,519.009 1934.93,518.987C1934.89,518.961 1934.85,518.924 1934.82,518.882C1934.8,518.839 1934.79,518.791 1934.79,518.74C1934.79,518.689 1934.8,518.641 1934.82,518.598C1934.85,518.556 1934.89,518.519 1934.93,518.494C1934.97,518.471 1935.02,518.457 1935.07,518.457" style="fill:none;fill-rule:nonzero;stroke:black;stroke-width:0.03px;"/>
        </g>
        <g id="p-6">
            <path d="M1967.71,636.908L2421.25,636.908C2442.78,636.908 2463.93,631.242 2482.58,620.476C2501.23,609.71 2516.72,594.224 2527.48,575.575C2538.25,556.926 2543.92,535.774 2543.92,514.239C2543.92,514.083 2543.79,513.955 2543.63,513.955L2534.64,513.955C2534.48,513.955 2534.35,514.083 2534.35,514.239C2534.35,534.093 2529.13,553.598 2519.2,570.79C2509.27,587.985 2494.99,602.263 2477.8,612.19C2460.61,622.117 2441.1,627.341 2421.25,627.341L1967.7,627.341C1967.55,627.341 1967.42,627.469 1967.42,627.625L1967.42,636.625C1967.42,636.783 1967.55,636.908 1967.7,636.908M1953.64,622.843L2407.18,622.843C2428.71,622.843 2449.87,617.173 2468.51,606.407C2487.16,595.641 2502.65,580.156 2513.41,561.509C2524.18,542.86 2529.85,521.705 2529.85,500.173C2529.85,500.017 2529.72,499.89 2529.57,499.89L2520.57,499.89C2520.41,499.89 2520.28,500.017 2520.28,500.173C2520.28,520.027 2515.06,539.529 2505.13,556.724C2495.2,573.919 2480.93,588.195 2463.73,598.122C2446.54,608.049 2427.03,613.276 2407.18,613.276L1953.64,613.276C1953.48,613.276 1953.35,613.403 1953.35,613.559L1953.35,622.559C1953.35,622.715 1953.48,622.843 1953.64,622.843M1958.14,608.774L2411.68,608.774C2429.27,608.774 2446.54,604.148 2461.76,595.355C2476.99,586.565 2489.64,573.919 2498.43,558.692C2507.22,543.464 2511.85,526.19 2511.85,508.606C2511.85,508.45 2511.72,508.323 2511.57,508.323L2502.57,508.323C2502.41,508.323 2502.28,508.45 2502.28,508.606C2502.28,524.511 2498.1,540.133 2490.15,553.907C2482.19,567.68 2470.76,579.118 2456.98,587.069C2443.21,595.023 2427.59,599.207 2411.68,599.207L1958.14,599.207C1957.98,599.207 1957.86,599.335 1957.86,599.491L1957.86,608.491C1957.86,608.649 1957.98,608.774 1958.14,608.774M1944.07,594.709L2397.61,594.709C2415.2,594.709 2432.47,590.08 2447.7,581.289C2462.93,572.496 2475.57,559.851 2484.36,544.623C2493.16,529.396 2497.78,512.124 2497.78,494.541C2497.78,494.382 2497.66,494.257 2497.5,494.257L2488.5,494.257C2488.34,494.257 2488.22,494.382 2488.22,494.541C2488.22,510.443 2484.03,526.068 2476.08,539.841C2468.13,553.615 2456.69,565.053 2442.91,573.004C2429.14,580.955 2413.52,585.142 2397.61,585.142L1944.07,585.142C1943.91,585.142 1943.79,585.269 1943.79,585.425L1943.79,594.425C1943.79,594.581 1943.91,594.709 1944.07,594.709" style="fill:none;fill-rule:nonzero;stroke:black;stroke-width:0.03px;"/>
        </g>
        <g id="p-7">
            <path d="M28.63,330.378L60.094,330.378C60.25,330.378 60.378,330.25 60.378,330.094L60.378,321.378C60.378,321.094 60.094,321.378 60.378,321.378L77.811,321.378C78.094,321.378 77.811,321.094 77.811,321.378L77.811,330.094C77.811,330.25 77.939,330.378 78.094,330.378L96.094,330.378C96.25,330.378 96.378,330.25 96.378,330.094L96.378,321.378C96.378,321.094 96.094,321.378 96.378,321.378L113.811,321.378C114.094,321.378 113.811,321.094 113.811,321.378L113.811,330.094C113.811,330.25 113.939,330.378 114.094,330.378L132.094,330.378C132.25,330.378 132.378,330.25 132.378,330.094L132.378,321.378C132.378,321.094 132.094,321.378 132.378,321.378L149.811,321.378C150.094,321.378 149.811,321.094 149.811,321.378L149.811,330.094C149.811,330.25 149.939,330.378 150.094,330.378L168.094,330.378C168.25,330.378 168.378,330.25 168.378,330.094L168.378,321.378C168.378,321.094 168.094,321.378 168.378,321.378L185.811,321.378C186.094,321.378 185.811,321.094 185.811,321.378L185.811,330.094C185.811,330.25 185.939,330.378 186.094,330.378L204.094,330.378C204.25,330.378 204.378,330.25 204.378,330.094L204.378,321.378C204.378,321.094 204.094,321.378 204.378,321.378L221.811,321.378C222.094,321.378 221.811,321.094 221.811,321.378L221.811,330.094C221.811,330.25 221.939,330.378 222.094,330.378L240.094,330.378C240.25,330.378 240.378,330.25 240.378,330.094L240.378,321.378C240.378,321.094 240.094,321.378 240.378,321.378L257.811,321.378C258.094,321.378 257.811,321.094 257.811,321.378L257.811,330.094C257.811,330.25 257.939,330.378 258.094,330.378L276.094,330.378C276.25,330.378 276.378,330.25 276.378,330.094L276.378,321.378C276.378,321.094 276.094,321.378 276.378,321.378L293.811,321.378C294.094,321.378 293.811,321.094 293.811,321.378L293.811,330.094C293.811,330.25 293.939,330.378 294.094,330.378L312.094,330.378C312.25,330.378 312.378,330.25 312.378,330.094L312.378,321.378C312.378,321.094 312.094,321.378 312.378,321.378L329.811,321.378C330.094,321.378 329.811,321.094 329.811,321.378L329.811,330.094C329.811,330.25 329.939,330.378 330.094,330.378L348.094,330.378C348.25,330.378 348.378,330.25 348.378,330.094L348.378,321.378C348.378,321.094 348.094,321.378 348.378,321.378L365.811,321.378C366.094,321.378 365.811,321.094 365.811,321.378L365.811,330.094C365.811,330.25 365.939,330.378 366.094,330.378L384.094,330.378C384.25,330.378 384.378,330.25 384.378,330.094L384.378,321.378C384.378,321.094 384.094,321.378 384.378,321.378L401.811,321.378C402.094,321.378 401.811,321.094 401.811,321.378L401.811,330.094C401.811,330.25 401.939,330.378 402.094,330.378L420.094,330.378C420.25,330.378 420.378,330.25 420.378,330.094L420.378,321.378C420.378,321.094 420.094,321.378 420.378,321.378L437.811,321.378C438.094,321.378 437.811,321.094 437.811,321.378L437.811,330.094C437.811,330.25 437.939,330.378 438.094,330.378L456.094,330.378C456.25,330.378 456.378,330.25 456.378,330.094L456.378,321.378C456.378,321.094 456.094,321.378 456.378,321.378L473.811,321.378C474.094,321.378 473.811,321.094 473.811,321.378L473.811,330.094C473.811,330.25 473.939,330.378 474.094,330.378L492.094,330.378C492.25,330.378 492.378,330.25 492.378,330.094L492.378,321.378C492.378,321.094 492.094,321.378 492.378,321.378L509.811,321.378C510.094,321.378 509.811,321.094 509.811,321.378L509.811,330.094C509.811,330.25 509.939,330.378 510.094,330.378L528.094,330.378C528.25,330.378 528.378,330.25 528.378,330.094L528.378,321.378C528.378,321.094 528.094,321.378 528.378,321.378L545.811,321.378C546.094,321.378 545.811,321.094 545.811,321.378L545.811,330.094C545.811,330.25 545.939,330.378 546.094,330.378L564.094,330.378C564.25,330.378 564.378,330.25 564.378,330.094L564.378,321.378C564.378,321.094 564.094,321.378 564.378,321.378L581.811,321.378C582.094,321.378 581.811,321.094 581.811,321.378L581.811,330.094C581.811,330.25 581.939,330.378 582.094,330.378L613.559,330.378C613.715,330.378 613.843,330.25 613.843,330.094L613.843,314.362C613.843,314.206 613.715,314.079 613.559,314.079L604.843,314.079C604.559,314.079 604.843,314.362 604.843,314.079L604.843,296.646C604.843,296.362 604.559,296.646 604.843,296.646L613.559,296.646C613.715,296.646 613.843,296.518 613.843,296.362L613.843,278.362C613.843,278.206 613.715,278.079 613.559,278.079L604.843,278.079C604.559,278.079 604.843,278.362 604.843,278.079L604.843,260.646C604.843,260.362 604.559,260.646 604.843,260.646L613.559,260.646C613.715,260.646 613.843,260.518 613.843,260.362L613.843,242.362C613.843,242.206 613.715,242.079 613.559,242.079L604.843,242.079C604.559,242.079 604.843,242.362 604.843,242.079L604.843,224.646C604.843,224.362 604.559,224.646 604.843,224.646L613.559,224.646C613.715,224.646 613.843,224.518 613.843,224.362L613.843,206.362C613.843,206.206 613.715,206.079 613.559,206.079L604.843,206.079C604.559,206.079 604.843,206.362 604.843,206.079L604.843,188.646C604.843,188.362 604.559,188.646 604.843,188.646L613.559,188.646C613.715,188.646 613.843,188.518 613.843,188.362L613.843,170.362C613.843,170.206 613.715,170.079 613.559,170.079L604.843,170.079C604.559,170.079 604.843,170.362 604.843,170.079L604.843,152.646C604.843,152.362 604.559,152.646 604.843,152.646L613.559,152.646C613.715,152.646 613.843,152.518 613.843,152.362L613.843,134.362C613.843,134.206 613.715,134.079 613.559,134.079L604.843,134.079C604.559,134.079 604.843,134.362 604.843,134.079L604.843,116.646C604.843,116.362 604.559,116.646 604.843,116.646L613.559,116.646C613.715,116.646 613.843,116.518 613.843,116.362L613.843,98.362C613.843,98.206 613.715,98.079 613.559,98.079L604.843,98.079C604.559,98.079 604.843,98.362 604.843,98.079L604.843,80.646C604.843,80.362 604.559,80.646 604.843,80.646L613.559,80.646C613.715,80.646 613.843,80.518 613.843,80.362L613.843,62.362C613.843,62.206 613.715,62.079 613.559,62.079L604.843,62.079C604.559,62.079 604.843,62.362 604.843,62.079L604.843,44.646C604.843,44.362 604.559,44.646 604.843,44.646L613.559,44.646C613.715,44.646 613.843,44.518 613.843,44.362L613.843,28.63C613.843,28.474 613.715,28.346 613.559,28.346L582.094,28.346C581.939,28.346 581.811,28.474 581.811,28.63L581.811,37.346C581.811,37.63 582.094,37.346 581.811,37.346L564.378,37.346C564.094,37.346 564.378,37.63 564.378,37.346L564.378,28.63C564.378,28.474 564.25,28.346 564.094,28.346L546.094,28.346C545.939,28.346 545.811,28.474 545.811,28.63L545.811,37.346C545.811,37.63 546.094,37.346 545.811,37.346L528.378,37.346C528.094,37.346 528.378,37.63 528.378,37.346L528.378,28.63C528.378,28.474 528.25,28.346 528.094,28.346L510.094,28.346C509.939,28.346 509.811,28.474 509.811,28.63L509.811,37.346C509.811,37.63 510.094,37.346 509.811,37.346L492.378,37.346C492.094,37.346 492.378,37.63 492.378,37.346L492.378,28.63C492.378,28.474 492.25,28.346 492.094,28.346L474.094,28.346C473.939,28.346 473.811,28.474 473.811,28.63L473.811,37.346C473.811,37.63 474.094,37.346 473.811,37.346L456.378,37.346C456.094,37.346 456.378,37.63 456.378,37.346L456.378,28.63C456.378,28.474 456.25,28.346 456.094,28.346L438.094,28.346C437.939,28.346 437.811,28.474 437.811,28.63L437.811,37.346C437.811,37.63 438.094,37.346 437.811,37.346L420.378,37.346C420.094,37.346 420.378,37.63 420.378,37.346L420.378,28.63C420.378,28.474 420.25,28.346 420.094,28.346L402.094,28.346C401.939,28.346 401.811,28.474 401.811,28.63L401.811,37.346C401.811,37.63 402.094,37.346 401.811,37.346L384.378,37.346C384.094,37.346 384.378,37.63 384.378,37.346L384.378,28.63C384.378,28.474 384.25,28.346 384.094,28.346L366.094,28.346C365.939,28.346 365.811,28.474 365.811,28.63L365.811,37.346C365.811,37.63 366.094,37.346 365.811,37.346L348.378,37.346C348.094,37.346 348.378,37.63 348.378,37.346L348.378,28.63C348.378,28.474 348.25,28.346 348.094,28.346L330.094,28.346C329.939,28.346 329.811,28.474 329.811,28.63L329.811,37.346C329.811,37.63 330.094,37.346 329.811,37.346L312.378,37.346C312.094,37.346 312.378,37.63 312.378,37.346L312.378,28.63C312.378,28.474 312.25,28.346 312.094,28.346L294.094,28.346C293.939,28.346 293.811,28.474 293.811,28.63L293.811,37.346C293.811,37.63 294.094,37.346 293.811,37.346L276.378,37.346C276.094,37.346 276.378,37.63 276.378,37.346L276.378,28.63C276.378,28.474 276.25,28.346 276.094,28.346L258.094,28.346C257.939,28.346 257.811,28.474 257.811,28.63L257.811,37.346C257.811,37.63 258.094,37.346 257.811,37.346L240.378,37.346C240.094,37.346 240.378,37.63 240.378,37.346L240.378,28.63C240.378,28.474 240.25,28.346 240.094,28.346L222.094,28.346C221.939,28.346 221.811,28.474 221.811,28.63L221.811,37.346C221.811,37.63 222.094,37.346 221.811,37.346L204.378,37.346C204.094,37.346 204.378,37.63 204.378,37.346L204.378,28.63C204.378,28.474 204.25,28.346 204.094,28.346L186.094,28.346C185.939,28.346 185.811,28.474 185.811,28.63L185.811,37.346C185.811,37.63 186.094,37.346 185.811,37.346L168.378,37.346C168.094,37.346 168.378,37.63 168.378,37.346L168.378,28.63C168.378,28.474 168.25,28.346 168.094,28.346L150.094,28.346C149.939,28.346 149.811,28.474 149.811,28.63L149.811,37.346C149.811,37.63 150.094,37.346 149.811,37.346L132.378,37.346C132.094,37.346 132.378,37.63 132.378,37.346L132.378,28.63C132.378,28.474 132.25,28.346 132.094,28.346L114.094,28.346C113.939,28.346 113.811,28.474 113.811,28.63L113.811,37.346C113.811,37.63 114.094,37.346 113.811,37.346L96.378,37.346C96.094,37.346 96.378,37.63 96.378,37.346L96.378,28.63C96.378,28.474 96.25,28.346 96.094,28.346L78.094,28.346C77.939,28.346 77.811,28.474 77.811,28.63L77.811,37.346C77.811,37.63 78.094,37.346 77.811,37.346L60.378,37.346C60.094,37.346 60.378,37.63 60.378,37.346L60.378,28.63C60.378,28.474 60.25,28.346 60.094,28.346L28.63,28.346C28.474,28.346 28.346,28.474 28.346,28.63L28.346,44.362C28.346,44.518 28.474,44.646 28.63,44.646L37.346,44.646C37.63,44.646 37.346,44.362 37.346,44.646L37.346,62.079C37.346,62.362 37.63,62.079 37.346,62.079L28.63,62.079C28.474,62.079 28.346,62.206 28.346,62.362L28.346,80.362C28.346,80.518 28.474,80.646 28.63,80.646L37.346,80.646C37.63,80.646 37.346,80.362 37.346,80.646L37.346,98.079C37.346,98.362 37.63,98.079 37.346,98.079L28.63,98.079C28.474,98.079 28.346,98.206 28.346,98.362L28.346,116.362C28.346,116.518 28.474,116.646 28.63,116.646L37.346,116.646C37.63,116.646 37.346,116.362 37.346,116.646L37.346,134.079C37.346,134.362 37.63,134.079 37.346,134.079L28.63,134.079C28.474,134.079 28.346,134.206 28.346,134.362L28.346,152.362C28.346,152.518 28.474,152.646 28.63,152.646L37.346,152.646C37.63,152.646 37.346,152.362 37.346,152.646L37.346,170.079C37.346,170.362 37.63,170.079 37.346,170.079L28.63,170.079C28.474,170.079 28.346,170.206 28.346,170.362L28.346,188.362C28.346,188.518 28.474,188.646 28.63,188.646L37.346,188.646C37.63,188.646 37.346,188.362 37.346,188.646L37.346,206.079C37.346,206.362 37.63,206.079 37.346,206.079L28.63,206.079C28.474,206.079 28.346,206.206 28.346,206.362L28.346,224.362C28.346,224.518 28.474,224.646 28.63,224.646L37.346,224.646C37.63,224.646 37.346,224.362 37.346,224.646L37.346,242.079C37.346,242.362 37.63,242.079 37.346,242.079L28.63,242.079C28.474,242.079 28.346,242.206 28.346,242.362L28.346,260.362C28.346,260.518 28.474,260.646 28.63,260.646L37.346,260.646C37.63,260.646 37.346,260.362 37.346,260.646L37.346,278.079C37.346,278.362 37.63,278.079 37.346,278.079L28.63,278.079C28.474,278.079 28.346,278.206 28.346,278.362L28.346,296.362C28.346,296.518 28.474,296.646 28.63,296.646L37.346,296.646C37.63,296.646 37.346,296.362 37.346,296.646L37.346,314.079C37.346,314.362 37.63,314.079 37.346,314.079L28.63,314.079C28.474,314.079 28.346,314.206 28.346,314.362L28.346,330.094C28.346,330.25 28.474,330.378 28.63,330.378Z" style="fill:none;fill-rule:nonzero;stroke:black;stroke-width:0.03px;"/>
        </g>
        <g id="p-8">
            <path d="M631.843,288.828L631.843,306.261C631.843,306.547 632.126,306.264 631.843,306.261L623.409,306.261C623.126,306.264 623.409,306.547 623.409,306.264L623.409,288.831C623.409,288.547 623.126,288.831 623.409,288.831L631.843,288.831C632.126,288.831 631.843,288.547 631.843,288.828Z" style="fill:none;fill-rule:nonzero;stroke:rgb(0,0,255);stroke-width:0.03px;"/>
            <path d="M631.843,261.544L631.843,270.264C631.843,270.544 632.126,270.264 631.843,270.264L623.409,270.264C623.126,270.264 623.409,270.544 623.409,270.264L623.409,252.831C623.409,252.547 623.126,252.828 623.409,252.831L631.843,252.831C632.126,252.828 631.843,252.547 631.843,252.831L631.843,261.547L631.843,261.544Z" style="fill:none;fill-rule:nonzero;stroke:rgb(0,0,255);stroke-width:0.03px;"/>
            <path d="M631.843,225.544L631.843,234.261C631.843,234.547 632.126,234.264 631.843,234.261L623.409,234.261C623.126,234.264 623.409,234.547 623.409,234.261L623.409,216.831C623.409,216.547 623.126,216.831 623.409,216.831L631.843,216.831C632.126,216.831 631.843,216.547 631.843,216.828L631.843,225.547L631.843,225.544Z" style="fill:none;fill-rule:nonzero;stroke:rgb(0,0,255);stroke-width:0.03px;"/>
            <path d="M631.843,180.828L631.843,198.264C631.843,198.547 632.126,198.264 631.843,198.264L623.409,198.264C623.126,198.264 623.409,198.547 623.409,198.264L623.409,180.831C623.409,180.547 623.126,180.831 623.409,180.831L631.843,180.831C632.126,180.831 631.843,180.547 631.843,180.828Z" style="fill:none;fill-rule:nonzero;stroke:rgb(0,0,255);stroke-width:0.03px;"/>
            <path d="M631.843,144.831L631.843,162.261C631.843,162.547 632.126,162.264 631.843,162.261L623.409,162.261C623.126,162.264 623.409,162.547 623.409,162.264L623.409,144.831C623.409,144.547 623.126,144.831 623.409,144.831L631.843,144.831C632.126,144.831 631.843,144.547 631.843,144.831Z" style="fill:none;fill-rule:nonzero;stroke:rgb(0,0,255);stroke-width:0.03px;"/>
            <path d="M631.843,108.831L631.843,126.261C631.843,126.547 632.126,126.264 631.843,126.261L623.409,126.261C623.126,126.264 623.409,126.547 623.409,126.261L623.409,108.831C623.409,108.547 623.126,108.831 623.409,108.831L631.843,108.831C632.126,108.831 631.843,108.547 631.843,108.831Z" style="fill:none;fill-rule:nonzero;stroke:rgb(0,0,255);stroke-width:0.03px;"/>
            <path d="M631.843,72.831L631.843,90.264C631.843,90.547 632.126,90.264 631.843,90.264L623.409,90.264C623.126,90.264 623.409,90.547 623.409,90.261L623.409,72.828C623.409,72.547 623.126,72.831 623.409,72.828L631.843,72.828C632.126,72.831 631.843,72.547 631.843,72.831Z" style="fill:none;fill-rule:nonzero;stroke:rgb(0,0,255);stroke-width:0.03px;"/>
            <path d="M618.627,330.378L636.627,330.378M646.449,330.378L646.449,277.532M646.449,259.532L646.449,171.839M646.449,153.839L646.449,66.146M653.202,48.146L653.202,100.993M653.202,118.993L653.202,206.685M653.202,224.685L653.202,312.378M659.951,330.378L659.951,277.532M659.951,259.532L659.951,171.839M659.951,153.839L659.951,66.146M666.7,48.146L666.7,100.993M666.7,118.993L666.7,206.685M666.7,224.685L666.7,312.378M673.449,330.378L673.449,277.532M673.449,259.532L673.449,171.839M673.449,153.839L673.449,66.146M680.202,48.146L680.202,100.993M680.202,118.993L680.202,206.685M680.202,224.685L680.202,312.378M686.951,330.378L686.951,277.532M686.951,259.532L686.951,171.839M686.951,153.839L686.951,66.146M693.7,48.146L693.7,100.993M693.7,118.993L693.7,206.685M693.7,224.685L693.7,312.378M700.449,330.378L700.449,277.532M700.449,259.532L700.449,171.839M700.449,153.839L700.449,66.146M707.202,48.146L707.202,100.993M707.202,118.993L707.202,206.685M707.202,224.685L707.202,312.378M713.951,330.378L713.951,277.532M713.951,259.532L713.951,171.839M713.951,153.839L713.951,66.146M720.7,48.146L720.7,100.993M720.7,118.993L720.7,206.685M720.7,224.685L720.7,312.378M727.449,330.378L727.449,277.532M727.449,259.532L727.449,171.839M727.449,153.839L727.449,66.146M734.202,48.146L734.202,100.993M734.202,118.993L734.202,206.685M734.202,224.685L734.202,312.378M740.951,330.378L740.951,277.532M740.951,259.532L740.951,171.839M740.951,153.839L740.951,66.146M747.7,48.146L747.7,100.993M747.7,118.993L747.7,206.685M747.7,224.685L747.7,312.378M754.449,330.378L754.449,277.532M754.449,259.532L754.449,171.839M754.449,153.839L754.449,66.146M761.202,48.146L761.202,100.993M761.202,118.993L761.202,206.685M761.202,224.685L761.202,312.378M767.951,330.378L767.951,277.532M767.951,259.532L767.951,171.839M767.951,153.839L767.951,66.146M774.7,48.146L774.7,100.993M774.7,118.993L774.7,206.685M774.7,224.685L774.7,312.378M781.449,330.378L781.449,277.532M781.449,259.532L781.449,171.839M781.449,153.839L781.449,66.146M788.202,48.146L788.202,100.993M788.202,118.993L788.202,206.685M788.202,224.685L788.202,312.378M794.951,330.378L794.951,277.532M794.951,259.532L794.951,171.839M794.951,153.839L794.951,66.146M801.7,48.146L801.7,100.993M801.7,118.993L801.7,206.685M801.7,224.685L801.7,312.378M808.449,330.378L808.449,277.532M808.449,259.532L808.449,171.839M808.449,153.839L808.449,66.146M815.202,48.146L815.202,100.993M815.202,118.993L815.202,206.685M815.202,224.685L815.202,312.378M821.951,330.378L821.951,277.532M821.951,259.532L821.951,171.839M821.951,153.839L821.951,66.146M828.7,48.146L828.7,100.993M828.7,118.993L828.7,206.685M828.7,224.685L828.7,312.378M835.449,330.378L835.449,277.532M835.449,259.532L835.449,171.839M835.449,153.839L835.449,66.146M842.202,48.146L842.202,100.993M842.202,118.993L842.202,206.685M842.202,224.685L842.202,312.378M848.951,330.378L848.951,277.532M848.951,259.532L848.951,171.839M848.951,153.839L848.951,66.146M855.7,48.146L855.7,100.993M855.7,118.993L855.7,206.685M855.7,224.685L855.7,312.378M862.449,330.378L862.449,277.532M862.449,259.532L862.449,171.839M862.449,153.839L862.449,66.146M869.202,48.146L869.202,100.993M869.202,118.993L869.202,206.685M869.202,224.685L869.202,312.378M875.951,330.378L875.951,277.532M875.951,259.532L875.951,171.839M875.951,153.839L875.951,66.146M882.7,48.146L882.7,100.993M882.7,118.993L882.7,206.685M882.7,224.685L882.7,312.378M889.449,330.378L889.449,277.532M889.449,259.532L889.449,171.839M889.449,153.839L889.449,66.146M896.202,48.146L896.202,100.993M896.202,118.993L896.202,206.685M896.202,224.685L896.202,312.378M902.951,330.378L902.951,277.532M902.951,259.532L902.951,171.839M902.951,153.839L902.951,66.146M909.7,48.146L909.7,100.993M909.7,118.993L909.7,206.685M909.7,224.685L909.7,312.378M916.449,330.378L916.449,277.532M916.449,259.532L916.449,171.839M916.449,153.839L916.449,66.146M923.202,48.146L923.202,100.993M923.202,118.993L923.202,206.685M923.202,224.685L923.202,312.378M929.951,330.378L929.951,277.532M929.951,259.532L929.951,171.839M929.951,153.839L929.951,66.146M936.7,48.146L936.7,100.993M936.7,118.993L936.7,206.685M936.7,224.685L936.7,312.378M943.449,330.378L943.449,277.532M943.449,259.532L943.449,171.839M943.449,153.839L943.449,66.146M950.202,48.146L950.202,100.993M950.202,118.993L950.202,206.685M950.202,224.685L950.202,312.378M956.951,330.378L956.951,277.532M956.951,259.532L956.951,171.839M956.951,153.839L956.951,66.146M963.7,48.146L963.7,100.993M963.7,118.993L963.7,206.685M963.7,224.685L963.7,312.378M970.449,330.378L970.449,277.532M970.449,259.532L970.449,171.839M970.449,153.839L970.449,66.146M977.202,48.146L977.202,100.993M977.202,118.993L977.202,206.685M977.202,224.685L977.202,312.378M983.951,330.378L983.951,277.532M983.951,259.532L983.951,171.839M983.951,153.839L983.951,66.146M990.7,48.146L990.7,100.993M990.7,118.993L990.7,206.685M990.7,224.685L990.7,312.378M997.449,330.378L997.449,277.532M997.449,259.532L997.449,171.839M997.449,153.839L997.449,66.146M1004.2,48.146L1004.2,100.993M1004.2,118.993L1004.2,206.685M1004.2,224.685L1004.2,312.378M1010.95,330.378L1010.95,277.532M1010.95,259.532L1010.95,171.839M1010.95,153.839L1010.95,66.146M1017.7,48.146L1017.7,100.993M1017.7,118.993L1017.7,206.685M1017.7,224.685L1017.7,312.378M1024.45,330.378L1024.45,277.532M1024.45,259.532L1024.45,171.839M1024.45,153.839L1024.45,66.146M1031.2,48.146L1031.2,100.993M1031.2,118.993L1031.2,206.685M1031.2,224.685L1031.2,312.378M1037.95,330.378L1037.95,277.532M1037.95,259.532L1037.95,171.839M1037.95,153.839L1037.95,66.146M1044.7,48.146L1044.7,100.993M1044.7,118.993L1044.7,206.685M1044.7,224.685L1044.7,312.378M1051.45,330.378L1051.45,277.532M1051.45,259.532L1051.45,171.839M1051.45,153.839L1051.45,66.146M1058.2,48.146L1058.2,100.993M1058.2,118.993L1058.2,206.685M1058.2,224.685L1058.2,312.378M1064.95,330.378L1064.95,277.532M1064.95,259.532L1064.95,171.839M1064.95,153.839L1064.95,66.146M1071.7,48.146L1071.7,100.993M1071.7,118.993L1071.7,206.685M1071.7,224.685L1071.7,312.378M1078.45,330.378L1078.45,277.532M1078.45,259.532L1078.45,171.839M1078.45,153.839L1078.45,66.146M1085.2,48.146L1085.2,100.993M1085.2,118.993L1085.2,206.685M1085.2,224.685L1085.2,312.378M1091.95,330.378L1091.95,277.532M1091.95,259.532L1091.95,171.839M1091.95,153.839L1091.95,66.146M1098.7,48.146L1098.7,100.993M1098.7,118.993L1098.7,206.685M1098.7,224.685L1098.7,312.378M1105.45,330.378L1105.45,277.532M1105.45,259.532L1105.45,171.839M1105.45,153.839L1105.45,66.146M1112.2,48.146L1112.2,100.993M1112.2,118.993L1112.2,206.685M1112.2,224.685L1112.2,312.378M1118.95,330.378L1118.95,277.532M1118.95,259.532L1118.95,171.839M1118.95,153.839L1118.95,66.146M1125.7,48.146L1125.7,100.993M1125.7,118.993L1125.7,206.685M1125.7,224.685L1125.7,312.378M1132.45,330.378L1132.45,277.532M1132.45,259.532L1132.45,171.839M1132.45,153.839L1132.45,66.146M1139.2,48.146L1139.2,100.993M1139.2,118.993L1139.2,206.685M1139.2,224.685L1139.2,312.378M1145.95,330.378L1145.95,277.532M1145.95,259.532L1145.95,171.839M1145.95,153.839L1145.95,66.146M1152.7,48.146L1152.7,100.993M1152.7,118.993L1152.7,206.685M1152.7,224.685L1152.7,312.378M1159.45,330.378L1159.45,277.532M1159.45,259.532L1159.45,171.839M1159.45,153.839L1159.45,66.146M1166.2,48.146L1166.2,100.993M1166.2,118.993L1166.2,206.685M1166.2,224.685L1166.2,312.378M1172.95,330.378L1172.95,277.532M1172.95,259.532L1172.95,171.839M1172.95,153.839L1172.95,66.146M1179.7,48.146L1179.7,100.993M1179.7,118.993L1179.7,206.685M1179.7,224.685L1179.7,312.378M1186.45,330.378L1186.45,277.532M1186.45,259.532L1186.45,171.839M1186.45,153.839L1186.45,66.146M1193.2,48.146L1193.2,100.993M1193.2,118.993L1193.2,206.685M1193.2,224.685L1193.2,312.378M1199.95,330.378L1199.95,277.532M1199.95,259.532L1199.95,171.839M1199.95,153.839L1199.95,66.146M1206.7,48.146L1206.7,100.993M1206.7,118.993L1206.7,206.685M1206.7,224.685L1206.7,312.378M1213.45,330.378L1213.45,277.532M1213.45,259.532L1213.45,171.839M1213.45,153.839L1213.45,66.146M1220.2,48.146L1220.2,100.993M1220.2,118.993L1220.2,206.685M1220.2,224.685L1220.2,312.378M1226.95,330.378L1226.95,277.532M1226.95,259.532L1226.95,171.839M1226.95,153.839L1226.95,66.146M1233.7,48.146L1233.7,100.993M1233.7,118.993L1233.7,206.685M1233.7,224.685L1233.7,312.378M1240.45,330.378L1240.45,277.532M1240.45,259.532L1240.45,171.839M1240.45,153.839L1240.45,66.146M1247.2,48.146L1247.2,100.993M1247.2,118.993L1247.2,206.685M1247.2,224.685L1247.2,312.378M1253.95,330.378L1253.95,277.532M1253.95,259.532L1253.95,171.839M1253.95,153.839L1253.95,66.146M1260.7,48.146L1260.7,100.993M1260.7,118.993L1260.7,206.685M1260.7,224.685L1260.7,312.378M1267.45,330.378L1267.45,277.532M1267.45,259.532L1267.45,171.839M1267.45,153.839L1267.45,66.146M618.627,330.378L1277.27,330.378C1277.43,330.378 1277.56,330.25 1277.56,330.094L1277.56,48.43C1277.56,48.274 1277.43,48.146 1277.27,48.146L618.627,48.146C618.469,48.146 618.344,48.274 618.344,48.43L618.344,330.094C618.344,330.25 618.469,330.378 618.627,330.378Z" style="fill:none;fill-rule:nonzero;stroke:black;stroke-width:0.03px;"/>
        </g>
        <g id="p-9">
            <path d="M1291.34,330.378L1309.34,330.378C1309.5,330.378 1309.63,330.25 1309.63,330.094L1309.63,66.43C1309.63,66.274 1309.5,66.146 1309.34,66.146L1291.34,66.146C1291.19,66.146 1291.06,66.274 1291.06,66.43L1291.06,80.98C1291.06,81.264 1291.34,80.98 1291.06,80.98L1282.34,80.98C1282.19,80.98 1282.06,81.105 1282.06,81.264L1282.06,99.264C1282.06,99.42 1282.19,99.547 1282.34,99.547L1291.06,99.547C1291.34,99.547 1291.06,99.264 1291.06,99.547L1291.06,116.977C1291.06,117.264 1291.34,116.98 1291.06,116.977L1282.34,116.977C1282.19,116.98 1282.06,117.105 1282.06,117.264L1282.06,135.264C1282.06,135.42 1282.19,135.544 1282.34,135.544L1291.06,135.544C1291.34,135.544 1291.06,135.264 1291.06,135.547L1291.06,152.977C1291.06,153.261 1291.34,152.98 1291.06,152.977L1282.34,152.977C1282.19,152.98 1282.06,153.105 1282.06,153.261L1282.06,171.261C1282.06,171.42 1282.19,171.544 1282.34,171.544L1291.06,171.544C1291.34,171.544 1291.06,171.261 1291.06,171.544L1291.06,188.977C1291.06,189.261 1291.34,188.977 1291.06,188.977L1282.34,188.977C1282.19,188.977 1282.06,189.105 1282.06,189.261L1282.06,207.261C1282.06,207.42 1282.19,207.544 1282.34,207.544L1291.06,207.544C1291.34,207.544 1291.06,207.261 1291.06,207.547L1291.06,224.98C1291.06,225.261 1291.34,224.977 1291.06,224.98L1282.34,224.98C1282.19,224.977 1282.06,225.105 1282.06,225.261L1282.06,243.261C1282.06,243.42 1282.19,243.544 1282.34,243.544L1291.06,243.544C1291.34,243.544 1291.06,243.261 1291.06,243.547L1291.06,260.98C1291.06,261.261 1291.34,260.977 1291.06,260.98L1282.34,260.98C1282.19,260.977 1282.06,261.105 1282.06,261.261L1282.06,279.261C1282.06,279.42 1282.19,279.544 1282.34,279.544L1291.06,279.544C1291.34,279.544 1291.06,279.261 1291.06,279.544L1291.06,296.977C1291.06,297.261 1291.34,296.977 1291.06,296.977L1282.34,296.977C1282.19,296.977 1282.06,297.105 1282.06,297.261L1282.06,315.261C1282.06,315.42 1282.19,315.544 1282.34,315.544L1291.06,315.544C1291.34,315.544 1291.06,315.261 1291.06,315.544L1291.06,330.094C1291.06,330.25 1291.19,330.378 1291.34,330.378Z" style="fill:none;fill-rule:nonzero;stroke:black;stroke-width:0.03px;"/>
        </g>
        <g id="p-10">
            <path d="M1314.41,321.378L1333.9,321.378C1334.18,321.378 1333.9,321.094 1333.9,321.378L1333.9,330.094C1333.9,330.25 1334.02,330.378 1334.18,330.378L1352.18,330.378C1352.34,330.378 1352.46,330.25 1352.46,330.094L1352.46,321.378C1352.46,321.094 1352.18,321.378 1352.46,321.378L1369.9,321.378C1370.18,321.378 1369.9,321.094 1369.9,321.378L1369.9,330.094C1369.9,330.25 1370.02,330.378 1370.18,330.378L1388.18,330.378C1388.34,330.378 1388.46,330.25 1388.46,330.094L1388.46,321.378C1388.46,321.094 1388.18,321.378 1388.46,321.378L1405.9,321.378C1406.18,321.378 1405.9,321.094 1405.9,321.378L1405.9,330.094C1405.9,330.25 1406.02,330.378 1406.18,330.378L1424.18,330.378C1424.34,330.378 1424.46,330.25 1424.46,330.094L1424.46,321.378C1424.46,321.094 1424.18,321.378 1424.46,321.378L1441.9,321.378C1442.18,321.378 1441.9,321.094 1441.9,321.378L1441.9,330.094C1441.9,330.25 1442.02,330.378 1442.18,330.378L1460.18,330.378C1460.34,330.378 1460.46,330.25 1460.46,330.094L1460.46,321.378C1460.46,321.094 1460.18,321.378 1460.46,321.378L1477.9,321.378C1478.18,321.378 1477.9,321.094 1477.9,321.378L1477.9,330.094C1477.9,330.25 1478.02,330.378 1478.18,330.378L1496.18,330.378C1496.34,330.378 1496.46,330.25 1496.46,330.094L1496.46,321.378C1496.46,321.094 1496.18,321.378 1496.46,321.378L1513.9,321.378C1514.18,321.378 1513.9,321.094 1513.9,321.378L1513.9,330.094C1513.9,330.25 1514.02,330.378 1514.18,330.378L1532.18,330.378C1532.34,330.378 1532.46,330.25 1532.46,330.094L1532.46,321.378C1532.46,321.094 1532.18,321.378 1532.46,321.378L1549.9,321.378C1550.18,321.378 1549.9,321.094 1549.9,321.378L1549.9,330.094C1549.9,330.25 1550.02,330.378 1550.18,330.378L1568.18,330.378C1568.34,330.378 1568.46,330.25 1568.46,330.094L1568.46,321.378C1568.46,321.094 1568.18,321.378 1568.46,321.378L1585.9,321.378C1586.18,321.378 1585.9,321.094 1585.9,321.378L1585.9,330.094C1585.9,330.25 1586.02,330.378 1586.18,330.378L1604.18,330.378C1604.34,330.378 1604.46,330.25 1604.46,330.094L1604.46,321.378C1604.46,321.094 1604.18,321.378 1604.46,321.378L1621.9,321.378C1622.18,321.378 1621.9,321.094 1621.9,321.378L1621.9,330.094C1621.9,330.25 1622.02,330.378 1622.18,330.378L1640.18,330.378C1640.34,330.378 1640.46,330.25 1640.46,330.094L1640.46,321.378C1640.46,321.094 1640.18,321.378 1640.46,321.378L1657.9,321.378C1658.18,321.378 1657.9,321.094 1657.9,321.378L1657.9,330.094C1657.9,330.25 1658.02,330.378 1658.18,330.378L1676.18,330.378C1676.34,330.378 1676.46,330.25 1676.46,330.094L1676.46,321.378C1676.46,321.094 1676.18,321.378 1676.46,321.378L1693.9,321.378C1694.18,321.378 1693.9,321.094 1693.9,321.378L1693.9,330.094C1693.9,330.25 1694.02,330.378 1694.18,330.378L1712.18,330.378C1712.34,330.378 1712.46,330.25 1712.46,330.094L1712.46,321.378C1712.46,321.094 1712.18,321.378 1712.46,321.378L1729.9,321.378C1730.18,321.378 1729.9,321.094 1729.9,321.378L1729.9,330.094C1729.9,330.25 1730.02,330.378 1730.18,330.378L1748.18,330.378C1748.34,330.378 1748.46,330.25 1748.46,330.094L1748.46,321.378C1748.46,321.094 1748.18,321.378 1748.46,321.378L1767.95,321.378L1766.81,321.378C1766.97,321.378 1767.09,321.25 1767.09,321.094L1767.09,296.646C1767.09,296.362 1766.81,296.646 1767.09,296.646L1769.14,296.646C1769.3,296.646 1769.42,296.518 1769.42,296.362L1769.42,278.362C1769.42,278.206 1769.3,278.079 1769.14,278.079L1767.09,278.079C1766.81,278.079 1767.09,278.362 1767.09,278.079L1767.09,260.646C1767.09,260.362 1766.81,260.646 1767.09,260.646L1769.14,260.646C1769.3,260.646 1769.42,260.518 1769.42,260.362L1769.42,242.362C1769.42,242.206 1769.3,242.079 1769.14,242.079L1767.09,242.079C1766.81,242.079 1767.09,242.362 1767.09,242.079L1767.09,224.646C1767.09,224.362 1766.81,224.646 1767.09,224.646L1769.14,224.646C1769.3,224.646 1769.42,224.518 1769.42,224.362L1769.42,206.362C1769.42,206.206 1769.3,206.079 1769.14,206.079L1767.09,206.079C1766.81,206.079 1767.09,206.362 1767.09,206.079L1767.09,188.646C1767.09,188.362 1766.81,188.646 1767.09,188.646L1769.14,188.646C1769.3,188.646 1769.42,188.518 1769.42,188.362L1769.42,170.362C1769.42,170.206 1769.3,170.079 1769.14,170.079L1767.09,170.079C1766.81,170.079 1767.09,170.362 1767.09,170.079L1767.09,152.646C1767.09,152.362 1766.81,152.646 1767.09,152.646L1769.14,152.646C1769.3,152.646 1769.42,152.518 1769.42,152.362L1769.42,134.362C1769.42,134.206 1769.3,134.079 1769.14,134.079L1767.09,134.079C1766.81,134.079 1767.09,134.362 1767.09,134.079L1767.09,116.646C1767.09,116.362 1766.81,116.646 1767.09,116.646L1769.14,116.646C1769.3,116.646 1769.42,116.518 1769.42,116.362L1769.42,98.362C1769.42,98.206 1769.3,98.079 1769.14,98.079L1767.09,98.079C1766.81,98.079 1767.09,98.362 1767.09,98.079L1767.09,80.646C1767.09,80.362 1766.81,80.646 1767.09,80.646L1769.14,80.646C1769.3,80.646 1769.42,80.518 1769.42,80.362L1769.42,62.362C1769.42,62.206 1769.3,62.079 1769.14,62.079L1767.09,62.079C1766.81,62.079 1767.09,62.362 1767.09,62.079L1767.09,37.63C1767.09,37.474 1766.97,37.346 1766.81,37.346L1767.95,37.346L1748.46,37.346C1748.18,37.346 1748.46,37.63 1748.46,37.346L1748.46,28.63C1748.46,28.474 1748.34,28.346 1748.18,28.346L1730.18,28.346C1730.02,28.346 1729.9,28.474 1729.9,28.63L1729.9,37.346C1729.9,37.63 1730.18,37.346 1729.9,37.346L1712.46,37.346C1712.18,37.346 1712.46,37.63 1712.46,37.346L1712.46,28.63C1712.46,28.474 1712.34,28.346 1712.18,28.346L1694.18,28.346C1694.02,28.346 1693.9,28.474 1693.9,28.63L1693.9,37.346C1693.9,37.63 1694.18,37.346 1693.9,37.346L1676.46,37.346C1676.18,37.346 1676.46,37.63 1676.46,37.346L1676.46,28.63C1676.46,28.474 1676.34,28.346 1676.18,28.346L1658.18,28.346C1658.02,28.346 1657.9,28.474 1657.9,28.63L1657.9,37.346C1657.9,37.63 1658.18,37.346 1657.9,37.346L1640.46,37.346C1640.18,37.346 1640.46,37.63 1640.46,37.346L1640.46,28.63C1640.46,28.474 1640.34,28.346 1640.18,28.346L1622.18,28.346C1622.02,28.346 1621.9,28.474 1621.9,28.63L1621.9,37.346C1621.9,37.63 1622.18,37.346 1621.9,37.346L1604.46,37.346C1604.18,37.346 1604.46,37.63 1604.46,37.346L1604.46,28.63C1604.46,28.474 1604.34,28.346 1604.18,28.346L1586.18,28.346C1586.02,28.346 1585.9,28.474 1585.9,28.63L1585.9,37.346C1585.9,37.63 1586.18,37.346 1585.9,37.346L1568.46,37.346C1568.18,37.346 1568.46,37.63 1568.46,37.346L1568.46,28.63C1568.46,28.474 1568.34,28.346 1568.18,28.346L1550.18,28.346C1550.02,28.346 1549.9,28.474 1549.9,28.63L1549.9,37.346C1549.9,37.63 1550.18,37.346 1549.9,37.346L1532.46,37.346C1532.18,37.346 1532.46,37.63 1532.46,37.346L1532.46,28.63C1532.46,28.474 1532.34,28.346 1532.18,28.346L1514.18,28.346C1514.02,28.346 1513.9,28.474 1513.9,28.63L1513.9,37.346C1513.9,37.63 1514.18,37.346 1513.9,37.346L1496.46,37.346C1496.18,37.346 1496.46,37.63 1496.46,37.346L1496.46,28.63C1496.46,28.474 1496.34,28.346 1496.18,28.346L1478.18,28.346C1478.02,28.346 1477.9,28.474 1477.9,28.63L1477.9,37.346C1477.9,37.63 1478.18,37.346 1477.9,37.346L1460.46,37.346C1460.18,37.346 1460.46,37.63 1460.46,37.346L1460.46,28.63C1460.46,28.474 1460.34,28.346 1460.18,28.346L1442.18,28.346C1442.02,28.346 1441.9,28.474 1441.9,28.63L1441.9,37.346C1441.9,37.63 1442.18,37.346 1441.9,37.346L1424.46,37.346C1424.18,37.346 1424.46,37.63 1424.46,37.346L1424.46,28.63C1424.46,28.474 1424.34,28.346 1424.18,28.346L1406.18,28.346C1406.02,28.346 1405.9,28.474 1405.9,28.63L1405.9,37.346C1405.9,37.63 1406.18,37.346 1405.9,37.346L1388.46,37.346C1388.18,37.346 1388.46,37.63 1388.46,37.346L1388.46,28.63C1388.46,28.474 1388.34,28.346 1388.18,28.346L1370.18,28.346C1370.02,28.346 1369.9,28.474 1369.9,28.63L1369.9,37.346C1369.9,37.63 1370.18,37.346 1369.9,37.346L1352.46,37.346C1352.18,37.346 1352.46,37.63 1352.46,37.346L1352.46,28.63C1352.46,28.474 1352.34,28.346 1352.18,28.346L1334.18,28.346C1334.02,28.346 1333.9,28.474 1333.9,28.63L1333.9,37.346C1333.9,37.63 1334.18,37.346 1333.9,37.346L1314.41,37.346C1314.25,37.346 1314.13,37.474 1314.13,37.63L1314.13,321.094C1314.13,321.25 1314.25,321.378 1314.41,321.378Z" style="fill:none;fill-rule:nonzero;stroke:black;stroke-width:0.03px;"/>
        </g>
        <g id="p-11">
            <path d="M1774.2,321.378L1789.63,321.378C1789.91,321.378 1789.63,321.094 1789.63,321.378L1789.63,330.094C1789.63,330.25 1789.76,330.378 1789.91,330.378L1807.91,330.378C1808.07,330.378 1808.19,330.25 1808.19,330.094L1808.19,321.378C1808.19,321.094 1807.91,321.378 1808.19,321.378L1822.44,321.378L1820.35,321.378C1820.5,321.378 1820.63,321.25 1820.63,321.094L1820.63,296.646C1820.63,296.362 1820.35,296.646 1820.63,296.646L1824.85,296.646C1825,296.646 1825.13,296.518 1825.13,296.362L1825.13,278.362C1825.13,278.206 1825,278.079 1824.85,278.079L1820.63,278.079C1820.35,278.079 1820.63,278.362 1820.63,278.079L1820.63,260.646C1820.63,260.362 1820.35,260.646 1820.63,260.646L1824.85,260.646C1825,260.646 1825.13,260.518 1825.13,260.362L1825.13,242.362C1825.13,242.206 1825,242.079 1824.85,242.079L1820.63,242.079C1820.35,242.079 1820.63,242.362 1820.63,242.079L1820.63,224.646C1820.63,224.362 1820.35,224.646 1820.63,224.646L1824.85,224.646C1825,224.646 1825.13,224.518 1825.13,224.362L1825.13,206.362C1825.13,206.206 1825,206.079 1824.85,206.079L1820.63,206.079C1820.35,206.079 1820.63,206.362 1820.63,206.079L1820.63,188.646C1820.63,188.362 1820.35,188.646 1820.63,188.646L1824.85,188.646C1825,188.646 1825.13,188.518 1825.13,188.362L1825.13,170.362C1825.13,170.206 1825,170.079 1824.85,170.079L1820.63,170.079C1820.35,170.079 1820.63,170.362 1820.63,170.079L1820.63,152.646C1820.63,152.362 1820.35,152.646 1820.63,152.646L1824.85,152.646C1825,152.646 1825.13,152.518 1825.13,152.362L1825.13,134.362C1825.13,134.206 1825,134.079 1824.85,134.079L1820.63,134.079C1820.35,134.079 1820.63,134.362 1820.63,134.079L1820.63,116.646C1820.63,116.362 1820.35,116.646 1820.63,116.646L1824.85,116.646C1825,116.646 1825.13,116.518 1825.13,116.362L1825.13,98.362C1825.13,98.206 1825,98.079 1824.85,98.079L1820.63,98.079C1820.35,98.079 1820.63,98.362 1820.63,98.079L1820.63,80.646C1820.63,80.362 1820.35,80.646 1820.63,80.646L1824.85,80.646C1825,80.646 1825.13,80.518 1825.13,80.362L1825.13,62.362C1825.13,62.206 1825,62.079 1824.85,62.079L1820.63,62.079C1820.35,62.079 1820.63,62.362 1820.63,62.079L1820.63,37.63C1820.63,37.474 1820.5,37.346 1820.35,37.346L1822.44,37.346L1808.19,37.346C1807.91,37.346 1808.19,37.63 1808.19,37.346L1808.19,28.63C1808.19,28.474 1808.07,28.346 1807.91,28.346L1789.91,28.346C1789.76,28.346 1789.63,28.474 1789.63,28.63L1789.63,37.346C1789.63,37.63 1789.91,37.346 1789.63,37.346L1774.2,37.346C1774.05,37.346 1773.92,37.474 1773.92,37.63L1773.92,62.362C1773.92,62.518 1774.05,62.646 1774.2,62.646L1776.25,62.646C1776.54,62.646 1776.25,62.362 1776.25,62.646L1776.25,80.079C1776.25,80.362 1776.54,80.079 1776.25,80.079L1774.2,80.079C1774.05,80.079 1773.92,80.206 1773.92,80.362L1773.92,98.362C1773.92,98.518 1774.05,98.646 1774.2,98.646L1776.25,98.646C1776.54,98.646 1776.25,98.362 1776.25,98.646L1776.25,116.079C1776.25,116.362 1776.54,116.079 1776.25,116.079L1774.2,116.079C1774.05,116.079 1773.92,116.206 1773.92,116.362L1773.92,134.362C1773.92,134.518 1774.05,134.646 1774.2,134.646L1776.25,134.646C1776.54,134.646 1776.25,134.362 1776.25,134.646L1776.25,152.079C1776.25,152.362 1776.54,152.079 1776.25,152.079L1774.2,152.079C1774.05,152.079 1773.92,152.206 1773.92,152.362L1773.92,170.362C1773.92,170.518 1774.05,170.646 1774.2,170.646L1776.25,170.646C1776.54,170.646 1776.25,170.362 1776.25,170.646L1776.25,188.079C1776.25,188.362 1776.54,188.079 1776.25,188.079L1774.2,188.079C1774.05,188.079 1773.92,188.206 1773.92,188.362L1773.92,206.362C1773.92,206.518 1774.05,206.646 1774.2,206.646L1776.25,206.646C1776.54,206.646 1776.25,206.362 1776.25,206.646L1776.25,224.079C1776.25,224.362 1776.54,224.079 1776.25,224.079L1774.2,224.079C1774.05,224.079 1773.92,224.206 1773.92,224.362L1773.92,242.362C1773.92,242.518 1774.05,242.646 1774.2,242.646L1776.25,242.646C1776.54,242.646 1776.25,242.362 1776.25,242.646L1776.25,260.079C1776.25,260.362 1776.54,260.079 1776.25,260.079L1774.2,260.079C1774.05,260.079 1773.92,260.206 1773.92,260.362L1773.92,278.362C1773.92,278.518 1774.05,278.646 1774.2,278.646L1776.25,278.646C1776.54,278.646 1776.25,278.362 1776.25,278.646L1776.25,296.079C1776.25,296.362 1776.54,296.079 1776.25,296.079L1774.2,296.079C1774.05,296.079 1773.92,296.206 1773.92,296.362L1773.92,321.094C1773.92,321.25 1774.05,321.378 1774.2,321.378Z" style="fill:none;fill-rule:nonzero;stroke:black;stroke-width:0.03px;"/>
        </g>
        <g id="p-12">
            <path d="M1829.91,321.378L1846.57,321.378C1846.85,321.378 1846.57,321.094 1846.57,321.378L1846.57,330.094C1846.57,330.25 1846.69,330.378 1846.85,330.378L1864.85,330.378C1865,330.378 1865.13,330.25 1865.13,330.094L1865.13,321.378C1865.13,321.094 1864.85,321.378 1865.13,321.378L1879.37,321.378L1877.28,321.378C1877.44,321.378 1877.57,321.25 1877.57,321.094L1877.57,296.646C1877.57,296.362 1877.28,296.646 1877.57,296.646L1881.78,296.646C1881.94,296.646 1882.07,296.518 1882.07,296.362L1882.07,278.362C1882.07,278.206 1881.94,278.079 1881.78,278.079L1877.57,278.079C1877.28,278.079 1877.57,278.362 1877.57,278.079L1877.57,260.646C1877.57,260.362 1877.28,260.646 1877.57,260.646L1881.78,260.646C1881.94,260.646 1882.07,260.518 1882.07,260.362L1882.07,242.362C1882.07,242.206 1881.94,242.079 1881.78,242.079L1877.57,242.079C1877.28,242.079 1877.57,242.362 1877.57,242.079L1877.57,224.646C1877.57,224.362 1877.28,224.646 1877.57,224.646L1881.78,224.646C1881.94,224.646 1882.07,224.518 1882.07,224.362L1882.07,206.362C1882.07,206.206 1881.94,206.079 1881.78,206.079L1877.57,206.079C1877.28,206.079 1877.57,206.362 1877.57,206.079L1877.57,188.646C1877.57,188.362 1877.28,188.646 1877.57,188.646L1881.78,188.646C1881.94,188.646 1882.07,188.518 1882.07,188.362L1882.07,170.362C1882.07,170.206 1881.94,170.079 1881.78,170.079L1877.57,170.079C1877.28,170.079 1877.57,170.362 1877.57,170.079L1877.57,152.646C1877.57,152.362 1877.28,152.646 1877.57,152.646L1881.78,152.646C1881.94,152.646 1882.07,152.518 1882.07,152.362L1882.07,134.362C1882.07,134.206 1881.94,134.079 1881.78,134.079L1877.57,134.079C1877.28,134.079 1877.57,134.362 1877.57,134.079L1877.57,116.646C1877.57,116.362 1877.28,116.646 1877.57,116.646L1881.78,116.646C1881.94,116.646 1882.07,116.518 1882.07,116.362L1882.07,98.362C1882.07,98.206 1881.94,98.079 1881.78,98.079L1877.57,98.079C1877.28,98.079 1877.57,98.362 1877.57,98.079L1877.57,80.646C1877.57,80.362 1877.28,80.646 1877.57,80.646L1881.78,80.646C1881.94,80.646 1882.07,80.518 1882.07,80.362L1882.07,62.362C1882.07,62.206 1881.94,62.079 1881.78,62.079L1877.57,62.079C1877.28,62.079 1877.57,62.362 1877.57,62.079L1877.57,37.63C1877.57,37.474 1877.44,37.346 1877.28,37.346L1879.37,37.346L1865.13,37.346C1864.85,37.346 1865.13,37.63 1865.13,37.346L1865.13,28.63C1865.13,28.474 1865,28.346 1864.85,28.346L1846.85,28.346C1846.69,28.346 1846.57,28.474 1846.57,28.63L1846.57,37.346C1846.57,37.63 1846.85,37.346 1846.57,37.346L1829.91,37.346C1829.76,37.346 1829.63,37.474 1829.63,37.63L1829.63,62.362C1829.63,62.518 1829.76,62.646 1829.91,62.646L1834.13,62.646C1834.41,62.646 1834.13,62.362 1834.13,62.646L1834.13,80.079C1834.13,80.362 1834.41,80.079 1834.13,80.079L1829.91,80.079C1829.76,80.079 1829.63,80.206 1829.63,80.362L1829.63,98.362C1829.63,98.518 1829.76,98.646 1829.91,98.646L1834.13,98.646C1834.41,98.646 1834.13,98.362 1834.13,98.646L1834.13,116.079C1834.13,116.362 1834.41,116.079 1834.13,116.079L1829.91,116.079C1829.76,116.079 1829.63,116.206 1829.63,116.362L1829.63,134.362C1829.63,134.518 1829.76,134.646 1829.91,134.646L1834.13,134.646C1834.41,134.646 1834.13,134.362 1834.13,134.646L1834.13,152.079C1834.13,152.362 1834.41,152.079 1834.13,152.079L1829.91,152.079C1829.76,152.079 1829.63,152.206 1829.63,152.362L1829.63,170.362C1829.63,170.518 1829.76,170.646 1829.91,170.646L1834.13,170.646C1834.41,170.646 1834.13,170.362 1834.13,170.646L1834.13,188.079C1834.13,188.362 1834.41,188.079 1834.13,188.079L1829.91,188.079C1829.76,188.079 1829.63,188.206 1829.63,188.362L1829.63,206.362C1829.63,206.518 1829.76,206.646 1829.91,206.646L1834.13,206.646C1834.41,206.646 1834.13,206.362 1834.13,206.646L1834.13,224.079C1834.13,224.362 1834.41,224.079 1834.13,224.079L1829.91,224.079C1829.76,224.079 1829.63,224.206 1829.63,224.362L1829.63,242.362C1829.63,242.518 1829.76,242.646 1829.91,242.646L1834.13,242.646C1834.41,242.646 1834.13,242.362 1834.13,242.646L1834.13,260.079C1834.13,260.362 1834.41,260.079 1834.13,260.079L1829.91,260.079C1829.76,260.079 1829.63,260.206 1829.63,260.362L1829.63,278.362C1829.63,278.518 1829.76,278.646 1829.91,278.646L1834.13,278.646C1834.41,278.646 1834.13,278.362 1834.13,278.646L1834.13,296.079C1834.13,296.362 1834.41,296.079 1834.13,296.079L1829.91,296.079C1829.76,296.079 1829.63,296.206 1829.63,296.362L1829.63,321.094C1829.63,321.25 1829.76,321.378 1829.91,321.378Z" style="fill:none;fill-rule:nonzero;stroke:black;stroke-width:0.03px;"/>
        </g>
        <g id="p-13">
            <path d="M1886.85,321.378L1903.5,321.378C1903.79,321.378 1903.5,321.094 1903.5,321.378L1903.5,330.094C1903.5,330.25 1903.63,330.378 1903.79,330.378L1921.79,330.378C1921.94,330.378 1922.07,330.25 1922.07,330.094L1922.07,321.378C1922.07,321.094 1921.79,321.378 1922.07,321.378L1936.31,321.378L1935.16,321.378C1935.32,321.378 1935.44,321.25 1935.44,321.094L1935.44,296.646C1935.44,296.362 1935.16,296.646 1935.44,296.646L1937.49,296.646C1937.65,296.646 1937.78,296.518 1937.78,296.362L1937.78,278.362C1937.78,278.206 1937.65,278.079 1937.49,278.079L1935.44,278.079C1935.16,278.079 1935.44,278.362 1935.44,278.079L1935.44,260.646C1935.44,260.362 1935.16,260.646 1935.44,260.646L1937.49,260.646C1937.65,260.646 1937.78,260.518 1937.78,260.362L1937.78,242.362C1937.78,242.206 1937.65,242.079 1937.49,242.079L1935.44,242.079C1935.16,242.079 1935.44,242.362 1935.44,242.079L1935.44,224.646C1935.44,224.362 1935.16,224.646 1935.44,224.646L1937.49,224.646C1937.65,224.646 1937.78,224.518 1937.78,224.362L1937.78,206.362C1937.78,206.206 1937.65,206.079 1937.49,206.079L1935.44,206.079C1935.16,206.079 1935.44,206.362 1935.44,206.079L1935.44,188.646C1935.44,188.362 1935.16,188.646 1935.44,188.646L1937.49,188.646C1937.65,188.646 1937.78,188.518 1937.78,188.362L1937.78,170.362C1937.78,170.206 1937.65,170.079 1937.49,170.079L1935.44,170.079C1935.16,170.079 1935.44,170.362 1935.44,170.079L1935.44,152.646C1935.44,152.362 1935.16,152.646 1935.44,152.646L1937.49,152.646C1937.65,152.646 1937.78,152.518 1937.78,152.362L1937.78,134.362C1937.78,134.206 1937.65,134.079 1937.49,134.079L1935.44,134.079C1935.16,134.079 1935.44,134.362 1935.44,134.079L1935.44,116.646C1935.44,116.362 1935.16,116.646 1935.44,116.646L1937.49,116.646C1937.65,116.646 1937.78,116.518 1937.78,116.362L1937.78,98.362C1937.78,98.206 1937.65,98.079 1937.49,98.079L1935.44,98.079C1935.16,98.079 1935.44,98.362 1935.44,98.079L1935.44,80.646C1935.44,80.362 1935.16,80.646 1935.44,80.646L1937.49,80.646C1937.65,80.646 1937.78,80.518 1937.78,80.362L1937.78,62.362C1937.78,62.206 1937.65,62.079 1937.49,62.079L1935.44,62.079C1935.16,62.079 1935.44,62.362 1935.44,62.079L1935.44,37.63C1935.44,37.474 1935.32,37.346 1935.16,37.346L1936.31,37.346L1922.07,37.346C1921.79,37.346 1922.07,37.63 1922.07,37.346L1922.07,28.63C1922.07,28.474 1921.94,28.346 1921.79,28.346L1903.79,28.346C1903.63,28.346 1903.5,28.474 1903.5,28.63L1903.5,37.346C1903.5,37.63 1903.79,37.346 1903.5,37.346L1886.85,37.346C1886.69,37.346 1886.57,37.474 1886.57,37.63L1886.57,62.362C1886.57,62.518 1886.69,62.646 1886.85,62.646L1891.07,62.646C1891.35,62.646 1891.07,62.362 1891.07,62.646L1891.07,80.079C1891.07,80.362 1891.35,80.079 1891.07,80.079L1886.85,80.079C1886.69,80.079 1886.57,80.206 1886.57,80.362L1886.57,98.362C1886.57,98.518 1886.69,98.646 1886.85,98.646L1891.07,98.646C1891.35,98.646 1891.07,98.362 1891.07,98.646L1891.07,116.079C1891.07,116.362 1891.35,116.079 1891.07,116.079L1886.85,116.079C1886.69,116.079 1886.57,116.206 1886.57,116.362L1886.57,134.362C1886.57,134.518 1886.69,134.646 1886.85,134.646L1891.07,134.646C1891.35,134.646 1891.07,134.362 1891.07,134.646L1891.07,152.079C1891.07,152.362 1891.35,152.079 1891.07,152.079L1886.85,152.079C1886.69,152.079 1886.57,152.206 1886.57,152.362L1886.57,170.362C1886.57,170.518 1886.69,170.646 1886.85,170.646L1891.07,170.646C1891.35,170.646 1891.07,170.362 1891.07,170.646L1891.07,188.079C1891.07,188.362 1891.35,188.079 1891.07,188.079L1886.85,188.079C1886.69,188.079 1886.57,188.206 1886.57,188.362L1886.57,206.362C1886.57,206.518 1886.69,206.646 1886.85,206.646L1891.07,206.646C1891.35,206.646 1891.07,206.362 1891.07,206.646L1891.07,224.079C1891.07,224.362 1891.35,224.079 1891.07,224.079L1886.85,224.079C1886.69,224.079 1886.57,224.206 1886.57,224.362L1886.57,242.362C1886.57,242.518 1886.69,242.646 1886.85,242.646L1891.07,242.646C1891.35,242.646 1891.07,242.362 1891.07,242.646L1891.07,260.079C1891.07,260.362 1891.35,260.079 1891.07,260.079L1886.85,260.079C1886.69,260.079 1886.57,260.206 1886.57,260.362L1886.57,278.362C1886.57,278.518 1886.69,278.646 1886.85,278.646L1891.07,278.646C1891.35,278.646 1891.07,278.362 1891.07,278.646L1891.07,296.079C1891.07,296.362 1891.35,296.079 1891.07,296.079L1886.85,296.079C1886.69,296.079 1886.57,296.206 1886.57,296.362L1886.57,321.094C1886.57,321.25 1886.69,321.378 1886.85,321.378Z" style="fill:none;fill-rule:nonzero;stroke:black;stroke-width:0.03px;"/>
        </g>
        <g id="p-14">
            <path d="M1942.56,321.378L1962.81,321.378C1963.09,321.378 1962.81,321.094 1962.81,321.378L1962.81,330.094C1962.81,330.25 1962.93,330.378 1963.09,330.378L1981.09,330.378C1981.25,330.378 1981.38,330.25 1981.38,330.094L1981.38,321.378C1981.38,321.094 1981.09,321.378 1981.38,321.378L2000.44,321.378C2000.59,321.378 2000.72,321.25 2000.72,321.094L2000.72,37.63C2000.72,37.474 2000.59,37.346 2000.44,37.346L1981.38,37.346C1981.09,37.346 1981.38,37.63 1981.38,37.346L1981.38,28.63C1981.38,28.474 1981.25,28.346 1981.09,28.346L1963.09,28.346C1962.93,28.346 1962.81,28.474 1962.81,28.63L1962.81,37.346C1962.81,37.63 1963.09,37.346 1962.81,37.346L1942.56,37.346C1942.4,37.346 1942.28,37.474 1942.28,37.63L1942.28,62.362C1942.28,62.518 1942.4,62.646 1942.56,62.646L1944.6,62.646C1944.89,62.646 1944.6,62.362 1944.6,62.646L1944.6,80.079C1944.6,80.362 1944.89,80.079 1944.6,80.079L1942.56,80.079C1942.4,80.079 1942.28,80.206 1942.28,80.362L1942.28,98.362C1942.28,98.518 1942.4,98.646 1942.56,98.646L1944.6,98.646C1944.89,98.646 1944.6,98.362 1944.6,98.646L1944.6,116.079C1944.6,116.362 1944.89,116.079 1944.6,116.079L1942.56,116.079C1942.4,116.079 1942.28,116.206 1942.28,116.362L1942.28,134.362C1942.28,134.518 1942.4,134.646 1942.56,134.646L1944.6,134.646C1944.89,134.646 1944.6,134.362 1944.6,134.646L1944.6,152.079C1944.6,152.362 1944.89,152.079 1944.6,152.079L1942.56,152.079C1942.4,152.079 1942.28,152.206 1942.28,152.362L1942.28,170.362C1942.28,170.518 1942.4,170.646 1942.56,170.646L1944.6,170.646C1944.89,170.646 1944.6,170.362 1944.6,170.646L1944.6,188.079C1944.6,188.362 1944.89,188.079 1944.6,188.079L1942.56,188.079C1942.4,188.079 1942.28,188.206 1942.28,188.362L1942.28,206.362C1942.28,206.518 1942.4,206.646 1942.56,206.646L1944.6,206.646C1944.89,206.646 1944.6,206.362 1944.6,206.646L1944.6,224.079C1944.6,224.362 1944.89,224.079 1944.6,224.079L1942.56,224.079C1942.4,224.079 1942.28,224.206 1942.28,224.362L1942.28,242.362C1942.28,242.518 1942.4,242.646 1942.56,242.646L1944.6,242.646C1944.89,242.646 1944.6,242.362 1944.6,242.646L1944.6,260.079C1944.6,260.362 1944.89,260.079 1944.6,260.079L1942.56,260.079C1942.4,260.079 1942.28,260.206 1942.28,260.362L1942.28,278.362C1942.28,278.518 1942.4,278.646 1942.56,278.646L1944.6,278.646C1944.89,278.646 1944.6,278.362 1944.6,278.646L1944.6,296.079C1944.6,296.362 1944.89,296.079 1944.6,296.079L1942.56,296.079C1942.4,296.079 1942.28,296.206 1942.28,296.362L1942.28,321.094C1942.28,321.25 1942.4,321.378 1942.56,321.378Z" style="fill:none;fill-rule:nonzero;stroke:black;stroke-width:0.03px;"/>
            <g transform="matrix(2.45764,0,0,2.45764,-1810.65,-612.274)">
                <text x="1249.17px" y="444.377px" style="font-family:'ArialMT', 'Arial', sans-serif;font-size:12px;">Kevin Elkhoury</text>
            </g>
        </g>
    </g>
</svg>
