0
SECTION
2
HEADER
9
$ACADVER
1
AC1009
0
ENDSEC
0
SECTION
2
TABLES
0
TABLE
2
VPORT
70
1
0
VPORT
2
ACTIVE
70
0
10
0.0
20
0.0
11
0.0
21
0.0
12
0.0
22
0.0
13
0.0
23
0.0
14
0.0
24
0.0
15
0.0
25
0.0
16
0.0
26
0.0
36
0.0
17
0.0
27
0.0
37
0.0
40
0.0
41
0.0
42
0.0
43
0.0
44
0.0
50
0.0
51
0.0
71
0
72
1000
73
1
74
3
75
0
76
0
77
0
78
0
0
ENDTAB
0
ENDSEC
0
SECTION
2
ENTITIES
0
LINE
8
boundary
62
5
39
2
10
18.008074
20
2.391109
11
21.455776
21
4.210465
0
LINE
8
boundary
62
5
39
2
10
21.455776
20
4.210465
11
20.835764
21
4.740270
0
LINE
8
boundary
62
5
39
2
10
20.835764
20
4.740270
11
14.408827
21
4.746520
0
LINE
8
boundary
62
5
39
2
10
14.408827
20
4.746520
11
14.408827
21
4.861520
0
LINE
8
boundary
62
5
39
2
10
14.408827
20
4.861520
11
20.685806
21
4.861520
0
LINE
8
boundary
62
5
39
2
10
20.685806
20
4.861520
11
16.063939
21
8.817827
0
LINE
8
boundary
62
5
39
2
10
16.063939
20
8.817827
11
9.637002
21
8.824077
0
LINE
8
boundary
62
5
39
2
10
9.637002
20
8.824077
11
9.637002
21
8.939077
0
LINE
8
boundary
62
5
39
2
10
9.637002
20
8.939077
11
15.913980
21
8.939077
0
LINE
8
boundary
62
5
39
2
10
15.913980
20
8.939077
11
13.385914
21
11.106218
0
LINE
8
boundary
62
5
39
2
10
13.385914
20
11.106218
11
13.332296
21
11.152035
0
LINE
8
boundary
62
5
39
2
10
13.332296
20
11.152035
11
13.179888
21
11.282268
0
LINE
8
boundary
62
5
39
2
10
13.179888
20
11.282268
11
13.124188
21
11.329864
0
LINE
8
boundary
62
5
39
2
10
13.124188
20
11.329864
11
12.967754
21
11.463538
0
LINE
8
boundary
62
5
39
2
10
12.967754
20
11.463538
11
12.910146
21
11.512764
0
LINE
8
boundary
62
5
39
2
10
12.910146
20
11.512764
11
12.749977
21
11.649630
0
LINE
8
boundary
62
5
39
2
10
12.749977
20
11.649630
11
12.690645
21
11.700330
0
LINE
8
boundary
62
5
39
2
10
12.690645
20
11.700330
11
12.527039
21
11.840133
0
LINE
8
boundary
62
5
39
2
10
12.527039
20
11.840133
11
12.466172
21
11.892143
0
LINE
8
boundary
62
5
39
2
10
12.466172
20
11.892143
11
12.299431
21
12.034625
0
LINE
8
boundary
62
5
39
2
10
12.299431
20
12.034625
11
12.237227
21
12.087779
0
LINE
8
boundary
62
5
39
2
10
12.237227
20
12.087779
11
12.067656
21
12.232678
0
LINE
8
boundary
62
5
39
2
10
12.067656
20
12.232678
11
12.004317
21
12.286802
0
LINE
8
boundary
62
5
39
2
10
12.004317
20
12.286802
11
11.832224
21
12.433857
0
LINE
8
boundary
62
5
39
2
10
11.832224
20
12.433857
11
11.767956
21
12.488774
0
LINE
8
boundary
62
5
39
2
10
11.767956
20
12.488774
11
11.593653
21
12.637717
0
LINE
8
boundary
62
5
39
2
10
11.593653
20
12.637717
11
11.528668
21
12.693247
0
LINE
8
boundary
62
5
39
2
10
11.528668
20
12.693247
11
11.352471
21
12.843809
0
LINE
8
boundary
62
5
39
2
10
11.352471
20
12.843809
11
11.292114
21
12.895384
0
LINE
8
boundary
62
5
39
2
10
11.292114
20
12.895384
11
6.155834
21
12.901634
0
LINE
8
boundary
62
5
39
2
10
6.155834
20
12.901634
11
6.155834
21
13.016634
0
LINE
8
boundary
62
5
39
2
10
6.155834
20
13.016634
11
11.142155
21
13.016634
0
LINE
8
boundary
62
5
39
2
10
11.142155
20
13.016634
11
11.109211
21
13.051676
0
LINE
8
boundary
62
5
39
2
10
11.109211
20
13.051676
11
11.043432
21
13.107885
0
LINE
8
boundary
62
5
39
2
10
11.043432
20
13.107885
11
10.864407
21
13.260863
0
LINE
8
boundary
62
5
39
2
10
10.864407
20
13.260863
11
10.798553
21
13.317136
0
LINE
8
boundary
62
5
39
2
10
10.798553
20
13.317136
11
10.618598
21
13.470908
0
LINE
8
boundary
62
5
39
2
10
10.618598
20
13.470908
11
10.552886
21
13.527059
0
LINE
8
boundary
62
5
39
2
10
10.552886
20
13.527059
11
10.372330
21
13.681346
0
LINE
8
boundary
62
5
39
2
10
10.372330
20
13.681346
11
10.306975
21
13.737192
0
LINE
8
boundary
62
5
39
2
10
10.306975
20
13.737192
11
10.126145
21
13.891712
0
LINE
8
boundary
62
5
39
2
10
10.126145
20
13.891712
11
10.061359
21
13.947073
0
LINE
8
boundary
62
5
39
2
10
10.061359
20
13.947073
11
9.880583
21
14.101547
0
LINE
8
boundary
62
5
39
2
10
9.880583
20
14.101547
11
9.816576
21
14.156241
0
LINE
8
boundary
62
5
39
2
10
9.816576
20
14.156241
11
9.636189
21
14.310384
0
LINE
8
boundary
62
5
39
2
10
9.636189
20
14.310384
11
9.573168
21
14.364235
0
LINE
8
boundary
62
5
39
2
10
9.573168
20
14.364235
11
9.393499
21
14.517764
0
LINE
8
boundary
62
5
39
2
10
9.393499
20
14.517764
11
9.331667
21
14.570600
0
LINE
8
boundary
62
5
39
2
10
9.331667
20
14.570600
11
9.153051
21
14.723228
0
LINE
8
boundary
62
5
39
2
10
9.153051
20
14.723228
11
9.092603
21
14.774881
0
LINE
8
boundary
62
5
39
2
10
9.092603
20
14.774881
11
8.915373
21
14.926326
0
LINE
8
boundary
62
5
39
2
10
8.915373
20
14.926326
11
8.856501
21
14.976632
0
LINE
8
boundary
62
5
39
2
10
8.856501
20
14.976632
11
8.680991
21
15.126607
0
LINE
8
boundary
62
5
39
2
10
8.680991
20
15.126607
11
8.623877
21
15.175411
0
LINE
8
boundary
62
5
39
2
10
8.623877
20
15.175411
11
8.450419
21
15.323632
0
LINE
8
boundary
62
5
39
2
10
8.450419
20
15.323632
11
8.395240
21
15.370783
0
LINE
8
boundary
62
5
39
2
10
8.395240
20
15.370783
11
8.224168
21
15.516965
0
LINE
8
boundary
62
5
39
2
10
8.224168
20
15.516965
11
8.171089
21
15.562322
0
LINE
8
boundary
62
5
39
2
10
8.171089
20
15.562322
11
8.002738
21
15.706179
0
LINE
8
boundary
62
5
39
2
10
8.002738
20
15.706179
11
7.951914
21
15.749608
0
LINE
8
boundary
62
5
39
2
10
7.951914
20
15.749608
11
7.786615
21
15.890857
0
LINE
8
boundary
62
5
39
2
10
7.786615
20
15.890857
11
7.738192
21
15.932235
0
LINE
8
boundary
62
5
39
2
10
7.738192
20
15.932235
11
7.576276
21
16.070594
0
LINE
8
boundary
62
5
39
2
10
7.576276
20
16.070594
11
7.522252
21
16.116757
0
LINE
8
boundary
62
5
39
2
10
7.522252
20
16.116757
11
7.408321
21
16.214112
0
LINE
8
boundary
62
5
39
2
10
7.408321
20
16.214112
11
7.293661
21
16.312090
0
LINE
8
boundary
62
5
39
2
10
7.293661
20
16.312090
11
7.178137
21
16.410806
0
LINE
8
boundary
62
5
39
2
10
7.178137
20
16.410806
11
7.061610
21
16.510379
0
LINE
8
boundary
62
5
39
2
10
7.061610
20
16.510379
11
6.943937
21
16.610932
0
LINE
8
boundary
62
5
39
2
10
6.943937
20
16.610932
11
6.824970
21
16.712590
0
LINE
8
boundary
62
5
39
2
10
6.824970
20
16.712590
11
6.704552
21
16.815488
0
LINE
8
boundary
62
5
39
2
10
6.704552
20
16.815488
11
6.582522
21
16.919763
0
LINE
8
boundary
62
5
39
2
10
6.582522
20
16.919763
11
6.520289
21
16.972941
0
LINE
8
boundary
62
5
39
2
10
6.520289
20
16.972941
11
5.412761
21
16.979191
0
LINE
8
boundary
62
5
39
2
10
5.412761
20
16.979191
11
5.412761
21
17.094191
0
LINE
8
boundary
62
5
39
2
10
5.412761
20
17.094191
11
6.370330
21
17.094191
0
LINE
8
boundary
62
5
39
2
10
6.370330
20
17.094191
11
6.332938
21
17.133034
0
LINE
8
boundary
62
5
39
2
10
6.332938
20
17.133034
11
6.205015
21
17.242345
0
LINE
8
boundary
62
5
39
2
10
6.205015
20
17.242345
11
6.074740
21
17.353666
0
LINE
8
boundary
62
5
39
2
10
6.074740
20
17.353666
11
5.941903
21
17.467176
0
LINE
8
boundary
62
5
39
2
10
5.941903
20
17.467176
11
5.806275
21
17.583072
0
LINE
8
boundary
62
5
39
2
10
5.806275
20
17.583072
11
5.667610
21
17.701561
0
LINE
8
boundary
62
5
39
2
10
5.667610
20
17.701561
11
5.525651
21
17.822867
0
LINE
8
boundary
62
5
39
2
10
5.525651
20
17.822867
11
5.380112
21
17.947230
0
LINE
8
boundary
62
5
39
2
10
5.380112
20
17.947230
11
5.230692
21
18.074911
0
LINE
8
boundary
62
5
39
2
10
5.230692
20
18.074911
11
5.197107
21
18.044090
0
LINE
8
boundary
62
5
39
2
10
5.197107
20
18.044090
11
5.179505
21
18.023030
0
LINE
8
boundary
62
5
39
2
10
5.179505
20
18.023030
11
4.197111
21
16.847670
0
LINE
8
boundary
62
5
39
2
10
4.197111
20
16.847670
11
3.583735
21
16.099138
0
LINE
8
boundary
62
5
39
2
10
3.583735
20
16.099138
11
3.212191
21
15.645724
0
LINE
8
boundary
62
5
39
2
10
3.212191
20
15.645724
11
2.603318
21
14.887636
0
LINE
8
boundary
62
5
39
2
10
2.603318
20
14.887636
11
2.244523
21
14.440911
0
LINE
8
boundary
62
5
39
2
10
2.244523
20
14.440911
11
2.035464
21
14.175249
0
LINE
8
boundary
62
5
39
2
10
2.035464
20
14.175249
11
1.296237
21
13.235877
0
LINE
8
boundary
62
5
39
2
10
1.296237
20
13.235877
11
0.549823
21
12.267364
0
LINE
8
boundary
62
5
39
2
10
0.549823
20
12.267364
11
0.369423
21
12.033286
0
LINE
8
boundary
62
5
39
2
10
0.369423
20
12.033286
11
0.062500
21
11.626398
0
LINE
8
boundary
62
5
39
2
10
0.062500
20
11.626398
11
0.140516
21
11.559733
0
LINE
8
boundary
62
5
39
2
10
0.140516
20
11.559733
11
0.259474
21
11.458082
0
LINE
8
boundary
62
5
39
2
10
0.259474
20
11.458082
11
0.377408
21
11.357307
0
LINE
8
boundary
62
5
39
2
10
0.377408
20
11.357307
11
0.494461
21
11.257284
0
LINE
8
boundary
62
5
39
2
10
0.494461
20
11.257284
11
0.610768
21
11.157899
0
LINE
8
boundary
62
5
39
2
10
0.610768
20
11.157899
11
0.635848
21
11.136469
0
LINE
8
boundary
62
5
39
2
10
0.635848
20
11.136469
11
0.756436
21
11.033425
0
LINE
8
boundary
62
5
39
2
10
0.756436
20
11.033425
11
0.786565
21
11.007679
0
LINE
8
boundary
62
5
39
2
10
0.786565
20
11.007679
11
0.911245
21
10.901140
0
LINE
8
boundary
62
5
39
2
10
0.911245
20
10.901140
11
0.946281
21
10.871201
0
LINE
8
boundary
62
5
39
2
10
0.946281
20
10.871201
11
1.074851
21
10.761337
0
LINE
8
boundary
62
5
39
2
10
1.074851
20
10.761337
11
1.114642
21
10.727336
0
LINE
8
boundary
62
5
39
2
10
1.114642
20
10.727336
11
1.246897
21
10.614323
0
LINE
8
boundary
62
5
39
2
10
1.246897
20
10.614323
11
1.291277
21
10.576399
0
LINE
8
boundary
62
5
39
2
10
1.291277
20
10.576399
11
1.427000
21
10.460423
0
LINE
8
boundary
62
5
39
2
10
1.427000
20
10.460423
11
1.475799
21
10.418725
0
LINE
8
boundary
62
5
39
2
10
1.475799
20
10.418725
11
1.614765
21
10.299977
0
LINE
8
boundary
62
5
39
2
10
1.614765
20
10.299977
11
1.667798
21
10.254660
0
LINE
8
boundary
62
5
39
2
10
1.667798
20
10.254660
11
1.809777
21
10.133338
0
LINE
8
boundary
62
5
39
2
10
1.809777
20
10.133338
11
1.866851
21
10.084568
0
LINE
8
boundary
62
5
39
2
10
1.866851
20
10.084568
11
2.011605
21
9.960874
0
LINE
8
boundary
62
5
39
2
10
2.011605
20
9.960874
11
2.047477
21
9.930221
0
LINE
8
boundary
62
5
39
2
10
2.047477
20
9.930221
11
2.078500
21
9.903712
0
LINE
8
boundary
62
5
39
2
10
2.078500
20
9.903712
11
2.257817
21
9.750485
0
LINE
8
boundary
62
5
39
2
10
2.257817
20
9.750485
11
2.291127
21
9.722021
0
LINE
8
boundary
62
5
39
2
10
2.291127
20
9.722021
11
2.473939
21
9.565807
0
LINE
8
boundary
62
5
39
2
10
2.473939
20
9.565807
11
2.509423
21
9.535485
0
LINE
8
boundary
62
5
39
2
10
2.509423
20
9.535485
11
2.695370
21
9.376593
0
LINE
8
boundary
62
5
39
2
10
2.695370
20
9.376593
11
2.732901
21
9.344522
0
LINE
8
boundary
62
5
39
2
10
2.732901
20
9.344522
11
2.921621
21
9.183260
0
LINE
8
boundary
62
5
39
2
10
2.921621
20
9.183260
11
2.961061
21
9.149558
0
LINE
8
boundary
62
5
39
2
10
2.961061
20
9.149558
11
3.152192
21
8.986235
0
LINE
8
boundary
62
5
39
2
10
3.152192
20
8.986235
11
3.193392
21
8.951029
0
LINE
8
boundary
62
5
39
2
10
3.193392
20
8.951029
11
3.386574
21
8.785954
0
LINE
8
boundary
62
5
39
2
10
3.386574
20
8.785954
11
3.429375
21
8.749380
0
LINE
8
boundary
62
5
39
2
10
3.429375
20
8.749380
11
3.624252
21
8.582856
0
LINE
8
boundary
62
5
39
2
10
3.624252
20
8.582856
11
3.668487
21
8.545058
0
LINE
8
boundary
62
5
39
2
10
3.668487
20
8.545058
11
3.864700
21
8.377392
0
LINE
8
boundary
62
5
39
2
10
3.864700
20
8.377392
11
3.910194
21
8.338517
0
LINE
8
boundary
62
5
39
2
10
3.910194
20
8.338517
11
4.107390
21
8.170011
0
LINE
8
boundary
62
5
39
2
10
4.107390
20
8.170011
11
4.153961
21
8.130216
0
LINE
8
boundary
62
5
39
2
10
4.153961
20
8.130216
11
4.351785
21
7.961175
0
LINE
8
boundary
62
5
39
2
10
4.351785
20
7.961175
11
4.399246
21
7.920619
0
LINE
8
boundary
62
5
39
2
10
4.399246
20
7.920619
11
4.597347
21
7.751340
0
LINE
8
boundary
62
5
39
2
10
4.597347
20
7.751340
11
4.645507
21
7.710187
0
LINE
8
boundary
62
5
39
2
10
4.645507
20
7.710187
11
4.843532
21
7.540973
0
LINE
8
boundary
62
5
39
2
10
4.843532
20
7.540973
11
4.892196
21
7.499390
0
LINE
8
boundary
62
5
39
2
10
4.892196
20
7.499390
11
5.089800
21
7.330536
0
LINE
8
boundary
62
5
39
2
10
5.089800
20
7.330536
11
5.138770
21
7.288690
0
LINE
8
boundary
62
5
39
2
10
5.138770
20
7.288690
11
5.335608
21
7.120491
0
LINE
8
boundary
62
5
39
2
10
5.335608
20
7.120491
11
5.384685
21
7.078555
0
LINE
8
boundary
62
5
39
2
10
5.384685
20
7.078555
11
5.580412
21
6.911304
0
LINE
8
boundary
62
5
39
2
10
5.580412
20
6.911304
11
5.629395
21
6.869448
0
LINE
8
boundary
62
5
39
2
10
5.629395
20
6.869448
11
5.823673
21
6.703436
0
LINE
8
boundary
62
5
39
2
10
5.823673
20
6.703436
11
5.872363
21
6.661830
0
LINE
8
boundary
62
5
39
2
10
5.872363
20
6.661830
11
6.064854
21
6.497345
0
LINE
8
boundary
62
5
39
2
10
6.064854
20
6.497345
11
6.113053
21
6.456159
0
LINE
8
boundary
62
5
39
2
10
6.113053
20
6.456159
11
6.303425
21
6.293485
0
LINE
8
boundary
62
5
39
2
10
6.303425
20
6.293485
11
6.350936
21
6.252886
0
LINE
8
boundary
62
5
39
2
10
6.350936
20
6.252886
11
6.538857
21
6.092306
0
LINE
8
boundary
62
5
39
2
10
6.538857
20
6.092306
11
6.585488
21
6.052460
0
LINE
8
boundary
62
5
39
2
10
6.585488
20
6.052460
11
6.770632
21
5.894253
0
LINE
8
boundary
62
5
39
2
10
6.770632
20
5.894253
11
6.816194
21
5.855320
0
LINE
8
boundary
62
5
39
2
10
6.816194
20
5.855320
11
6.998240
21
5.699760
0
LINE
8
boundary
62
5
39
2
10
6.998240
20
5.699760
11
7.042550
21
5.661897
0
LINE
8
boundary
62
5
39
2
10
7.042550
20
5.661897
11
7.221179
21
5.509258
0
LINE
8
boundary
62
5
39
2
10
7.221179
20
5.509258
11
7.264061
21
5.472615
0
LINE
8
boundary
62
5
39
2
10
7.264061
20
5.472615
11
7.438955
21
5.323166
0
LINE
8
boundary
62
5
39
2
10
7.438955
20
5.323166
11
7.480241
21
5.287888
0
LINE
8
boundary
62
5
39
2
10
7.480241
20
5.287888
11
7.651089
21
5.141896
0
LINE
8
boundary
62
5
39
2
10
7.651089
20
5.141896
11
7.690619
21
5.108118
0
LINE
8
boundary
62
5
39
2
10
7.690619
20
5.108118
11
7.857115
21
4.965846
0
LINE
8
boundary
62
5
39
2
10
7.857115
20
4.965846
11
13.595332
21
0.062500
0
LINE
8
boundary
62
5
39
2
10
13.595332
20
0.062500
11
14.732742
21
0.662712
0
LINE
8
boundary
62
5
39
2
10
14.732742
20
0.662712
11
13.886106
21
0.668962
0
LINE
8
boundary
62
5
39
2
10
13.886106
20
0.668962
11
13.886106
21
0.783962
0
LINE
8
boundary
62
5
39
2
10
13.886106
20
0.783962
11
14.962512
21
0.783962
0
LINE
8
boundary
62
5
39
2
10
14.962512
20
0.783962
11
18.008074
21
2.391109
0
LINE
8
annotation
62
1
39
211
10
13.675493
20
0.626461
11
13.586668
21
0.626461
0
LINE
8
annotation
62
1
39
211
10
13.586668
20
0.626461
11
13.668745
21
0.758594
0
LINE
8
annotation
62
1
39
211
10
13.668745
20
0.758594
11
13.668745
21
0.758594
0
LINE
8
annotation
62
1
39
211
10
13.668745
20
0.758594
11
13.668843
21
0.758716
0
LINE
8
annotation
62
1
39
211
10
13.668843
20
0.758716
11
13.668938
21
0.758838
0
LINE
8
annotation
62
1
39
211
10
13.668938
20
0.758838
11
13.669028
21
0.758962
0
LINE
8
annotation
62
1
39
211
10
13.669028
20
0.758962
11
13.669116
21
0.759090
0
LINE
8
annotation
62
1
39
211
10
13.669116
20
0.759090
11
13.669202
21
0.759222
0
LINE
8
annotation
62
1
39
211
10
13.669202
20
0.759222
11
13.669286
21
0.759359
0
LINE
8
annotation
62
1
39
211
10
13.669286
20
0.759359
11
13.669369
21
0.759502
0
LINE
8
annotation
62
1
39
211
10
13.669369
20
0.759502
11
13.669452
21
0.759652
0
LINE
8
annotation
62
1
39
211
10
13.669452
20
0.759652
11
13.669536
21
0.759811
0
LINE
8
annotation
62
1
39
211
10
13.669536
20
0.759811
11
13.669536
21
0.759811
0
LINE
8
annotation
62
1
39
211
10
13.669536
20
0.759811
11
13.672924
21
0.767087
0
LINE
8
annotation
62
1
39
211
10
13.672924
20
0.767087
11
13.674904
21
0.774630
0
LINE
8
annotation
62
1
39
211
10
13.674904
20
0.774630
11
13.675523
21
0.782268
0
LINE
8
annotation
62
1
39
211
10
13.675523
20
0.782268
11
13.674830
21
0.789832
0
LINE
8
annotation
62
1
39
211
10
13.674830
20
0.789832
11
13.672874
21
0.797150
0
LINE
8
annotation
62
1
39
211
10
13.672874
20
0.797150
11
13.669702
21
0.804054
0
LINE
8
annotation
62
1
39
211
10
13.669702
20
0.804054
11
13.665363
21
0.810371
0
LINE
8
annotation
62
1
39
211
10
13.665363
20
0.810371
11
13.659907
21
0.815932
0
LINE
8
annotation
62
1
39
211
10
13.659907
20
0.815932
11
13.653381
21
0.820566
0
LINE
8
annotation
62
1
39
211
10
13.653381
20
0.820566
11
13.653381
21
0.820566
0
LINE
8
annotation
62
1
39
211
10
13.653381
20
0.820566
11
13.646084
21
0.823907
0
LINE
8
annotation
62
1
39
211
10
13.646084
20
0.823907
11
13.638530
21
0.825856
0
LINE
8
annotation
62
1
39
211
10
13.638530
20
0.825856
11
13.630888
21
0.826457
0
LINE
8
annotation
62
1
39
211
10
13.630888
20
0.826457
11
13.623325
21
0.825755
0
LINE
8
annotation
62
1
39
211
10
13.623325
20
0.825755
11
13.616011
21
0.823793
0
LINE
8
annotation
62
1
39
211
10
13.616011
20
0.823793
11
13.609116
21
0.820615
0
LINE
8
annotation
62
1
39
211
10
13.609116
20
0.820615
11
13.602807
21
0.816265
0
LINE
8
annotation
62
1
39
211
10
13.602807
20
0.816265
11
13.597254
21
0.810786
0
LINE
8
annotation
62
1
39
211
10
13.597254
20
0.810786
11
13.592626
21
0.804223
0
LINE
8
annotation
62
1
39
211
10
13.592626
20
0.804223
11
13.586794
21
0.793035
0
LINE
8
annotation
62
1
39
211
10
14.109390
20
4.704026
11
14.153802
21
4.704026
0
LINE
8
annotation
62
1
39
211
10
14.153802
20
4.704026
11
14.153802
21
4.704026
0
LINE
8
annotation
62
1
39
211
10
14.153802
20
4.704026
11
14.161790
21
4.704742
0
LINE
8
annotation
62
1
39
211
10
14.161790
20
4.704742
11
14.169306
21
4.706807
0
LINE
8
annotation
62
1
39
211
10
14.169306
20
4.706807
11
14.176226
21
4.710094
0
LINE
8
annotation
62
1
39
211
10
14.176226
20
4.710094
11
14.182424
21
4.714476
0
LINE
8
annotation
62
1
39
211
10
14.182424
20
4.714476
11
14.187775
21
4.719827
0
LINE
8
annotation
62
1
39
211
10
14.187775
20
4.719827
11
14.192155
21
4.726019
0
LINE
8
annotation
62
1
39
211
10
14.192155
20
4.726019
11
14.195438
21
4.732925
0
LINE
8
annotation
62
1
39
211
10
14.195438
20
4.732925
11
14.197500
21
4.740420
0
LINE
8
annotation
62
1
39
211
10
14.197500
20
4.740420
11
14.198215
21
4.748375
0
LINE
8
annotation
62
1
39
211
10
14.198215
20
4.748375
11
14.198215
21
4.770613
0
LINE
8
annotation
62
1
39
211
10
14.198215
20
4.770613
11
14.198215
21
4.770613
0
LINE
8
annotation
62
1
39
211
10
14.198215
20
4.770613
11
14.197500
21
4.778566
0
LINE
8
annotation
62
1
39
211
10
14.197500
20
4.778566
11
14.195438
21
4.786058
0
LINE
8
annotation
62
1
39
211
10
14.195438
20
4.786058
11
14.192155
21
4.792964
0
LINE
8
annotation
62
1
39
211
10
14.192155
20
4.792964
11
14.187775
21
4.799157
0
LINE
8
annotation
62
1
39
211
10
14.187775
20
4.799157
11
14.182424
21
4.804508
0
LINE
8
annotation
62
1
39
211
10
14.182424
20
4.804508
11
14.176226
21
4.808891
0
LINE
8
annotation
62
1
39
211
10
14.176226
20
4.808891
11
14.169306
21
4.812180
0
LINE
8
annotation
62
1
39
211
10
14.169306
20
4.812180
11
14.161790
21
4.814246
0
LINE
8
annotation
62
1
39
211
10
14.161790
20
4.814246
11
14.153802
21
4.814963
0
LINE
8
annotation
62
1
39
211
10
14.153802
20
4.814963
11
14.131565
21
4.814963
0
LINE
8
annotation
62
1
39
211
10
14.131565
20
4.814963
11
14.153802
21
4.814963
0
LINE
8
annotation
62
1
39
211
10
14.153802
20
4.814963
11
14.153802
21
4.814963
0
LINE
8
annotation
62
1
39
211
10
14.153802
20
4.814963
11
14.161790
21
4.815680
0
LINE
8
annotation
62
1
39
211
10
14.161790
20
4.815680
11
14.169306
21
4.817747
0
LINE
8
annotation
62
1
39
211
10
14.169306
20
4.817747
11
14.176226
21
4.821039
0
LINE
8
annotation
62
1
39
211
10
14.176226
20
4.821039
11
14.182424
21
4.825428
0
LINE
8
annotation
62
1
39
211
10
14.182424
20
4.825428
11
14.187775
21
4.830790
0
LINE
8
annotation
62
1
39
211
10
14.187775
20
4.830790
11
14.192155
21
4.836998
0
LINE
8
annotation
62
1
39
211
10
14.192155
20
4.836998
11
14.195438
21
4.843926
0
LINE
8
annotation
62
1
39
211
10
14.195438
20
4.843926
11
14.197500
21
4.851448
0
LINE
8
annotation
62
1
39
211
10
14.197500
20
4.851448
11
14.198215
21
4.859438
0
LINE
8
annotation
62
1
39
211
10
14.198215
20
4.859438
11
14.198215
21
4.859438
0
LINE
8
annotation
62
1
39
211
10
14.198215
20
4.859438
11
14.197500
21
4.867390
0
LINE
8
annotation
62
1
39
211
10
14.197500
20
4.867390
11
14.195438
21
4.874883
0
LINE
8
annotation
62
1
39
211
10
14.195438
20
4.874883
11
14.192155
21
4.881789
0
LINE
8
annotation
62
1
39
211
10
14.192155
20
4.881789
11
14.187775
21
4.887981
0
LINE
8
annotation
62
1
39
211
10
14.187775
20
4.887981
11
14.182424
21
4.893333
0
LINE
8
annotation
62
1
39
211
10
14.182424
20
4.893333
11
14.176226
21
4.897716
0
LINE
8
annotation
62
1
39
211
10
14.176226
20
4.897716
11
14.169306
21
4.901004
0
LINE
8
annotation
62
1
39
211
10
14.169306
20
4.901004
11
14.161790
21
4.903071
0
LINE
8
annotation
62
1
39
211
10
14.161790
20
4.903071
11
14.153802
21
4.903787
0
LINE
8
annotation
62
1
39
211
10
14.153802
20
4.903787
11
14.109390
21
4.903787
0
LINE
8
annotation
62
1
39
211
10
9.437502
20
8.826039
11
9.326452
21
8.826039
0
LINE
8
annotation
62
1
39
211
10
9.326452
20
8.826039
11
9.370802
21
8.981577
0
LINE
8
annotation
62
1
39
211
10
9.404215
20
8.781577
11
9.404215
21
8.870402
0
LINE
8
annotation
62
1
39
211
10
5.856396
20
12.859134
11
5.900809
21
12.859134
0
LINE
8
annotation
62
1
39
211
10
5.900809
20
12.859134
11
5.900809
21
12.859134
0
LINE
8
annotation
62
1
39
211
10
5.900809
20
12.859134
11
5.908780
21
12.859851
0
LINE
8
annotation
62
1
39
211
10
5.908780
20
12.859851
11
5.916287
21
12.861917
0
LINE
8
annotation
62
1
39
211
10
5.916287
20
12.861917
11
5.923204
21
12.865207
0
LINE
8
annotation
62
1
39
211
10
5.923204
20
12.865207
11
5.929404
21
12.869595
0
LINE
8
annotation
62
1
39
211
10
5.929404
20
12.869595
11
5.934761
21
12.874954
0
LINE
8
annotation
62
1
39
211
10
5.934761
20
12.874954
11
5.939147
21
12.881160
0
LINE
8
annotation
62
1
39
211
10
5.939147
20
12.881160
11
5.942437
21
12.888086
0
LINE
8
annotation
62
1
39
211
10
5.942437
20
12.888086
11
5.944504
21
12.895607
0
LINE
8
annotation
62
1
39
211
10
5.944504
20
12.895607
11
5.945221
21
12.903597
0
LINE
8
annotation
62
1
39
211
10
5.945221
20
12.903597
11
5.945221
21
12.925721
0
LINE
8
annotation
62
1
39
211
10
5.945221
20
12.925721
11
5.945221
21
12.925721
0
LINE
8
annotation
62
1
39
211
10
5.945221
20
12.925721
11
5.944504
21
12.933707
0
LINE
8
annotation
62
1
39
211
10
5.944504
20
12.933707
11
5.942439
21
12.941217
0
LINE
8
annotation
62
1
39
211
10
5.942439
20
12.941217
11
5.939150
21
12.948128
0
LINE
8
annotation
62
1
39
211
10
5.939150
20
12.948128
11
5.934765
21
12.954316
0
LINE
8
annotation
62
1
39
211
10
5.934765
20
12.954316
11
5.929409
21
12.959657
0
LINE
8
annotation
62
1
39
211
10
5.929409
20
12.959657
11
5.923210
21
12.964027
0
LINE
8
annotation
62
1
39
211
10
5.923210
20
12.964027
11
5.916292
21
12.967302
0
LINE
8
annotation
62
1
39
211
10
5.916292
20
12.967302
11
5.908783
21
12.969358
0
LINE
8
annotation
62
1
39
211
10
5.908783
20
12.969358
11
5.900809
21
12.970071
0
LINE
8
annotation
62
1
39
211
10
5.900809
20
12.970071
11
5.856396
21
12.970071
0
LINE
8
annotation
62
1
39
211
10
5.856396
20
12.970071
11
5.856396
21
13.059134
0
LINE
8
annotation
62
1
39
211
10
5.856396
20
13.059134
11
5.945221
21
13.059134
0
LINE
8
annotation
62
1
39
211
10
5.180036
20
17.136691
11
5.180036
21
17.136691
0
LINE
8
annotation
62
1
39
211
10
5.180036
20
17.136691
11
5.167313
21
17.131921
0
LINE
8
annotation
62
1
39
211
10
5.167313
20
17.131921
11
5.155638
21
17.125493
0
LINE
8
annotation
62
1
39
211
10
5.155638
20
17.125493
11
5.145131
21
17.117570
0
LINE
8
annotation
62
1
39
211
10
5.145131
20
17.117570
11
5.135912
21
17.108311
0
LINE
8
annotation
62
1
39
211
10
5.135912
20
17.108311
11
5.128100
21
17.097878
0
LINE
8
annotation
62
1
39
211
10
5.128100
20
17.097878
11
5.121815
21
17.086433
0
LINE
8
annotation
62
1
39
211
10
5.121815
20
17.086433
11
5.117178
21
17.074135
0
LINE
8
annotation
62
1
39
211
10
5.117178
20
17.074135
11
5.114307
21
17.061147
0
LINE
8
annotation
62
1
39
211
10
5.114307
20
17.061147
11
5.113324
21
17.047628
0
LINE
8
annotation
62
1
39
211
10
5.113324
20
17.047628
11
5.113324
21
16.981154
0
LINE
8
annotation
62
1
39
211
10
5.113324
20
16.981154
11
5.113324
21
16.981154
0
LINE
8
annotation
62
1
39
211
10
5.113324
20
16.981154
11
5.114041
21
16.973164
0
LINE
8
annotation
62
1
39
211
10
5.114041
20
16.973164
11
5.116108
21
16.965644
0
LINE
8
annotation
62
1
39
211
10
5.116108
20
16.965644
11
5.119398
21
16.958717
0
LINE
8
annotation
62
1
39
211
10
5.119398
20
16.958717
11
5.123784
21
16.952512
0
LINE
8
annotation
62
1
39
211
10
5.123784
20
16.952512
11
5.129141
21
16.947152
0
LINE
8
annotation
62
1
39
211
10
5.129141
20
16.947152
11
5.135341
21
16.942764
0
LINE
8
annotation
62
1
39
211
10
5.135341
20
16.942764
11
5.142258
21
16.939474
0
LINE
8
annotation
62
1
39
211
10
5.142258
20
16.939474
11
5.149765
21
16.937408
0
LINE
8
annotation
62
1
39
211
10
5.149765
20
16.937408
11
5.157736
21
16.936691
0
LINE
8
annotation
62
1
39
211
10
5.157736
20
16.936691
11
5.157736
21
16.936691
0
LINE
8
annotation
62
1
39
211
10
5.157736
20
16.936691
11
5.165724
21
16.937408
0
LINE
8
annotation
62
1
39
211
10
5.165724
20
16.937408
11
5.173240
21
16.939474
0
LINE
8
annotation
62
1
39
211
10
5.173240
20
16.939474
11
5.180160
21
16.942764
0
LINE
8
annotation
62
1
39
211
10
5.180160
20
16.942764
11
5.186358
21
16.947152
0
LINE
8
annotation
62
1
39
211
10
5.186358
20
16.947152
11
5.191709
21
16.952512
0
LINE
8
annotation
62
1
39
211
10
5.191709
20
16.952512
11
5.196089
21
16.958717
0
LINE
8
annotation
62
1
39
211
10
5.196089
20
16.958717
11
5.199372
21
16.965644
0
LINE
8
annotation
62
1
39
211
10
5.199372
20
16.965644
11
5.201434
21
16.973164
0
LINE
8
annotation
62
1
39
211
10
5.201434
20
16.973164
11
5.202149
21
16.981154
0
LINE
8
annotation
62
1
39
211
10
5.202149
20
16.981154
11
5.202149
21
17.003278
0
LINE
8
annotation
62
1
39
211
10
5.202149
20
17.003278
11
5.202149
21
17.003278
0
LINE
8
annotation
62
1
39
211
10
5.202149
20
17.003278
11
5.201434
21
17.011264
0
LINE
8
annotation
62
1
39
211
10
5.201434
20
17.011264
11
5.199372
21
17.018774
0
LINE
8
annotation
62
1
39
211
10
5.199372
20
17.018774
11
5.196089
21
17.025686
0
LINE
8
annotation
62
1
39
211
10
5.196089
20
17.025686
11
5.191709
21
17.031874
0
LINE
8
annotation
62
1
39
211
10
5.191709
20
17.031874
11
5.186358
21
17.037215
0
LINE
8
annotation
62
1
39
211
10
5.186358
20
17.037215
11
5.180160
21
17.041585
0
LINE
8
annotation
62
1
39
211
10
5.180160
20
17.041585
11
5.173240
21
17.044859
0
LINE
8
annotation
62
1
39
211
10
5.173240
20
17.044859
11
5.165724
21
17.046915
0
LINE
8
annotation
62
1
39
211
10
5.165724
20
17.046915
11
5.157736
21
17.047628
0
LINE
8
annotation
62
1
39
211
10
5.157736
20
17.047628
11
5.113324
21
17.047628
0
LINE
8
annotation
62
1
39
211
10
5.107761
20
16.911691
11
5.207761
21
16.911691
0
LINE
8
annotation
62
1
39
211
10
6.168257
20
9.637492
11
5.312912
21
9.637492
0
LINE
8
annotation
62
1
39
211
10
5.312912
20
9.637492
11
6.168257
21
11.177962
0
LINE
8
annotation
62
1
39
211
10
6.168257
20
11.177962
11
5.312912
21
11.177962
0
LINE
8
annotation
62
1
39
211
10
7.588380
20
10.407727
11
6.746078
21
10.407727
0
LINE
8
annotation
62
1
39
211
10
8.850187
20
9.637479
11
8.166028
21
9.637479
0
LINE
8
annotation
62
1
39
211
10
8.166028
20
9.637479
11
8.798214
21
10.655217
0
LINE
8
annotation
62
1
39
211
10
8.798214
20
10.655217
11
8.798214
21
10.655217
0
LINE
8
annotation
62
1
39
211
10
8.798214
20
10.655217
11
8.798969
21
10.656152
0
LINE
8
annotation
62
1
39
211
10
8.798969
20
10.656152
11
8.799694
21
10.657096
0
LINE
8
annotation
62
1
39
211
10
8.799694
20
10.657096
11
8.800393
21
10.658055
0
LINE
8
annotation
62
1
39
211
10
8.800393
20
10.658055
11
8.801070
21
10.659037
0
LINE
8
annotation
62
1
39
211
10
8.801070
20
10.659037
11
8.801730
21
10.660052
0
LINE
8
annotation
62
1
39
211
10
8.801730
20
10.660052
11
8.802378
21
10.661107
0
LINE
8
annotation
62
1
39
211
10
8.802378
20
10.661107
11
8.803020
21
10.662209
0
LINE
8
annotation
62
1
39
211
10
8.803020
20
10.662209
11
8.803659
21
10.663367
0
LINE
8
annotation
62
1
39
211
10
8.803659
20
10.663367
11
8.804300
21
10.664588
0
LINE
8
annotation
62
1
39
211
10
8.804300
20
10.664588
11
8.804300
21
10.664588
0
LINE
8
annotation
62
1
39
211
10
8.804300
20
10.664588
11
8.830403
21
10.720633
0
LINE
8
annotation
62
1
39
211
10
8.830403
20
10.720633
11
8.845651
21
10.778728
0
LINE
8
annotation
62
1
39
211
10
8.845651
20
10.778728
11
8.850420
21
10.837562
0
LINE
8
annotation
62
1
39
211
10
8.850420
20
10.837562
11
8.845082
21
10.895820
0
LINE
8
annotation
62
1
39
211
10
8.845082
20
10.895820
11
8.830011
21
10.952191
0
LINE
8
annotation
62
1
39
211
10
8.830011
20
10.952191
11
8.805581
21
11.005362
0
LINE
8
annotation
62
1
39
211
10
8.805581
20
11.005362
11
8.772165
21
11.054019
0
LINE
8
annotation
62
1
39
211
10
8.772165
20
11.054019
11
8.730138
21
11.096851
0
LINE
8
annotation
62
1
39
211
10
8.730138
20
11.096851
11
8.679872
21
11.132545
0
LINE
8
annotation
62
1
39
211
10
8.679872
20
11.132545
11
8.679872
21
11.132545
0
LINE
8
annotation
62
1
39
211
10
8.679872
20
11.132545
11
8.623671
21
11.158277
0
LINE
8
annotation
62
1
39
211
10
8.623671
20
11.158277
11
8.565487
21
11.173290
0
LINE
8
annotation
62
1
39
211
10
8.565487
20
11.173290
11
8.506619
21
11.177924
0
LINE
8
annotation
62
1
39
211
10
8.506619
20
11.177924
11
8.448369
21
11.172516
0
LINE
8
annotation
62
1
39
211
10
8.448369
20
11.172516
11
8.392038
21
11.157403
0
LINE
8
annotation
62
1
39
211
10
8.392038
20
11.157403
11
8.338927
21
11.132924
0
LINE
8
annotation
62
1
39
211
10
8.338927
20
11.132924
11
8.290335
21
11.099416
0
LINE
8
annotation
62
1
39
211
10
8.290335
20
11.099416
11
8.247564
21
11.057218
0
LINE
8
annotation
62
1
39
211
10
8.247564
20
11.057218
11
8.211915
21
11.006668
0
LINE
8
annotation
62
1
39
211
10
8.211915
20
11.006668
11
8.166994
21
10.920496
0
LINE
8
boundary
62
5
39
2
10
28.996542
20
9.417553
11
25.539615
21
12.287590
0
LINE
8
boundary
62
5
39
2
10
25.539615
20
12.287590
11
24.604053
21
9.398530
0
LINE
8
boundary
62
5
39
2
10
24.604053
20
9.398530
11
26.840500
21
9.392280
0
LINE
8
boundary
62
5
39
2
10
26.840500
20
9.392280
11
26.840500
21
9.277280
0
LINE
8
boundary
62
5
39
2
10
26.840500
20
9.277280
11
24.564789
21
9.277280
0
LINE
8
boundary
62
5
39
2
10
24.564789
20
9.277280
11
23.198632
21
5.058519
0
LINE
8
boundary
62
5
39
2
10
23.198632
20
5.058519
11
28.751537
21
5.052269
0
LINE
8
boundary
62
5
39
2
10
28.751537
20
5.052269
11
28.751537
21
4.937269
0
LINE
8
boundary
62
5
39
2
10
28.751537
20
4.937269
11
23.159368
21
4.937269
0
LINE
8
boundary
62
5
39
2
10
23.159368
20
4.937269
11
21.793211
21
0.718508
0
LINE
8
boundary
62
5
39
2
10
21.793211
20
0.718508
11
22.830353
21
0.712258
0
LINE
8
boundary
62
5
39
2
10
22.830353
20
0.712258
11
22.830353
21
0.597258
0
LINE
8
boundary
62
5
39
2
10
22.830353
20
0.597258
11
21.753947
21
0.597258
0
LINE
8
boundary
62
5
39
2
10
21.753947
20
0.597258
11
21.580776
21
0.062500
0
LINE
8
boundary
62
5
39
2
10
21.580776
20
0.062500
11
35.138312
21
3.668018
0
LINE
8
boundary
62
5
39
2
10
35.138312
20
3.668018
11
35.493611
21
3.762507
0
LINE
8
boundary
62
5
39
2
10
35.493611
20
3.762507
11
35.560222
21
3.968205
0
LINE
8
boundary
62
5
39
2
10
35.560222
20
3.968205
11
28.996542
21
9.417553
0
LINE
8
annotation
62
1
39
211
10
23.129740
20
0.554756
11
23.040915
21
0.554756
0
LINE
8
annotation
62
1
39
211
10
23.040915
20
0.554756
11
23.122992
21
0.686890
0
LINE
8
annotation
62
1
39
211
10
23.122992
20
0.686890
11
23.122992
21
0.686890
0
LINE
8
annotation
62
1
39
211
10
23.122992
20
0.686890
11
23.123090
21
0.687011
0
LINE
8
annotation
62
1
39
211
10
23.123090
20
0.687011
11
23.123184
21
0.687134
0
LINE
8
annotation
62
1
39
211
10
23.123184
20
0.687134
11
23.123275
21
0.687258
0
LINE
8
annotation
62
1
39
211
10
23.123275
20
0.687258
11
23.123363
21
0.687386
0
LINE
8
annotation
62
1
39
211
10
23.123363
20
0.687386
11
23.123449
21
0.687517
0
LINE
8
annotation
62
1
39
211
10
23.123449
20
0.687517
11
23.123533
21
0.687654
0
LINE
8
annotation
62
1
39
211
10
23.123533
20
0.687654
11
23.123616
21
0.687797
0
LINE
8
annotation
62
1
39
211
10
23.123616
20
0.687797
11
23.123699
21
0.687948
0
LINE
8
annotation
62
1
39
211
10
23.123699
20
0.687948
11
23.123782
21
0.688106
0
LINE
8
annotation
62
1
39
211
10
23.123782
20
0.688106
11
23.123782
21
0.688106
0
LINE
8
annotation
62
1
39
211
10
23.123782
20
0.688106
11
23.127171
21
0.695383
0
LINE
8
annotation
62
1
39
211
10
23.127171
20
0.695383
11
23.129151
21
0.702925
0
LINE
8
annotation
62
1
39
211
10
23.129151
20
0.702925
11
23.129770
21
0.710564
0
LINE
8
annotation
62
1
39
211
10
23.129770
20
0.710564
11
23.129077
21
0.718127
0
LINE
8
annotation
62
1
39
211
10
23.129077
20
0.718127
11
23.127120
21
0.725446
0
LINE
8
annotation
62
1
39
211
10
23.127120
20
0.725446
11
23.123949
21
0.732349
0
LINE
8
annotation
62
1
39
211
10
23.123949
20
0.732349
11
23.119610
21
0.738666
0
LINE
8
annotation
62
1
39
211
10
23.119610
20
0.738666
11
23.114154
21
0.744227
0
LINE
8
annotation
62
1
39
211
10
23.114154
20
0.744227
11
23.107628
21
0.748861
0
LINE
8
annotation
62
1
39
211
10
23.107628
20
0.748861
11
23.107628
21
0.748861
0
LINE
8
annotation
62
1
39
211
10
23.107628
20
0.748861
11
23.100331
21
0.752202
0
LINE
8
annotation
62
1
39
211
10
23.100331
20
0.752202
11
23.092777
21
0.754151
0
LINE
8
annotation
62
1
39
211
10
23.092777
20
0.754151
11
23.085134
21
0.754753
0
LINE
8
annotation
62
1
39
211
10
23.085134
20
0.754753
11
23.077572
21
0.754051
0
LINE
8
annotation
62
1
39
211
10
23.077572
20
0.754051
11
23.070258
21
0.752089
0
LINE
8
annotation
62
1
39
211
10
23.070258
20
0.752089
11
23.063363
21
0.748911
0
LINE
8
annotation
62
1
39
211
10
23.063363
20
0.748911
11
23.057054
21
0.744560
0
LINE
8
annotation
62
1
39
211
10
23.057054
20
0.744560
11
23.051501
21
0.739082
0
LINE
8
annotation
62
1
39
211
10
23.051501
20
0.739082
11
23.046873
21
0.732519
0
LINE
8
annotation
62
1
39
211
10
23.046873
20
0.732519
11
23.041041
21
0.721331
0
LINE
8
annotation
62
1
39
211
10
28.962100
20
4.894775
11
29.006512
21
4.894775
0
LINE
8
annotation
62
1
39
211
10
29.006512
20
4.894775
11
29.006512
21
4.894775
0
LINE
8
annotation
62
1
39
211
10
29.006512
20
4.894775
11
29.014500
21
4.895492
0
LINE
8
annotation
62
1
39
211
10
29.014500
20
4.895492
11
29.022016
21
4.897557
0
LINE
8
annotation
62
1
39
211
10
29.022016
20
4.897557
11
29.028935
21
4.900844
0
LINE
8
annotation
62
1
39
211
10
29.028935
20
4.900844
11
29.035133
21
4.905226
0
LINE
8
annotation
62
1
39
211
10
29.035133
20
4.905226
11
29.040485
21
4.910576
0
LINE
8
annotation
62
1
39
211
10
29.040485
20
4.910576
11
29.044865
21
4.916768
0
LINE
8
annotation
62
1
39
211
10
29.044865
20
4.916768
11
29.048148
21
4.923675
0
LINE
8
annotation
62
1
39
211
10
29.048148
20
4.923675
11
29.050209
21
4.931169
0
LINE
8
annotation
62
1
39
211
10
29.050209
20
4.931169
11
29.050924
21
4.939125
0
LINE
8
annotation
62
1
39
211
10
29.050924
20
4.939125
11
29.050924
21
4.961363
0
LINE
8
annotation
62
1
39
211
10
29.050924
20
4.961363
11
29.050924
21
4.961363
0
LINE
8
annotation
62
1
39
211
10
29.050924
20
4.961363
11
29.050209
21
4.969315
0
LINE
8
annotation
62
1
39
211
10
29.050209
20
4.969315
11
29.048148
21
4.976808
0
LINE
8
annotation
62
1
39
211
10
29.048148
20
4.976808
11
29.044865
21
4.983714
0
LINE
8
annotation
62
1
39
211
10
29.044865
20
4.983714
11
29.040485
21
4.989906
0
LINE
8
annotation
62
1
39
211
10
29.040485
20
4.989906
11
29.035133
21
4.995257
0
LINE
8
annotation
62
1
39
211
10
29.035133
20
4.995257
11
29.028935
21
4.999641
0
LINE
8
annotation
62
1
39
211
10
29.028935
20
4.999641
11
29.022016
21
5.002929
0
LINE
8
annotation
62
1
39
211
10
29.022016
20
5.002929
11
29.014500
21
5.004995
0
LINE
8
annotation
62
1
39
211
10
29.014500
20
5.004995
11
29.006512
21
5.005712
0
LINE
8
annotation
62
1
39
211
10
29.006512
20
5.005712
11
28.984274
21
5.005712
0
LINE
8
annotation
62
1
39
211
10
28.984274
20
5.005712
11
29.006512
21
5.005712
0
LINE
8
annotation
62
1
39
211
10
29.006512
20
5.005712
11
29.006512
21
5.005712
0
LINE
8
annotation
62
1
39
211
10
29.006512
20
5.005712
11
29.014500
21
5.006429
0
LINE
8
annotation
62
1
39
211
10
29.014500
20
5.006429
11
29.022016
21
5.008497
0
LINE
8
annotation
62
1
39
211
10
29.022016
20
5.008497
11
29.028935
21
5.011788
0
LINE
8
annotation
62
1
39
211
10
29.028935
20
5.011788
11
29.035133
21
5.016178
0
LINE
8
annotation
62
1
39
211
10
29.035133
20
5.016178
11
29.040485
21
5.021540
0
LINE
8
annotation
62
1
39
211
10
29.040485
20
5.021540
11
29.044865
21
5.027748
0
LINE
8
annotation
62
1
39
211
10
29.044865
20
5.027748
11
29.048148
21
5.034676
0
LINE
8
annotation
62
1
39
211
10
29.048148
20
5.034676
11
29.050209
21
5.042197
0
LINE
8
annotation
62
1
39
211
10
29.050209
20
5.042197
11
29.050924
21
5.050187
0
LINE
8
annotation
62
1
39
211
10
29.050924
20
5.050187
11
29.050924
21
5.050187
0
LINE
8
annotation
62
1
39
211
10
29.050924
20
5.050187
11
29.050209
21
5.058140
0
LINE
8
annotation
62
1
39
211
10
29.050209
20
5.058140
11
29.048148
21
5.065633
0
LINE
8
annotation
62
1
39
211
10
29.048148
20
5.065633
11
29.044865
21
5.072539
0
LINE
8
annotation
62
1
39
211
10
29.044865
20
5.072539
11
29.040485
21
5.078731
0
LINE
8
annotation
62
1
39
211
10
29.040485
20
5.078731
11
29.035133
21
5.084082
0
LINE
8
annotation
62
1
39
211
10
29.035133
20
5.084082
11
29.028935
21
5.088466
0
LINE
8
annotation
62
1
39
211
10
29.028935
20
5.088466
11
29.022016
21
5.091754
0
LINE
8
annotation
62
1
39
211
10
29.022016
20
5.091754
11
29.014500
21
5.093820
0
LINE
8
annotation
62
1
39
211
10
29.014500
20
5.093820
11
29.006512
21
5.094537
0
LINE
8
annotation
62
1
39
211
10
29.006512
20
5.094537
11
28.962100
21
5.094537
0
LINE
8
annotation
62
1
39
211
10
27.151000
20
9.279243
11
27.039950
21
9.279243
0
LINE
8
annotation
62
1
39
211
10
27.039950
20
9.279243
11
27.084300
21
9.434780
0
LINE
8
annotation
62
1
39
211
10
27.117712
20
9.234780
11
27.117712
21
9.323605
0
LINE
8
annotation
62
1
39
211
10
26.230279
20
7.585410
11
25.726716
21
6.857052
0
LINE
8
annotation
62
1
39
211
10
25.726716
20
6.857052
11
25.223059
21
7.585410
0
LINE
8
annotation
62
1
39
211
10
25.726716
20
6.915666
11
25.726716
21
6.075384
0
LINE
8
annotation
62
1
39
211
10
27.622297
20
6.830397
11
26.796693
21
6.830397
0
LINE
8
annotation
62
1
39
211
10
28.859090
20
6.075419
11
28.188493
21
6.075419
0
LINE
8
annotation
62
1
39
211
10
28.188493
20
6.075419
11
28.808147
21
7.072981
0
LINE
8
annotation
62
1
39
211
10
28.808147
20
7.072981
11
28.808147
21
7.072981
0
LINE
8
annotation
62
1
39
211
10
28.808147
20
7.072981
11
28.808887
21
7.073898
0
LINE
8
annotation
62
1
39
211
10
28.808887
20
7.073898
11
28.809598
21
7.074822
0
LINE
8
annotation
62
1
39
211
10
28.809598
20
7.074822
11
28.810282
21
7.075762
0
LINE
8
annotation
62
1
39
211
10
28.810282
20
7.075762
11
28.810946
21
7.076726
0
LINE
8
annotation
62
1
39
211
10
28.810946
20
7.076726
11
28.811593
21
7.077720
0
LINE
8
annotation
62
1
39
211
10
28.811593
20
7.077720
11
28.812229
21
7.078754
0
LINE
8
annotation
62
1
39
211
10
28.812229
20
7.078754
11
28.812857
21
7.079834
0
LINE
8
annotation
62
1
39
211
10
28.812857
20
7.079834
11
28.813484
21
7.080969
0
LINE
8
annotation
62
1
39
211
10
28.813484
20
7.080969
11
28.814112
21
7.082166
0
LINE
8
annotation
62
1
39
211
10
28.814112
20
7.082166
11
28.814112
21
7.082166
0
LINE
8
annotation
62
1
39
211
10
28.814112
20
7.082166
11
28.839697
21
7.137100
0
LINE
8
annotation
62
1
39
211
10
28.839697
20
7.137100
11
28.854644
21
7.194044
0
LINE
8
annotation
62
1
39
211
10
28.854644
20
7.194044
11
28.859318
21
7.251711
0
LINE
8
annotation
62
1
39
211
10
28.859318
20
7.251711
11
28.854086
21
7.308814
0
LINE
8
annotation
62
1
39
211
10
28.854086
20
7.308814
11
28.839313
21
7.364068
0
LINE
8
annotation
62
1
39
211
10
28.839313
20
7.364068
11
28.815368
21
7.416184
0
LINE
8
annotation
62
1
39
211
10
28.815368
20
7.416184
11
28.782614
21
7.463877
0
LINE
8
annotation
62
1
39
211
10
28.782614
20
7.463877
11
28.741420
21
7.505860
0
LINE
8
annotation
62
1
39
211
10
28.741420
20
7.505860
11
28.692151
21
7.540846
0
LINE
8
annotation
62
1
39
211
10
28.692151
20
7.540846
11
28.692151
21
7.540846
0
LINE
8
annotation
62
1
39
211
10
28.692151
20
7.540846
11
28.637064
21
7.566068
0
LINE
8
annotation
62
1
39
211
10
28.637064
20
7.566068
11
28.580033
21
7.580784
0
LINE
8
annotation
62
1
39
211
10
28.580033
20
7.580784
11
28.522333
21
7.585326
0
LINE
8
annotation
62
1
39
211
10
28.522333
20
7.585326
11
28.465238
21
7.580024
0
LINE
8
annotation
62
1
39
211
10
28.465238
20
7.580024
11
28.410023
21
7.565211
0
LINE
8
annotation
62
1
39
211
10
28.410023
20
7.565211
11
28.357964
21
7.541218
0
LINE
8
annotation
62
1
39
211
10
28.357964
20
7.541218
11
28.310336
21
7.508374
0
LINE
8
annotation
62
1
39
211
10
28.310336
20
7.508374
11
28.268413
21
7.467013
0
LINE
8
annotation
62
1
39
211
10
28.268413
20
7.467013
11
28.233471
21
7.417464
0
LINE
8
annotation
62
1
39
211
10
28.233471
20
7.417464
11
28.189440
21
7.333001
0
LINE
8
boundary
62
5
39
2
10
27.488021
20
23.251760
11
27.139784
21
23.193021
0
LINE
8
boundary
62
5
39
2
10
27.139784
20
23.193021
11
27.139784
21
23.095079
0
LINE
8
boundary
62
5
39
2
10
27.139784
20
23.095079
11
26.674590
21
23.095079
0
LINE
8
boundary
62
5
39
2
10
26.674590
20
23.095079
11
26.650253
21
23.088829
0
LINE
8
boundary
62
5
39
2
10
26.650253
20
23.088829
11
26.328540
21
23.006206
0
LINE
8
boundary
62
5
39
2
10
26.328540
20
23.006206
11
26.262621
21
22.986179
0
LINE
8
boundary
62
5
39
2
10
26.262621
20
22.986179
11
25.960742
21
22.894461
0
LINE
8
boundary
62
5
39
2
10
25.960742
20
22.894461
11
25.877177
21
22.864930
0
LINE
8
boundary
62
5
39
2
10
25.877177
20
22.864930
11
25.603139
21
22.768088
0
LINE
8
boundary
62
5
39
2
10
25.603139
20
22.768088
11
25.504226
21
22.727930
0
LINE
8
boundary
62
5
39
2
10
25.504226
20
22.727930
11
25.256521
21
22.627363
0
LINE
8
boundary
62
5
39
2
10
25.256521
20
22.627363
11
25.144617
21
22.575645
0
LINE
8
boundary
62
5
39
2
10
25.144617
20
22.575645
11
24.921653
21
22.472598
0
LINE
8
boundary
62
5
39
2
10
24.921653
20
22.472598
11
24.799146
21
22.408581
0
LINE
8
boundary
62
5
39
2
10
24.799146
20
22.408581
11
24.599273
21
22.304134
0
LINE
8
boundary
62
5
39
2
10
24.599273
20
22.304134
11
24.468559
21
22.227277
0
LINE
8
boundary
62
5
39
2
10
24.468559
20
22.227277
11
24.290090
21
22.122341
0
LINE
8
boundary
62
5
39
2
10
24.290090
20
22.122341
11
24.153545
21
22.032305
0
LINE
8
boundary
62
5
39
2
10
24.153545
20
22.032305
11
23.994789
21
21.927622
0
LINE
8
boundary
62
5
39
2
10
23.994789
20
21.927622
11
23.854742
21
21.824263
0
LINE
8
boundary
62
5
39
2
10
23.854742
20
21.824263
11
23.714019
21
21.720404
0
LINE
8
boundary
62
5
39
2
10
23.714019
20
21.720404
11
23.572729
21
21.603776
0
LINE
8
boundary
62
5
39
2
10
23.572729
20
21.603776
11
23.448398
21
21.501148
0
LINE
8
boundary
62
5
39
2
10
23.448398
20
21.501148
11
23.308031
21
21.371493
0
LINE
8
boundary
62
5
39
2
10
23.308031
20
21.371493
11
23.198515
21
21.270334
0
LINE
8
boundary
62
5
39
2
10
23.198515
20
21.270334
11
23.061120
21
21.128078
0
LINE
8
boundary
62
5
39
2
10
23.061120
20
21.128078
11
22.964917
21
21.028472
0
LINE
8
boundary
62
5
39
2
10
22.964917
20
21.028472
11
22.832411
21
20.874216
0
LINE
8
boundary
62
5
39
2
10
22.832411
20
20.874216
11
22.748125
21
20.776096
0
LINE
8
boundary
62
5
39
2
10
22.748125
20
20.776096
11
22.622265
21
20.610604
0
LINE
8
boundary
62
5
39
2
10
22.622265
20
20.610604
11
22.548615
21
20.513761
0
LINE
8
boundary
62
5
39
2
10
22.548615
20
20.513761
11
22.430987
21
20.337951
0
LINE
8
boundary
62
5
39
2
10
22.430987
20
20.337951
11
22.366822
21
20.242048
0
LINE
8
boundary
62
5
39
2
10
22.366822
20
20.242048
11
22.258832
21
20.056976
0
LINE
8
boundary
62
5
39
2
10
22.258832
20
20.056976
11
22.203154
21
19.961555
0
LINE
8
boundary
62
5
39
2
10
22.203154
20
19.961555
11
22.106001
21
19.768401
0
LINE
8
boundary
62
5
39
2
10
22.106001
20
19.768401
11
22.057966
21
19.672899
0
LINE
8
boundary
62
5
39
2
10
22.057966
20
19.672899
11
21.972646
21
19.472955
0
LINE
8
boundary
62
5
39
2
10
21.972646
20
19.472955
11
21.931581
21
19.376719
0
LINE
8
boundary
62
5
39
2
10
21.931581
20
19.376719
11
21.858872
21
19.171368
0
LINE
8
boundary
62
5
39
2
10
21.858872
20
19.171368
11
21.824280
21
19.073667
0
LINE
8
boundary
62
5
39
2
10
21.824280
20
19.073667
11
21.768133
21
18.876317
0
LINE
8
boundary
62
5
39
2
10
21.768133
20
18.876317
11
23.896683
21
18.870068
0
LINE
8
boundary
62
5
39
2
10
23.896683
20
18.870068
11
23.896683
21
18.755068
0
LINE
8
boundary
62
5
39
2
10
23.896683
20
18.755068
11
21.734263
21
18.755068
0
LINE
8
boundary
62
5
39
2
10
21.734263
20
18.755068
11
21.690241
21
18.552686
0
LINE
8
boundary
62
5
39
2
10
21.690241
20
18.552686
11
21.667825
21
18.449635
0
LINE
8
boundary
62
5
39
2
10
21.667825
20
18.449635
11
21.635360
21
18.237042
0
LINE
8
boundary
62
5
39
2
10
21.635360
20
18.237042
11
21.619019
21
18.130030
0
LINE
8
boundary
62
5
39
2
10
21.619019
20
18.130030
11
21.600013
21
17.918153
0
LINE
8
boundary
62
5
39
2
10
21.600013
20
17.918153
11
21.589980
21
17.806304
0
LINE
8
boundary
62
5
39
2
10
21.589980
20
17.806304
11
21.584084
21
17.596733
0
LINE
8
boundary
62
5
39
2
10
21.584084
20
17.596733
11
21.580776
21
17.479169
0
LINE
8
boundary
62
5
39
2
10
21.580776
20
17.479169
11
21.587422
21
17.273480
0
LINE
8
boundary
62
5
39
2
10
21.587422
20
17.273480
11
21.591433
21
17.149347
0
LINE
8
boundary
62
5
39
2
10
21.591433
20
17.149347
11
21.609833
21
16.949088
0
LINE
8
boundary
62
5
39
2
10
21.609833
20
16.949088
11
21.621918
21
16.817565
0
LINE
8
boundary
62
5
39
2
10
21.621918
20
16.817565
11
21.651089
21
16.624237
0
LINE
8
boundary
62
5
39
2
10
21.651089
20
16.624237
11
21.672166
21
16.484556
0
LINE
8
boundary
62
5
39
2
10
21.672166
20
16.484556
11
21.710935
21
16.299595
0
LINE
8
boundary
62
5
39
2
10
21.710935
20
16.299595
11
21.742071
21
16.151052
0
LINE
8
boundary
62
5
39
2
10
21.742071
20
16.151052
11
21.789080
21
15.975818
0
LINE
8
boundary
62
5
39
2
10
21.789080
20
15.975818
11
21.831474
21
15.817791
0
LINE
8
boundary
62
5
39
2
10
21.831474
20
15.817791
11
21.885204
21
15.653550
0
LINE
8
boundary
62
5
39
2
10
21.885204
20
15.653550
11
21.940178
21
15.485507
0
LINE
8
boundary
62
5
39
2
10
21.940178
20
15.485507
11
21.998961
21
15.333416
0
LINE
8
boundary
62
5
39
2
10
21.998961
20
15.333416
11
22.067946
21
15.154932
0
LINE
8
boundary
62
5
39
2
10
22.067946
20
15.154932
11
22.129980
21
15.016031
0
LINE
8
boundary
62
5
39
2
10
22.129980
20
15.016031
11
22.214494
21
14.826796
0
LINE
8
boundary
62
5
39
2
10
22.214494
20
14.826796
11
22.277864
21
14.701992
0
LINE
8
boundary
62
5
39
2
10
22.277864
20
14.701992
11
22.365166
21
14.530056
0
LINE
8
boundary
62
5
39
2
10
22.365166
20
14.530056
11
23.509423
21
14.530056
0
LINE
8
boundary
62
5
39
2
10
23.509423
20
14.530056
11
23.509423
21
14.415056
0
LINE
8
boundary
62
5
39
2
10
23.509423
20
14.415056
11
22.433293
21
14.415056
0
LINE
8
boundary
62
5
39
2
10
22.433293
20
14.415056
11
22.442196
21
14.391880
0
LINE
8
boundary
62
5
39
2
10
22.442196
20
14.391880
11
22.562604
21
14.180727
0
LINE
8
boundary
62
5
39
2
10
22.562604
20
14.180727
11
22.622532
21
14.086261
0
LINE
8
boundary
62
5
39
2
10
22.622532
20
14.086261
11
22.763392
21
13.864221
0
LINE
8
boundary
62
5
39
2
10
22.763392
20
13.864221
11
22.818413
21
13.785686
0
LINE
8
boundary
62
5
39
2
10
22.818413
20
13.785686
11
22.981432
21
13.552998
0
LINE
8
boundary
62
5
39
2
10
22.981432
20
13.552998
11
23.029363
21
13.490686
0
LINE
8
boundary
62
5
39
2
10
23.029363
20
13.490686
11
23.216234
21
13.247748
0
LINE
8
boundary
62
5
39
2
10
23.216234
20
13.247748
11
23.254882
21
13.201779
0
LINE
8
boundary
62
5
39
2
10
23.254882
20
13.201779
11
23.467289
21
12.949141
0
LINE
8
boundary
62
5
39
2
10
23.467289
20
12.949141
11
23.494464
21
12.919465
0
LINE
8
boundary
62
5
39
2
10
23.494464
20
12.919465
11
23.734035
21
12.657839
0
LINE
8
boundary
62
5
39
2
10
23.734035
20
12.657839
11
23.977984
21
12.412590
0
LINE
8
boundary
62
5
39
2
10
23.977984
20
12.412590
11
24.060734
21
12.668126
0
LINE
8
boundary
62
5
39
2
10
24.060734
20
12.668126
11
24.082741
21
12.736083
0
LINE
8
boundary
62
5
39
2
10
24.082741
20
12.736083
11
24.700961
21
14.645179
0
LINE
8
boundary
62
5
39
2
10
24.700961
20
14.645179
11
24.891726
21
15.234269
0
LINE
8
boundary
62
5
39
2
10
24.891726
20
15.234269
11
25.364710
21
16.694869
0
LINE
8
boundary
62
5
39
2
10
25.364710
20
16.694869
11
25.728987
21
17.819773
0
LINE
8
boundary
62
5
39
2
10
25.728987
20
17.819773
11
25.934947
21
18.455788
0
LINE
8
boundary
62
5
39
2
10
25.934947
20
18.455788
11
26.075415
21
18.889560
0
LINE
8
boundary
62
5
39
2
10
26.075415
20
18.889560
11
26.697862
21
20.811708
0
LINE
8
boundary
62
5
39
2
10
26.697862
20
20.811708
11
26.770455
21
21.035880
0
LINE
8
boundary
62
5
39
2
10
26.770455
20
21.035880
11
27.481754
21
23.232405
0
LINE
8
boundary
62
5
39
2
10
27.481754
20
23.232405
11
27.488021
21
23.251760
0
LINE
8
annotation
62
1
39
211
10
23.819923
20
14.417019
11
23.708874
21
14.417019
0
LINE
8
annotation
62
1
39
211
10
23.708874
20
14.417019
11
23.753223
21
14.572556
0
LINE
8
annotation
62
1
39
211
10
23.786636
20
14.372556
11
23.786636
21
14.461381
0
LINE
8
annotation
62
1
39
211
10
24.107245
20
18.712568
11
24.151658
21
18.712568
0
LINE
8
annotation
62
1
39
211
10
24.151658
20
18.712568
11
24.151658
21
18.712568
0
LINE
8
annotation
62
1
39
211
10
24.151658
20
18.712568
11
24.159629
21
18.713284
0
LINE
8
annotation
62
1
39
211
10
24.159629
20
18.713284
11
24.167136
21
18.715350
0
LINE
8
annotation
62
1
39
211
10
24.167136
20
18.715350
11
24.174053
21
18.718640
0
LINE
8
annotation
62
1
39
211
10
24.174053
20
18.718640
11
24.180253
21
18.723028
0
LINE
8
annotation
62
1
39
211
10
24.180253
20
18.723028
11
24.185610
21
18.728388
0
LINE
8
annotation
62
1
39
211
10
24.185610
20
18.728388
11
24.189996
21
18.734594
0
LINE
8
annotation
62
1
39
211
10
24.189996
20
18.734594
11
24.193286
21
18.741520
0
LINE
8
annotation
62
1
39
211
10
24.193286
20
18.741520
11
24.195353
21
18.749041
0
LINE
8
annotation
62
1
39
211
10
24.195353
20
18.749041
11
24.196070
21
18.757030
0
LINE
8
annotation
62
1
39
211
10
24.196070
20
18.757030
11
24.196070
21
18.779155
0
LINE
8
annotation
62
1
39
211
10
24.196070
20
18.779155
11
24.196070
21
18.779155
0
LINE
8
annotation
62
1
39
211
10
24.196070
20
18.779155
11
24.195353
21
18.787140
0
LINE
8
annotation
62
1
39
211
10
24.195353
20
18.787140
11
24.193288
21
18.794651
0
LINE
8
annotation
62
1
39
211
10
24.193288
20
18.794651
11
24.189999
21
18.801562
0
LINE
8
annotation
62
1
39
211
10
24.189999
20
18.801562
11
24.185614
21
18.807750
0
LINE
8
annotation
62
1
39
211
10
24.185614
20
18.807750
11
24.180258
21
18.813091
0
LINE
8
annotation
62
1
39
211
10
24.180258
20
18.813091
11
24.174059
21
18.817461
0
LINE
8
annotation
62
1
39
211
10
24.174059
20
18.817461
11
24.167141
21
18.820736
0
LINE
8
annotation
62
1
39
211
10
24.167141
20
18.820736
11
24.159632
21
18.822792
0
LINE
8
annotation
62
1
39
211
10
24.159632
20
18.822792
11
24.151658
21
18.823504
0
LINE
8
annotation
62
1
39
211
10
24.151658
20
18.823504
11
24.107245
21
18.823504
0
LINE
8
annotation
62
1
39
211
10
24.107245
20
18.823504
11
24.107245
21
18.912568
0
LINE
8
annotation
62
1
39
211
10
24.107245
20
18.912568
11
24.196070
21
18.912568
0
LINE
8
annotation
62
1
39
211
10
27.308150
20
23.162579
11
27.308150
21
23.162579
0
LINE
8
annotation
62
1
39
211
10
27.308150
20
23.162579
11
27.300516
21
23.159716
0
LINE
8
annotation
62
1
39
211
10
27.300516
20
23.159716
11
27.293511
21
23.155860
0
LINE
8
annotation
62
1
39
211
10
27.293511
20
23.155860
11
27.287206
21
23.151106
0
LINE
8
annotation
62
1
39
211
10
27.287206
20
23.151106
11
27.281675
21
23.145551
0
LINE
8
annotation
62
1
39
211
10
27.281675
20
23.145551
11
27.276987
21
23.139291
0
LINE
8
annotation
62
1
39
211
10
27.276987
20
23.139291
11
27.273217
21
23.132424
0
LINE
8
annotation
62
1
39
211
10
27.273217
20
23.132424
11
27.270434
21
23.125045
0
LINE
8
annotation
62
1
39
211
10
27.270434
20
23.125045
11
27.268712
21
23.117252
0
LINE
8
annotation
62
1
39
211
10
27.268712
20
23.117252
11
27.268122
21
23.109141
0
LINE
8
annotation
62
1
39
211
10
27.268122
20
23.109141
11
27.268122
21
23.069256
0
LINE
8
annotation
62
1
39
211
10
27.268122
20
23.069256
11
27.268122
21
23.069256
0
LINE
8
annotation
62
1
39
211
10
27.268122
20
23.069256
11
27.268552
21
23.064463
0
LINE
8
annotation
62
1
39
211
10
27.268552
20
23.064463
11
27.269792
21
23.059950
0
LINE
8
annotation
62
1
39
211
10
27.269792
20
23.059950
11
27.271766
21
23.055794
0
LINE
8
annotation
62
1
39
211
10
27.271766
20
23.055794
11
27.274398
21
23.052071
0
LINE
8
annotation
62
1
39
211
10
27.274398
20
23.052071
11
27.277612
21
23.048855
0
LINE
8
annotation
62
1
39
211
10
27.277612
20
23.048855
11
27.281332
21
23.046222
0
LINE
8
annotation
62
1
39
211
10
27.281332
20
23.046222
11
27.285482
21
23.044248
0
LINE
8
annotation
62
1
39
211
10
27.285482
20
23.044248
11
27.289987
21
23.043009
0
LINE
8
annotation
62
1
39
211
10
27.289987
20
23.043009
11
27.294769
21
23.042579
0
LINE
8
annotation
62
1
39
211
10
27.294769
20
23.042579
11
27.294769
21
23.042579
0
LINE
8
annotation
62
1
39
211
10
27.294769
20
23.042579
11
27.299562
21
23.043009
0
LINE
8
annotation
62
1
39
211
10
27.299562
20
23.043009
11
27.304072
21
23.044248
0
LINE
8
annotation
62
1
39
211
10
27.304072
20
23.044248
11
27.308223
21
23.046222
0
LINE
8
annotation
62
1
39
211
10
27.308223
20
23.046222
11
27.311942
21
23.048855
0
LINE
8
annotation
62
1
39
211
10
27.311942
20
23.048855
11
27.315153
21
23.052071
0
LINE
8
annotation
62
1
39
211
10
27.315153
20
23.052071
11
27.317781
21
23.055794
0
LINE
8
annotation
62
1
39
211
10
27.317781
20
23.055794
11
27.319751
21
23.059950
0
LINE
8
annotation
62
1
39
211
10
27.319751
20
23.059950
11
27.320988
21
23.064463
0
LINE
8
annotation
62
1
39
211
10
27.320988
20
23.064463
11
27.321417
21
23.069256
0
LINE
8
annotation
62
1
39
211
10
27.321417
20
23.069256
11
27.321417
21
23.082531
0
LINE
8
annotation
62
1
39
211
10
27.321417
20
23.082531
11
27.321417
21
23.082531
0
LINE
8
annotation
62
1
39
211
10
27.321417
20
23.082531
11
27.320988
21
23.087322
0
LINE
8
annotation
62
1
39
211
10
27.320988
20
23.087322
11
27.319751
21
23.091829
0
LINE
8
annotation
62
1
39
211
10
27.319751
20
23.091829
11
27.317781
21
23.095975
0
LINE
8
annotation
62
1
39
211
10
27.317781
20
23.095975
11
27.315153
21
23.099688
0
LINE
8
annotation
62
1
39
211
10
27.315153
20
23.099688
11
27.311942
21
23.102893
0
LINE
8
annotation
62
1
39
211
10
27.311942
20
23.102893
11
27.308223
21
23.105515
0
LINE
8
annotation
62
1
39
211
10
27.308223
20
23.105515
11
27.304072
21
23.107480
0
LINE
8
annotation
62
1
39
211
10
27.304072
20
23.107480
11
27.299562
21
23.108713
0
LINE
8
annotation
62
1
39
211
10
27.299562
20
23.108713
11
27.294769
21
23.109141
0
LINE
8
annotation
62
1
39
211
10
27.294769
20
23.109141
11
27.268122
21
23.109141
0
LINE
8
annotation
62
1
39
211
10
27.264784
20
23.027579
11
27.324784
21
23.027579
0
LINE
8
annotation
62
1
39
211
10
22.842739
20
16.841659
11
22.712591
21
16.653411
0
LINE
8
annotation
62
1
39
211
10
22.712591
20
16.653411
11
22.582418
21
16.841659
0
LINE
8
annotation
62
1
39
211
10
22.712591
20
16.668560
11
22.712591
21
16.451385
0
LINE
8
annotation
62
1
39
211
10
23.202513
20
16.646522
11
22.989131
21
16.646522
0
LINE
8
annotation
62
1
39
211
10
23.478992
20
16.841647
11
23.478992
21
16.841647
0
LINE
8
annotation
62
1
39
211
10
23.478992
20
16.841647
11
23.454167
21
16.832338
0
LINE
8
annotation
62
1
39
211
10
23.454167
20
16.832338
11
23.431386
21
16.819797
0
LINE
8
annotation
62
1
39
211
10
23.431386
20
16.819797
11
23.410884
21
16.804336
0
LINE
8
annotation
62
1
39
211
10
23.410884
20
16.804336
11
23.392894
21
16.786270
0
LINE
8
annotation
62
1
39
211
10
23.392894
20
16.786270
11
23.377651
21
16.765913
0
LINE
8
annotation
62
1
39
211
10
23.377651
20
16.765913
11
23.365388
21
16.743580
0
LINE
8
annotation
62
1
39
211
10
23.365388
20
16.743580
11
23.356339
21
16.719584
0
LINE
8
annotation
62
1
39
211
10
23.356339
20
16.719584
11
23.350739
21
16.694240
0
LINE
8
annotation
62
1
39
211
10
23.350739
20
16.694240
11
23.348820
21
16.667863
0
LINE
8
annotation
62
1
39
211
10
23.348820
20
16.667863
11
23.348820
21
16.538155
0
LINE
8
annotation
62
1
39
211
10
23.348820
20
16.538155
11
23.348820
21
16.538155
0
LINE
8
annotation
62
1
39
211
10
23.348820
20
16.538155
11
23.350219
21
16.522566
0
LINE
8
annotation
62
1
39
211
10
23.350219
20
16.522566
11
23.354252
21
16.507891
0
LINE
8
annotation
62
1
39
211
10
23.354252
20
16.507891
11
23.360671
21
16.494376
0
LINE
8
annotation
62
1
39
211
10
23.360671
20
16.494376
11
23.369230
21
16.482267
0
LINE
8
annotation
62
1
39
211
10
23.369230
20
16.482267
11
23.379682
21
16.471809
0
LINE
8
annotation
62
1
39
211
10
23.379682
20
16.471809
11
23.391780
21
16.463247
0
LINE
8
annotation
62
1
39
211
10
23.391780
20
16.463247
11
23.405277
21
16.456828
0
LINE
8
annotation
62
1
39
211
10
23.405277
20
16.456828
11
23.419925
21
16.452796
0
LINE
8
annotation
62
1
39
211
10
23.419925
20
16.452796
11
23.435479
21
16.451398
0
LINE
8
annotation
62
1
39
211
10
23.435479
20
16.451398
11
23.435479
21
16.451398
0
LINE
8
annotation
62
1
39
211
10
23.435479
20
16.451398
11
23.451065
21
16.452796
0
LINE
8
annotation
62
1
39
211
10
23.451065
20
16.452796
11
23.465731
21
16.456828
0
LINE
8
annotation
62
1
39
211
10
23.465731
20
16.456828
11
23.479233
21
16.463247
0
LINE
8
annotation
62
1
39
211
10
23.479233
20
16.463247
11
23.491326
21
16.471809
0
LINE
8
annotation
62
1
39
211
10
23.491326
20
16.471809
11
23.501768
21
16.482267
0
LINE
8
annotation
62
1
39
211
10
23.501768
20
16.482267
11
23.510314
21
16.494376
0
LINE
8
annotation
62
1
39
211
10
23.510314
20
16.494376
11
23.516721
21
16.507891
0
LINE
8
annotation
62
1
39
211
10
23.516721
20
16.507891
11
23.520744
21
16.522566
0
LINE
8
annotation
62
1
39
211
10
23.520744
20
16.522566
11
23.522139
21
16.538155
0
LINE
8
annotation
62
1
39
211
10
23.522139
20
16.538155
11
23.522139
21
16.581326
0
LINE
8
annotation
62
1
39
211
10
23.522139
20
16.581326
11
23.522139
21
16.581326
0
LINE
8
annotation
62
1
39
211
10
23.522139
20
16.581326
11
23.520744
21
16.596907
0
LINE
8
annotation
62
1
39
211
10
23.520744
20
16.596907
11
23.516721
21
16.611562
0
LINE
8
annotation
62
1
39
211
10
23.516721
20
16.611562
11
23.510314
21
16.625047
0
LINE
8
annotation
62
1
39
211
10
23.510314
20
16.625047
11
23.501768
21
16.637122
0
LINE
8
annotation
62
1
39
211
10
23.501768
20
16.637122
11
23.491326
21
16.647543
0
LINE
8
annotation
62
1
39
211
10
23.491326
20
16.647543
11
23.479233
21
16.656070
0
LINE
8
annotation
62
1
39
211
10
23.479233
20
16.656070
11
23.465731
21
16.662460
0
LINE
8
annotation
62
1
39
211
10
23.465731
20
16.662460
11
23.451065
21
16.666472
0
LINE
8
annotation
62
1
39
211
10
23.451065
20
16.666472
11
23.435479
21
16.667863
0
LINE
8
annotation
62
1
39
211
10
23.435479
20
16.667863
11
23.348820
21
16.667863
0
LINE
8
annotation
62
1
39
211
10
23.337966
20
16.402616
11
23.533090
21
16.402616
0
LINE
8
annotation
62
1
39
211
10
23.881900
20
16.646522
11
23.668519
21
16.646522
0
LINE
8
annotation
62
1
39
211
10
24.114977
20
16.451398
11
24.114977
21
16.841647
0
LINE
8
annotation
62
1
39
211
10
24.114977
20
16.841647
11
24.028219
21
16.754865
0
LINE
8
boundary
62
5
39
2
10
31.583823
20
21.205350
11
31.428261
21
21.145613
0
LINE
8
boundary
62
5
39
2
10
31.428261
20
21.145613
11
31.088482
21
20.996570
0
LINE
8
boundary
62
5
39
2
10
31.088482
20
20.996570
11
31.065445
21
20.985115
0
LINE
8
boundary
62
5
39
2
10
31.065445
20
20.985115
11
30.760887
21
20.833684
0
LINE
8
boundary
62
5
39
2
10
30.760887
20
20.833684
11
30.724641
21
20.813370
0
LINE
8
boundary
62
5
39
2
10
30.724641
20
20.813370
11
30.446206
21
20.657314
0
LINE
8
boundary
62
5
39
2
10
30.446206
20
20.657314
11
30.398951
21
20.627578
0
LINE
8
boundary
62
5
39
2
10
30.398951
20
20.627578
11
30.145125
21
20.467850
0
LINE
8
boundary
62
5
39
2
10
30.145125
20
20.467850
11
30.089040
21
20.428322
0
LINE
8
boundary
62
5
39
2
10
30.089040
20
20.428322
11
29.858316
21
20.265708
0
LINE
8
boundary
62
5
39
2
10
29.858316
20
20.265708
11
29.795528
21
20.216207
0
LINE
8
boundary
62
5
39
2
10
29.795528
20
20.216207
11
29.586404
21
20.051336
0
LINE
8
boundary
62
5
39
2
10
29.586404
20
20.051336
11
29.518971
21
19.991866
0
LINE
8
boundary
62
5
39
2
10
29.518971
20
19.991866
11
29.379383
21
19.868763
0
LINE
8
boundary
62
5
39
2
10
29.379383
20
19.868763
11
30.195154
21
19.862513
0
LINE
8
boundary
62
5
39
2
10
30.195154
20
19.862513
11
30.195154
21
19.747513
0
LINE
8
boundary
62
5
39
2
10
30.195154
20
19.747513
11
29.251334
21
19.747513
0
LINE
8
boundary
62
5
39
2
10
29.251334
20
19.747513
11
29.089649
21
19.587814
0
LINE
8
boundary
62
5
39
2
10
29.089649
20
19.587814
11
29.018701
21
19.509135
0
LINE
8
boundary
62
5
39
2
10
29.018701
20
19.509135
11
28.865900
21
19.339686
0
LINE
8
boundary
62
5
39
2
10
28.865900
20
19.339686
11
28.795832
21
19.252103
0
LINE
8
boundary
62
5
39
2
10
28.795832
20
19.252103
11
28.659243
21
19.081370
0
LINE
8
boundary
62
5
39
2
10
28.659243
20
19.081370
11
28.591616
21
18.985556
0
LINE
8
boundary
62
5
39
2
10
28.591616
20
18.985556
11
28.470129
21
18.813434
0
LINE
8
boundary
62
5
39
2
10
28.470129
20
18.813434
11
28.406336
21
18.710205
0
LINE
8
boundary
62
5
39
2
10
28.406336
20
18.710205
11
28.298974
21
18.536470
0
LINE
8
boundary
62
5
39
2
10
28.298974
20
18.536470
11
28.240232
21
18.426767
0
LINE
8
boundary
62
5
39
2
10
28.240232
20
18.426767
11
28.146163
21
18.251088
0
LINE
8
boundary
62
5
39
2
10
28.146163
20
18.251088
11
28.093491
21
18.135967
0
LINE
8
boundary
62
5
39
2
10
28.093491
20
18.135967
11
28.012026
21
17.957918
0
LINE
8
boundary
62
5
39
2
10
28.012026
20
17.957918
11
27.966243
21
17.838532
0
LINE
8
boundary
62
5
39
2
10
27.966243
20
17.838532
11
27.896860
21
17.657607
0
LINE
8
boundary
62
5
39
2
10
27.896860
20
17.657607
11
27.858578
21
17.535189
0
LINE
8
boundary
62
5
39
2
10
27.858578
20
17.535189
11
27.800923
21
17.350815
0
LINE
8
boundary
62
5
39
2
10
27.800923
20
17.350815
11
27.770541
21
17.226665
0
LINE
8
boundary
62
5
39
2
10
27.770541
20
17.226665
11
27.724425
21
17.038220
0
LINE
8
boundary
62
5
39
2
10
27.724425
20
17.038220
11
27.702124
21
16.913686
0
LINE
8
boundary
62
5
39
2
10
27.702124
20
16.913686
11
27.667530
21
16.720512
0
LINE
8
boundary
62
5
39
2
10
27.667530
20
16.720512
11
27.653277
21
16.596970
0
LINE
8
boundary
62
5
39
2
10
27.653277
20
16.596970
11
27.630368
21
16.398392
0
LINE
8
boundary
62
5
39
2
10
27.630368
20
16.398392
11
27.623918
21
16.277232
0
LINE
8
boundary
62
5
39
2
10
27.623918
20
16.277232
11
27.613021
21
16.072569
0
LINE
8
boundary
62
5
39
2
10
27.613021
20
16.072569
11
27.613916
21
15.955176
0
LINE
8
boundary
62
5
39
2
10
27.613916
20
15.955176
11
27.615526
21
15.743763
0
LINE
8
boundary
62
5
39
2
10
27.615526
20
15.743763
11
27.623106
21
15.631500
0
LINE
8
boundary
62
5
39
2
10
27.623106
20
15.631500
11
27.630043
21
15.528751
0
LINE
8
boundary
62
5
39
2
10
27.630043
20
15.528751
11
28.682009
21
15.522501
0
LINE
8
boundary
62
5
39
2
10
28.682009
20
15.522501
11
28.682009
21
15.407501
0
LINE
8
boundary
62
5
39
2
10
28.682009
20
15.407501
11
27.640079
21
15.407501
0
LINE
8
boundary
62
5
39
2
10
27.640079
20
15.407501
11
27.651288
21
15.306889
0
LINE
8
boundary
62
5
39
2
10
27.651288
20
15.306889
11
27.680029
21
15.080101
0
LINE
8
boundary
62
5
39
2
10
27.680029
20
15.080101
11
27.698226
21
14.982020
0
LINE
8
boundary
62
5
39
2
10
27.698226
20
14.982020
11
27.741883
21
14.746712
0
LINE
8
boundary
62
5
39
2
10
27.741883
20
14.746712
11
27.763653
21
14.657556
0
LINE
8
boundary
62
5
39
2
10
27.763653
20
14.657556
11
27.823306
21
14.413263
0
LINE
8
boundary
62
5
39
2
10
27.823306
20
14.413263
11
27.847273
21
14.334146
0
LINE
8
boundary
62
5
39
2
10
27.847273
20
14.334146
11
27.924115
21
14.080489
0
LINE
8
boundary
62
5
39
2
10
27.924115
20
14.080489
11
27.948758
21
14.012427
0
LINE
8
boundary
62
5
39
2
10
27.948758
20
14.012427
11
28.044091
21
13.749124
0
LINE
8
boundary
62
5
39
2
10
28.044091
20
13.749124
11
28.067757
21
13.693021
0
LINE
8
boundary
62
5
39
2
10
28.067757
20
13.693021
11
28.182971
21
13.419899
0
LINE
8
boundary
62
5
39
2
10
28.182971
20
13.419899
11
28.203895
21
13.376534
0
LINE
8
boundary
62
5
39
2
10
28.203895
20
13.376534
11
28.340444
21
13.093540
0
LINE
8
boundary
62
5
39
2
10
28.340444
20
13.093540
11
28.356766
21
13.063559
0
LINE
8
boundary
62
5
39
2
10
28.356766
20
13.063559
11
28.516167
21
12.770767
0
LINE
8
boundary
62
5
39
2
10
28.516167
20
12.770767
11
28.709748
21
12.452292
0
LINE
8
boundary
62
5
39
2
10
28.709748
20
12.452292
11
28.736473
21
12.412590
0
LINE
8
boundary
62
5
39
2
10
28.736473
20
12.412590
11
28.882523
21
12.863599
0
LINE
8
boundary
62
5
39
2
10
28.882523
20
12.863599
11
29.666935
21
15.285902
0
LINE
8
boundary
62
5
39
2
10
29.666935
20
15.285902
11
30.116755
21
16.674971
0
LINE
8
boundary
62
5
39
2
10
30.116755
20
16.674971
11
30.408696
21
17.576497
0
LINE
8
boundary
62
5
39
2
10
30.408696
20
17.576497
11
30.613661
21
18.209441
0
LINE
8
boundary
62
5
39
2
10
30.613661
20
18.209441
11
30.765624
21
18.678709
0
LINE
8
boundary
62
5
39
2
10
30.765624
20
18.678709
11
30.882904
21
19.040875
0
LINE
8
boundary
62
5
39
2
10
30.882904
20
19.040875
11
30.976252
21
19.329140
0
LINE
8
boundary
62
5
39
2
10
30.976252
20
19.329140
11
31.052391
21
19.564260
0
LINE
8
boundary
62
5
39
2
10
31.052391
20
19.564260
11
31.115742
21
19.759892
0
LINE
8
boundary
62
5
39
2
10
31.115742
20
19.759892
11
31.169332
21
19.925380
0
LINE
8
boundary
62
5
39
2
10
31.169332
20
19.925380
11
31.215302
21
20.067337
0
LINE
8
boundary
62
5
39
2
10
31.215302
20
20.067337
11
31.255211
21
20.190578
0
LINE
8
boundary
62
5
39
2
10
31.255211
20
20.190578
11
31.290219
21
20.298685
0
LINE
8
boundary
62
5
39
2
10
31.290219
20
20.298685
11
31.321209
21
20.394385
0
LINE
8
boundary
62
5
39
2
10
31.321209
20
20.394385
11
31.348865
21
20.479788
0
LINE
8
boundary
62
5
39
2
10
31.348865
20
20.479788
11
31.373723
21
20.556550
0
LINE
8
boundary
62
5
39
2
10
31.373723
20
20.556550
11
31.396210
21
20.625991
0
LINE
8
boundary
62
5
39
2
10
31.396210
20
20.625991
11
31.416673
21
20.689180
0
LINE
8
boundary
62
5
39
2
10
31.416673
20
20.689180
11
31.435392
21
20.746985
0
LINE
8
boundary
62
5
39
2
10
31.435392
20
20.746985
11
31.452598
21
20.800121
0
LINE
8
boundary
62
5
39
2
10
31.452598
20
20.800121
11
31.468487
21
20.849185
0
LINE
8
boundary
62
5
39
2
10
31.468487
20
20.849185
11
31.483218
21
20.894675
0
LINE
8
boundary
62
5
39
2
10
31.483218
20
20.894675
11
31.496929
21
20.937014
0
LINE
8
boundary
62
5
39
2
10
31.496929
20
20.937014
11
31.509735
21
20.976560
0
LINE
8
boundary
62
5
39
2
10
31.509735
20
20.976560
11
31.521736
21
21.013620
0
LINE
8
boundary
62
5
39
2
10
31.521736
20
21.013620
11
31.533017
21
21.048459
0
LINE
8
boundary
62
5
39
2
10
31.533017
20
21.048459
11
31.543654
21
21.081306
0
LINE
8
boundary
62
5
39
2
10
31.543654
20
21.081306
11
31.553710
21
21.112359
0
LINE
8
boundary
62
5
39
2
10
31.553710
20
21.112359
11
31.563242
21
21.141795
0
LINE
8
boundary
62
5
39
2
10
31.563242
20
21.141795
11
31.572300
21
21.169765
0
LINE
8
boundary
62
5
39
2
10
31.572300
20
21.169765
11
31.580927
21
21.196406
0
LINE
8
boundary
62
5
39
2
10
31.580927
20
21.196406
11
31.583823
21
21.205350
0
LINE
8
annotation
62
1
39
211
10
28.981396
20
15.365000
11
28.892571
21
15.365000
0
LINE
8
annotation
62
1
39
211
10
28.892571
20
15.365000
11
28.974648
21
15.497133
0
LINE
8
annotation
62
1
39
211
10
28.974648
20
15.497133
11
28.974648
21
15.497133
0
LINE
8
annotation
62
1
39
211
10
28.974648
20
15.497133
11
28.974746
21
15.497255
0
LINE
8
annotation
62
1
39
211
10
28.974746
20
15.497255
11
28.974841
21
15.497377
0
LINE
8
annotation
62
1
39
211
10
28.974841
20
15.497377
11
28.974931
21
15.497502
0
LINE
8
annotation
62
1
39
211
10
28.974931
20
15.497502
11
28.975019
21
15.497629
0
LINE
8
annotation
62
1
39
211
10
28.975019
20
15.497629
11
28.975105
21
15.497761
0
LINE
8
annotation
62
1
39
211
10
28.975105
20
15.497761
11
28.975189
21
15.497898
0
LINE
8
annotation
62
1
39
211
10
28.975189
20
15.497898
11
28.975272
21
15.498041
0
LINE
8
annotation
62
1
39
211
10
28.975272
20
15.498041
11
28.975355
21
15.498191
0
LINE
8
annotation
62
1
39
211
10
28.975355
20
15.498191
11
28.975438
21
15.498350
0
LINE
8
annotation
62
1
39
211
10
28.975438
20
15.498350
11
28.975438
21
15.498350
0
LINE
8
annotation
62
1
39
211
10
28.975438
20
15.498350
11
28.978827
21
15.505626
0
LINE
8
annotation
62
1
39
211
10
28.978827
20
15.505626
11
28.980807
21
15.513169
0
LINE
8
annotation
62
1
39
211
10
28.980807
20
15.513169
11
28.981426
21
15.520807
0
LINE
8
annotation
62
1
39
211
10
28.981426
20
15.520807
11
28.980733
21
15.528371
0
LINE
8
annotation
62
1
39
211
10
28.980733
20
15.528371
11
28.978777
21
15.535690
0
LINE
8
annotation
62
1
39
211
10
28.978777
20
15.535690
11
28.975605
21
15.542593
0
LINE
8
annotation
62
1
39
211
10
28.975605
20
15.542593
11
28.971266
21
15.548910
0
LINE
8
annotation
62
1
39
211
10
28.971266
20
15.548910
11
28.965810
21
15.554471
0
LINE
8
annotation
62
1
39
211
10
28.965810
20
15.554471
11
28.959284
21
15.559105
0
LINE
8
annotation
62
1
39
211
10
28.959284
20
15.559105
11
28.959284
21
15.559105
0
LINE
8
annotation
62
1
39
211
10
28.959284
20
15.559105
11
28.951987
21
15.562446
0
LINE
8
annotation
62
1
39
211
10
28.951987
20
15.562446
11
28.944433
21
15.564395
0
LINE
8
annotation
62
1
39
211
10
28.944433
20
15.564395
11
28.936790
21
15.564997
0
LINE
8
annotation
62
1
39
211
10
28.936790
20
15.564997
11
28.929228
21
15.564294
0
LINE
8
annotation
62
1
39
211
10
28.929228
20
15.564294
11
28.921914
21
15.562332
0
LINE
8
annotation
62
1
39
211
10
28.921914
20
15.562332
11
28.915019
21
15.559154
0
LINE
8
annotation
62
1
39
211
10
28.915019
20
15.559154
11
28.908710
21
15.554804
0
LINE
8
annotation
62
1
39
211
10
28.908710
20
15.554804
11
28.903157
21
15.549325
0
LINE
8
annotation
62
1
39
211
10
28.903157
20
15.549325
11
28.898529
21
15.542762
0
LINE
8
annotation
62
1
39
211
10
28.898529
20
15.542762
11
28.892697
21
15.531575
0
LINE
8
annotation
62
1
39
211
10
30.405717
20
19.705019
11
30.450129
21
19.705019
0
LINE
8
annotation
62
1
39
211
10
30.450129
20
19.705019
11
30.450129
21
19.705019
0
LINE
8
annotation
62
1
39
211
10
30.450129
20
19.705019
11
30.458117
21
19.705735
0
LINE
8
annotation
62
1
39
211
10
30.458117
20
19.705735
11
30.465633
21
19.707801
0
LINE
8
annotation
62
1
39
211
10
30.465633
20
19.707801
11
30.472552
21
19.711087
0
LINE
8
annotation
62
1
39
211
10
30.472552
20
19.711087
11
30.478750
21
19.715469
0
LINE
8
annotation
62
1
39
211
10
30.478750
20
19.715469
11
30.484102
21
19.720820
0
LINE
8
annotation
62
1
39
211
10
30.484102
20
19.720820
11
30.488482
21
19.727012
0
LINE
8
annotation
62
1
39
211
10
30.488482
20
19.727012
11
30.491765
21
19.733918
0
LINE
8
annotation
62
1
39
211
10
30.491765
20
19.733918
11
30.493826
21
19.741413
0
LINE
8
annotation
62
1
39
211
10
30.493826
20
19.741413
11
30.494541
21
19.749369
0
LINE
8
annotation
62
1
39
211
10
30.494541
20
19.749369
11
30.494541
21
19.771606
0
LINE
8
annotation
62
1
39
211
10
30.494541
20
19.771606
11
30.494541
21
19.771606
0
LINE
8
annotation
62
1
39
211
10
30.494541
20
19.771606
11
30.493826
21
19.779559
0
LINE
8
annotation
62
1
39
211
10
30.493826
20
19.779559
11
30.491765
21
19.787051
0
LINE
8
annotation
62
1
39
211
10
30.491765
20
19.787051
11
30.488482
21
19.793957
0
LINE
8
annotation
62
1
39
211
10
30.488482
20
19.793957
11
30.484102
21
19.800150
0
LINE
8
annotation
62
1
39
211
10
30.484102
20
19.800150
11
30.478750
21
19.805501
0
LINE
8
annotation
62
1
39
211
10
30.478750
20
19.805501
11
30.472552
21
19.809884
0
LINE
8
annotation
62
1
39
211
10
30.472552
20
19.809884
11
30.465633
21
19.813173
0
LINE
8
annotation
62
1
39
211
10
30.465633
20
19.813173
11
30.458117
21
19.815239
0
LINE
8
annotation
62
1
39
211
10
30.458117
20
19.815239
11
30.450129
21
19.815956
0
LINE
8
annotation
62
1
39
211
10
30.450129
20
19.815956
11
30.427891
21
19.815956
0
LINE
8
annotation
62
1
39
211
10
30.427891
20
19.815956
11
30.450129
21
19.815956
0
LINE
8
annotation
62
1
39
211
10
30.450129
20
19.815956
11
30.450129
21
19.815956
0
LINE
8
annotation
62
1
39
211
10
30.450129
20
19.815956
11
30.458117
21
19.816673
0
LINE
8
annotation
62
1
39
211
10
30.458117
20
19.816673
11
30.465633
21
19.818740
0
LINE
8
annotation
62
1
39
211
10
30.465633
20
19.818740
11
30.472552
21
19.822032
0
LINE
8
annotation
62
1
39
211
10
30.472552
20
19.822032
11
30.478750
21
19.826422
0
LINE
8
annotation
62
1
39
211
10
30.478750
20
19.826422
11
30.484102
21
19.831783
0
LINE
8
annotation
62
1
39
211
10
30.484102
20
19.831783
11
30.488482
21
19.837991
0
LINE
8
annotation
62
1
39
211
10
30.488482
20
19.837991
11
30.491765
21
19.844919
0
LINE
8
annotation
62
1
39
211
10
30.491765
20
19.844919
11
30.493826
21
19.852441
0
LINE
8
annotation
62
1
39
211
10
30.493826
20
19.852441
11
30.494541
21
19.860431
0
LINE
8
annotation
62
1
39
211
10
30.494541
20
19.860431
11
30.494541
21
19.860431
0
LINE
8
annotation
62
1
39
211
10
30.494541
20
19.860431
11
30.493826
21
19.868383
0
LINE
8
annotation
62
1
39
211
10
30.493826
20
19.868383
11
30.491765
21
19.875876
0
LINE
8
annotation
62
1
39
211
10
30.491765
20
19.875876
11
30.488482
21
19.882782
0
LINE
8
annotation
62
1
39
211
10
30.488482
20
19.882782
11
30.484102
21
19.888974
0
LINE
8
annotation
62
1
39
211
10
30.484102
20
19.888974
11
30.478750
21
19.894326
0
LINE
8
annotation
62
1
39
211
10
30.478750
20
19.894326
11
30.472552
21
19.898709
0
LINE
8
annotation
62
1
39
211
10
30.472552
20
19.898709
11
30.465633
21
19.901997
0
LINE
8
annotation
62
1
39
211
10
30.465633
20
19.901997
11
30.458117
21
19.904064
0
LINE
8
annotation
62
1
39
211
10
30.458117
20
19.904064
11
30.450129
21
19.904781
0
LINE
8
annotation
62
1
39
211
10
30.450129
20
19.904781
11
30.405717
21
19.904781
0
LINE
8
annotation
62
1
39
211
10
28.603212
20
17.379467
11
28.497636
21
17.226760
0
LINE
8
annotation
62
1
39
211
10
28.497636
20
17.226760
11
28.392039
21
17.379467
0
LINE
8
annotation
62
1
39
211
10
28.497636
20
17.239049
11
28.497636
21
17.062876
0
LINE
8
annotation
62
1
39
211
10
28.895062
20
17.221172
11
28.721966
21
17.221172
0
LINE
8
annotation
62
1
39
211
10
29.119343
20
17.379457
11
29.119343
21
17.379457
0
LINE
8
annotation
62
1
39
211
10
29.119343
20
17.379457
11
29.099204
21
17.371906
0
LINE
8
annotation
62
1
39
211
10
29.099204
20
17.371906
11
29.080724
21
17.361732
0
LINE
8
annotation
62
1
39
211
10
29.080724
20
17.361732
11
29.064093
21
17.349190
0
LINE
8
annotation
62
1
39
211
10
29.064093
20
17.349190
11
29.049499
21
17.334535
0
LINE
8
annotation
62
1
39
211
10
29.049499
20
17.334535
11
29.037134
21
17.318022
0
LINE
8
annotation
62
1
39
211
10
29.037134
20
17.318022
11
29.027186
21
17.299905
0
LINE
8
annotation
62
1
39
211
10
29.027186
20
17.299905
11
29.019846
21
17.280440
0
LINE
8
annotation
62
1
39
211
10
29.019846
20
17.280440
11
29.015303
21
17.259881
0
LINE
8
annotation
62
1
39
211
10
29.015303
20
17.259881
11
29.013746
21
17.238483
0
LINE
8
annotation
62
1
39
211
10
29.013746
20
17.238483
11
29.013746
21
17.133264
0
LINE
8
annotation
62
1
39
211
10
29.013746
20
17.133264
11
29.013746
21
17.133264
0
LINE
8
annotation
62
1
39
211
10
29.013746
20
17.133264
11
29.014881
21
17.120618
0
LINE
8
annotation
62
1
39
211
10
29.014881
20
17.120618
11
29.018153
21
17.108714
0
LINE
8
annotation
62
1
39
211
10
29.018153
20
17.108714
11
29.023360
21
17.097750
0
LINE
8
annotation
62
1
39
211
10
29.023360
20
17.097750
11
29.030303
21
17.087927
0
LINE
8
annotation
62
1
39
211
10
29.030303
20
17.087927
11
29.038782
21
17.079444
0
LINE
8
annotation
62
1
39
211
10
29.038782
20
17.079444
11
29.048596
21
17.072498
0
LINE
8
annotation
62
1
39
211
10
29.048596
20
17.072498
11
29.059544
21
17.067291
0
LINE
8
annotation
62
1
39
211
10
29.059544
20
17.067291
11
29.071427
21
17.064020
0
LINE
8
annotation
62
1
39
211
10
29.071427
20
17.064020
11
29.084045
21
17.062886
0
LINE
8
annotation
62
1
39
211
10
29.084045
20
17.062886
11
29.084045
21
17.062886
0
LINE
8
annotation
62
1
39
211
10
29.084045
20
17.062886
11
29.096688
21
17.064020
0
LINE
8
annotation
62
1
39
211
10
29.096688
20
17.064020
11
29.108585
21
17.067291
0
LINE
8
annotation
62
1
39
211
10
29.108585
20
17.067291
11
29.119537
21
17.072498
0
LINE
8
annotation
62
1
39
211
10
29.119537
20
17.072498
11
29.129348
21
17.079444
0
LINE
8
annotation
62
1
39
211
10
29.129348
20
17.079444
11
29.137818
21
17.087927
0
LINE
8
annotation
62
1
39
211
10
29.137818
20
17.087927
11
29.144751
21
17.097750
0
LINE
8
annotation
62
1
39
211
10
29.144751
20
17.097750
11
29.149948
21
17.108714
0
LINE
8
annotation
62
1
39
211
10
29.149948
20
17.108714
11
29.153211
21
17.120618
0
LINE
8
annotation
62
1
39
211
10
29.153211
20
17.120618
11
29.154343
21
17.133264
0
LINE
8
annotation
62
1
39
211
10
29.154343
20
17.133264
11
29.154343
21
17.168284
0
LINE
8
annotation
62
1
39
211
10
29.154343
20
17.168284
11
29.154343
21
17.168284
0
LINE
8
annotation
62
1
39
211
10
29.154343
20
17.168284
11
29.153211
21
17.180924
0
LINE
8
annotation
62
1
39
211
10
29.153211
20
17.180924
11
29.149948
21
17.192812
0
LINE
8
annotation
62
1
39
211
10
29.149948
20
17.192812
11
29.144751
21
17.203751
0
LINE
8
annotation
62
1
39
211
10
29.144751
20
17.203751
11
29.137818
21
17.213546
0
LINE
8
annotation
62
1
39
211
10
29.137818
20
17.213546
11
29.129348
21
17.222000
0
LINE
8
annotation
62
1
39
211
10
29.129348
20
17.222000
11
29.119537
21
17.228917
0
LINE
8
annotation
62
1
39
211
10
29.119537
20
17.228917
11
29.108585
21
17.234101
0
LINE
8
annotation
62
1
39
211
10
29.108585
20
17.234101
11
29.096688
21
17.237355
0
LINE
8
annotation
62
1
39
211
10
29.096688
20
17.237355
11
29.084045
21
17.238483
0
LINE
8
annotation
62
1
39
211
10
29.084045
20
17.238483
11
29.013746
21
17.238483
0
LINE
8
annotation
62
1
39
211
10
29.004941
20
17.023315
11
29.163227
21
17.023315
0
LINE
8
annotation
62
1
39
211
10
29.446182
20
17.221172
11
29.273087
21
17.221172
0
LINE
8
annotation
62
1
39
211
10
29.705487
20
17.062883
11
29.564891
21
17.062883
0
LINE
8
annotation
62
1
39
211
10
29.564891
20
17.062883
11
29.694807
21
17.272032
0
LINE
8
annotation
62
1
39
211
10
29.694807
20
17.272032
11
29.694807
21
17.272032
0
LINE
8
annotation
62
1
39
211
10
29.694807
20
17.272032
11
29.694962
21
17.272224
0
LINE
8
annotation
62
1
39
211
10
29.694962
20
17.272224
11
29.695111
21
17.272418
0
LINE
8
annotation
62
1
39
211
10
29.695111
20
17.272418
11
29.695254
21
17.272615
0
LINE
8
annotation
62
1
39
211
10
29.695254
20
17.272615
11
29.695394
21
17.272817
0
LINE
8
annotation
62
1
39
211
10
29.695394
20
17.272817
11
29.695529
21
17.273025
0
LINE
8
annotation
62
1
39
211
10
29.695529
20
17.273025
11
29.695663
21
17.273242
0
LINE
8
annotation
62
1
39
211
10
29.695663
20
17.273242
11
29.695794
21
17.273468
0
LINE
8
annotation
62
1
39
211
10
29.695794
20
17.273468
11
29.695926
21
17.273706
0
LINE
8
annotation
62
1
39
211
10
29.695926
20
17.273706
11
29.696057
21
17.273957
0
LINE
8
annotation
62
1
39
211
10
29.696057
20
17.273957
11
29.696057
21
17.273957
0
LINE
8
annotation
62
1
39
211
10
29.696057
20
17.273957
11
29.701422
21
17.285475
0
LINE
8
annotation
62
1
39
211
10
29.701422
20
17.285475
11
29.704555
21
17.297413
0
LINE
8
annotation
62
1
39
211
10
29.704555
20
17.297413
11
29.705535
21
17.309504
0
LINE
8
annotation
62
1
39
211
10
29.705535
20
17.309504
11
29.704438
21
17.321476
0
LINE
8
annotation
62
1
39
211
10
29.704438
20
17.321476
11
29.701341
21
17.333061
0
LINE
8
annotation
62
1
39
211
10
29.701341
20
17.333061
11
29.696321
21
17.343987
0
LINE
8
annotation
62
1
39
211
10
29.696321
20
17.343987
11
29.689454
21
17.353987
0
LINE
8
annotation
62
1
39
211
10
29.689454
20
17.353987
11
29.680817
21
17.362789
0
LINE
8
annotation
62
1
39
211
10
29.680817
20
17.362789
11
29.670487
21
17.370124
0
LINE
8
annotation
62
1
39
211
10
29.670487
20
17.370124
11
29.670487
21
17.370124
0
LINE
8
annotation
62
1
39
211
10
29.670487
20
17.370124
11
29.658938
21
17.375412
0
LINE
8
annotation
62
1
39
211
10
29.658938
20
17.375412
11
29.646981
21
17.378497
0
LINE
8
annotation
62
1
39
211
10
29.646981
20
17.378497
11
29.634883
21
17.379449
0
LINE
8
annotation
62
1
39
211
10
29.634883
20
17.379449
11
29.622913
21
17.378338
0
LINE
8
annotation
62
1
39
211
10
29.622913
20
17.378338
11
29.611336
21
17.375232
0
LINE
8
annotation
62
1
39
211
10
29.611336
20
17.375232
11
29.600422
21
17.370202
0
LINE
8
annotation
62
1
39
211
10
29.600422
20
17.370202
11
29.590436
21
17.363316
0
LINE
8
annotation
62
1
39
211
10
29.590436
20
17.363316
11
29.581647
21
17.354644
0
LINE
8
annotation
62
1
39
211
10
29.581647
20
17.354644
11
29.574321
21
17.344256
0
LINE
8
annotation
62
1
39
211
10
29.574321
20
17.344256
11
29.565089
21
17.326547
0
LINE
8
frame
62
5
39
2
10
0.000000
20
0.000000
11
38.000000
21
0.000000
0
LINE
8
frame
62
5
39
2
10
38.000000
20
0.000000
11
38.000000
21
26.000000
0
LINE
8
frame
62
5
39
2
10
38.000000
20
26.000000
11
0.000000
21
26.000000
0
LINE
8
frame
62
5
39
2
10
0.000000
20
26.000000
11
0.000000
21
0.000000
0
ENDSEC
0
EOF
