0
SECTION
2
HEADER
9
$ACADVER
1
AC1009
0
ENDSEC
0
SECTION
2
TABLES
0
TABLE
2
VPORT
70
1
0
VPORT
2
ACTIVE
70
0
10
0.0
20
0.0
11
0.0
21
0.0
12
0.0
22
0.0
13
0.0
23
0.0
14
0.0
24
0.0
15
0.0
25
0.0
16
0.0
26
0.0
36
0.0
17
0.0
27
0.0
37
0.0
40
0.0
41
0.0
42
0.0
43
0.0
44
0.0
50
0.0
51
0.0
71
0
72
1000
73
1
74
3
75
0
76
0
77
0
78
0
0
ENDTAB
0
ENDSEC
0
SECTION
2
ENTITIES
0
LINE
8
boundary
62
5
39
2
10
12.047840
20
22.979975
11
11.983130
21
23.031620
0
LINE
8
boundary
62
5
39
2
10
11.983130
20
23.031620
11
11.906636
21
23.088039
0
LINE
8
boundary
62
5
39
2
10
11.906636
20
23.088039
11
11.648691
21
23.278287
0
LINE
8
boundary
62
5
39
2
10
11.648691
20
23.278287
11
11.545223
21
23.348774
0
LINE
8
boundary
62
5
39
2
10
11.545223
20
23.348774
11
11.302475
21
23.514143
0
LINE
8
boundary
62
5
39
2
10
11.302475
20
23.514143
11
11.170115
21
23.597335
0
LINE
8
boundary
62
5
39
2
10
11.170115
20
23.597335
11
10.945247
21
23.738670
0
LINE
8
boundary
62
5
39
2
10
10.945247
20
23.738670
11
10.782270
21
23.833009
0
LINE
8
boundary
62
5
39
2
10
10.782270
20
23.833009
11
10.577794
21
23.951370
0
LINE
8
boundary
62
5
39
2
10
10.577794
20
23.951370
11
10.382692
21
24.055119
0
LINE
8
boundary
62
5
39
2
10
10.382692
20
24.055119
11
10.200931
21
24.151774
0
LINE
8
boundary
62
5
39
2
10
10.200931
20
24.151774
11
9.972428
21
24.263029
0
LINE
8
boundary
62
5
39
2
10
9.972428
20
24.263029
11
9.815483
21
24.339444
0
LINE
8
boundary
62
5
39
2
10
9.815483
20
24.339444
11
9.552560
21
24.456145
0
LINE
8
boundary
62
5
39
2
10
9.552560
20
24.456145
11
9.422300
21
24.513961
0
LINE
8
boundary
62
5
39
2
10
9.422300
20
24.513961
11
9.124210
21
24.633916
0
LINE
8
boundary
62
5
39
2
10
9.124210
20
24.633916
11
9.022254
21
24.674944
0
LINE
8
boundary
62
5
39
2
10
9.022254
20
24.674944
11
8.688531
21
24.795841
0
LINE
8
boundary
62
5
39
2
10
8.688531
20
24.795841
11
8.616225
21
24.822035
0
LINE
8
boundary
62
5
39
2
10
8.616225
20
24.822035
11
8.246697
21
24.941470
0
LINE
8
boundary
62
5
39
2
10
8.246697
20
24.941470
11
8.205107
21
24.954913
0
LINE
8
boundary
62
5
39
2
10
8.205107
20
24.954913
11
7.799904
21
25.070404
0
LINE
8
boundary
62
5
39
2
10
7.799904
20
25.070404
11
7.656908
21
25.106176
0
LINE
8
boundary
62
5
39
2
10
7.656908
20
25.106176
11
7.047287
21
23.223636
0
LINE
8
boundary
62
5
39
2
10
7.047287
20
23.223636
11
6.999250
21
23.075295
0
LINE
8
boundary
62
5
39
2
10
6.999250
20
23.075295
11
9.493734
21
23.069045
0
LINE
8
boundary
62
5
39
2
10
9.493734
20
23.069045
11
9.493734
21
22.954045
0
LINE
8
boundary
62
5
39
2
10
9.493734
20
22.954045
11
6.959985
21
22.954045
0
LINE
8
boundary
62
5
39
2
10
6.959985
20
22.954045
11
6.154357
21
20.466224
0
LINE
8
boundary
62
5
39
2
10
6.154357
20
20.466224
11
5.959104
21
19.863271
0
LINE
8
boundary
62
5
39
2
10
5.959104
20
19.863271
11
5.593828
21
18.735284
0
LINE
8
boundary
62
5
39
2
10
5.593828
20
18.735284
11
11.410896
21
18.729034
0
LINE
8
boundary
62
5
39
2
10
11.410896
20
18.729034
11
11.410896
21
18.614034
0
LINE
8
boundary
62
5
39
2
10
11.410896
20
18.614034
11
5.554564
21
18.614034
0
LINE
8
boundary
62
5
39
2
10
5.554564
20
18.614034
11
5.263687
21
17.715791
0
LINE
8
boundary
62
5
39
2
10
5.263687
20
17.715791
11
4.954306
21
16.760407
0
LINE
8
boundary
62
5
39
2
10
4.954306
20
16.760407
11
4.377252
21
14.978436
0
LINE
8
boundary
62
5
39
2
10
4.377252
20
14.978436
11
4.188407
21
14.395273
0
LINE
8
boundary
62
5
39
2
10
4.188407
20
14.395273
11
10.520096
21
14.389023
0
LINE
8
boundary
62
5
39
2
10
10.520096
20
14.389023
11
10.520096
21
14.274022
0
LINE
8
boundary
62
5
39
2
10
10.520096
20
14.274022
11
4.149143
21
14.274022
0
LINE
8
boundary
62
5
39
2
10
4.149143
20
14.274022
11
3.955939
21
13.677399
0
LINE
8
boundary
62
5
39
2
10
3.955939
20
13.677399
11
3.497000
21
12.260174
0
LINE
8
boundary
62
5
39
2
10
3.497000
20
12.260174
11
2.966590
21
10.622241
0
LINE
8
boundary
62
5
39
2
10
2.966590
20
10.622241
11
2.782986
21
10.055261
0
LINE
8
boundary
62
5
39
2
10
2.782986
20
10.055261
11
9.114674
21
10.049011
0
LINE
8
boundary
62
5
39
2
10
9.114674
20
10.049011
11
9.114674
21
9.934011
0
LINE
8
boundary
62
5
39
2
10
9.114674
20
9.934011
11
2.743721
21
9.934011
0
LINE
8
boundary
62
5
39
2
10
2.743721
20
9.934011
11
2.624878
21
9.567018
0
LINE
8
boundary
62
5
39
2
10
2.624878
20
9.567018
11
1.988830
21
7.602868
0
LINE
8
boundary
62
5
39
2
10
1.988830
20
7.602868
11
1.762805
21
6.904891
0
LINE
8
boundary
62
5
39
2
10
1.762805
20
6.904891
11
1.377564
21
5.715250
0
LINE
8
boundary
62
5
39
2
10
1.377564
20
5.715250
11
7.709253
21
5.709000
0
LINE
8
boundary
62
5
39
2
10
7.709253
20
5.709000
11
7.709253
21
5.594000
0
LINE
8
boundary
62
5
39
2
10
7.709253
20
5.594000
11
1.338300
21
5.594000
0
LINE
8
boundary
62
5
39
2
10
1.338300
20
5.594000
11
1.025203
21
4.627141
0
LINE
8
boundary
62
5
39
2
10
1.025203
20
4.627141
11
0.912685
21
4.279679
0
LINE
8
boundary
62
5
39
2
10
0.912685
20
4.279679
11
0.078220
21
1.702810
0
LINE
8
boundary
62
5
39
2
10
0.078220
20
1.702810
11
0.062500
21
1.654266
0
LINE
8
boundary
62
5
39
2
10
0.062500
20
1.654266
11
0.418145
21
1.459882
0
LINE
8
boundary
62
5
39
2
10
0.418145
20
1.459882
11
0.442778
21
1.446438
0
LINE
8
boundary
62
5
39
2
10
0.442778
20
1.446438
11
0.597607
21
1.368989
0
LINE
8
boundary
62
5
39
2
10
0.597607
20
1.368989
11
6.432322
21
1.368989
0
LINE
8
boundary
62
5
39
2
10
6.432322
20
1.368989
11
6.432321
21
1.253989
0
LINE
8
boundary
62
5
39
2
10
6.432321
20
1.253989
11
0.842109
21
1.253989
0
LINE
8
boundary
62
5
39
2
10
0.842109
20
1.253989
11
1.139616
21
1.111533
0
LINE
8
boundary
62
5
39
2
10
1.139616
20
1.111533
11
1.216660
21
1.076349
0
LINE
8
boundary
62
5
39
2
10
1.216660
20
1.076349
11
1.509910
21
0.954715
0
LINE
8
boundary
62
5
39
2
10
1.509910
20
0.954715
11
1.614725
21
0.911240
0
LINE
8
boundary
62
5
39
2
10
1.614725
20
0.911240
11
1.885698
21
0.809824
0
LINE
8
boundary
62
5
39
2
10
1.885698
20
0.809824
11
2.019042
21
0.759918
0
LINE
8
boundary
62
5
39
2
10
2.019042
20
0.759918
11
2.266310
21
0.677107
0
LINE
8
boundary
62
5
39
2
10
2.266310
20
0.677107
11
2.428718
21
0.622716
0
LINE
8
boundary
62
5
39
2
10
2.428718
20
0.622716
11
2.651074
21
0.556794
0
LINE
8
boundary
62
5
39
2
10
2.651074
20
0.556794
11
2.842852
21
0.499938
0
LINE
8
boundary
62
5
39
2
10
2.842852
20
0.499938
11
3.039310
21
0.449099
0
LINE
8
boundary
62
5
39
2
10
3.039310
20
0.449099
11
3.260525
21
0.391853
0
LINE
8
boundary
62
5
39
2
10
3.260525
20
0.391853
11
3.430334
21
0.354217
0
LINE
8
boundary
62
5
39
2
10
3.430334
20
0.354217
11
3.680822
21
0.298700
0
LINE
8
boundary
62
5
39
2
10
3.680822
20
0.298700
11
3.823461
21
0.272329
0
LINE
8
boundary
62
5
39
2
10
3.823461
20
0.272329
11
4.102815
21
0.220683
0
LINE
8
boundary
62
5
39
2
10
4.102815
20
0.220683
11
4.217996
21
0.203599
0
LINE
8
boundary
62
5
39
2
10
4.217996
20
0.203599
11
4.525572
21
0.157977
0
LINE
8
boundary
62
5
39
2
10
4.525572
20
0.157977
11
4.613240
21
0.148173
0
LINE
8
boundary
62
5
39
2
10
4.613240
20
0.148173
11
4.948158
21
0.110718
0
LINE
8
boundary
62
5
39
2
10
4.948158
20
0.110718
11
5.008492
21
0.106180
0
LINE
8
boundary
62
5
39
2
10
5.008492
20
0.106180
11
5.369646
21
0.079012
0
LINE
8
boundary
62
5
39
2
10
5.369646
20
0.079012
11
5.403049
21
0.077731
0
LINE
8
boundary
62
5
39
2
10
5.403049
20
0.077731
11
5.789105
21
0.062926
0
LINE
8
boundary
62
5
39
2
10
5.789105
20
0.062926
11
5.904472
21
0.062808
0
LINE
8
boundary
62
5
39
2
10
5.904472
20
0.062808
11
6.187086
21
0.062519
0
LINE
8
boundary
62
5
39
2
10
6.187086
20
0.062519
11
6.574995
21
0.076135
0
LINE
8
boundary
62
5
39
2
10
6.574995
20
0.076135
11
6.618236
21
0.077731
0
LINE
8
boundary
62
5
39
2
10
6.618236
20
0.077731
11
6.959260
21
0.103531
0
LINE
8
boundary
62
5
39
2
10
6.959260
20
0.103531
11
7.026083
21
0.108586
0
LINE
8
boundary
62
5
39
2
10
7.026083
20
0.108586
11
7.339167
21
0.144719
0
LINE
8
boundary
62
5
39
2
10
7.339167
20
0.144719
11
7.428248
21
0.154999
0
LINE
8
boundary
62
5
39
2
10
7.428248
20
0.154999
11
7.714000
21
0.199687
0
LINE
8
boundary
62
5
39
2
10
7.714000
20
0.199687
11
7.823842
21
0.216865
0
LINE
8
boundary
62
5
39
2
10
7.823842
20
0.216865
11
8.083045
21
0.268408
0
LINE
8
boundary
62
5
39
2
10
8.083045
20
0.268408
11
8.211994
21
0.294050
0
LINE
8
boundary
62
5
39
2
10
8.211994
20
0.294050
11
8.353167
21
0.328366
0
LINE
8
boundary
62
5
39
2
10
8.353167
20
0.328366
11
8.591849
21
0.386383
0
LINE
8
boundary
62
5
39
2
10
8.591849
20
0.386383
11
12.722301
21
1.484843
0
LINE
8
boundary
62
5
39
2
10
12.722301
20
1.484843
11
18.067363
21
17.990661
0
LINE
8
boundary
62
5
39
2
10
18.067363
20
17.990661
11
16.112920
21
19.613293
0
LINE
8
boundary
62
5
39
2
10
16.112920
20
19.613293
11
12.305058
21
22.774686
0
LINE
8
boundary
62
5
39
2
10
12.305058
20
22.774686
11
12.047840
21
22.979975
0
LINE
8
annotation
62
1
39
211
10
6.709534
20
1.211489
11
6.709534
21
1.411489
0
LINE
8
annotation
62
1
39
211
10
6.709534
20
1.411489
11
6.665071
21
1.367014
0
LINE
8
annotation
62
1
39
211
10
8.008640
20
5.551499
11
7.919815
21
5.551499
0
LINE
8
annotation
62
1
39
211
10
7.919815
20
5.551499
11
8.001892
21
5.683632
0
LINE
8
annotation
62
1
39
211
10
8.001892
20
5.683632
11
8.001892
21
5.683632
0
LINE
8
annotation
62
1
39
211
10
8.001892
20
5.683632
11
8.001991
21
5.683753
0
LINE
8
annotation
62
1
39
211
10
8.001991
20
5.683753
11
8.002085
21
5.683876
0
LINE
8
annotation
62
1
39
211
10
8.002085
20
5.683876
11
8.002175
21
5.684000
0
LINE
8
annotation
62
1
39
211
10
8.002175
20
5.684000
11
8.002263
21
5.684128
0
LINE
8
annotation
62
1
39
211
10
8.002263
20
5.684128
11
8.002349
21
5.684260
0
LINE
8
annotation
62
1
39
211
10
8.002349
20
5.684260
11
8.002433
21
5.684397
0
LINE
8
annotation
62
1
39
211
10
8.002433
20
5.684397
11
8.002516
21
5.684540
0
LINE
8
annotation
62
1
39
211
10
8.002516
20
5.684540
11
8.002599
21
5.684690
0
LINE
8
annotation
62
1
39
211
10
8.002599
20
5.684690
11
8.002683
21
5.684849
0
LINE
8
annotation
62
1
39
211
10
8.002683
20
5.684849
11
8.002683
21
5.684849
0
LINE
8
annotation
62
1
39
211
10
8.002683
20
5.684849
11
8.006071
21
5.692125
0
LINE
8
annotation
62
1
39
211
10
8.006071
20
5.692125
11
8.008051
21
5.699668
0
LINE
8
annotation
62
1
39
211
10
8.008051
20
5.699668
11
8.008670
21
5.707306
0
LINE
8
annotation
62
1
39
211
10
8.008670
20
5.707306
11
8.007977
21
5.714870
0
LINE
8
annotation
62
1
39
211
10
8.007977
20
5.714870
11
8.006021
21
5.722188
0
LINE
8
annotation
62
1
39
211
10
8.006021
20
5.722188
11
8.002849
21
5.729092
0
LINE
8
annotation
62
1
39
211
10
8.002849
20
5.729092
11
7.998510
21
5.735409
0
LINE
8
annotation
62
1
39
211
10
7.998510
20
5.735409
11
7.993054
21
5.740970
0
LINE
8
annotation
62
1
39
211
10
7.993054
20
5.740970
11
7.986528
21
5.745604
0
LINE
8
annotation
62
1
39
211
10
7.986528
20
5.745604
11
7.986528
21
5.745604
0
LINE
8
annotation
62
1
39
211
10
7.986528
20
5.745604
11
7.979231
21
5.748945
0
LINE
8
annotation
62
1
39
211
10
7.979231
20
5.748945
11
7.971677
21
5.750894
0
LINE
8
annotation
62
1
39
211
10
7.971677
20
5.750894
11
7.964035
21
5.751495
0
LINE
8
annotation
62
1
39
211
10
7.964035
20
5.751495
11
7.956472
21
5.750793
0
LINE
8
annotation
62
1
39
211
10
7.956472
20
5.750793
11
7.949158
21
5.748831
0
LINE
8
annotation
62
1
39
211
10
7.949158
20
5.748831
11
7.942263
21
5.745653
0
LINE
8
annotation
62
1
39
211
10
7.942263
20
5.745653
11
7.935954
21
5.741303
0
LINE
8
annotation
62
1
39
211
10
7.935954
20
5.741303
11
7.930401
21
5.735824
0
LINE
8
annotation
62
1
39
211
10
7.930401
20
5.735824
11
7.925773
21
5.729261
0
LINE
8
annotation
62
1
39
211
10
7.925773
20
5.729261
11
7.919941
21
5.718073
0
LINE
8
annotation
62
1
39
211
10
9.325237
20
9.891518
11
9.369649
21
9.891518
0
LINE
8
annotation
62
1
39
211
10
9.369649
20
9.891518
11
9.369649
21
9.891518
0
LINE
8
annotation
62
1
39
211
10
9.369649
20
9.891518
11
9.377637
21
9.892234
0
LINE
8
annotation
62
1
39
211
10
9.377637
20
9.892234
11
9.385153
21
9.894299
0
LINE
8
annotation
62
1
39
211
10
9.385153
20
9.894299
11
9.392072
21
9.897586
0
LINE
8
annotation
62
1
39
211
10
9.392072
20
9.897586
11
9.398270
21
9.901968
0
LINE
8
annotation
62
1
39
211
10
9.398270
20
9.901968
11
9.403622
21
9.907319
0
LINE
8
annotation
62
1
39
211
10
9.403622
20
9.907319
11
9.408002
21
9.913510
0
LINE
8
annotation
62
1
39
211
10
9.408002
20
9.913510
11
9.411285
21
9.920417
0
LINE
8
annotation
62
1
39
211
10
9.411285
20
9.920417
11
9.413346
21
9.927912
0
LINE
8
annotation
62
1
39
211
10
9.413346
20
9.927912
11
9.414061
21
9.935867
0
LINE
8
annotation
62
1
39
211
10
9.414061
20
9.935867
11
9.414061
21
9.958105
0
LINE
8
annotation
62
1
39
211
10
9.414061
20
9.958105
11
9.414061
21
9.958105
0
LINE
8
annotation
62
1
39
211
10
9.414061
20
9.958105
11
9.413346
21
9.966057
0
LINE
8
annotation
62
1
39
211
10
9.413346
20
9.966057
11
9.411285
21
9.973550
0
LINE
8
annotation
62
1
39
211
10
9.411285
20
9.973550
11
9.408002
21
9.980456
0
LINE
8
annotation
62
1
39
211
10
9.408002
20
9.980456
11
9.403622
21
9.986648
0
LINE
8
annotation
62
1
39
211
10
9.403622
20
9.986648
11
9.398270
21
9.992000
0
LINE
8
annotation
62
1
39
211
10
9.398270
20
9.992000
11
9.392072
21
9.996383
0
LINE
8
annotation
62
1
39
211
10
9.392072
20
9.996383
11
9.385153
21
9.999671
0
LINE
8
annotation
62
1
39
211
10
9.385153
20
9.999671
11
9.377637
21
10.001738
0
LINE
8
annotation
62
1
39
211
10
9.377637
20
10.001738
11
9.369649
21
10.002455
0
LINE
8
annotation
62
1
39
211
10
9.369649
20
10.002455
11
9.347412
21
10.002455
0
LINE
8
annotation
62
1
39
211
10
9.347412
20
10.002455
11
9.369649
21
10.002455
0
LINE
8
annotation
62
1
39
211
10
9.369649
20
10.002455
11
9.369649
21
10.002455
0
LINE
8
annotation
62
1
39
211
10
9.369649
20
10.002455
11
9.377637
21
10.003172
0
LINE
8
annotation
62
1
39
211
10
9.377637
20
10.003172
11
9.385153
21
10.005239
0
LINE
8
annotation
62
1
39
211
10
9.385153
20
10.005239
11
9.392072
21
10.008531
0
LINE
8
annotation
62
1
39
211
10
9.392072
20
10.008531
11
9.398270
21
10.012920
0
LINE
8
annotation
62
1
39
211
10
9.398270
20
10.012920
11
9.403622
21
10.018282
0
LINE
8
annotation
62
1
39
211
10
9.403622
20
10.018282
11
9.408002
21
10.024490
0
LINE
8
annotation
62
1
39
211
10
9.408002
20
10.024490
11
9.411285
21
10.031418
0
LINE
8
annotation
62
1
39
211
10
9.411285
20
10.031418
11
9.413346
21
10.038940
0
LINE
8
annotation
62
1
39
211
10
9.413346
20
10.038940
11
9.414061
21
10.046930
0
LINE
8
annotation
62
1
39
211
10
9.414061
20
10.046930
11
9.414061
21
10.046930
0
LINE
8
annotation
62
1
39
211
10
9.414061
20
10.046930
11
9.413346
21
10.054882
0
LINE
8
annotation
62
1
39
211
10
9.413346
20
10.054882
11
9.411285
21
10.062375
0
LINE
8
annotation
62
1
39
211
10
9.411285
20
10.062375
11
9.408002
21
10.069281
0
LINE
8
annotation
62
1
39
211
10
9.408002
20
10.069281
11
9.403622
21
10.075473
0
LINE
8
annotation
62
1
39
211
10
9.403622
20
10.075473
11
9.398270
21
10.080825
0
LINE
8
annotation
62
1
39
211
10
9.398270
20
10.080825
11
9.392072
21
10.085208
0
LINE
8
annotation
62
1
39
211
10
9.392072
20
10.085208
11
9.385153
21
10.088496
0
LINE
8
annotation
62
1
39
211
10
9.385153
20
10.088496
11
9.377637
21
10.090562
0
LINE
8
annotation
62
1
39
211
10
9.377637
20
10.090562
11
9.369649
21
10.091279
0
LINE
8
annotation
62
1
39
211
10
9.369649
20
10.091279
11
9.325237
21
10.091279
0
LINE
8
annotation
62
1
39
211
10
10.830595
20
14.275985
11
10.719546
21
14.275985
0
LINE
8
annotation
62
1
39
211
10
10.719546
20
14.275985
11
10.763895
21
14.431522
0
LINE
8
annotation
62
1
39
211
10
10.797308
20
14.231522
11
10.797308
21
14.320347
0
LINE
8
annotation
62
1
39
211
10
11.621459
20
18.571534
11
11.665871
21
18.571534
0
LINE
8
annotation
62
1
39
211
10
11.665871
20
18.571534
11
11.665871
21
18.571534
0
LINE
8
annotation
62
1
39
211
10
11.665871
20
18.571534
11
11.673842
21
18.572250
0
LINE
8
annotation
62
1
39
211
10
11.673842
20
18.572250
11
11.681350
21
18.574317
0
LINE
8
annotation
62
1
39
211
10
11.681350
20
18.574317
11
11.688267
21
18.577606
0
LINE
8
annotation
62
1
39
211
10
11.688267
20
18.577606
11
11.694467
21
18.581994
0
LINE
8
annotation
62
1
39
211
10
11.694467
20
18.581994
11
11.699823
21
18.587354
0
LINE
8
annotation
62
1
39
211
10
11.699823
20
18.587354
11
11.704210
21
18.593560
0
LINE
8
annotation
62
1
39
211
10
11.704210
20
18.593560
11
11.707500
21
18.600486
0
LINE
8
annotation
62
1
39
211
10
11.707500
20
18.600486
11
11.709567
21
18.608007
0
LINE
8
annotation
62
1
39
211
10
11.709567
20
18.608007
11
11.710284
21
18.615996
0
LINE
8
annotation
62
1
39
211
10
11.710284
20
18.615996
11
11.710284
21
18.638121
0
LINE
8
annotation
62
1
39
211
10
11.710284
20
18.638121
11
11.710284
21
18.638121
0
LINE
8
annotation
62
1
39
211
10
11.710284
20
18.638121
11
11.709567
21
18.646106
0
LINE
8
annotation
62
1
39
211
10
11.709567
20
18.646106
11
11.707501
21
18.653617
0
LINE
8
annotation
62
1
39
211
10
11.707501
20
18.653617
11
11.704213
21
18.660528
0
LINE
8
annotation
62
1
39
211
10
11.704213
20
18.660528
11
11.699828
21
18.666716
0
LINE
8
annotation
62
1
39
211
10
11.699828
20
18.666716
11
11.694472
21
18.672057
0
LINE
8
annotation
62
1
39
211
10
11.694472
20
18.672057
11
11.688272
21
18.676427
0
LINE
8
annotation
62
1
39
211
10
11.688272
20
18.676427
11
11.681355
21
18.679702
0
LINE
8
annotation
62
1
39
211
10
11.681355
20
18.679702
11
11.673846
21
18.681758
0
LINE
8
annotation
62
1
39
211
10
11.673846
20
18.681758
11
11.665871
21
18.682471
0
LINE
8
annotation
62
1
39
211
10
11.665871
20
18.682471
11
11.621459
21
18.682471
0
LINE
8
annotation
62
1
39
211
10
11.621459
20
18.682471
11
11.621459
21
18.771534
0
LINE
8
annotation
62
1
39
211
10
11.621459
20
18.771534
11
11.710284
21
18.771534
0
LINE
8
annotation
62
1
39
211
10
9.771009
20
23.111545
11
9.771009
21
23.111545
0
LINE
8
annotation
62
1
39
211
10
9.771009
20
23.111545
11
9.758286
21
23.106774
0
LINE
8
annotation
62
1
39
211
10
9.758286
20
23.106774
11
9.746611
21
23.100347
0
LINE
8
annotation
62
1
39
211
10
9.746611
20
23.100347
11
9.736104
21
23.092423
0
LINE
8
annotation
62
1
39
211
10
9.736104
20
23.092423
11
9.726884
21
23.083165
0
LINE
8
annotation
62
1
39
211
10
9.726884
20
23.083165
11
9.719072
21
23.072732
0
LINE
8
annotation
62
1
39
211
10
9.719072
20
23.072732
11
9.712787
21
23.061286
0
LINE
8
annotation
62
1
39
211
10
9.712787
20
23.061286
11
9.708150
21
23.048989
0
LINE
8
annotation
62
1
39
211
10
9.708150
20
23.048989
11
9.705280
21
23.036000
0
LINE
8
annotation
62
1
39
211
10
9.705280
20
23.036000
11
9.704296
21
23.022482
0
LINE
8
annotation
62
1
39
211
10
9.704296
20
23.022482
11
9.704296
21
22.956007
0
LINE
8
annotation
62
1
39
211
10
9.704296
20
22.956007
11
9.704296
21
22.956007
0
LINE
8
annotation
62
1
39
211
10
9.704296
20
22.956007
11
9.705013
21
22.948018
0
LINE
8
annotation
62
1
39
211
10
9.705013
20
22.948018
11
9.707080
21
22.940497
0
LINE
8
annotation
62
1
39
211
10
9.707080
20
22.940497
11
9.710370
21
22.933571
0
LINE
8
annotation
62
1
39
211
10
9.710370
20
22.933571
11
9.714757
21
22.927365
0
LINE
8
annotation
62
1
39
211
10
9.714757
20
22.927365
11
9.720113
21
22.922005
0
LINE
8
annotation
62
1
39
211
10
9.720113
20
22.922005
11
9.726313
21
22.917618
0
LINE
8
annotation
62
1
39
211
10
9.726313
20
22.917618
11
9.733230
21
22.914328
0
LINE
8
annotation
62
1
39
211
10
9.733230
20
22.914328
11
9.740737
21
22.912261
0
LINE
8
annotation
62
1
39
211
10
9.740737
20
22.912261
11
9.748709
21
22.911545
0
LINE
8
annotation
62
1
39
211
10
9.748709
20
22.911545
11
9.748709
21
22.911545
0
LINE
8
annotation
62
1
39
211
10
9.748709
20
22.911545
11
9.756696
21
22.912261
0
LINE
8
annotation
62
1
39
211
10
9.756696
20
22.912261
11
9.764212
21
22.914328
0
LINE
8
annotation
62
1
39
211
10
9.764212
20
22.914328
11
9.771132
21
22.917618
0
LINE
8
annotation
62
1
39
211
10
9.771132
20
22.917618
11
9.777330
21
22.922005
0
LINE
8
annotation
62
1
39
211
10
9.777330
20
22.922005
11
9.782681
21
22.927365
0
LINE
8
annotation
62
1
39
211
10
9.782681
20
22.927365
11
9.787061
21
22.933571
0
LINE
8
annotation
62
1
39
211
10
9.787061
20
22.933571
11
9.790344
21
22.940497
0
LINE
8
annotation
62
1
39
211
10
9.790344
20
22.940497
11
9.792406
21
22.948018
0
LINE
8
annotation
62
1
39
211
10
9.792406
20
22.948018
11
9.793121
21
22.956007
0
LINE
8
annotation
62
1
39
211
10
9.793121
20
22.956007
11
9.793121
21
22.978132
0
LINE
8
annotation
62
1
39
211
10
9.793121
20
22.978132
11
9.793121
21
22.978132
0
LINE
8
annotation
62
1
39
211
10
9.793121
20
22.978132
11
9.792406
21
22.986117
0
LINE
8
annotation
62
1
39
211
10
9.792406
20
22.986117
11
9.790344
21
22.993628
0
LINE
8
annotation
62
1
39
211
10
9.790344
20
22.993628
11
9.787061
21
23.000539
0
LINE
8
annotation
62
1
39
211
10
9.787061
20
23.000539
11
9.782681
21
23.006727
0
LINE
8
annotation
62
1
39
211
10
9.782681
20
23.006727
11
9.777330
21
23.012068
0
LINE
8
annotation
62
1
39
211
10
9.777330
20
23.012068
11
9.771132
21
23.016438
0
LINE
8
annotation
62
1
39
211
10
9.771132
20
23.016438
11
9.764212
21
23.019713
0
LINE
8
annotation
62
1
39
211
10
9.764212
20
23.019713
11
9.756696
21
23.021769
0
LINE
8
annotation
62
1
39
211
10
9.756696
20
23.021769
11
9.748709
21
23.022482
0
LINE
8
annotation
62
1
39
211
10
9.748709
20
23.022482
11
9.704296
21
23.022482
0
LINE
8
annotation
62
1
39
211
10
9.698734
20
22.886545
11
9.798734
21
22.886545
0
LINE
8
annotation
62
1
39
211
10
8.387554
20
13.094710
11
7.786144
21
12.224826
0
LINE
8
annotation
62
1
39
211
10
7.786144
20
12.224826
11
7.184621
21
13.094710
0
LINE
8
annotation
62
1
39
211
10
7.786144
20
12.294828
11
7.786144
21
11.291272
0
LINE
8
annotation
62
1
39
211
10
10.050054
20
12.192991
11
9.064027
21
12.192991
0
LINE
8
annotation
62
1
39
211
10
11.727426
20
11.692231
11
10.726132
21
11.692231
0
LINE
8
annotation
62
1
39
211
10
10.726132
20
11.692231
11
11.126016
21
13.094654
0
LINE
8
annotation
62
1
39
211
10
11.427286
20
11.291329
11
11.427286
21
12.092228
0
LINE
8
boundary
62
5
39
2
10
33.990951
20
23.319688
11
33.690186
21
23.508727
0
LINE
8
boundary
62
5
39
2
10
33.690186
20
23.508727
11
33.667722
21
23.521730
0
LINE
8
boundary
62
5
39
2
10
33.667722
20
23.521730
11
33.322734
21
23.721426
0
LINE
8
boundary
62
5
39
2
10
33.322734
20
23.721426
11
33.271876
21
23.748471
0
LINE
8
boundary
62
5
39
2
10
33.271876
20
23.748471
11
32.945871
21
23.921831
0
LINE
8
boundary
62
5
39
2
10
32.945871
20
23.921831
11
32.865009
21
23.961201
0
LINE
8
boundary
62
5
39
2
10
32.865009
20
23.961201
11
32.560423
21
24.109500
0
LINE
8
boundary
62
5
39
2
10
32.560423
20
24.109500
11
32.448192
21
24.159315
0
LINE
8
boundary
62
5
39
2
10
32.448192
20
24.159315
11
32.167240
21
24.284018
0
LINE
8
boundary
62
5
39
2
10
32.167240
20
24.284018
11
32.022537
21
24.342248
0
LINE
8
boundary
62
5
39
2
10
32.022537
20
24.342248
11
31.767193
21
24.445001
0
LINE
8
boundary
62
5
39
2
10
31.767193
20
24.445001
11
31.589191
21
24.509485
0
LINE
8
boundary
62
5
39
2
10
31.589191
20
24.509485
11
31.361165
21
24.592092
0
LINE
8
boundary
62
5
39
2
10
31.361165
20
24.592092
11
31.149322
21
24.660561
0
LINE
8
boundary
62
5
39
2
10
31.149322
20
24.660561
11
30.950047
21
24.724969
0
LINE
8
boundary
62
5
39
2
10
30.950047
20
24.724969
11
30.704119
21
24.795063
0
LINE
8
boundary
62
5
39
2
10
30.704119
20
24.795063
11
30.534746
21
24.843338
0
LINE
8
boundary
62
5
39
2
10
30.534746
20
24.843338
11
30.254796
21
24.912629
0
LINE
8
boundary
62
5
39
2
10
30.254796
20
24.912629
11
30.116182
21
24.946937
0
LINE
8
boundary
62
5
39
2
10
30.116182
20
24.946937
11
29.802575
21
25.012953
0
LINE
8
boundary
62
5
39
2
10
29.802575
20
25.012953
11
29.695277
21
25.035539
0
LINE
8
boundary
62
5
39
2
10
29.695277
20
25.035539
11
29.348680
21
25.095787
0
LINE
8
boundary
62
5
39
2
10
29.348680
20
25.095787
11
29.272955
21
25.108950
0
LINE
8
boundary
62
5
39
2
10
29.272955
20
25.108950
11
28.894345
21
25.160936
0
LINE
8
boundary
62
5
39
2
10
28.894345
20
25.160936
11
28.850153
21
25.167004
0
LINE
8
boundary
62
5
39
2
10
28.850153
20
25.167004
11
28.440793
21
25.208266
0
LINE
8
boundary
62
5
39
2
10
28.440793
20
25.208266
11
28.249325
21
25.221020
0
LINE
8
boundary
62
5
39
2
10
28.249325
20
25.221020
11
28.006826
21
25.236570
0
LINE
8
boundary
62
5
39
2
10
28.006826
20
25.236570
11
27.588163
21
25.247929
0
LINE
8
boundary
62
5
39
2
10
27.588163
20
25.247929
11
27.541340
21
25.247444
0
LINE
8
boundary
62
5
39
2
10
27.541340
20
25.247444
11
27.172734
21
25.243627
0
LINE
8
boundary
62
5
39
2
10
27.172734
20
25.243627
11
27.097842
21
25.239994
0
LINE
8
boundary
62
5
39
2
10
27.097842
20
25.239994
11
26.761452
21
25.223673
0
LINE
8
boundary
62
5
39
2
10
26.761452
20
25.223673
11
26.660026
21
25.214794
0
LINE
8
boundary
62
5
39
2
10
26.660026
20
25.214794
11
26.355225
21
25.188110
0
LINE
8
boundary
62
5
39
2
10
26.355225
20
25.188110
11
26.229022
21
25.172001
0
LINE
8
boundary
62
5
39
2
10
26.229022
20
25.172001
11
25.954953
21
25.137019
0
LINE
8
boundary
62
5
39
2
10
25.954953
20
25.137019
11
25.805926
21
25.111826
0
LINE
8
boundary
62
5
39
2
10
25.805926
20
25.111826
11
25.561515
21
25.070509
0
LINE
8
boundary
62
5
39
2
10
25.561515
20
25.070509
11
25.391796
21
25.034528
0
LINE
8
boundary
62
5
39
2
10
25.391796
20
25.034528
11
25.175777
21
24.988731
0
LINE
8
boundary
62
5
39
2
10
25.175777
20
24.988731
11
24.987653
21
24.940417
0
LINE
8
boundary
62
5
39
2
10
24.987653
20
24.940417
11
24.798596
21
24.891864
0
LINE
8
boundary
62
5
39
2
10
24.798596
20
24.891864
11
24.594476
21
24.829848
0
LINE
8
boundary
62
5
39
2
10
24.594476
20
24.829848
11
24.430797
21
24.780119
0
LINE
8
boundary
62
5
39
2
10
24.430797
20
24.780119
11
24.213195
21
24.703220
0
LINE
8
boundary
62
5
39
2
10
24.213195
20
24.703220
11
24.073195
21
24.653745
0
LINE
8
boundary
62
5
39
2
10
24.073195
20
24.653745
11
23.844697
21
24.560977
0
LINE
8
boundary
62
5
39
2
10
23.844697
20
24.560977
11
23.726577
21
24.513021
0
LINE
8
boundary
62
5
39
2
10
23.726577
20
24.513021
11
23.489815
21
24.403598
0
LINE
8
boundary
62
5
39
2
10
23.489815
20
24.403598
11
23.391708
21
24.358256
0
LINE
8
boundary
62
5
39
2
10
23.391708
20
24.358256
11
23.149335
21
24.231600
0
LINE
8
boundary
62
5
39
2
10
23.149335
20
24.231600
11
23.069328
21
24.189791
0
LINE
8
boundary
62
5
39
2
10
23.069328
20
24.189791
11
22.823985
21
24.045535
0
LINE
8
boundary
62
5
39
2
10
22.823985
20
24.045535
11
22.760145
21
24.007999
0
LINE
8
boundary
62
5
39
2
10
22.760145
20
24.007999
11
22.708082
21
23.973669
0
LINE
8
boundary
62
5
39
2
10
22.708082
20
23.973669
11
27.757465
21
23.967419
0
LINE
8
boundary
62
5
39
2
10
27.757465
20
23.967419
11
27.757465
21
23.852419
0
LINE
8
boundary
62
5
39
2
10
27.757465
20
23.852419
11
22.524200
21
23.852419
0
LINE
8
boundary
62
5
39
2
10
22.524200
20
23.852419
11
22.464844
21
23.813279
0
LINE
8
boundary
62
5
39
2
10
22.464844
20
23.813279
11
22.221323
21
23.633552
0
LINE
8
boundary
62
5
39
2
10
22.221323
20
23.633552
11
22.184075
21
23.606062
0
LINE
8
boundary
62
5
39
2
10
22.184075
20
23.606062
11
21.945195
21
23.408879
0
LINE
8
boundary
62
5
39
2
10
21.945195
20
23.408879
11
21.918454
21
23.386806
0
LINE
8
boundary
62
5
39
2
10
21.918454
20
23.386806
11
21.686569
21
23.172616
0
LINE
8
boundary
62
5
39
2
10
21.686569
20
23.172616
11
21.668571
21
23.155991
0
LINE
8
boundary
62
5
39
2
10
21.668571
20
23.155991
11
21.445896
21
22.925439
0
LINE
8
boundary
62
5
39
2
10
21.445896
20
22.925439
11
21.223579
21
22.668038
0
LINE
8
boundary
62
5
39
2
10
21.223579
20
22.668038
11
21.019961
21
22.401116
0
LINE
8
boundary
62
5
39
2
10
21.019961
20
22.401116
11
20.940386
21
22.282413
0
LINE
8
boundary
62
5
39
2
10
20.940386
20
22.282413
11
20.861077
21
22.037501
0
LINE
8
boundary
62
5
39
2
10
20.861077
20
22.037501
11
20.733675
21
21.644077
0
LINE
8
boundary
62
5
39
2
10
20.733675
20
21.644077
11
20.617454
21
21.285183
0
LINE
8
boundary
62
5
39
2
10
20.617454
20
21.285183
11
20.510893
21
20.956118
0
LINE
8
boundary
62
5
39
2
10
20.510893
20
20.956118
11
20.412733
21
20.652994
0
LINE
8
boundary
62
5
39
2
10
20.412733
20
20.652994
11
20.321920
21
20.372557
0
LINE
8
boundary
62
5
39
2
10
20.321920
20
20.372557
11
20.237569
21
20.112080
0
LINE
8
boundary
62
5
39
2
10
20.237569
20
20.112080
11
20.158933
21
19.869245
0
LINE
8
boundary
62
5
39
2
10
20.158933
20
19.869245
11
20.085367
21
19.642071
0
LINE
8
boundary
62
5
39
2
10
20.085367
20
19.642071
11
26.423641
21
19.627407
0
LINE
8
boundary
62
5
39
2
10
26.423641
20
19.627407
11
26.423641
21
19.512407
0
LINE
8
boundary
62
5
39
2
10
26.423641
20
19.512407
11
20.055558
21
19.512407
0
LINE
8
boundary
62
5
39
2
10
20.055558
20
19.512407
11
20.050911
21
19.367627
0
LINE
8
boundary
62
5
39
2
10
20.050911
20
19.367627
11
20.061204
21
19.043802
0
LINE
8
boundary
62
5
39
2
10
20.061204
20
19.043802
11
20.090515
21
18.719090
0
LINE
8
boundary
62
5
39
2
10
20.090515
20
18.719090
11
20.138607
21
18.394170
0
LINE
8
boundary
62
5
39
2
10
20.138607
20
18.394170
11
20.142221
21
18.370213
0
LINE
8
boundary
62
5
39
2
10
20.142221
20
18.370213
11
20.205210
21
18.069707
0
LINE
8
boundary
62
5
39
2
10
20.205210
20
18.069707
11
20.212127
21
18.036709
0
LINE
8
boundary
62
5
39
2
10
20.212127
20
18.036709
11
20.290018
21
17.746357
0
LINE
8
boundary
62
5
39
2
10
20.290018
20
17.746357
11
20.301529
21
17.703448
0
LINE
8
boundary
62
5
39
2
10
20.301529
20
17.703448
11
20.392700
21
17.424758
0
LINE
8
boundary
62
5
39
2
10
20.392700
20
17.424758
11
20.410233
21
17.371164
0
LINE
8
boundary
62
5
39
2
10
20.410233
20
17.371164
11
20.512900
21
17.105533
0
LINE
8
boundary
62
5
39
2
10
20.512900
20
17.105533
11
20.538001
21
17.040589
0
LINE
8
boundary
62
5
39
2
10
20.538001
20
17.040589
11
20.650233
21
16.789292
0
LINE
8
boundary
62
5
39
2
10
20.650233
20
16.789292
11
20.684550
21
16.712454
0
LINE
8
boundary
62
5
39
2
10
20.684550
20
16.712454
11
20.804291
21
16.476629
0
LINE
8
boundary
62
5
39
2
10
20.804291
20
16.476629
11
20.849557
21
16.387480
0
LINE
8
boundary
62
5
39
2
10
20.849557
20
16.387480
11
20.974645
21
16.168120
0
LINE
8
boundary
62
5
39
2
10
20.974645
20
16.168120
11
21.032659
21
16.066385
0
LINE
8
boundary
62
5
39
2
10
21.032659
20
16.066385
11
21.160842
21
15.864327
0
LINE
8
boundary
62
5
39
2
10
21.160842
20
15.864327
11
21.233448
21
15.749878
0
LINE
8
boundary
62
5
39
2
10
21.233448
20
15.749878
11
21.362415
21
15.565794
0
LINE
8
boundary
62
5
39
2
10
21.362415
20
15.565794
11
21.451487
21
15.438655
0
LINE
8
boundary
62
5
39
2
10
21.451487
20
15.438655
11
21.567838
21
15.287396
0
LINE
8
boundary
62
5
39
2
10
21.567838
20
15.287396
11
26.477517
21
15.287396
0
LINE
8
boundary
62
5
39
2
10
26.477517
20
15.287396
11
26.477517
21
15.172396
0
LINE
8
boundary
62
5
39
2
10
26.477517
20
15.172396
11
21.661855
21
15.172396
0
LINE
8
boundary
62
5
39
2
10
21.661855
20
15.172396
11
21.686290
21
15.133405
0
LINE
8
boundary
62
5
39
2
10
21.686290
20
15.133405
11
21.809714
21
14.986603
0
LINE
8
boundary
62
5
39
2
10
21.809714
20
14.986603
11
21.937344
21
14.834799
0
LINE
8
boundary
62
5
39
2
10
21.937344
20
14.834799
11
22.054415
21
14.706950
0
LINE
8
boundary
62
5
39
2
10
22.054415
20
14.706950
11
22.204090
21
14.543496
0
LINE
8
boundary
62
5
39
2
10
22.204090
20
14.543496
11
22.312442
21
14.434567
0
LINE
8
boundary
62
5
39
2
10
22.312442
20
14.434567
11
22.485946
21
14.260139
0
LINE
8
boundary
62
5
39
2
10
22.485946
20
14.260139
11
22.583248
21
14.169914
0
LINE
8
boundary
62
5
39
2
10
22.583248
20
14.169914
11
22.782286
21
13.985352
0
LINE
8
boundary
62
5
39
2
10
22.782286
20
13.985352
11
22.866268
21
13.913435
0
LINE
8
boundary
62
5
39
2
10
22.866268
20
13.913435
11
23.092456
21
13.719743
0
LINE
8
boundary
62
5
39
2
10
23.092456
20
13.719743
11
22.818988
21
13.642011
0
LINE
8
boundary
62
5
39
2
10
22.818988
20
13.642011
11
22.720708
21
13.614075
0
LINE
8
boundary
62
5
39
2
10
22.720708
20
13.614075
11
22.614564
21
13.578761
0
LINE
8
boundary
62
5
39
2
10
22.614564
20
13.578761
11
22.358824
21
13.493674
0
LINE
8
boundary
62
5
39
2
10
22.358824
20
13.493674
11
22.237324
21
13.447017
0
LINE
8
boundary
62
5
39
2
10
22.237324
20
13.447017
11
22.007603
21
13.358803
0
LINE
8
boundary
62
5
39
2
10
22.007603
20
13.358803
11
21.873144
21
13.299823
0
LINE
8
boundary
62
5
39
2
10
21.873144
20
13.299823
11
21.667823
21
13.209760
0
LINE
8
boundary
62
5
39
2
10
21.667823
20
13.209760
11
21.522841
21
13.137672
0
LINE
8
boundary
62
5
39
2
10
21.522841
20
13.137672
11
21.340228
21
13.046875
0
LINE
8
boundary
62
5
39
2
10
21.340228
20
13.046875
11
21.187176
21
12.961093
0
LINE
8
boundary
62
5
39
2
10
21.187176
20
12.961093
11
21.025547
21
12.870504
0
LINE
8
boundary
62
5
39
2
10
21.025547
20
12.870504
11
20.866860
21
12.770646
0
LINE
8
boundary
62
5
39
2
10
20.866860
20
12.770646
11
20.724466
21
12.681040
0
LINE
8
boundary
62
5
39
2
10
20.724466
20
12.681040
11
20.562549
21
12.566922
0
LINE
8
boundary
62
5
39
2
10
20.562549
20
12.566922
11
20.437657
21
12.478898
0
LINE
8
boundary
62
5
39
2
10
20.437657
20
12.478898
11
20.274841
21
12.350536
0
LINE
8
boundary
62
5
39
2
10
20.274841
20
12.350536
11
20.165745
21
12.264526
0
LINE
8
boundary
62
5
39
2
10
20.165745
20
12.264526
11
20.004282
21
12.122130
0
LINE
8
boundary
62
5
39
2
10
20.004282
20
12.122130
11
19.909334
21
12.038395
0
LINE
8
boundary
62
5
39
2
10
19.909334
20
12.038395
11
19.751362
21
11.882364
0
LINE
8
boundary
62
5
39
2
10
19.751362
20
11.882364
11
19.668990
21
11.801004
0
LINE
8
boundary
62
5
39
2
10
19.668990
20
11.801004
11
19.516515
21
11.631915
0
LINE
8
boundary
62
5
39
2
10
19.516515
20
11.631915
11
19.445242
21
11.552876
0
LINE
8
boundary
62
5
39
2
10
19.445242
20
11.552876
11
19.300120
21
11.371478
0
LINE
8
boundary
62
5
39
2
10
19.300120
20
11.371478
11
19.238584
21
11.294560
0
LINE
8
boundary
62
5
39
2
10
19.238584
20
11.294560
11
19.102502
21
11.101759
0
LINE
8
boundary
62
5
39
2
10
19.102502
20
11.101759
11
19.049470
21
11.026624
0
LINE
8
boundary
62
5
39
2
10
19.049470
20
11.026624
11
19.004365
21
10.953635
0
LINE
8
boundary
62
5
39
2
10
19.004365
20
10.953635
11
24.451939
21
10.947385
0
LINE
8
boundary
62
5
39
2
10
24.451939
20
10.947385
11
24.451939
21
10.832385
0
LINE
8
boundary
62
5
39
2
10
24.451939
20
10.832385
11
18.929437
21
10.832385
0
LINE
8
boundary
62
5
39
2
10
18.929437
20
10.832385
11
18.878316
21
10.749660
0
LINE
8
boundary
62
5
39
2
10
18.878316
20
10.749660
11
18.764628
21
10.537343
0
LINE
8
boundary
62
5
39
2
10
18.764628
20
10.537343
11
18.725504
21
10.464278
0
LINE
8
boundary
62
5
39
2
10
18.725504
20
10.464278
11
18.624763
21
10.244096
0
LINE
8
boundary
62
5
39
2
10
18.624763
20
10.244096
11
18.591368
21
10.171108
0
LINE
8
boundary
62
5
39
2
10
18.591368
20
10.171108
11
18.504451
21
9.944463
0
LINE
8
boundary
62
5
39
2
10
18.504451
20
9.944463
11
18.476201
21
9.870797
0
LINE
8
boundary
62
5
39
2
10
18.476201
20
9.870797
11
18.403770
21
9.639173
0
LINE
8
boundary
62
5
39
2
10
18.403770
20
9.639173
11
18.380265
21
9.564005
0
LINE
8
boundary
62
5
39
2
10
18.380265
20
9.564005
11
18.322744
21
9.328956
0
LINE
8
boundary
62
5
39
2
10
18.322744
20
9.328956
11
18.303767
21
9.251410
0
LINE
8
boundary
62
5
39
2
10
18.303767
20
9.251410
11
18.261347
21
9.014536
0
LINE
8
boundary
62
5
39
2
10
18.261347
20
9.014536
11
18.246871
21
8.933703
0
LINE
8
boundary
62
5
39
2
10
18.246871
20
8.933703
11
18.219522
21
8.696636
0
LINE
8
boundary
62
5
39
2
10
18.219522
20
8.696636
11
18.209709
21
8.611583
0
LINE
8
boundary
62
5
39
2
10
18.209709
20
8.611583
11
18.197165
21
8.375967
0
LINE
8
boundary
62
5
39
2
10
18.197165
20
8.375967
11
18.192363
21
8.285759
0
LINE
8
boundary
62
5
39
2
10
18.192363
20
8.285759
11
18.194134
21
8.053235
0
LINE
8
boundary
62
5
39
2
10
18.194134
20
8.053235
11
18.194867
21
7.956953
0
LINE
8
boundary
62
5
39
2
10
18.194867
20
7.956953
11
18.210249
21
7.729135
0
LINE
8
boundary
62
5
39
2
10
18.210249
20
7.729135
11
18.217220
21
7.625887
0
LINE
8
boundary
62
5
39
2
10
18.217220
20
7.625887
11
18.245296
21
7.404352
0
LINE
8
boundary
62
5
39
2
10
18.245296
20
7.404352
11
18.259371
21
7.293291
0
LINE
8
boundary
62
5
39
2
10
18.259371
20
7.293291
11
18.299024
21
7.079562
0
LINE
8
boundary
62
5
39
2
10
18.299024
20
7.079562
11
18.321224
21
6.959903
0
LINE
8
boundary
62
5
39
2
10
18.321224
20
6.959903
11
18.371155
21
6.755423
0
LINE
8
boundary
62
5
39
2
10
18.371155
20
6.755423
11
18.402647
21
6.626453
0
LINE
8
boundary
62
5
39
2
10
18.402647
20
6.626453
11
23.488723
21
6.607374
0
LINE
8
boundary
62
5
39
2
10
23.488723
20
6.607374
11
23.488723
21
6.492374
0
LINE
8
boundary
62
5
39
2
10
23.488723
20
6.492374
11
18.445908
21
6.492374
0
LINE
8
boundary
62
5
39
2
10
18.445908
20
6.492374
11
18.461377
21
6.432583
0
LINE
8
boundary
62
5
39
2
10
18.461377
20
6.432583
11
18.503456
21
6.293679
0
LINE
8
boundary
62
5
39
2
10
18.503456
20
6.293679
11
18.569354
21
6.111674
0
LINE
8
boundary
62
5
39
2
10
18.569354
20
6.111674
11
18.623432
21
5.962314
0
LINE
8
boundary
62
5
39
2
10
18.623432
20
5.962314
11
18.694722
21
5.793316
0
LINE
8
boundary
62
5
39
2
10
18.694722
20
5.793316
11
18.762312
21
5.633089
0
LINE
8
boundary
62
5
39
2
10
18.762312
20
5.633089
11
18.837092
21
5.478111
0
LINE
8
boundary
62
5
39
2
10
18.837092
20
5.478111
11
18.919786
21
5.306730
0
LINE
8
boundary
62
5
39
2
10
18.919786
20
5.306730
11
18.996049
21
5.166646
0
LINE
8
boundary
62
5
39
2
10
18.996049
20
5.166646
11
19.095508
21
4.983957
0
LINE
8
boundary
62
5
39
2
10
19.095508
20
4.983957
11
19.171162
21
4.859494
0
LINE
8
boundary
62
5
39
2
10
19.171162
20
4.859494
11
19.289089
21
4.665482
0
LINE
8
boundary
62
5
39
2
10
19.289089
20
4.665482
11
19.361973
21
4.557209
0
LINE
8
boundary
62
5
39
2
10
19.361973
20
4.557209
11
19.500104
21
4.352007
0
LINE
8
boundary
62
5
39
2
10
19.500104
20
4.352007
11
19.568013
21
4.260329
0
LINE
8
boundary
62
5
39
2
10
19.568013
20
4.260329
11
19.728088
21
4.044224
0
LINE
8
boundary
62
5
39
2
10
19.728088
20
4.044224
11
19.788789
21
3.969378
0
LINE
8
boundary
62
5
39
2
10
19.788789
20
3.969378
11
19.972537
21
3.742811
0
LINE
8
boundary
62
5
39
2
10
19.972537
20
3.742811
11
20.023794
21
3.684860
0
LINE
8
boundary
62
5
39
2
10
20.023794
20
3.684860
11
20.232913
21
3.448432
0
LINE
8
boundary
62
5
39
2
10
20.232913
20
3.448432
11
20.272506
21
3.407264
0
LINE
8
boundary
62
5
39
2
10
20.272506
20
3.407264
11
20.508641
21
3.161738
0
LINE
8
boundary
62
5
39
2
10
20.508641
20
3.161738
11
20.534389
21
3.137063
0
LINE
8
boundary
62
5
39
2
10
20.534389
20
3.137063
11
20.799114
21
2.883360
0
LINE
8
boundary
62
5
39
2
10
20.799114
20
2.883360
11
20.967503
21
2.734391
0
LINE
8
boundary
62
5
39
2
10
20.967503
20
2.734391
11
21.095783
21
2.620906
0
LINE
8
boundary
62
5
39
2
10
21.095783
20
2.620906
11
21.394532
21
2.376191
0
LINE
8
boundary
62
5
39
2
10
21.394532
20
2.376191
11
21.421695
21
2.353989
0
LINE
8
boundary
62
5
39
2
10
21.421695
20
2.353989
11
21.536378
21
2.267363
0
LINE
8
boundary
62
5
39
2
10
21.536378
20
2.267363
11
24.374015
21
2.267363
0
LINE
8
boundary
62
5
39
2
10
24.374015
20
2.267363
11
24.374015
21
2.152363
0
LINE
8
boundary
62
5
39
2
10
24.374015
20
2.152363
11
21.697648
21
2.152363
0
LINE
8
boundary
62
5
39
2
10
21.697648
20
2.152363
11
21.752435
21
2.104163
0
LINE
8
boundary
62
5
39
2
10
21.752435
20
2.104163
11
22.023910
21
1.914716
0
LINE
8
boundary
62
5
39
2
10
22.023910
20
1.914716
11
22.095174
21
1.864985
0
LINE
8
boundary
62
5
39
2
10
22.095174
20
1.864985
11
22.353319
21
1.698714
0
LINE
8
boundary
62
5
39
2
10
22.353319
20
1.698714
11
22.449157
21
1.636984
0
LINE
8
boundary
62
5
39
2
10
22.449157
20
1.636984
11
22.691717
21
1.493011
0
LINE
8
boundary
62
5
39
2
10
22.691717
20
1.493011
11
22.813607
21
1.420661
0
LINE
8
boundary
62
5
39
2
10
22.813607
20
1.420661
11
23.038474
21
1.297943
0
LINE
8
boundary
62
5
39
2
10
23.038474
20
1.297943
11
23.187718
21
1.216495
0
LINE
8
boundary
62
5
39
2
10
23.187718
20
1.216495
11
23.392950
21
1.113832
0
LINE
8
boundary
62
5
39
2
10
23.392950
20
1.113832
11
23.570663
21
1.024936
0
LINE
8
boundary
62
5
39
2
10
23.570663
20
1.024936
11
23.754503
21
0.940981
0
LINE
8
boundary
62
5
39
2
10
23.754503
20
0.940981
11
23.961600
21
0.846406
0
LINE
8
boundary
62
5
39
2
10
23.961600
20
0.846406
11
24.122480
21
0.779676
0
LINE
8
boundary
62
5
39
2
10
24.122480
20
0.779676
11
24.359664
21
0.681297
0
LINE
8
boundary
62
5
39
2
10
24.359664
20
0.681297
11
24.496224
21
0.630187
0
LINE
8
boundary
62
5
39
2
10
24.496224
20
0.630187
11
24.763982
21
0.529975
0
LINE
8
boundary
62
5
39
2
10
24.763982
20
0.529975
11
24.875070
21
0.492770
0
LINE
8
boundary
62
5
39
2
10
24.875070
20
0.492770
11
25.173658
21
0.392772
0
LINE
8
boundary
62
5
39
2
10
25.173658
20
0.392772
11
25.258348
21
0.367664
0
LINE
8
boundary
62
5
39
2
10
25.258348
20
0.367664
11
25.587792
21
0.269994
0
LINE
8
boundary
62
5
39
2
10
25.587792
20
0.269994
11
25.645383
21
0.255091
0
LINE
8
boundary
62
5
39
2
10
25.645383
20
0.255091
11
26.005465
21
0.161910
0
LINE
8
boundary
62
5
39
2
10
26.005465
20
0.161910
11
26.035490
21
0.155255
0
LINE
8
boundary
62
5
39
2
10
26.035490
20
0.155255
11
26.425761
21
0.068756
0
LINE
8
boundary
62
5
39
2
10
26.425761
20
0.068756
11
26.459600
21
0.062500
0
LINE
8
boundary
62
5
39
2
10
26.459600
20
0.062500
11
27.195566
21
2.335200
0
LINE
8
boundary
62
5
39
2
10
27.195566
20
2.335200
11
27.279671
21
2.594921
0
LINE
8
boundary
62
5
39
2
10
27.279671
20
2.594921
11
27.993199
21
4.798329
0
LINE
8
boundary
62
5
39
2
10
27.993199
20
4.798329
11
28.167593
21
5.336867
0
LINE
8
boundary
62
5
39
2
10
28.167593
20
5.336867
11
28.786827
21
7.249093
0
LINE
8
boundary
62
5
39
2
10
28.786827
20
7.249093
11
29.049914
21
8.061518
0
LINE
8
boundary
62
5
39
2
10
29.049914
20
8.061518
11
29.574946
21
9.682845
0
LINE
8
boundary
62
5
39
2
10
29.574946
20
9.682845
11
29.924695
21
10.762887
0
LINE
8
boundary
62
5
39
2
10
29.924695
20
10.762887
11
30.356061
21
12.094967
0
LINE
8
boundary
62
5
39
2
10
30.356061
20
12.094967
11
30.790008
21
13.435016
0
LINE
8
boundary
62
5
39
2
10
30.790008
20
13.435016
11
31.128689
21
14.480882
0
LINE
8
boundary
62
5
39
2
10
31.128689
20
14.480882
11
31.643937
21
16.071990
0
LINE
8
boundary
62
5
39
2
10
31.643937
20
16.071990
11
31.891370
21
16.836077
0
LINE
8
boundary
62
5
39
2
10
31.891370
20
16.836077
11
32.484598
21
18.667995
0
LINE
8
boundary
62
5
39
2
10
32.484598
20
18.667995
11
32.642670
21
19.156130
0
LINE
8
boundary
62
5
39
2
10
32.642670
20
19.156130
11
33.310148
21
21.217334
0
LINE
8
boundary
62
5
39
2
10
33.310148
20
21.217334
11
33.381191
21
21.436718
0
LINE
8
boundary
62
5
39
2
10
33.381191
20
21.436718
11
33.990951
21
23.319688
0
LINE
8
annotation
62
1
39
211
10
24.651227
20
2.109863
11
24.651227
21
2.309863
0
LINE
8
annotation
62
1
39
211
10
24.651227
20
2.309863
11
24.606765
21
2.265388
0
LINE
8
annotation
62
1
39
211
10
23.788111
20
6.449873
11
23.699286
21
6.449873
0
LINE
8
annotation
62
1
39
211
10
23.699286
20
6.449873
11
23.781363
21
6.582006
0
LINE
8
annotation
62
1
39
211
10
23.781363
20
6.582006
11
23.781363
21
6.582006
0
LINE
8
annotation
62
1
39
211
10
23.781363
20
6.582006
11
23.781461
21
6.582127
0
LINE
8
annotation
62
1
39
211
10
23.781461
20
6.582127
11
23.781555
21
6.582250
0
LINE
8
annotation
62
1
39
211
10
23.781555
20
6.582250
11
23.781646
21
6.582374
0
LINE
8
annotation
62
1
39
211
10
23.781646
20
6.582374
11
23.781734
21
6.582502
0
LINE
8
annotation
62
1
39
211
10
23.781734
20
6.582502
11
23.781819
21
6.582634
0
LINE
8
annotation
62
1
39
211
10
23.781819
20
6.582634
11
23.781904
21
6.582771
0
LINE
8
annotation
62
1
39
211
10
23.781904
20
6.582771
11
23.781987
21
6.582914
0
LINE
8
annotation
62
1
39
211
10
23.781987
20
6.582914
11
23.782070
21
6.583064
0
LINE
8
annotation
62
1
39
211
10
23.782070
20
6.583064
11
23.782153
21
6.583223
0
LINE
8
annotation
62
1
39
211
10
23.782153
20
6.583223
11
23.782153
21
6.583223
0
LINE
8
annotation
62
1
39
211
10
23.782153
20
6.583223
11
23.785542
21
6.590499
0
LINE
8
annotation
62
1
39
211
10
23.785542
20
6.590499
11
23.787522
21
6.598041
0
LINE
8
annotation
62
1
39
211
10
23.787522
20
6.598041
11
23.788141
21
6.605680
0
LINE
8
annotation
62
1
39
211
10
23.788141
20
6.605680
11
23.787448
21
6.613244
0
LINE
8
annotation
62
1
39
211
10
23.787448
20
6.613244
11
23.785491
21
6.620562
0
LINE
8
annotation
62
1
39
211
10
23.785491
20
6.620562
11
23.782319
21
6.627465
0
LINE
8
annotation
62
1
39
211
10
23.782319
20
6.627465
11
23.777981
21
6.633783
0
LINE
8
annotation
62
1
39
211
10
23.777981
20
6.633783
11
23.772524
21
6.639344
0
LINE
8
annotation
62
1
39
211
10
23.772524
20
6.639344
11
23.765998
21
6.643978
0
LINE
8
annotation
62
1
39
211
10
23.765998
20
6.643978
11
23.765998
21
6.643978
0
LINE
8
annotation
62
1
39
211
10
23.765998
20
6.643978
11
23.758702
21
6.647318
0
LINE
8
annotation
62
1
39
211
10
23.758702
20
6.647318
11
23.751148
21
6.649268
0
LINE
8
annotation
62
1
39
211
10
23.751148
20
6.649268
11
23.743505
21
6.649869
0
LINE
8
annotation
62
1
39
211
10
23.743505
20
6.649869
11
23.735942
21
6.649167
0
LINE
8
annotation
62
1
39
211
10
23.735942
20
6.649167
11
23.728629
21
6.647205
0
LINE
8
annotation
62
1
39
211
10
23.728629
20
6.647205
11
23.721733
21
6.644027
0
LINE
8
annotation
62
1
39
211
10
23.721733
20
6.644027
11
23.715425
21
6.639677
0
LINE
8
annotation
62
1
39
211
10
23.715425
20
6.639677
11
23.709872
21
6.634198
0
LINE
8
annotation
62
1
39
211
10
23.709872
20
6.634198
11
23.705243
21
6.627635
0
LINE
8
annotation
62
1
39
211
10
23.705243
20
6.627635
11
23.699411
21
6.616447
0
LINE
8
annotation
62
1
39
211
10
24.662502
20
10.789892
11
24.706914
21
10.789892
0
LINE
8
annotation
62
1
39
211
10
24.706914
20
10.789892
11
24.706914
21
10.789892
0
LINE
8
annotation
62
1
39
211
10
24.706914
20
10.789892
11
24.714902
21
10.790608
0
LINE
8
annotation
62
1
39
211
10
24.714902
20
10.790608
11
24.722418
21
10.792673
0
LINE
8
annotation
62
1
39
211
10
24.722418
20
10.792673
11
24.729337
21
10.795960
0
LINE
8
annotation
62
1
39
211
10
24.729337
20
10.795960
11
24.735535
21
10.800342
0
LINE
8
annotation
62
1
39
211
10
24.735535
20
10.800342
11
24.740887
21
10.805692
0
LINE
8
annotation
62
1
39
211
10
24.740887
20
10.805692
11
24.745267
21
10.811884
0
LINE
8
annotation
62
1
39
211
10
24.745267
20
10.811884
11
24.748550
21
10.818791
0
LINE
8
annotation
62
1
39
211
10
24.748550
20
10.818791
11
24.750611
21
10.826285
0
LINE
8
annotation
62
1
39
211
10
24.750611
20
10.826285
11
24.751326
21
10.834241
0
LINE
8
annotation
62
1
39
211
10
24.751326
20
10.834241
11
24.751326
21
10.856479
0
LINE
8
annotation
62
1
39
211
10
24.751326
20
10.856479
11
24.751326
21
10.856479
0
LINE
8
annotation
62
1
39
211
10
24.751326
20
10.856479
11
24.750611
21
10.864431
0
LINE
8
annotation
62
1
39
211
10
24.750611
20
10.864431
11
24.748550
21
10.871924
0
LINE
8
annotation
62
1
39
211
10
24.748550
20
10.871924
11
24.745267
21
10.878830
0
LINE
8
annotation
62
1
39
211
10
24.745267
20
10.878830
11
24.740887
21
10.885022
0
LINE
8
annotation
62
1
39
211
10
24.740887
20
10.885022
11
24.735535
21
10.890374
0
LINE
8
annotation
62
1
39
211
10
24.735535
20
10.890374
11
24.729337
21
10.894757
0
LINE
8
annotation
62
1
39
211
10
24.729337
20
10.894757
11
24.722418
21
10.898045
0
LINE
8
annotation
62
1
39
211
10
24.722418
20
10.898045
11
24.714902
21
10.900111
0
LINE
8
annotation
62
1
39
211
10
24.714902
20
10.900111
11
24.706914
21
10.900828
0
LINE
8
annotation
62
1
39
211
10
24.706914
20
10.900828
11
24.684676
21
10.900828
0
LINE
8
annotation
62
1
39
211
10
24.684676
20
10.900828
11
24.706914
21
10.900828
0
LINE
8
annotation
62
1
39
211
10
24.706914
20
10.900828
11
24.706914
21
10.900828
0
LINE
8
annotation
62
1
39
211
10
24.706914
20
10.900828
11
24.714902
21
10.901546
0
LINE
8
annotation
62
1
39
211
10
24.714902
20
10.901546
11
24.722418
21
10.903613
0
LINE
8
annotation
62
1
39
211
10
24.722418
20
10.903613
11
24.729337
21
10.906904
0
LINE
8
annotation
62
1
39
211
10
24.729337
20
10.906904
11
24.735535
21
10.911294
0
LINE
8
annotation
62
1
39
211
10
24.735535
20
10.911294
11
24.740887
21
10.916656
0
LINE
8
annotation
62
1
39
211
10
24.740887
20
10.916656
11
24.745267
21
10.922864
0
LINE
8
annotation
62
1
39
211
10
24.745267
20
10.922864
11
24.748550
21
10.929792
0
LINE
8
annotation
62
1
39
211
10
24.748550
20
10.929792
11
24.750611
21
10.937314
0
LINE
8
annotation
62
1
39
211
10
24.750611
20
10.937314
11
24.751326
21
10.945304
0
LINE
8
annotation
62
1
39
211
10
24.751326
20
10.945304
11
24.751326
21
10.945304
0
LINE
8
annotation
62
1
39
211
10
24.751326
20
10.945304
11
24.750611
21
10.953256
0
LINE
8
annotation
62
1
39
211
10
24.750611
20
10.953256
11
24.748550
21
10.960749
0
LINE
8
annotation
62
1
39
211
10
24.748550
20
10.960749
11
24.745267
21
10.967655
0
LINE
8
annotation
62
1
39
211
10
24.745267
20
10.967655
11
24.740887
21
10.973847
0
LINE
8
annotation
62
1
39
211
10
24.740887
20
10.973847
11
24.735535
21
10.979198
0
LINE
8
annotation
62
1
39
211
10
24.735535
20
10.979198
11
24.729337
21
10.983582
0
LINE
8
annotation
62
1
39
211
10
24.729337
20
10.983582
11
24.722418
21
10.986870
0
LINE
8
annotation
62
1
39
211
10
24.722418
20
10.986870
11
24.714902
21
10.988936
0
LINE
8
annotation
62
1
39
211
10
24.714902
20
10.988936
11
24.706914
21
10.989653
0
LINE
8
annotation
62
1
39
211
10
24.706914
20
10.989653
11
24.662502
21
10.989653
0
LINE
8
annotation
62
1
39
211
10
26.788017
20
15.174359
11
26.676967
21
15.174359
0
LINE
8
annotation
62
1
39
211
10
26.676967
20
15.174359
11
26.721317
21
15.329896
0
LINE
8
annotation
62
1
39
211
10
26.754730
20
15.129896
11
26.754730
21
15.218721
0
LINE
8
annotation
62
1
39
211
10
26.634204
20
19.469907
11
26.678616
21
19.469907
0
LINE
8
annotation
62
1
39
211
10
26.678616
20
19.469907
11
26.678616
21
19.469907
0
LINE
8
annotation
62
1
39
211
10
26.678616
20
19.469907
11
26.686587
21
19.470624
0
LINE
8
annotation
62
1
39
211
10
26.686587
20
19.470624
11
26.694094
21
19.472690
0
LINE
8
annotation
62
1
39
211
10
26.694094
20
19.472690
11
26.701011
21
19.475980
0
LINE
8
annotation
62
1
39
211
10
26.701011
20
19.475980
11
26.707211
21
19.480368
0
LINE
8
annotation
62
1
39
211
10
26.707211
20
19.480368
11
26.712568
21
19.485728
0
LINE
8
annotation
62
1
39
211
10
26.712568
20
19.485728
11
26.716955
21
19.491934
0
LINE
8
annotation
62
1
39
211
10
26.716955
20
19.491934
11
26.720244
21
19.498860
0
LINE
8
annotation
62
1
39
211
10
26.720244
20
19.498860
11
26.722311
21
19.506381
0
LINE
8
annotation
62
1
39
211
10
26.722311
20
19.506381
11
26.723028
21
19.514370
0
LINE
8
annotation
62
1
39
211
10
26.723028
20
19.514370
11
26.723028
21
19.536495
0
LINE
8
annotation
62
1
39
211
10
26.723028
20
19.536495
11
26.723028
21
19.536495
0
LINE
8
annotation
62
1
39
211
10
26.723028
20
19.536495
11
26.722312
21
19.544480
0
LINE
8
annotation
62
1
39
211
10
26.722312
20
19.544480
11
26.720246
21
19.551991
0
LINE
8
annotation
62
1
39
211
10
26.720246
20
19.551991
11
26.716957
21
19.558902
0
LINE
8
annotation
62
1
39
211
10
26.716957
20
19.558902
11
26.712572
21
19.565090
0
LINE
8
annotation
62
1
39
211
10
26.712572
20
19.565090
11
26.707217
21
19.570431
0
LINE
8
annotation
62
1
39
211
10
26.707217
20
19.570431
11
26.701017
21
19.574801
0
LINE
8
annotation
62
1
39
211
10
26.701017
20
19.574801
11
26.694099
21
19.578076
0
LINE
8
annotation
62
1
39
211
10
26.694099
20
19.578076
11
26.686590
21
19.580132
0
LINE
8
annotation
62
1
39
211
10
26.686590
20
19.580132
11
26.678616
21
19.580844
0
LINE
8
annotation
62
1
39
211
10
26.678616
20
19.580844
11
26.634204
21
19.580844
0
LINE
8
annotation
62
1
39
211
10
26.634204
20
19.580844
11
26.634204
21
19.669907
0
LINE
8
annotation
62
1
39
211
10
26.634204
20
19.669907
11
26.723028
21
19.669907
0
LINE
8
annotation
62
1
39
211
10
28.034740
20
24.009919
11
28.034740
21
24.009919
0
LINE
8
annotation
62
1
39
211
10
28.034740
20
24.009919
11
28.022017
21
24.005148
0
LINE
8
annotation
62
1
39
211
10
28.022017
20
24.005148
11
28.010342
21
23.998721
0
LINE
8
annotation
62
1
39
211
10
28.010342
20
23.998721
11
27.999835
21
23.990797
0
LINE
8
annotation
62
1
39
211
10
27.999835
20
23.990797
11
27.990615
21
23.981538
0
LINE
8
annotation
62
1
39
211
10
27.990615
20
23.981538
11
27.982803
21
23.971106
0
LINE
8
annotation
62
1
39
211
10
27.982803
20
23.971106
11
27.976519
21
23.959660
0
LINE
8
annotation
62
1
39
211
10
27.976519
20
23.959660
11
27.971881
21
23.947362
0
LINE
8
annotation
62
1
39
211
10
27.971881
20
23.947362
11
27.969011
21
23.934374
0
LINE
8
annotation
62
1
39
211
10
27.969011
20
23.934374
11
27.968027
21
23.920856
0
LINE
8
annotation
62
1
39
211
10
27.968027
20
23.920856
11
27.968027
21
23.854381
0
LINE
8
annotation
62
1
39
211
10
27.968027
20
23.854381
11
27.968027
21
23.854381
0
LINE
8
annotation
62
1
39
211
10
27.968027
20
23.854381
11
27.968744
21
23.846392
0
LINE
8
annotation
62
1
39
211
10
27.968744
20
23.846392
11
27.970811
21
23.838871
0
LINE
8
annotation
62
1
39
211
10
27.970811
20
23.838871
11
27.974101
21
23.831945
0
LINE
8
annotation
62
1
39
211
10
27.974101
20
23.831945
11
27.978488
21
23.825739
0
LINE
8
annotation
62
1
39
211
10
27.978488
20
23.825739
11
27.983844
21
23.820379
0
LINE
8
annotation
62
1
39
211
10
27.983844
20
23.820379
11
27.990044
21
23.815991
0
LINE
8
annotation
62
1
39
211
10
27.990044
20
23.815991
11
27.996961
21
23.812702
0
LINE
8
annotation
62
1
39
211
10
27.996961
20
23.812702
11
28.004469
21
23.810635
0
LINE
8
annotation
62
1
39
211
10
28.004469
20
23.810635
11
28.012440
21
23.809919
0
LINE
8
annotation
62
1
39
211
10
28.012440
20
23.809919
11
28.012440
21
23.809919
0
LINE
8
annotation
62
1
39
211
10
28.012440
20
23.809919
11
28.020427
21
23.810635
0
LINE
8
annotation
62
1
39
211
10
28.020427
20
23.810635
11
28.027944
21
23.812702
0
LINE
8
annotation
62
1
39
211
10
28.027944
20
23.812702
11
28.034863
21
23.815991
0
LINE
8
annotation
62
1
39
211
10
28.034863
20
23.815991
11
28.041061
21
23.820379
0
LINE
8
annotation
62
1
39
211
10
28.041061
20
23.820379
11
28.046413
21
23.825739
0
LINE
8
annotation
62
1
39
211
10
28.046413
20
23.825739
11
28.050792
21
23.831945
0
LINE
8
annotation
62
1
39
211
10
28.050792
20
23.831945
11
28.054076
21
23.838871
0
LINE
8
annotation
62
1
39
211
10
28.054076
20
23.838871
11
28.056137
21
23.846392
0
LINE
8
annotation
62
1
39
211
10
28.056137
20
23.846392
11
28.056852
21
23.854381
0
LINE
8
annotation
62
1
39
211
10
28.056852
20
23.854381
11
28.056852
21
23.876506
0
LINE
8
annotation
62
1
39
211
10
28.056852
20
23.876506
11
28.056852
21
23.876506
0
LINE
8
annotation
62
1
39
211
10
28.056852
20
23.876506
11
28.056137
21
23.884491
0
LINE
8
annotation
62
1
39
211
10
28.056137
20
23.884491
11
28.054076
21
23.892002
0
LINE
8
annotation
62
1
39
211
10
28.054076
20
23.892002
11
28.050792
21
23.898913
0
LINE
8
annotation
62
1
39
211
10
28.050792
20
23.898913
11
28.046413
21
23.905101
0
LINE
8
annotation
62
1
39
211
10
28.046413
20
23.905101
11
28.041061
21
23.910442
0
LINE
8
annotation
62
1
39
211
10
28.041061
20
23.910442
11
28.034863
21
23.914812
0
LINE
8
annotation
62
1
39
211
10
28.034863
20
23.914812
11
28.027944
21
23.918087
0
LINE
8
annotation
62
1
39
211
10
28.027944
20
23.918087
11
28.020427
21
23.920143
0
LINE
8
annotation
62
1
39
211
10
28.020427
20
23.920143
11
28.012440
21
23.920856
0
LINE
8
annotation
62
1
39
211
10
28.012440
20
23.920856
11
27.968027
21
23.920856
0
LINE
8
annotation
62
1
39
211
10
27.962465
20
23.784919
11
28.062465
21
23.784919
0
LINE
8
annotation
62
1
39
211
10
28.266142
20
21.039709
11
27.661328
21
20.164901
0
LINE
8
annotation
62
1
39
211
10
27.661328
20
20.164901
11
27.056400
21
21.039709
0
LINE
8
annotation
62
1
39
211
10
27.661328
20
20.235300
11
27.661328
21
19.226063
0
LINE
8
annotation
62
1
39
211
10
29.938052
20
20.132886
11
28.946444
21
20.132886
0
LINE
8
annotation
62
1
39
211
10
30.617956
20
19.226120
11
31.020673
21
19.226120
0
LINE
8
annotation
62
1
39
211
10
31.020673
20
19.226120
11
31.020673
21
19.226120
0
LINE
8
annotation
62
1
39
211
10
31.020673
20
19.226120
11
31.092952
21
19.232619
0
LINE
8
annotation
62
1
39
211
10
31.092952
20
19.232619
11
31.161027
21
19.251355
0
LINE
8
annotation
62
1
39
211
10
31.161027
20
19.251355
11
31.223747
21
19.281187
0
LINE
8
annotation
62
1
39
211
10
31.223747
20
19.281187
11
31.279967
21
19.320973
0
LINE
8
annotation
62
1
39
211
10
31.279967
20
19.320973
11
31.328539
21
19.369573
0
LINE
8
annotation
62
1
39
211
10
31.328539
20
19.369573
11
31.368315
21
19.425846
0
LINE
8
annotation
62
1
39
211
10
31.368315
20
19.425846
11
31.398147
21
19.488651
0
LINE
8
annotation
62
1
39
211
10
31.398147
20
19.488651
11
31.416887
21
19.556847
0
LINE
8
annotation
62
1
39
211
10
31.416887
20
19.556847
11
31.423389
21
19.629292
0
LINE
8
annotation
62
1
39
211
10
31.423389
20
19.629292
11
31.423389
21
19.829911
0
LINE
8
annotation
62
1
39
211
10
31.423389
20
19.829911
11
31.423389
21
19.829911
0
LINE
8
annotation
62
1
39
211
10
31.423389
20
19.829911
11
31.416891
21
19.902321
0
LINE
8
annotation
62
1
39
211
10
31.416891
20
19.902321
11
31.398160
21
19.970422
0
LINE
8
annotation
62
1
39
211
10
31.398160
20
19.970422
11
31.368340
21
20.033091
0
LINE
8
annotation
62
1
39
211
10
31.368340
20
20.033091
11
31.328576
21
20.089202
0
LINE
8
annotation
62
1
39
211
10
31.328576
20
20.089202
11
31.280014
21
20.137633
0
LINE
8
annotation
62
1
39
211
10
31.280014
20
20.137633
11
31.223798
21
20.177258
0
LINE
8
annotation
62
1
39
211
10
31.223798
20
20.177258
11
31.161072
21
20.206953
0
LINE
8
annotation
62
1
39
211
10
31.161072
20
20.206953
11
31.092982
21
20.225595
0
LINE
8
annotation
62
1
39
211
10
31.092982
20
20.225595
11
31.020673
21
20.232059
0
LINE
8
annotation
62
1
39
211
10
31.020673
20
20.232059
11
30.617956
21
20.232059
0
LINE
8
annotation
62
1
39
211
10
30.617956
20
20.232059
11
30.617956
21
21.039653
0
LINE
8
annotation
62
1
39
211
10
30.617956
20
21.039653
11
31.423389
21
21.039653
0
LINE
8
frame
62
5
39
2
10
0.000000
20
0.000000
11
38.000000
21
0.000000
0
LINE
8
frame
62
5
39
2
10
38.000000
20
0.000000
11
38.000000
21
26.000000
0
LINE
8
frame
62
5
39
2
10
38.000000
20
26.000000
11
0.000000
21
26.000000
0
LINE
8
frame
62
5
39
2
10
0.000000
20
26.000000
11
0.000000
21
0.000000
0
ENDSEC
0
EOF
