0
SECTION
2
HEADER
9
$ACADVER
1
AC1009
0
ENDSEC
0
SECTION
2
TABLES
0
TABLE
2
VPORT
70
1
0
VPORT
2
ACTIVE
70
0
10
0.0
20
0.0
11
0.0
21
0.0
12
0.0
22
0.0
13
0.0
23
0.0
14
0.0
24
0.0
15
0.0
25
0.0
16
0.0
26
0.0
36
0.0
17
0.0
27
0.0
37
0.0
40
0.0
41
0.0
42
0.0
43
0.0
44
0.0
50
0.0
51
0.0
71
0
72
1000
73
1
74
3
75
0
76
0
77
0
78
0
0
ENDTAB
0
ENDSEC
0
SECTION
2
ENTITIES
0
LINE
8
boundary
62
5
39
2
10
8.212516
20
4.080188
11
8.257433
21
4.041805
0
LINE
8
boundary
62
5
39
2
10
8.257433
20
4.041805
11
12.914277
21
0.062500
0
LINE
8
boundary
62
5
39
2
10
12.914277
20
0.062500
11
14.353026
21
2.822912
0
LINE
8
boundary
62
5
39
2
10
14.353026
20
2.822912
11
12.008430
21
2.829162
0
LINE
8
boundary
62
5
39
2
10
12.008430
20
2.829162
11
12.008430
21
2.944162
0
LINE
8
boundary
62
5
39
2
10
12.008430
20
2.944162
11
14.416222
21
2.944162
0
LINE
8
boundary
62
5
39
2
10
14.416222
20
2.944162
11
15.741559
21
5.486981
0
LINE
8
boundary
62
5
39
2
10
15.741559
20
5.486981
11
16.478280
21
6.900469
0
LINE
8
boundary
62
5
39
2
10
16.478280
20
6.900469
11
10.685145
21
6.906719
0
LINE
8
boundary
62
5
39
2
10
10.685145
20
6.906719
11
10.685145
21
7.021719
0
LINE
8
boundary
62
5
39
2
10
10.685145
20
7.021719
11
16.541477
21
7.021719
0
LINE
8
boundary
62
5
39
2
10
16.541477
20
7.021719
11
16.832153
21
7.579417
0
LINE
8
boundary
62
5
39
2
10
16.832153
20
7.579417
11
13.786232
21
10.182177
0
LINE
8
boundary
62
5
39
2
10
13.786232
20
10.182177
11
13.611396
21
10.331575
0
LINE
8
boundary
62
5
39
2
10
13.611396
20
10.331575
11
13.580206
21
10.358228
0
LINE
8
boundary
62
5
39
2
10
13.580206
20
10.358228
11
13.401532
21
10.510906
0
LINE
8
boundary
62
5
39
2
10
13.401532
20
10.510906
11
13.368072
21
10.539498
0
LINE
8
boundary
62
5
39
2
10
13.368072
20
10.539498
11
13.185912
21
10.695155
0
LINE
8
boundary
62
5
39
2
10
13.185912
20
10.695155
11
13.150295
21
10.725589
0
LINE
8
boundary
62
5
39
2
10
13.150295
20
10.725589
11
12.965004
21
10.883923
0
LINE
8
boundary
62
5
39
2
10
12.965004
20
10.883923
11
12.927357
21
10.916092
0
LINE
8
boundary
62
5
39
2
10
12.927357
20
10.916092
11
12.854877
21
10.978027
0
LINE
8
boundary
62
5
39
2
10
12.854877
20
10.978027
11
6.437250
21
10.984277
0
LINE
8
boundary
62
5
39
2
10
6.437250
20
10.984277
11
6.437250
21
11.099277
0
LINE
8
boundary
62
5
39
2
10
6.437250
20
11.099277
11
12.704918
21
11.099277
0
LINE
8
boundary
62
5
39
2
10
12.704918
20
11.099277
11
12.509256
21
11.273362
0
LINE
8
boundary
62
5
39
2
10
12.509256
20
11.273362
11
12.467974
21
11.308638
0
LINE
8
boundary
62
5
39
2
10
12.467974
20
11.308638
11
12.275408
21
11.473187
0
LINE
8
boundary
62
5
39
2
10
12.275408
20
11.473187
11
12.232542
21
11.509816
0
LINE
8
boundary
62
5
39
2
10
12.232542
20
11.509816
11
12.038255
21
11.675836
0
LINE
8
boundary
62
5
39
2
10
12.038255
20
11.675836
11
11.993971
21
11.713677
0
LINE
8
boundary
62
5
39
2
10
11.993971
20
11.713677
11
11.798316
21
11.880865
0
LINE
8
boundary
62
5
39
2
10
11.798316
20
11.880865
11
11.752789
21
11.919768
0
LINE
8
boundary
62
5
39
2
10
11.752789
20
11.919768
11
11.556118
21
12.087825
0
LINE
8
boundary
62
5
39
2
10
11.556118
20
12.087825
11
11.509529
21
12.127636
0
LINE
8
boundary
62
5
39
2
10
11.509529
20
12.127636
11
11.312190
21
12.296263
0
LINE
8
boundary
62
5
39
2
10
11.312190
20
12.296263
11
11.264725
21
12.336822
0
LINE
8
boundary
62
5
39
2
10
11.264725
20
12.336822
11
11.067067
21
12.505722
0
LINE
8
boundary
62
5
39
2
10
11.067067
20
12.505722
11
11.018916
21
12.546867
0
LINE
8
boundary
62
5
39
2
10
11.018916
20
12.546867
11
10.821290
21
12.715740
0
LINE
8
boundary
62
5
39
2
10
10.821290
20
12.715740
11
10.772648
21
12.757305
0
LINE
8
boundary
62
5
39
2
10
10.772648
20
12.757305
11
10.575399
21
12.925856
0
LINE
8
boundary
62
5
39
2
10
10.575399
20
12.925856
11
10.526463
21
12.967672
0
LINE
8
boundary
62
5
39
2
10
10.526463
20
12.967672
11
10.329933
21
13.135608
0
LINE
8
boundary
62
5
39
2
10
10.329933
20
13.135608
11
10.280901
21
13.177506
0
LINE
8
boundary
62
5
39
2
10
10.280901
20
13.177506
11
10.085435
21
13.344533
0
LINE
8
boundary
62
5
39
2
10
10.085435
20
13.344533
11
10.036507
21
13.386343
0
LINE
8
boundary
62
5
39
2
10
10.036507
20
13.386343
11
9.842444
21
13.552171
0
LINE
8
boundary
62
5
39
2
10
9.842444
20
13.552171
11
9.793817
21
13.593723
0
LINE
8
boundary
62
5
39
2
10
9.793817
20
13.593723
11
9.601497
21
13.758062
0
LINE
8
boundary
62
5
39
2
10
9.601497
20
13.758062
11
9.553369
21
13.799188
0
LINE
8
boundary
62
5
39
2
10
9.553369
20
13.799188
11
9.363126
21
13.961751
0
LINE
8
boundary
62
5
39
2
10
9.363126
20
13.961751
11
9.315691
21
14.002285
0
LINE
8
boundary
62
5
39
2
10
9.315691
20
14.002285
11
9.127859
21
14.162789
0
LINE
8
boundary
62
5
39
2
10
9.127859
20
14.162789
11
9.081309
21
14.202567
0
LINE
8
boundary
62
5
39
2
10
9.081309
20
14.202567
11
8.896217
21
14.360729
0
LINE
8
boundary
62
5
39
2
10
8.896217
20
14.360729
11
8.850737
21
14.399591
0
LINE
8
boundary
62
5
39
2
10
8.850737
20
14.399591
11
8.668713
21
14.555132
0
LINE
8
boundary
62
5
39
2
10
8.668713
20
14.555132
11
8.624486
21
14.592924
0
LINE
8
boundary
62
5
39
2
10
8.624486
20
14.592924
11
8.445855
21
14.745566
0
LINE
8
boundary
62
5
39
2
10
8.445855
20
14.745566
11
8.403056
21
14.782138
0
LINE
8
boundary
62
5
39
2
10
8.403056
20
14.782138
11
8.228138
21
14.931607
0
LINE
8
boundary
62
5
39
2
10
8.228138
20
14.931607
11
8.186933
21
14.966816
0
LINE
8
boundary
62
5
39
2
10
8.186933
20
14.966816
11
8.083052
21
15.055584
0
LINE
8
boundary
62
5
39
2
10
8.083052
20
15.055584
11
5.864648
21
15.061834
0
LINE
8
boundary
62
5
39
2
10
5.864648
20
15.061834
11
5.864648
21
15.176834
0
LINE
8
boundary
62
5
39
2
10
5.864648
20
15.176834
11
7.933093
21
15.176834
0
LINE
8
boundary
62
5
39
2
10
7.933093
20
15.176834
11
7.803289
21
15.294643
0
LINE
8
boundary
62
5
39
2
10
7.803289
20
15.294643
11
7.728144
21
15.358855
0
LINE
8
boundary
62
5
39
2
10
7.728144
20
15.358855
11
7.604719
21
15.464323
0
LINE
8
boundary
62
5
39
2
10
7.604719
20
15.464323
11
7.532450
21
15.526077
0
LINE
8
boundary
62
5
39
2
10
7.532450
20
15.526077
11
7.413186
21
15.627989
0
LINE
8
boundary
62
5
39
2
10
7.413186
20
15.627989
11
7.344029
21
15.687084
0
LINE
8
boundary
62
5
39
2
10
7.344029
20
15.687084
11
7.229112
21
15.785282
0
LINE
8
boundary
62
5
39
2
10
7.229112
20
15.785282
11
7.163296
21
15.841521
0
LINE
8
boundary
62
5
39
2
10
7.163296
20
15.841521
11
7.052905
21
15.935852
0
LINE
8
boundary
62
5
39
2
10
7.052905
20
15.935852
11
6.990649
21
15.989049
0
LINE
8
boundary
62
5
39
2
10
6.990649
20
15.989049
11
6.884952
21
16.079369
0
LINE
8
boundary
62
5
39
2
10
6.884952
20
16.079369
11
6.826471
21
16.129341
0
LINE
8
boundary
62
5
39
2
10
6.826471
20
16.129341
11
6.725624
21
16.215515
0
LINE
8
boundary
62
5
39
2
10
6.725624
20
16.215515
11
6.671121
21
16.262088
0
LINE
8
boundary
62
5
39
2
10
6.671121
20
16.262088
11
6.575272
21
16.343992
0
LINE
8
boundary
62
5
39
2
10
6.575272
20
16.343992
11
6.524944
21
16.386998
0
LINE
8
boundary
62
5
39
2
10
6.524944
20
16.386998
11
6.434228
21
16.464515
0
LINE
8
boundary
62
5
39
2
10
6.434228
20
16.464515
11
6.344005
21
16.541611
0
LINE
8
boundary
62
5
39
2
10
6.344005
20
16.541611
11
6.254173
21
16.618373
0
LINE
8
boundary
62
5
39
2
10
6.254173
20
16.618373
11
6.164631
21
16.694888
0
LINE
8
boundary
62
5
39
2
10
6.164631
20
16.694888
11
6.075280
21
16.771239
0
LINE
8
boundary
62
5
39
2
10
6.075280
20
16.771239
11
5.986021
21
16.847511
0
LINE
8
boundary
62
5
39
2
10
5.986021
20
16.847511
11
5.896753
21
16.923791
0
LINE
8
boundary
62
5
39
2
10
5.896753
20
16.923791
11
5.807380
21
17.000161
0
LINE
8
boundary
62
5
39
2
10
5.807380
20
17.000161
11
5.717802
21
17.076706
0
LINE
8
boundary
62
5
39
2
10
5.717802
20
17.076706
11
5.627919
21
17.153512
0
LINE
8
boundary
62
5
39
2
10
5.627919
20
17.153512
11
4.588534
21
16.062906
0
LINE
8
boundary
62
5
39
2
10
4.588534
20
16.062906
11
3.985706
21
15.416949
0
LINE
8
boundary
62
5
39
2
10
3.985706
20
15.416949
11
3.545554
21
14.945308
0
LINE
8
boundary
62
5
39
2
10
3.545554
20
14.945308
11
2.803788
21
14.134367
0
LINE
8
boundary
62
5
39
2
10
2.803788
20
14.134367
11
2.505037
21
13.807756
0
LINE
8
boundary
62
5
39
2
10
2.505037
20
13.807756
11
2.327370
21
13.609635
0
LINE
8
boundary
62
5
39
2
10
2.327370
20
13.609635
11
1.469275
21
12.652755
0
LINE
8
boundary
62
5
39
2
10
1.469275
20
12.652755
11
0.672076
21
11.746155
0
LINE
8
boundary
62
5
39
2
10
0.672076
20
11.746155
11
0.440552
21
11.482859
0
LINE
8
boundary
62
5
39
2
10
0.440552
20
11.482859
11
0.062500
21
11.044432
0
LINE
8
boundary
62
5
39
2
10
0.062500
20
11.044432
11
0.102878
21
11.009929
0
LINE
8
boundary
62
5
39
2
10
0.102878
20
11.009929
11
0.213827
21
10.915122
0
LINE
8
boundary
62
5
39
2
10
0.213827
20
10.915122
11
0.322727
21
10.822066
0
LINE
8
boundary
62
5
39
2
10
0.322727
20
10.822066
11
0.429753
21
10.730611
0
LINE
8
boundary
62
5
39
2
10
0.429753
20
10.730611
11
0.535070
21
10.640618
0
LINE
8
boundary
62
5
39
2
10
0.535070
20
10.640618
11
0.638828
21
10.551955
0
LINE
8
boundary
62
5
39
2
10
0.638828
20
10.551955
11
0.741178
21
10.464497
0
LINE
8
boundary
62
5
39
2
10
0.741178
20
10.464497
11
0.842256
21
10.378125
0
LINE
8
boundary
62
5
39
2
10
0.842256
20
10.378125
11
0.942195
21
10.292726
0
LINE
8
boundary
62
5
39
2
10
0.942195
20
10.292726
11
1.041124
21
10.208191
0
LINE
8
boundary
62
5
39
2
10
1.041124
20
10.208191
11
1.139165
21
10.124414
0
LINE
8
boundary
62
5
39
2
10
1.139165
20
10.124414
11
1.236437
21
10.041294
0
LINE
8
boundary
62
5
39
2
10
1.236437
20
10.041294
11
1.333056
21
9.958733
0
LINE
8
boundary
62
5
39
2
10
1.333056
20
9.958733
11
1.429133
21
9.876635
0
LINE
8
boundary
62
5
39
2
10
1.429133
20
9.876635
11
1.524778
21
9.794905
0
LINE
8
boundary
62
5
39
2
10
1.524778
20
9.794905
11
1.620098
21
9.713454
0
LINE
8
boundary
62
5
39
2
10
1.620098
20
9.713454
11
1.715200
21
9.632188
0
LINE
8
boundary
62
5
39
2
10
1.715200
20
9.632188
11
1.810190
21
9.551019
0
LINE
8
boundary
62
5
39
2
10
1.810190
20
9.551019
11
1.905172
21
9.469856
0
LINE
8
boundary
62
5
39
2
10
1.905172
20
9.469856
11
2.000252
21
9.388610
0
LINE
8
boundary
62
5
39
2
10
2.000252
20
9.388610
11
2.095534
21
9.307190
0
LINE
8
boundary
62
5
39
2
10
2.095534
20
9.307190
11
2.191125
21
9.225508
0
LINE
8
boundary
62
5
39
2
10
2.191125
20
9.225508
11
2.287131
21
9.143469
0
LINE
8
boundary
62
5
39
2
10
2.287131
20
9.143469
11
2.383663
21
9.060982
0
LINE
8
boundary
62
5
39
2
10
2.383663
20
9.060982
11
2.447795
21
9.006181
0
LINE
8
boundary
62
5
39
2
10
2.447795
20
9.006181
11
2.601650
21
8.874711
0
LINE
8
boundary
62
5
39
2
10
2.601650
20
8.874711
11
2.658134
21
8.826444
0
LINE
8
boundary
62
5
39
2
10
2.658134
20
8.826444
11
2.815918
21
8.691618
0
LINE
8
boundary
62
5
39
2
10
2.815918
20
8.691618
11
2.874257
21
8.641766
0
LINE
8
boundary
62
5
39
2
10
2.874257
20
8.641766
11
3.035681
21
8.503829
0
LINE
8
boundary
62
5
39
2
10
3.035681
20
8.503829
11
3.095687
21
8.452552
0
LINE
8
boundary
62
5
39
2
10
3.095687
20
8.452552
11
3.260459
21
8.311754
0
LINE
8
boundary
62
5
39
2
10
3.260459
20
8.311754
11
3.321939
21
8.259219
0
LINE
8
boundary
62
5
39
2
10
3.321939
20
8.259219
11
3.489760
21
8.115814
0
LINE
8
boundary
62
5
39
2
10
3.489760
20
8.115814
11
3.552510
21
8.062194
0
LINE
8
boundary
62
5
39
2
10
3.552510
20
8.062194
11
3.723079
21
7.916442
0
LINE
8
boundary
62
5
39
2
10
3.723079
20
7.916442
11
3.786892
21
7.861913
0
LINE
8
boundary
62
5
39
2
10
3.786892
20
7.861913
11
3.959903
21
7.714074
0
LINE
8
boundary
62
5
39
2
10
3.959903
20
7.714074
11
4.024570
21
7.658816
0
LINE
8
boundary
62
5
39
2
10
4.024570
20
7.658816
11
4.199711
21
7.509157
0
LINE
8
boundary
62
5
39
2
10
4.199711
20
7.509157
11
4.265018
21
7.453351
0
LINE
8
boundary
62
5
39
2
10
4.265018
20
7.453351
11
4.441976
21
7.302139
0
LINE
8
boundary
62
5
39
2
10
4.441976
20
7.302139
11
4.507708
21
7.245971
0
LINE
8
boundary
62
5
39
2
10
4.507708
20
7.245971
11
4.686163
21
7.093480
0
LINE
8
boundary
62
5
39
2
10
4.686163
20
7.093480
11
4.752103
21
7.037134
0
LINE
8
boundary
62
5
39
2
10
4.752103
20
7.037134
11
4.931735
21
6.883638
0
LINE
8
boundary
62
5
39
2
10
4.931735
20
6.883638
11
4.997665
21
6.827300
0
LINE
8
boundary
62
5
39
2
10
4.997665
20
6.827300
11
5.178147
21
6.673077
0
LINE
8
boundary
62
5
39
2
10
5.178147
20
6.673077
11
5.243850
21
6.616933
0
LINE
8
boundary
62
5
39
2
10
5.243850
20
6.616933
11
5.424856
21
6.462262
0
LINE
8
boundary
62
5
39
2
10
5.424856
20
6.462262
11
5.490118
21
6.406495
0
LINE
8
boundary
62
5
39
2
10
5.490118
20
6.406495
11
5.671319
21
6.251658
0
LINE
8
boundary
62
5
39
2
10
5.671319
20
6.251658
11
5.735926
21
6.196450
0
LINE
8
boundary
62
5
39
2
10
5.735926
20
6.196450
11
5.916988
21
6.041732
0
LINE
8
boundary
62
5
39
2
10
5.916988
20
6.041732
11
5.980730
21
5.987263
0
LINE
8
boundary
62
5
39
2
10
5.980730
20
5.987263
11
6.161318
21
5.832950
0
LINE
8
boundary
62
5
39
2
10
6.161318
20
5.832950
11
6.223991
21
5.779396
0
LINE
8
boundary
62
5
39
2
10
6.223991
20
5.779396
11
6.403770
21
5.625773
0
LINE
8
boundary
62
5
39
2
10
6.403770
20
5.625773
11
6.465172
21
5.573305
0
LINE
8
boundary
62
5
39
2
10
6.465172
20
5.573305
11
6.643806
21
5.420661
0
LINE
8
boundary
62
5
39
2
10
6.643806
20
5.420661
11
6.703743
21
5.369444
0
LINE
8
boundary
62
5
39
2
10
6.703743
20
5.369444
11
6.880892
21
5.218069
0
LINE
8
boundary
62
5
39
2
10
6.880892
20
5.218069
11
6.939175
21
5.168265
0
LINE
8
boundary
62
5
39
2
10
6.939175
20
5.168265
11
7.114500
21
5.018449
0
LINE
8
boundary
62
5
39
2
10
7.114500
20
5.018449
11
7.170950
21
4.970213
0
LINE
8
boundary
62
5
39
2
10
7.170950
20
4.970213
11
7.344113
21
4.822244
0
LINE
8
boundary
62
5
39
2
10
7.344113
20
4.822244
11
7.398558
21
4.775720
0
LINE
8
boundary
62
5
39
2
10
7.398558
20
4.775720
11
7.569218
21
4.629890
0
LINE
8
boundary
62
5
39
2
10
7.569218
20
4.629890
11
7.621497
21
4.585217
0
LINE
8
boundary
62
5
39
2
10
7.621497
20
4.585217
11
7.789313
21
4.441817
0
LINE
8
boundary
62
5
39
2
10
7.789313
20
4.441817
11
7.839273
21
4.399126
0
LINE
8
boundary
62
5
39
2
10
7.839273
20
4.399126
11
8.003905
21
4.258447
0
LINE
8
boundary
62
5
39
2
10
8.003905
20
4.258447
11
8.051407
21
4.217856
0
LINE
8
boundary
62
5
39
2
10
8.051407
20
4.217856
11
8.212516
21
4.080188
0
LINE
8
annotation
62
1
39
211
10
11.708992
20
2.786668
11
11.753405
21
2.786668
0
LINE
8
annotation
62
1
39
211
10
11.753405
20
2.786668
11
11.753405
21
2.786668
0
LINE
8
annotation
62
1
39
211
10
11.753405
20
2.786668
11
11.761392
21
2.787385
0
LINE
8
annotation
62
1
39
211
10
11.761392
20
2.787385
11
11.768908
21
2.789450
0
LINE
8
annotation
62
1
39
211
10
11.768908
20
2.789450
11
11.775828
21
2.792737
0
LINE
8
annotation
62
1
39
211
10
11.775828
20
2.792737
11
11.782026
21
2.797119
0
LINE
8
annotation
62
1
39
211
10
11.782026
20
2.797119
11
11.787377
21
2.802469
0
LINE
8
annotation
62
1
39
211
10
11.787377
20
2.802469
11
11.791757
21
2.808661
0
LINE
8
annotation
62
1
39
211
10
11.791757
20
2.808661
11
11.795040
21
2.815568
0
LINE
8
annotation
62
1
39
211
10
11.795040
20
2.815568
11
11.797102
21
2.823062
0
LINE
8
annotation
62
1
39
211
10
11.797102
20
2.823062
11
11.797817
21
2.831018
0
LINE
8
annotation
62
1
39
211
10
11.797817
20
2.831018
11
11.797817
21
2.853256
0
LINE
8
annotation
62
1
39
211
10
11.797817
20
2.853256
11
11.797817
21
2.853256
0
LINE
8
annotation
62
1
39
211
10
11.797817
20
2.853256
11
11.797102
21
2.861208
0
LINE
8
annotation
62
1
39
211
10
11.797102
20
2.861208
11
11.795040
21
2.868701
0
LINE
8
annotation
62
1
39
211
10
11.795040
20
2.868701
11
11.791757
21
2.875607
0
LINE
8
annotation
62
1
39
211
10
11.791757
20
2.875607
11
11.787377
21
2.881799
0
LINE
8
annotation
62
1
39
211
10
11.787377
20
2.881799
11
11.782026
21
2.887150
0
LINE
8
annotation
62
1
39
211
10
11.782026
20
2.887150
11
11.775828
21
2.891534
0
LINE
8
annotation
62
1
39
211
10
11.775828
20
2.891534
11
11.768908
21
2.894822
0
LINE
8
annotation
62
1
39
211
10
11.768908
20
2.894822
11
11.761392
21
2.896888
0
LINE
8
annotation
62
1
39
211
10
11.761392
20
2.896888
11
11.753405
21
2.897605
0
LINE
8
annotation
62
1
39
211
10
11.753405
20
2.897605
11
11.731167
21
2.897605
0
LINE
8
annotation
62
1
39
211
10
11.731167
20
2.897605
11
11.753405
21
2.897605
0
LINE
8
annotation
62
1
39
211
10
11.753405
20
2.897605
11
11.753405
21
2.897605
0
LINE
8
annotation
62
1
39
211
10
11.753405
20
2.897605
11
11.761392
21
2.898322
0
LINE
8
annotation
62
1
39
211
10
11.761392
20
2.898322
11
11.768908
21
2.900390
0
LINE
8
annotation
62
1
39
211
10
11.768908
20
2.900390
11
11.775828
21
2.903681
0
LINE
8
annotation
62
1
39
211
10
11.775828
20
2.903681
11
11.782026
21
2.908071
0
LINE
8
annotation
62
1
39
211
10
11.782026
20
2.908071
11
11.787377
21
2.913433
0
LINE
8
annotation
62
1
39
211
10
11.787377
20
2.913433
11
11.791757
21
2.919641
0
LINE
8
annotation
62
1
39
211
10
11.791757
20
2.919641
11
11.795040
21
2.926569
0
LINE
8
annotation
62
1
39
211
10
11.795040
20
2.926569
11
11.797102
21
2.934091
0
LINE
8
annotation
62
1
39
211
10
11.797102
20
2.934091
11
11.797817
21
2.942080
0
LINE
8
annotation
62
1
39
211
10
11.797817
20
2.942080
11
11.797817
21
2.942080
0
LINE
8
annotation
62
1
39
211
10
11.797817
20
2.942080
11
11.797102
21
2.950033
0
LINE
8
annotation
62
1
39
211
10
11.797102
20
2.950033
11
11.795040
21
2.957526
0
LINE
8
annotation
62
1
39
211
10
11.795040
20
2.957526
11
11.791757
21
2.964432
0
LINE
8
annotation
62
1
39
211
10
11.791757
20
2.964432
11
11.787377
21
2.970624
0
LINE
8
annotation
62
1
39
211
10
11.787377
20
2.970624
11
11.782026
21
2.975975
0
LINE
8
annotation
62
1
39
211
10
11.782026
20
2.975975
11
11.775828
21
2.980359
0
LINE
8
annotation
62
1
39
211
10
11.775828
20
2.980359
11
11.768908
21
2.983647
0
LINE
8
annotation
62
1
39
211
10
11.768908
20
2.983647
11
11.761392
21
2.985713
0
LINE
8
annotation
62
1
39
211
10
11.761392
20
2.985713
11
11.753405
21
2.986430
0
LINE
8
annotation
62
1
39
211
10
11.753405
20
2.986430
11
11.708992
21
2.986430
0
LINE
8
annotation
62
1
39
211
10
10.485644
20
6.908682
11
10.374595
21
6.908682
0
LINE
8
annotation
62
1
39
211
10
10.374595
20
6.908682
11
10.418944
21
7.064219
0
LINE
8
annotation
62
1
39
211
10
10.452357
20
6.864219
11
10.452357
21
6.953044
0
LINE
8
annotation
62
1
39
211
10
6.137813
20
10.941777
11
6.182225
21
10.941777
0
LINE
8
annotation
62
1
39
211
10
6.182225
20
10.941777
11
6.182225
21
10.941777
0
LINE
8
annotation
62
1
39
211
10
6.182225
20
10.941777
11
6.190196
21
10.942493
0
LINE
8
annotation
62
1
39
211
10
6.190196
20
10.942493
11
6.197703
21
10.944559
0
LINE
8
annotation
62
1
39
211
10
6.197703
20
10.944559
11
6.204620
21
10.947849
0
LINE
8
annotation
62
1
39
211
10
6.204620
20
10.947849
11
6.210820
21
10.952237
0
LINE
8
annotation
62
1
39
211
10
6.210820
20
10.952237
11
6.216177
21
10.957597
0
LINE
8
annotation
62
1
39
211
10
6.216177
20
10.957597
11
6.220564
21
10.963803
0
LINE
8
annotation
62
1
39
211
10
6.220564
20
10.963803
11
6.223853
21
10.970729
0
LINE
8
annotation
62
1
39
211
10
6.223853
20
10.970729
11
6.225920
21
10.978250
0
LINE
8
annotation
62
1
39
211
10
6.225920
20
10.978250
11
6.226637
21
10.986239
0
LINE
8
annotation
62
1
39
211
10
6.226637
20
10.986239
11
6.226637
21
11.008364
0
LINE
8
annotation
62
1
39
211
10
6.226637
20
11.008364
11
6.226637
21
11.008364
0
LINE
8
annotation
62
1
39
211
10
6.226637
20
11.008364
11
6.225921
21
11.016349
0
LINE
8
annotation
62
1
39
211
10
6.225921
20
11.016349
11
6.223855
21
11.023860
0
LINE
8
annotation
62
1
39
211
10
6.223855
20
11.023860
11
6.220566
21
11.030771
0
LINE
8
annotation
62
1
39
211
10
6.220566
20
11.030771
11
6.216181
21
11.036959
0
LINE
8
annotation
62
1
39
211
10
6.216181
20
11.036959
11
6.210826
21
11.042300
0
LINE
8
annotation
62
1
39
211
10
6.210826
20
11.042300
11
6.204626
21
11.046670
0
LINE
8
annotation
62
1
39
211
10
6.204626
20
11.046670
11
6.197708
21
11.049945
0
LINE
8
annotation
62
1
39
211
10
6.197708
20
11.049945
11
6.190199
21
11.052001
0
LINE
8
annotation
62
1
39
211
10
6.190199
20
11.052001
11
6.182225
21
11.052713
0
LINE
8
annotation
62
1
39
211
10
6.182225
20
11.052713
11
6.137813
21
11.052713
0
LINE
8
annotation
62
1
39
211
10
6.137813
20
11.052713
11
6.137813
21
11.141777
0
LINE
8
annotation
62
1
39
211
10
6.137813
20
11.141777
11
6.226637
21
11.141777
0
LINE
8
annotation
62
1
39
211
10
5.631923
20
15.219334
11
5.631923
21
15.219334
0
LINE
8
annotation
62
1
39
211
10
5.631923
20
15.219334
11
5.619200
21
15.214563
0
LINE
8
annotation
62
1
39
211
10
5.619200
20
15.214563
11
5.607525
21
15.208136
0
LINE
8
annotation
62
1
39
211
10
5.607525
20
15.208136
11
5.597018
21
15.200212
0
LINE
8
annotation
62
1
39
211
10
5.597018
20
15.200212
11
5.587798
21
15.190954
0
LINE
8
annotation
62
1
39
211
10
5.587798
20
15.190954
11
5.579986
21
15.180521
0
LINE
8
annotation
62
1
39
211
10
5.579986
20
15.180521
11
5.573701
21
15.169075
0
LINE
8
annotation
62
1
39
211
10
5.573701
20
15.169075
11
5.569064
21
15.156778
0
LINE
8
annotation
62
1
39
211
10
5.569064
20
15.156778
11
5.566194
21
15.143789
0
LINE
8
annotation
62
1
39
211
10
5.566194
20
15.143789
11
5.565210
21
15.130271
0
LINE
8
annotation
62
1
39
211
10
5.565210
20
15.130271
11
5.565210
21
15.063796
0
LINE
8
annotation
62
1
39
211
10
5.565210
20
15.063796
11
5.565210
21
15.063796
0
LINE
8
annotation
62
1
39
211
10
5.565210
20
15.063796
11
5.565927
21
15.055807
0
LINE
8
annotation
62
1
39
211
10
5.565927
20
15.055807
11
5.567994
21
15.048286
0
LINE
8
annotation
62
1
39
211
10
5.567994
20
15.048286
11
5.571284
21
15.041360
0
LINE
8
annotation
62
1
39
211
10
5.571284
20
15.041360
11
5.575670
21
15.035154
0
LINE
8
annotation
62
1
39
211
10
5.575670
20
15.035154
11
5.581027
21
15.029794
0
LINE
8
annotation
62
1
39
211
10
5.581027
20
15.029794
11
5.587227
21
15.025407
0
LINE
8
annotation
62
1
39
211
10
5.587227
20
15.025407
11
5.594144
21
15.022117
0
LINE
8
annotation
62
1
39
211
10
5.594144
20
15.022117
11
5.601651
21
15.020051
0
LINE
8
annotation
62
1
39
211
10
5.601651
20
15.020051
11
5.609623
21
15.019334
0
LINE
8
annotation
62
1
39
211
10
5.609623
20
15.019334
11
5.609623
21
15.019334
0
LINE
8
annotation
62
1
39
211
10
5.609623
20
15.019334
11
5.617610
21
15.020051
0
LINE
8
annotation
62
1
39
211
10
5.617610
20
15.020051
11
5.625126
21
15.022117
0
LINE
8
annotation
62
1
39
211
10
5.625126
20
15.022117
11
5.632046
21
15.025407
0
LINE
8
annotation
62
1
39
211
10
5.632046
20
15.025407
11
5.638244
21
15.029794
0
LINE
8
annotation
62
1
39
211
10
5.638244
20
15.029794
11
5.643595
21
15.035154
0
LINE
8
annotation
62
1
39
211
10
5.643595
20
15.035154
11
5.647975
21
15.041360
0
LINE
8
annotation
62
1
39
211
10
5.647975
20
15.041360
11
5.651258
21
15.048286
0
LINE
8
annotation
62
1
39
211
10
5.651258
20
15.048286
11
5.653320
21
15.055807
0
LINE
8
annotation
62
1
39
211
10
5.653320
20
15.055807
11
5.654035
21
15.063796
0
LINE
8
annotation
62
1
39
211
10
5.654035
20
15.063796
11
5.654035
21
15.085921
0
LINE
8
annotation
62
1
39
211
10
5.654035
20
15.085921
11
5.654035
21
15.085921
0
LINE
8
annotation
62
1
39
211
10
5.654035
20
15.085921
11
5.653320
21
15.093907
0
LINE
8
annotation
62
1
39
211
10
5.653320
20
15.093907
11
5.651258
21
15.101417
0
LINE
8
annotation
62
1
39
211
10
5.651258
20
15.101417
11
5.647975
21
15.108328
0
LINE
8
annotation
62
1
39
211
10
5.647975
20
15.108328
11
5.643595
21
15.114516
0
LINE
8
annotation
62
1
39
211
10
5.643595
20
15.114516
11
5.638244
21
15.119857
0
LINE
8
annotation
62
1
39
211
10
5.638244
20
15.119857
11
5.632046
21
15.124227
0
LINE
8
annotation
62
1
39
211
10
5.632046
20
15.124227
11
5.625126
21
15.127502
0
LINE
8
annotation
62
1
39
211
10
5.625126
20
15.127502
11
5.617610
21
15.129558
0
LINE
8
annotation
62
1
39
211
10
5.617610
20
15.129558
11
5.609623
21
15.130271
0
LINE
8
annotation
62
1
39
211
10
5.609623
20
15.130271
11
5.565210
21
15.130271
0
LINE
8
annotation
62
1
39
211
10
5.559648
20
14.994334
11
5.659648
21
14.994334
0
LINE
8
annotation
62
1
39
211
10
9.222254
20
7.952204
11
8.197239
21
7.952204
0
LINE
8
annotation
62
1
39
211
10
8.197239
20
7.952204
11
9.222254
21
9.798248
0
LINE
8
annotation
62
1
39
211
10
9.222254
20
9.798248
11
8.197239
21
9.798248
0
LINE
8
annotation
62
1
39
211
10
10.924080
20
8.875226
11
9.914694
21
8.875226
0
LINE
8
annotation
62
1
39
211
10
11.616173
20
7.952204
11
12.026109
21
7.952204
0
LINE
8
annotation
62
1
39
211
10
12.026109
20
7.952204
11
12.026109
21
7.952204
0
LINE
8
annotation
62
1
39
211
10
12.026109
20
7.952204
11
12.099685
21
7.958819
0
LINE
8
annotation
62
1
39
211
10
12.099685
20
7.958819
11
12.168979
21
7.977891
0
LINE
8
annotation
62
1
39
211
10
12.168979
20
7.977891
11
12.232824
21
8.008257
0
LINE
8
annotation
62
1
39
211
10
12.232824
20
8.008257
11
12.290052
21
8.048757
0
LINE
8
annotation
62
1
39
211
10
12.290052
20
8.048757
11
12.339495
21
8.098228
0
LINE
8
annotation
62
1
39
211
10
12.339495
20
8.098228
11
12.379983
21
8.155510
0
LINE
8
annotation
62
1
39
211
10
12.379983
20
8.155510
11
12.410350
21
8.219441
0
LINE
8
annotation
62
1
39
211
10
12.410350
20
8.219441
11
12.429427
21
8.288859
0
LINE
8
annotation
62
1
39
211
10
12.429427
20
8.288859
11
12.436045
21
8.362603
0
LINE
8
annotation
62
1
39
211
10
12.436045
20
8.362603
11
12.436045
21
8.566819
0
LINE
8
annotation
62
1
39
211
10
12.436045
20
8.566819
11
12.436045
21
8.566819
0
LINE
8
annotation
62
1
39
211
10
12.436045
20
8.566819
11
12.429431
21
8.640527
0
LINE
8
annotation
62
1
39
211
10
12.429431
20
8.640527
11
12.410363
21
8.709849
0
LINE
8
annotation
62
1
39
211
10
12.410363
20
8.709849
11
12.380009
21
8.773641
0
LINE
8
annotation
62
1
39
211
10
12.380009
20
8.773641
11
12.339533
21
8.830759
0
LINE
8
annotation
62
1
39
211
10
12.339533
20
8.830759
11
12.290100
21
8.880057
0
LINE
8
annotation
62
1
39
211
10
12.290100
20
8.880057
11
12.232876
21
8.920393
0
LINE
8
annotation
62
1
39
211
10
12.232876
20
8.920393
11
12.169026
21
8.950621
0
LINE
8
annotation
62
1
39
211
10
12.169026
20
8.950621
11
12.099715
21
8.969597
0
LINE
8
annotation
62
1
39
211
10
12.099715
20
8.969597
11
12.026109
21
8.976176
0
LINE
8
annotation
62
1
39
211
10
12.026109
20
8.976176
11
11.616173
21
8.976176
0
LINE
8
annotation
62
1
39
211
10
11.616173
20
8.976176
11
11.616173
21
9.798248
0
LINE
8
annotation
62
1
39
211
10
11.616173
20
9.798248
11
12.436045
21
9.798248
0
LINE
8
frame
62
5
39
2
10
0.000000
20
0.000000
11
38.000000
21
0.000000
0
LINE
8
frame
62
5
39
2
10
38.000000
20
0.000000
11
38.000000
21
26.000000
0
LINE
8
frame
62
5
39
2
10
38.000000
20
26.000000
11
0.000000
21
26.000000
0
LINE
8
frame
62
5
39
2
10
0.000000
20
26.000000
11
0.000000
21
0.000000
0
ENDSEC
0
EOF
