0
SECTION
2
HEADER
9
$ACADVER
1
AC1009
0
ENDSEC
0
SECTION
2
TABLES
0
TABLE
2
VPORT
70
1
0
VPORT
2
ACTIVE
70
0
10
0.0
20
0.0
11
0.0
21
0.0
12
0.0
22
0.0
13
0.0
23
0.0
14
0.0
24
0.0
15
0.0
25
0.0
16
0.0
26
0.0
36
0.0
17
0.0
27
0.0
37
0.0
40
0.0
41
0.0
42
0.0
43
0.0
44
0.0
50
0.0
51
0.0
71
0
72
1000
73
1
74
3
75
0
76
0
77
0
78
0
0
ENDTAB
0
ENDSEC
0
SECTION
2
ENTITIES
0
LINE
8
boundary
62
5
39
2
10
22.405187
20
1.367553
11
22.448476
21
1.450609
0
LINE
8
boundary
62
5
39
2
10
22.448476
20
1.450609
11
20.353059
21
1.456859
0
LINE
8
boundary
62
5
39
2
10
20.353059
20
1.456859
11
20.353059
21
1.571859
0
LINE
8
boundary
62
5
39
2
10
20.353059
20
1.571859
11
22.511673
21
1.571859
0
LINE
8
boundary
62
5
39
2
10
22.511673
20
1.571859
11
24.573731
21
5.528166
0
LINE
8
boundary
62
5
39
2
10
24.573731
20
5.528166
11
19.044758
21
5.534416
0
LINE
8
boundary
62
5
39
2
10
19.044758
20
5.534416
11
19.044758
21
5.649416
0
LINE
8
boundary
62
5
39
2
10
19.044758
20
5.649416
11
24.636928
21
5.649416
0
LINE
8
boundary
62
5
39
2
10
24.636928
20
5.649416
11
25.090401
21
6.519461
0
LINE
8
boundary
62
5
39
2
10
25.090401
20
6.519461
11
21.478654
21
9.605724
0
LINE
8
boundary
62
5
39
2
10
21.478654
20
9.605724
11
15.051717
21
9.611974
0
LINE
8
boundary
62
5
39
2
10
15.051717
20
9.611974
11
15.051717
21
9.726974
0
LINE
8
boundary
62
5
39
2
10
15.051717
20
9.726974
11
21.328695
21
9.726974
0
LINE
8
boundary
62
5
39
2
10
21.328695
20
9.726974
11
16.706829
21
13.683281
0
LINE
8
boundary
62
5
39
2
10
16.706829
20
13.683281
11
10.279892
21
13.689531
0
LINE
8
boundary
62
5
39
2
10
10.279892
20
13.689531
11
10.279892
21
13.804531
0
LINE
8
boundary
62
5
39
2
10
10.279892
20
13.804531
11
16.556870
21
13.804531
0
LINE
8
boundary
62
5
39
2
10
16.556870
20
13.804531
11
13.641322
21
16.302778
0
LINE
8
boundary
62
5
39
2
10
13.641322
20
16.302778
11
13.547298
21
16.383122
0
LINE
8
boundary
62
5
39
2
10
13.547298
20
16.383122
11
13.435296
21
16.478828
0
LINE
8
boundary
62
5
39
2
10
13.435296
20
16.478828
11
13.338605
21
16.561451
0
LINE
8
boundary
62
5
39
2
10
13.338605
20
16.561451
11
13.223162
21
16.660098
0
LINE
8
boundary
62
5
39
2
10
13.223162
20
16.660098
11
13.124037
21
16.744801
0
LINE
8
boundary
62
5
39
2
10
13.124037
20
16.744801
11
13.005385
21
16.846190
0
LINE
8
boundary
62
5
39
2
10
13.005385
20
16.846190
11
12.904067
21
16.932767
0
LINE
8
boundary
62
5
39
2
10
12.904067
20
16.932767
11
12.782447
21
17.036692
0
LINE
8
boundary
62
5
39
2
10
12.782447
20
17.036692
11
12.679179
21
17.124935
0
LINE
8
boundary
62
5
39
2
10
12.679179
20
17.124935
11
12.554839
21
17.231185
0
LINE
8
boundary
62
5
39
2
10
12.554839
20
17.231185
11
12.449872
21
17.320880
0
LINE
8
boundary
62
5
39
2
10
12.449872
20
17.320880
11
12.323064
21
17.429238
0
LINE
8
boundary
62
5
39
2
10
12.323064
20
17.429238
11
12.216650
21
17.520170
0
LINE
8
boundary
62
5
39
2
10
12.216650
20
17.520170
11
12.087632
21
17.630416
0
LINE
8
boundary
62
5
39
2
10
12.087632
20
17.630416
11
11.980025
21
17.722367
0
LINE
8
boundary
62
5
39
2
10
11.980025
20
17.722367
11
11.935004
21
17.760838
0
LINE
8
boundary
62
5
39
2
10
11.935004
20
17.760838
11
6.356518
21
17.767088
0
LINE
8
boundary
62
5
39
2
10
6.356518
20
17.767088
11
6.356518
21
17.882088
0
LINE
8
boundary
62
5
39
2
10
6.356518
20
17.882088
11
11.785045
21
17.882088
0
LINE
8
boundary
62
5
39
2
10
11.785045
20
17.882088
11
11.740519
21
17.927026
0
LINE
8
boundary
62
5
39
2
10
11.740519
20
17.927026
11
11.607879
21
18.040368
0
LINE
8
boundary
62
5
39
2
10
11.607879
20
18.040368
11
11.498663
21
18.133695
0
LINE
8
boundary
62
5
39
2
10
11.498663
20
18.133695
11
11.364619
21
18.248236
0
LINE
8
boundary
62
5
39
2
10
11.364619
20
18.248236
11
11.254986
21
18.341918
0
LINE
8
boundary
62
5
39
2
10
11.254986
20
18.341918
11
11.119815
21
18.457423
0
LINE
8
boundary
62
5
39
2
10
11.119815
20
18.457423
11
11.010026
21
18.551238
0
LINE
8
boundary
62
5
39
2
10
11.010026
20
18.551238
11
10.874006
21
18.667468
0
LINE
8
boundary
62
5
39
2
10
10.874006
20
18.667468
11
10.764323
21
18.761193
0
LINE
8
boundary
62
5
39
2
10
10.764323
20
18.761193
11
10.627738
21
18.877905
0
LINE
8
boundary
62
5
39
2
10
10.627738
20
18.877905
11
10.518418
21
18.971320
0
LINE
8
boundary
62
5
39
2
10
10.518418
20
18.971320
11
10.381553
21
19.088272
0
LINE
8
boundary
62
5
39
2
10
10.381553
20
19.088272
11
10.272852
21
19.181158
0
LINE
8
boundary
62
5
39
2
10
10.272852
20
19.181158
11
10.135991
21
19.298107
0
LINE
8
boundary
62
5
39
2
10
10.135991
20
19.298107
11
10.028165
21
19.390245
0
LINE
8
boundary
62
5
39
2
10
10.028165
20
19.390245
11
9.891597
21
19.506943
0
LINE
8
boundary
62
5
39
2
10
9.891597
20
19.506943
11
9.784895
21
19.598120
0
LINE
8
boundary
62
5
39
2
10
9.784895
20
19.598120
11
9.648907
21
19.714324
0
LINE
8
boundary
62
5
39
2
10
9.648907
20
19.714324
11
9.543579
21
19.804327
0
LINE
8
boundary
62
5
39
2
10
9.543579
20
19.804327
11
9.408459
21
19.919788
0
LINE
8
boundary
62
5
39
2
10
9.408459
20
19.919788
11
9.304746
21
20.008411
0
LINE
8
boundary
62
5
39
2
10
9.304746
20
20.008411
11
9.170781
21
20.122886
0
LINE
8
boundary
62
5
39
2
10
9.170781
20
20.122886
11
9.068922
21
20.209924
0
LINE
8
boundary
62
5
39
2
10
9.068922
20
20.209924
11
8.936399
21
20.323167
0
LINE
8
boundary
62
5
39
2
10
8.936399
20
20.323167
11
8.836626
21
20.408423
0
LINE
8
boundary
62
5
39
2
10
8.836626
20
20.408423
11
8.705827
21
20.520192
0
LINE
8
boundary
62
5
39
2
10
8.705827
20
20.520192
11
8.608366
21
20.603473
0
LINE
8
boundary
62
5
39
2
10
8.608366
20
20.603473
11
8.479576
21
20.713525
0
LINE
8
boundary
62
5
39
2
10
8.479576
20
20.713525
11
8.384646
21
20.794643
0
LINE
8
boundary
62
5
39
2
10
8.384646
20
20.794643
11
8.258146
21
20.902738
0
LINE
8
boundary
62
5
39
2
10
8.258146
20
20.902738
11
8.165957
21
20.981514
0
LINE
8
boundary
62
5
39
2
10
8.165957
20
20.981514
11
8.042023
21
21.087417
0
LINE
8
boundary
62
5
39
2
10
8.042023
20
21.087417
11
7.952778
21
21.163677
0
LINE
8
boundary
62
5
39
2
10
7.952778
20
21.163677
11
7.831684
21
21.267153
0
LINE
8
boundary
62
5
39
2
10
7.831684
20
21.267153
11
7.730315
21
21.353773
0
LINE
8
boundary
62
5
39
2
10
7.730315
20
21.353773
11
7.696779
21
21.382430
0
LINE
8
boundary
62
5
39
2
10
7.696779
20
21.382430
11
7.663029
21
21.411270
0
LINE
8
boundary
62
5
39
2
10
7.663029
20
21.411270
11
7.629024
21
21.440328
0
LINE
8
boundary
62
5
39
2
10
7.629024
20
21.440328
11
7.594724
21
21.469637
0
LINE
8
boundary
62
5
39
2
10
7.594724
20
21.469637
11
7.560086
21
21.499235
0
LINE
8
boundary
62
5
39
2
10
7.560086
20
21.499235
11
7.525068
21
21.529159
0
LINE
8
boundary
62
5
39
2
10
7.525068
20
21.529159
11
7.489622
21
21.559447
0
LINE
8
boundary
62
5
39
2
10
7.489622
20
21.559447
11
7.453703
21
21.590141
0
LINE
8
boundary
62
5
39
2
10
7.453703
20
21.590141
11
7.417258
21
21.621283
0
LINE
8
boundary
62
5
39
2
10
7.417258
20
21.621283
11
7.380237
21
21.652918
0
LINE
8
boundary
62
5
39
2
10
7.380237
20
21.652918
11
7.342582
21
21.685094
0
LINE
8
boundary
62
5
39
2
10
7.342582
20
21.685094
11
7.304235
21
21.717862
0
LINE
8
boundary
62
5
39
2
10
7.304235
20
21.717862
11
7.265134
21
21.751274
0
LINE
8
boundary
62
5
39
2
10
7.265134
20
21.751274
11
7.225211
21
21.785388
0
LINE
8
boundary
62
5
39
2
10
7.225211
20
21.785388
11
7.184395
21
21.820266
0
LINE
8
boundary
62
5
39
2
10
7.184395
20
21.820266
11
7.163179
21
21.838395
0
LINE
8
boundary
62
5
39
2
10
7.163179
20
21.838395
11
6.163375
21
21.844645
0
LINE
8
boundary
62
5
39
2
10
6.163375
20
21.844645
11
6.163375
21
21.959645
0
LINE
8
boundary
62
5
39
2
10
6.163375
20
21.959645
11
7.013220
21
21.959645
0
LINE
8
boundary
62
5
39
2
10
7.013220
20
21.959645
11
6.963999
21
22.008595
0
LINE
8
boundary
62
5
39
2
10
6.963999
20
22.008595
11
6.915974
21
22.049633
0
LINE
8
boundary
62
5
39
2
10
6.915974
20
22.049633
11
6.866365
21
22.092024
0
LINE
8
boundary
62
5
39
2
10
6.866365
20
22.092024
11
6.815033
21
22.135888
0
LINE
8
boundary
62
5
39
2
10
6.815033
20
22.135888
11
6.761829
21
22.181351
0
LINE
8
boundary
62
5
39
2
10
6.761829
20
22.181351
11
6.706587
21
22.228556
0
LINE
8
boundary
62
5
39
2
10
6.706587
20
22.228556
11
6.649121
21
22.277661
0
LINE
8
boundary
62
5
39
2
10
6.649121
20
22.277661
11
6.589227
21
22.328841
0
LINE
8
boundary
62
5
39
2
10
6.589227
20
22.328841
11
6.526678
21
22.382289
0
LINE
8
boundary
62
5
39
2
10
6.526678
20
22.382289
11
6.461220
21
22.438224
0
LINE
8
boundary
62
5
39
2
10
6.461220
20
22.438224
11
6.392566
21
22.496889
0
LINE
8
boundary
62
5
39
2
10
6.392566
20
22.496889
11
6.320396
21
22.558559
0
LINE
8
boundary
62
5
39
2
10
6.320396
20
22.558559
11
6.244347
21
22.623543
0
LINE
8
boundary
62
5
39
2
10
6.244347
20
22.623543
11
6.176170
21
22.681802
0
LINE
8
boundary
62
5
39
2
10
6.176170
20
22.681802
11
5.350568
21
21.975116
0
LINE
8
boundary
62
5
39
2
10
5.350568
20
21.975116
11
4.983284
21
21.651422
0
LINE
8
boundary
62
5
39
2
10
4.983284
20
21.651422
11
4.377149
21
21.117224
0
LINE
8
boundary
62
5
39
2
10
4.377149
20
21.117224
11
3.544905
21
20.363403
0
LINE
8
boundary
62
5
39
2
10
3.544905
20
20.363403
11
3.387170
21
20.220531
0
LINE
8
boundary
62
5
39
2
10
3.387170
20
20.220531
11
3.057628
21
19.914232
0
LINE
8
boundary
62
5
39
2
10
3.057628
20
19.914232
11
2.382818
21
19.287017
0
LINE
8
boundary
62
5
39
2
10
2.382818
20
19.287017
11
2.042468
21
18.962818
0
LINE
8
boundary
62
5
39
2
10
2.042468
20
18.962818
11
1.366306
21
18.318741
0
LINE
8
boundary
62
5
39
2
10
1.366306
20
18.318741
11
0.488203
21
17.462479
0
LINE
8
boundary
62
5
39
2
10
0.488203
20
17.462479
11
0.339872
21
17.317837
0
LINE
8
boundary
62
5
39
2
10
0.339872
20
17.317837
11
0.062500
21
17.041205
0
LINE
8
boundary
62
5
39
2
10
0.062500
20
17.041205
11
0.091285
21
17.016608
0
LINE
8
boundary
62
5
39
2
10
0.091285
20
17.016608
11
0.131461
21
16.982278
0
LINE
8
boundary
62
5
39
2
10
0.131461
20
16.982278
11
0.170648
21
16.948792
0
LINE
8
boundary
62
5
39
2
10
0.170648
20
16.948792
11
0.208927
21
16.916083
0
LINE
8
boundary
62
5
39
2
10
0.208927
20
16.916083
11
0.246368
21
16.884089
0
LINE
8
boundary
62
5
39
2
10
0.246368
20
16.884089
11
0.283037
21
16.852755
0
LINE
8
boundary
62
5
39
2
10
0.283037
20
16.852755
11
0.318999
21
16.822025
0
LINE
8
boundary
62
5
39
2
10
0.318999
20
16.822025
11
0.354312
21
16.791850
0
LINE
8
boundary
62
5
39
2
10
0.354312
20
16.791850
11
0.403619
21
16.749717
0
LINE
8
boundary
62
5
39
2
10
0.403619
20
16.749717
11
0.443942
21
16.715261
0
LINE
8
boundary
62
5
39
2
10
0.443942
20
16.715261
11
0.483588
21
16.681383
0
LINE
8
boundary
62
5
39
2
10
0.483588
20
16.681383
11
0.522615
21
16.648034
0
LINE
8
boundary
62
5
39
2
10
0.522615
20
16.648034
11
0.561081
21
16.615165
0
LINE
8
boundary
62
5
39
2
10
0.561081
20
16.615165
11
0.599038
21
16.582730
0
LINE
8
boundary
62
5
39
2
10
0.599038
20
16.582730
11
0.636538
21
16.550686
0
LINE
8
boundary
62
5
39
2
10
0.636538
20
16.550686
11
0.673630
21
16.518990
0
LINE
8
boundary
62
5
39
2
10
0.673630
20
16.518990
11
0.710362
21
16.487603
0
LINE
8
boundary
62
5
39
2
10
0.710362
20
16.487603
11
0.746776
21
16.456487
0
LINE
8
boundary
62
5
39
2
10
0.746776
20
16.456487
11
0.782919
21
16.425602
0
LINE
8
boundary
62
5
39
2
10
0.782919
20
16.425602
11
0.818832
21
16.394915
0
LINE
8
boundary
62
5
39
2
10
0.818832
20
16.394915
11
0.924305
21
16.304787
0
LINE
8
boundary
62
5
39
2
10
0.924305
20
16.304787
11
0.964499
21
16.270441
0
LINE
8
boundary
62
5
39
2
10
0.964499
20
16.270441
11
1.075024
21
16.175997
0
LINE
8
boundary
62
5
39
2
10
1.075024
20
16.175997
11
1.119309
21
16.138155
0
LINE
8
boundary
62
5
39
2
10
1.119309
20
16.138155
11
1.234739
21
16.039519
0
LINE
8
boundary
62
5
39
2
10
1.234739
20
16.039519
11
1.282915
21
15.998353
0
LINE
8
boundary
62
5
39
2
10
1.282915
20
15.998353
11
1.403101
21
15.895653
0
LINE
8
boundary
62
5
39
2
10
1.403101
20
15.895653
11
1.454960
21
15.851339
0
LINE
8
boundary
62
5
39
2
10
1.454960
20
15.851339
11
1.579736
21
15.744717
0
LINE
8
boundary
62
5
39
2
10
1.579736
20
15.744717
11
1.635063
21
15.697439
0
LINE
8
boundary
62
5
39
2
10
1.635063
20
15.697439
11
1.764257
21
15.587042
0
LINE
8
boundary
62
5
39
2
10
1.764257
20
15.587042
11
1.822829
21
15.536992
0
LINE
8
boundary
62
5
39
2
10
1.822829
20
15.536992
11
1.956256
21
15.422978
0
LINE
8
boundary
62
5
39
2
10
1.956256
20
15.422978
11
2.017841
21
15.370353
0
LINE
8
boundary
62
5
39
2
10
2.017841
20
15.370353
11
2.155309
21
15.252886
0
LINE
8
boundary
62
5
39
2
10
2.155309
20
15.252886
11
2.219669
21
15.197890
0
LINE
8
boundary
62
5
39
2
10
2.219669
20
15.197890
11
2.302885
21
15.126781
0
LINE
8
boundary
62
5
39
2
10
2.302885
20
15.126781
11
2.374852
21
15.065285
0
LINE
8
boundary
62
5
39
2
10
2.374852
20
15.065285
11
2.513225
21
14.947045
0
LINE
8
boundary
62
5
39
2
10
2.513225
20
14.947045
11
2.588026
21
14.883127
0
LINE
8
boundary
62
5
39
2
10
2.588026
20
14.883127
11
2.729347
21
14.762366
0
LINE
8
boundary
62
5
39
2
10
2.729347
20
14.762366
11
2.806811
21
14.696173
0
LINE
8
boundary
62
5
39
2
10
2.806811
20
14.696173
11
2.950778
21
14.573153
0
LINE
8
boundary
62
5
39
2
10
2.950778
20
14.573153
11
3.030723
21
14.504839
0
LINE
8
boundary
62
5
39
2
10
3.030723
20
14.504839
11
3.177029
21
14.379819
0
LINE
8
boundary
62
5
39
2
10
3.177029
20
14.379819
11
3.259263
21
14.309550
0
LINE
8
boundary
62
5
39
2
10
3.259263
20
14.309550
11
3.407600
21
14.182795
0
LINE
8
boundary
62
5
39
2
10
3.407600
20
14.182795
11
3.491923
21
14.110740
0
LINE
8
boundary
62
5
39
2
10
3.491923
20
14.110740
11
3.641982
21
13.982513
0
LINE
8
boundary
62
5
39
2
10
3.641982
20
13.982513
11
3.728186
21
13.908851
0
LINE
8
boundary
62
5
39
2
10
3.728186
20
13.908851
11
3.879660
21
13.779416
0
LINE
8
boundary
62
5
39
2
10
3.879660
20
13.779416
11
3.967530
21
13.704330
0
LINE
8
boundary
62
5
39
2
10
3.967530
20
13.704330
11
4.120108
21
13.573951
0
LINE
8
boundary
62
5
39
2
10
4.120108
20
13.573951
11
4.209423
21
13.497631
0
LINE
8
boundary
62
5
39
2
10
4.209423
20
13.497631
11
4.362798
21
13.366571
0
LINE
8
boundary
62
5
39
2
10
4.362798
20
13.366571
11
4.453330
21
13.289211
0
LINE
8
boundary
62
5
39
2
10
4.453330
20
13.289211
11
4.607192
21
13.157735
0
LINE
8
boundary
62
5
39
2
10
4.607192
20
13.157735
11
4.698711
21
13.079532
0
LINE
8
boundary
62
5
39
2
10
4.698711
20
13.079532
11
4.852755
21
12.947900
0
LINE
8
boundary
62
5
39
2
10
4.852755
20
12.947900
11
4.945022
21
12.869057
0
LINE
8
boundary
62
5
39
2
10
4.945022
20
12.869057
11
5.098940
21
12.737533
0
LINE
8
boundary
62
5
39
2
10
5.098940
20
12.737533
11
5.191718
21
12.658254
0
LINE
8
boundary
62
5
39
2
10
5.191718
20
12.658254
11
5.345208
21
12.527096
0
LINE
8
boundary
62
5
39
2
10
5.345208
20
12.527096
11
5.438255
21
12.447586
0
LINE
8
boundary
62
5
39
2
10
5.438255
20
12.447586
11
5.591016
21
12.317051
0
LINE
8
boundary
62
5
39
2
10
5.591016
20
12.317051
11
5.684088
21
12.237520
0
LINE
8
boundary
62
5
39
2
10
5.684088
20
12.237520
11
5.835820
21
12.107864
0
LINE
8
boundary
62
5
39
2
10
5.835820
20
12.107864
11
5.928672
21
12.028522
0
LINE
8
boundary
62
5
39
2
10
5.928672
20
12.028522
11
6.079081
21
11.899996
0
LINE
8
boundary
62
5
39
2
10
6.079081
20
11.899996
11
6.171467
21
11.821051
0
LINE
8
boundary
62
5
39
2
10
6.171467
20
11.821051
11
6.320262
21
11.693905
0
LINE
8
boundary
62
5
39
2
10
6.320262
20
11.693905
11
6.411939
21
11.615566
0
LINE
8
boundary
62
5
39
2
10
6.411939
20
11.615566
11
6.558833
21
11.490044
0
LINE
8
boundary
62
5
39
2
10
6.558833
20
11.490044
11
6.649557
21
11.412520
0
LINE
8
boundary
62
5
39
2
10
6.649557
20
11.412520
11
6.794265
21
11.288866
0
LINE
8
boundary
62
5
39
2
10
6.794265
20
11.288866
11
6.883794
21
11.212363
0
LINE
8
boundary
62
5
39
2
10
6.883794
20
11.212363
11
7.026040
21
11.090813
0
LINE
8
boundary
62
5
39
2
10
7.026040
20
11.090813
11
7.114135
21
11.015535
0
LINE
8
boundary
62
5
39
2
10
7.114135
20
11.015535
11
7.253648
21
10.896320
0
LINE
8
boundary
62
5
39
2
10
7.253648
20
10.896320
11
7.340075
21
10.822468
0
LINE
8
boundary
62
5
39
2
10
7.340075
20
10.822468
11
7.476587
21
10.705818
0
LINE
8
boundary
62
5
39
2
10
7.476587
20
10.705818
11
7.561114
21
10.633589
0
LINE
8
boundary
62
5
39
2
10
7.561114
20
10.633589
11
7.694363
21
10.519726
0
LINE
8
boundary
62
5
39
2
10
7.694363
20
10.519726
11
7.776764
21
10.449314
0
LINE
8
boundary
62
5
39
2
10
7.776764
20
10.449314
11
7.906497
21
10.338456
0
LINE
8
boundary
62
5
39
2
10
7.906497
20
10.338456
11
7.986553
21
10.270048
0
LINE
8
boundary
62
5
39
2
10
7.986553
20
10.270048
11
8.112523
21
10.162405
0
LINE
8
boundary
62
5
39
2
10
8.112523
20
10.162405
11
19.932095
21
0.062500
0
LINE
8
boundary
62
5
39
2
10
19.932095
20
0.062500
11
22.405187
21
1.367553
0
LINE
8
annotation
62
1
39
211
10
20.120271
20
1.414359
11
20.120271
21
1.614359
0
LINE
8
annotation
62
1
39
211
10
20.120271
20
1.614359
11
20.075809
21
1.569884
0
LINE
8
annotation
62
1
39
211
10
18.834146
20
5.491915
11
18.745321
21
5.491915
0
LINE
8
annotation
62
1
39
211
10
18.745321
20
5.491915
11
18.827398
21
5.624048
0
LINE
8
annotation
62
1
39
211
10
18.827398
20
5.624048
11
18.827398
21
5.624048
0
LINE
8
annotation
62
1
39
211
10
18.827398
20
5.624048
11
18.827496
21
5.624170
0
LINE
8
annotation
62
1
39
211
10
18.827496
20
5.624170
11
18.827590
21
5.624292
0
LINE
8
annotation
62
1
39
211
10
18.827590
20
5.624292
11
18.827681
21
5.624417
0
LINE
8
annotation
62
1
39
211
10
18.827681
20
5.624417
11
18.827769
21
5.624544
0
LINE
8
annotation
62
1
39
211
10
18.827769
20
5.624544
11
18.827854
21
5.624676
0
LINE
8
annotation
62
1
39
211
10
18.827854
20
5.624676
11
18.827939
21
5.624813
0
LINE
8
annotation
62
1
39
211
10
18.827939
20
5.624813
11
18.828022
21
5.624956
0
LINE
8
annotation
62
1
39
211
10
18.828022
20
5.624956
11
18.828105
21
5.625106
0
LINE
8
annotation
62
1
39
211
10
18.828105
20
5.625106
11
18.828188
21
5.625265
0
LINE
8
annotation
62
1
39
211
10
18.828188
20
5.625265
11
18.828188
21
5.625265
0
LINE
8
annotation
62
1
39
211
10
18.828188
20
5.625265
11
18.831577
21
5.632541
0
LINE
8
annotation
62
1
39
211
10
18.831577
20
5.632541
11
18.833557
21
5.640084
0
LINE
8
annotation
62
1
39
211
10
18.833557
20
5.640084
11
18.834176
21
5.647722
0
LINE
8
annotation
62
1
39
211
10
18.834176
20
5.647722
11
18.833483
21
5.655286
0
LINE
8
annotation
62
1
39
211
10
18.833483
20
5.655286
11
18.831526
21
5.662604
0
LINE
8
annotation
62
1
39
211
10
18.831526
20
5.662604
11
18.828354
21
5.669508
0
LINE
8
annotation
62
1
39
211
10
18.828354
20
5.669508
11
18.824016
21
5.675825
0
LINE
8
annotation
62
1
39
211
10
18.824016
20
5.675825
11
18.818560
21
5.681386
0
LINE
8
annotation
62
1
39
211
10
18.818560
20
5.681386
11
18.812034
21
5.686020
0
LINE
8
annotation
62
1
39
211
10
18.812034
20
5.686020
11
18.812034
21
5.686020
0
LINE
8
annotation
62
1
39
211
10
18.812034
20
5.686020
11
18.804737
21
5.689361
0
LINE
8
annotation
62
1
39
211
10
18.804737
20
5.689361
11
18.797183
21
5.691310
0
LINE
8
annotation
62
1
39
211
10
18.797183
20
5.691310
11
18.789540
21
5.691911
0
LINE
8
annotation
62
1
39
211
10
18.789540
20
5.691911
11
18.781977
21
5.691209
0
LINE
8
annotation
62
1
39
211
10
18.781977
20
5.691209
11
18.774664
21
5.689247
0
LINE
8
annotation
62
1
39
211
10
18.774664
20
5.689247
11
18.767768
21
5.686069
0
LINE
8
annotation
62
1
39
211
10
18.767768
20
5.686069
11
18.761460
21
5.681719
0
LINE
8
annotation
62
1
39
211
10
18.761460
20
5.681719
11
18.755907
21
5.676240
0
LINE
8
annotation
62
1
39
211
10
18.755907
20
5.676240
11
18.751279
21
5.669677
0
LINE
8
annotation
62
1
39
211
10
18.751279
20
5.669677
11
18.745446
21
5.658489
0
LINE
8
annotation
62
1
39
211
10
14.752279
20
9.569480
11
14.796692
21
9.569480
0
LINE
8
annotation
62
1
39
211
10
14.796692
20
9.569480
11
14.796692
21
9.569480
0
LINE
8
annotation
62
1
39
211
10
14.796692
20
9.569480
11
14.804679
21
9.570196
0
LINE
8
annotation
62
1
39
211
10
14.804679
20
9.570196
11
14.812196
21
9.572262
0
LINE
8
annotation
62
1
39
211
10
14.812196
20
9.572262
11
14.819115
21
9.575549
0
LINE
8
annotation
62
1
39
211
10
14.819115
20
9.575549
11
14.825313
21
9.579931
0
LINE
8
annotation
62
1
39
211
10
14.825313
20
9.579931
11
14.830665
21
9.585281
0
LINE
8
annotation
62
1
39
211
10
14.830665
20
9.585281
11
14.835044
21
9.591473
0
LINE
8
annotation
62
1
39
211
10
14.835044
20
9.591473
11
14.838328
21
9.598379
0
LINE
8
annotation
62
1
39
211
10
14.838328
20
9.598379
11
14.840389
21
9.605874
0
LINE
8
annotation
62
1
39
211
10
14.840389
20
9.605874
11
14.841104
21
9.613830
0
LINE
8
annotation
62
1
39
211
10
14.841104
20
9.613830
11
14.841104
21
9.636067
0
LINE
8
annotation
62
1
39
211
10
14.841104
20
9.636067
11
14.841104
21
9.636067
0
LINE
8
annotation
62
1
39
211
10
14.841104
20
9.636067
11
14.840389
21
9.644020
0
LINE
8
annotation
62
1
39
211
10
14.840389
20
9.644020
11
14.838328
21
9.651512
0
LINE
8
annotation
62
1
39
211
10
14.838328
20
9.651512
11
14.835044
21
9.658418
0
LINE
8
annotation
62
1
39
211
10
14.835044
20
9.658418
11
14.830665
21
9.664611
0
LINE
8
annotation
62
1
39
211
10
14.830665
20
9.664611
11
14.825313
21
9.669962
0
LINE
8
annotation
62
1
39
211
10
14.825313
20
9.669962
11
14.819115
21
9.674345
0
LINE
8
annotation
62
1
39
211
10
14.819115
20
9.674345
11
14.812196
21
9.677634
0
LINE
8
annotation
62
1
39
211
10
14.812196
20
9.677634
11
14.804679
21
9.679700
0
LINE
8
annotation
62
1
39
211
10
14.804679
20
9.679700
11
14.796692
21
9.680417
0
LINE
8
annotation
62
1
39
211
10
14.796692
20
9.680417
11
14.774454
21
9.680417
0
LINE
8
annotation
62
1
39
211
10
14.774454
20
9.680417
11
14.796692
21
9.680417
0
LINE
8
annotation
62
1
39
211
10
14.796692
20
9.680417
11
14.796692
21
9.680417
0
LINE
8
annotation
62
1
39
211
10
14.796692
20
9.680417
11
14.804679
21
9.681134
0
LINE
8
annotation
62
1
39
211
10
14.804679
20
9.681134
11
14.812196
21
9.683201
0
LINE
8
annotation
62
1
39
211
10
14.812196
20
9.683201
11
14.819115
21
9.686493
0
LINE
8
annotation
62
1
39
211
10
14.819115
20
9.686493
11
14.825313
21
9.690883
0
LINE
8
annotation
62
1
39
211
10
14.825313
20
9.690883
11
14.830665
21
9.696244
0
LINE
8
annotation
62
1
39
211
10
14.830665
20
9.696244
11
14.835044
21
9.702452
0
LINE
8
annotation
62
1
39
211
10
14.835044
20
9.702452
11
14.838328
21
9.709380
0
LINE
8
annotation
62
1
39
211
10
14.838328
20
9.709380
11
14.840389
21
9.716902
0
LINE
8
annotation
62
1
39
211
10
14.840389
20
9.716902
11
14.841104
21
9.724892
0
LINE
8
annotation
62
1
39
211
10
14.841104
20
9.724892
11
14.841104
21
9.724892
0
LINE
8
annotation
62
1
39
211
10
14.841104
20
9.724892
11
14.840389
21
9.732844
0
LINE
8
annotation
62
1
39
211
10
14.840389
20
9.732844
11
14.838328
21
9.740337
0
LINE
8
annotation
62
1
39
211
10
14.838328
20
9.740337
11
14.835044
21
9.747243
0
LINE
8
annotation
62
1
39
211
10
14.835044
20
9.747243
11
14.830665
21
9.753435
0
LINE
8
annotation
62
1
39
211
10
14.830665
20
9.753435
11
14.825313
21
9.758787
0
LINE
8
annotation
62
1
39
211
10
14.825313
20
9.758787
11
14.819115
21
9.763170
0
LINE
8
annotation
62
1
39
211
10
14.819115
20
9.763170
11
14.812196
21
9.766458
0
LINE
8
annotation
62
1
39
211
10
14.812196
20
9.766458
11
14.804679
21
9.768525
0
LINE
8
annotation
62
1
39
211
10
14.804679
20
9.768525
11
14.796692
21
9.769242
0
LINE
8
annotation
62
1
39
211
10
14.796692
20
9.769242
11
14.752279
21
9.769242
0
LINE
8
annotation
62
1
39
211
10
10.080392
20
13.691493
11
9.969342
21
13.691493
0
LINE
8
annotation
62
1
39
211
10
9.969342
20
13.691493
11
10.013692
21
13.847031
0
LINE
8
annotation
62
1
39
211
10
10.047104
20
13.647031
11
10.047104
21
13.735856
0
LINE
8
annotation
62
1
39
211
10
6.057080
20
17.724588
11
6.101492
21
17.724588
0
LINE
8
annotation
62
1
39
211
10
6.101492
20
17.724588
11
6.101492
21
17.724588
0
LINE
8
annotation
62
1
39
211
10
6.101492
20
17.724588
11
6.109464
21
17.725305
0
LINE
8
annotation
62
1
39
211
10
6.109464
20
17.725305
11
6.116971
21
17.727371
0
LINE
8
annotation
62
1
39
211
10
6.116971
20
17.727371
11
6.123888
21
17.730661
0
LINE
8
annotation
62
1
39
211
10
6.123888
20
17.730661
11
6.130088
21
17.735049
0
LINE
8
annotation
62
1
39
211
10
6.130088
20
17.735049
11
6.135445
21
17.740408
0
LINE
8
annotation
62
1
39
211
10
6.135445
20
17.740408
11
6.139831
21
17.746614
0
LINE
8
annotation
62
1
39
211
10
6.139831
20
17.746614
11
6.143121
21
17.753541
0
LINE
8
annotation
62
1
39
211
10
6.143121
20
17.753541
11
6.145188
21
17.761061
0
LINE
8
annotation
62
1
39
211
10
6.145188
20
17.761061
11
6.145905
21
17.769051
0
LINE
8
annotation
62
1
39
211
10
6.145905
20
17.769051
11
6.145905
21
17.791175
0
LINE
8
annotation
62
1
39
211
10
6.145905
20
17.791175
11
6.145905
21
17.791175
0
LINE
8
annotation
62
1
39
211
10
6.145905
20
17.791175
11
6.145188
21
17.799161
0
LINE
8
annotation
62
1
39
211
10
6.145188
20
17.799161
11
6.143123
21
17.806671
0
LINE
8
annotation
62
1
39
211
10
6.143123
20
17.806671
11
6.139834
21
17.813582
0
LINE
8
annotation
62
1
39
211
10
6.139834
20
17.813582
11
6.135449
21
17.819771
0
LINE
8
annotation
62
1
39
211
10
6.135449
20
17.819771
11
6.130093
21
17.825112
0
LINE
8
annotation
62
1
39
211
10
6.130093
20
17.825112
11
6.123894
21
17.829481
0
LINE
8
annotation
62
1
39
211
10
6.123894
20
17.829481
11
6.116976
21
17.832756
0
LINE
8
annotation
62
1
39
211
10
6.116976
20
17.832756
11
6.109467
21
17.834812
0
LINE
8
annotation
62
1
39
211
10
6.109467
20
17.834812
11
6.101492
21
17.835525
0
LINE
8
annotation
62
1
39
211
10
6.101492
20
17.835525
11
6.057080
21
17.835525
0
LINE
8
annotation
62
1
39
211
10
6.057080
20
17.835525
11
6.057080
21
17.924588
0
LINE
8
annotation
62
1
39
211
10
6.057080
20
17.924588
11
6.145905
21
17.924588
0
LINE
8
annotation
62
1
39
211
10
5.930650
20
22.002145
11
5.930650
21
22.002145
0
LINE
8
annotation
62
1
39
211
10
5.930650
20
22.002145
11
5.917927
21
21.997375
0
LINE
8
annotation
62
1
39
211
10
5.917927
20
21.997375
11
5.906252
21
21.990947
0
LINE
8
annotation
62
1
39
211
10
5.906252
20
21.990947
11
5.895745
21
21.983024
0
LINE
8
annotation
62
1
39
211
10
5.895745
20
21.983024
11
5.886525
21
21.973765
0
LINE
8
annotation
62
1
39
211
10
5.886525
20
21.973765
11
5.878713
21
21.963333
0
LINE
8
annotation
62
1
39
211
10
5.878713
20
21.963333
11
5.872428
21
21.951887
0
LINE
8
annotation
62
1
39
211
10
5.872428
20
21.951887
11
5.867791
21
21.939589
0
LINE
8
annotation
62
1
39
211
10
5.867791
20
21.939589
11
5.864921
21
21.926601
0
LINE
8
annotation
62
1
39
211
10
5.864921
20
21.926601
11
5.863937
21
21.913082
0
LINE
8
annotation
62
1
39
211
10
5.863937
20
21.913082
11
5.863937
21
21.846608
0
LINE
8
annotation
62
1
39
211
10
5.863937
20
21.846608
11
5.863937
21
21.846608
0
LINE
8
annotation
62
1
39
211
10
5.863937
20
21.846608
11
5.864654
21
21.838619
0
LINE
8
annotation
62
1
39
211
10
5.864654
20
21.838619
11
5.866721
21
21.831098
0
LINE
8
annotation
62
1
39
211
10
5.866721
20
21.831098
11
5.870011
21
21.824172
0
LINE
8
annotation
62
1
39
211
10
5.870011
20
21.824172
11
5.874398
21
21.817966
0
LINE
8
annotation
62
1
39
211
10
5.874398
20
21.817966
11
5.879754
21
21.812606
0
LINE
8
annotation
62
1
39
211
10
5.879754
20
21.812606
11
5.885954
21
21.808218
0
LINE
8
annotation
62
1
39
211
10
5.885954
20
21.808218
11
5.892871
21
21.804928
0
LINE
8
annotation
62
1
39
211
10
5.892871
20
21.804928
11
5.900379
21
21.802862
0
LINE
8
annotation
62
1
39
211
10
5.900379
20
21.802862
11
5.908350
21
21.802145
0
LINE
8
annotation
62
1
39
211
10
5.908350
20
21.802145
11
5.908350
21
21.802145
0
LINE
8
annotation
62
1
39
211
10
5.908350
20
21.802145
11
5.916337
21
21.802862
0
LINE
8
annotation
62
1
39
211
10
5.916337
20
21.802862
11
5.923854
21
21.804928
0
LINE
8
annotation
62
1
39
211
10
5.923854
20
21.804928
11
5.930773
21
21.808218
0
LINE
8
annotation
62
1
39
211
10
5.930773
20
21.808218
11
5.936971
21
21.812606
0
LINE
8
annotation
62
1
39
211
10
5.936971
20
21.812606
11
5.942322
21
21.817966
0
LINE
8
annotation
62
1
39
211
10
5.942322
20
21.817966
11
5.946702
21
21.824172
0
LINE
8
annotation
62
1
39
211
10
5.946702
20
21.824172
11
5.949986
21
21.831098
0
LINE
8
annotation
62
1
39
211
10
5.949986
20
21.831098
11
5.952047
21
21.838619
0
LINE
8
annotation
62
1
39
211
10
5.952047
20
21.838619
11
5.952762
21
21.846608
0
LINE
8
annotation
62
1
39
211
10
5.952762
20
21.846608
11
5.952762
21
21.868733
0
LINE
8
annotation
62
1
39
211
10
5.952762
20
21.868733
11
5.952762
21
21.868733
0
LINE
8
annotation
62
1
39
211
10
5.952762
20
21.868733
11
5.952047
21
21.876718
0
LINE
8
annotation
62
1
39
211
10
5.952047
20
21.876718
11
5.949986
21
21.884228
0
LINE
8
annotation
62
1
39
211
10
5.949986
20
21.884228
11
5.946702
21
21.891140
0
LINE
8
annotation
62
1
39
211
10
5.946702
20
21.891140
11
5.942322
21
21.897328
0
LINE
8
annotation
62
1
39
211
10
5.942322
20
21.897328
11
5.936971
21
21.902669
0
LINE
8
annotation
62
1
39
211
10
5.936971
20
21.902669
11
5.930773
21
21.907039
0
LINE
8
annotation
62
1
39
211
10
5.930773
20
21.907039
11
5.923854
21
21.910314
0
LINE
8
annotation
62
1
39
211
10
5.923854
20
21.910314
11
5.916337
21
21.912369
0
LINE
8
annotation
62
1
39
211
10
5.916337
20
21.912369
11
5.908350
21
21.913082
0
LINE
8
annotation
62
1
39
211
10
5.908350
20
21.913082
11
5.863937
21
21.913082
0
LINE
8
annotation
62
1
39
211
10
5.858375
20
21.777145
11
5.958375
21
21.777145
0
LINE
8
annotation
62
1
39
211
10
6.423534
20
15.164257
11
5.422870
21
15.164257
0
LINE
8
annotation
62
1
39
211
10
5.422870
20
15.164257
11
6.423534
21
16.966446
0
LINE
8
annotation
62
1
39
211
10
6.423534
20
16.966446
11
5.422870
21
16.966446
0
LINE
8
annotation
62
1
39
211
10
8.084931
20
16.065352
11
7.099524
21
16.065352
0
LINE
8
annotation
62
1
39
211
10
8.760582
20
15.164313
11
9.160780
21
15.164313
0
LINE
8
annotation
62
1
39
211
10
9.160780
20
15.164313
11
9.160780
21
15.164313
0
LINE
8
annotation
62
1
39
211
10
9.160780
20
15.164313
11
9.232756
21
15.170770
0
LINE
8
annotation
62
1
39
211
10
9.232756
20
15.170770
11
9.300484
21
15.189379
0
LINE
8
annotation
62
1
39
211
10
9.300484
20
15.189379
11
9.362835
21
15.218998
0
LINE
8
annotation
62
1
39
211
10
9.362835
20
15.218998
11
9.418685
21
15.258484
0
LINE
8
annotation
62
1
39
211
10
9.418685
20
15.258484
11
9.466906
21
15.306695
0
LINE
8
annotation
62
1
39
211
10
9.466906
20
15.306695
11
9.506373
21
15.362489
0
LINE
8
annotation
62
1
39
211
10
9.506373
20
15.362489
11
9.535958
21
15.424724
0
LINE
8
annotation
62
1
39
211
10
9.535958
20
15.424724
11
9.554535
21
15.492257
0
LINE
8
annotation
62
1
39
211
10
9.554535
20
15.492257
11
9.560977
21
15.563946
0
LINE
8
annotation
62
1
39
211
10
9.560977
20
15.563946
11
9.560977
21
15.764327
0
LINE
8
annotation
62
1
39
211
10
9.560977
20
15.764327
11
9.560977
21
15.764327
0
LINE
8
annotation
62
1
39
211
10
9.560977
20
15.764327
11
9.554535
21
15.835987
0
LINE
8
annotation
62
1
39
211
10
9.554535
20
15.835987
11
9.535958
21
15.903504
0
LINE
8
annotation
62
1
39
211
10
9.535958
20
15.903504
11
9.506373
21
15.965734
0
LINE
8
annotation
62
1
39
211
10
9.506373
20
15.965734
11
9.466906
21
16.021532
0
LINE
8
annotation
62
1
39
211
10
9.466906
20
16.021532
11
9.418685
21
16.069753
0
LINE
8
annotation
62
1
39
211
10
9.418685
20
16.069753
11
9.362835
21
16.109251
0
LINE
8
annotation
62
1
39
211
10
9.362835
20
16.109251
11
9.300484
21
16.138881
0
LINE
8
annotation
62
1
39
211
10
9.300484
20
16.138881
11
9.232756
21
16.157499
0
LINE
8
annotation
62
1
39
211
10
9.232756
20
16.157499
11
9.160780
21
16.163960
0
LINE
8
annotation
62
1
39
211
10
9.160780
20
16.163960
11
8.960398
21
16.163960
0
LINE
8
annotation
62
1
39
211
10
8.960398
20
16.163960
11
9.160780
21
16.163960
0
LINE
8
annotation
62
1
39
211
10
9.160780
20
16.163960
11
9.160780
21
16.163960
0
LINE
8
annotation
62
1
39
211
10
9.160780
20
16.163960
11
9.232756
21
16.170422
0
LINE
8
annotation
62
1
39
211
10
9.232756
20
16.170422
11
9.300484
21
16.189051
0
LINE
8
annotation
62
1
39
211
10
9.300484
20
16.189051
11
9.362835
21
16.218711
0
LINE
8
annotation
62
1
39
211
10
9.362835
20
16.218711
11
9.418685
21
16.258266
0
LINE
8
annotation
62
1
39
211
10
9.418685
20
16.258266
11
9.466906
21
16.306582
0
LINE
8
annotation
62
1
39
211
10
9.466906
20
16.306582
11
9.506373
21
16.362520
0
LINE
8
annotation
62
1
39
211
10
9.506373
20
16.362520
11
9.535958
21
16.424947
0
LINE
8
annotation
62
1
39
211
10
9.535958
20
16.424947
11
9.554535
21
16.492727
0
LINE
8
annotation
62
1
39
211
10
9.554535
20
16.492727
11
9.560977
21
16.564723
0
LINE
8
annotation
62
1
39
211
10
9.560977
20
16.564723
11
9.560977
21
16.564723
0
LINE
8
annotation
62
1
39
211
10
9.560977
20
16.564723
11
9.554535
21
16.636382
0
LINE
8
annotation
62
1
39
211
10
9.554535
20
16.636382
11
9.535958
21
16.703899
0
LINE
8
annotation
62
1
39
211
10
9.535958
20
16.703899
11
9.506373
21
16.766130
0
LINE
8
annotation
62
1
39
211
10
9.506373
20
16.766130
11
9.466906
21
16.821927
0
LINE
8
annotation
62
1
39
211
10
9.466906
20
16.821927
11
9.418685
21
16.870148
0
LINE
8
annotation
62
1
39
211
10
9.418685
20
16.870148
11
9.362835
21
16.909646
0
LINE
8
annotation
62
1
39
211
10
9.362835
20
16.909646
11
9.300484
21
16.939277
0
LINE
8
annotation
62
1
39
211
10
9.300484
20
16.939277
11
9.232756
21
16.957895
0
LINE
8
annotation
62
1
39
211
10
9.232756
20
16.957895
11
9.160780
21
16.964355
0
LINE
8
annotation
62
1
39
211
10
9.160780
20
16.964355
11
8.760582
21
16.964355
0
LINE
8
boundary
62
5
39
2
10
30.380156
20
0.634938
11
36.594725
21
3.914372
0
LINE
8
boundary
62
5
39
2
10
36.594725
20
3.914372
11
31.087402
21
3.920622
0
LINE
8
boundary
62
5
39
2
10
31.087402
20
3.920622
11
31.087402
21
4.035622
0
LINE
8
boundary
62
5
39
2
10
31.087402
20
4.035622
11
36.824495
21
4.035622
0
LINE
8
boundary
62
5
39
2
10
36.824495
20
4.035622
11
37.083813
21
4.172464
0
LINE
8
boundary
62
5
39
2
10
37.083813
20
4.172464
11
35.095305
21
5.871658
0
LINE
8
boundary
62
5
39
2
10
35.095305
20
5.871658
11
34.889279
21
6.047708
0
LINE
8
boundary
62
5
39
2
10
34.889279
20
6.047708
11
34.677145
21
6.228978
0
LINE
8
boundary
62
5
39
2
10
34.677145
20
6.228978
11
34.661055
21
6.242727
0
LINE
8
boundary
62
5
39
2
10
34.661055
20
6.242727
11
34.459369
21
6.415070
0
LINE
8
boundary
62
5
39
2
10
34.459369
20
6.415070
11
34.442023
21
6.429892
0
LINE
8
boundary
62
5
39
2
10
34.442023
20
6.429892
11
34.236430
21
6.605572
0
LINE
8
boundary
62
5
39
2
10
34.236430
20
6.605572
11
34.217965
21
6.621351
0
LINE
8
boundary
62
5
39
2
10
34.217965
20
6.621351
11
34.008822
21
6.800065
0
LINE
8
boundary
62
5
39
2
10
34.008822
20
6.800065
11
33.989382
21
6.816677
0
LINE
8
boundary
62
5
39
2
10
33.989382
20
6.816677
11
33.777048
21
6.998118
0
LINE
8
boundary
62
5
39
2
10
33.777048
20
6.998118
11
33.756784
21
7.015433
0
LINE
8
boundary
62
5
39
2
10
33.756784
20
7.015433
11
33.541615
21
7.199296
0
LINE
8
boundary
62
5
39
2
10
33.541615
20
7.199296
11
33.520688
21
7.217179
0
LINE
8
boundary
62
5
39
2
10
33.520688
20
7.217179
11
33.303044
21
7.403157
0
LINE
8
boundary
62
5
39
2
10
33.303044
20
7.403157
11
33.281616
21
7.421468
0
LINE
8
boundary
62
5
39
2
10
33.281616
20
7.421468
11
33.061863
21
7.609248
0
LINE
8
boundary
62
5
39
2
10
33.061863
20
7.609248
11
33.040100
21
7.627844
0
LINE
8
boundary
62
5
39
2
10
33.040100
20
7.627844
11
32.818602
21
7.817116
0
LINE
8
boundary
62
5
39
2
10
32.818602
20
7.817116
11
32.796676
21
7.835852
0
LINE
8
boundary
62
5
39
2
10
32.796676
20
7.835852
11
32.614024
21
7.991929
0
LINE
8
boundary
62
5
39
2
10
32.614024
20
7.991929
11
29.768456
21
7.998179
0
LINE
8
boundary
62
5
39
2
10
29.768456
20
7.998179
11
29.768456
21
8.113179
0
LINE
8
boundary
62
5
39
2
10
29.768456
20
8.113179
11
32.464065
21
8.113179
0
LINE
8
boundary
62
5
39
2
10
32.464065
20
8.113179
11
32.327990
21
8.236348
0
LINE
8
boundary
62
5
39
2
10
32.327990
20
8.236348
11
32.306249
21
8.254925
0
LINE
8
boundary
62
5
39
2
10
32.306249
20
8.254925
11
32.081722
21
8.446785
0
LINE
8
boundary
62
5
39
2
10
32.081722
20
8.446785
11
32.060331
21
8.465064
0
LINE
8
boundary
62
5
39
2
10
32.060331
20
8.465064
11
31.835537
21
8.657152
0
LINE
8
boundary
62
5
39
2
10
31.835537
20
8.657152
11
31.814665
21
8.674988
0
LINE
8
boundary
62
5
39
2
10
31.814665
20
8.674988
11
31.589975
21
8.866987
0
LINE
8
boundary
62
5
39
2
10
31.589975
20
8.866987
11
31.569787
21
8.884237
0
LINE
8
boundary
62
5
39
2
10
31.569787
20
8.884237
11
31.345580
21
9.075823
0
LINE
8
boundary
62
5
39
2
10
31.345580
20
9.075823
11
31.326240
21
9.092350
0
LINE
8
boundary
62
5
39
2
10
31.326240
20
9.092350
11
31.102890
21
9.283204
0
LINE
8
boundary
62
5
39
2
10
31.102890
20
9.283204
11
31.084554
21
9.298872
0
LINE
8
boundary
62
5
39
2
10
31.084554
20
9.298872
11
30.862442
21
9.488668
0
LINE
8
boundary
62
5
39
2
10
30.862442
20
9.488668
11
30.845260
21
9.503351
0
LINE
8
boundary
62
5
39
2
10
30.845260
20
9.503351
11
30.624764
21
9.691766
0
LINE
8
boundary
62
5
39
2
10
30.624764
20
9.691766
11
30.608879
21
9.705340
0
LINE
8
boundary
62
5
39
2
10
30.608879
20
9.705340
11
30.390382
21
9.892047
0
LINE
8
boundary
62
5
39
2
10
30.390382
20
9.892047
11
30.159811
21
10.089072
0
LINE
8
boundary
62
5
39
2
10
30.159811
20
10.089072
11
29.933560
21
10.282405
0
LINE
8
boundary
62
5
39
2
10
29.933560
20
10.282405
11
29.712129
21
10.471618
0
LINE
8
boundary
62
5
39
2
10
29.712129
20
10.471618
11
29.496007
21
10.656297
0
LINE
8
boundary
62
5
39
2
10
29.496007
20
10.656297
11
29.285667
21
10.836033
0
LINE
8
boundary
62
5
39
2
10
29.285667
20
10.836033
11
29.084662
21
11.007793
0
LINE
8
boundary
62
5
39
2
10
29.084662
20
11.007793
11
28.889092
21
11.174909
0
LINE
8
boundary
62
5
39
2
10
28.889092
20
11.174909
11
28.728649
21
11.312009
0
LINE
8
boundary
62
5
39
2
10
28.728649
20
11.312009
11
28.263348
21
10.489589
0
LINE
8
boundary
62
5
39
2
10
28.263348
20
10.489589
11
28.102775
21
10.193176
0
LINE
8
boundary
62
5
39
2
10
28.102775
20
10.193176
11
27.735851
21
9.515844
0
LINE
8
boundary
62
5
39
2
10
27.735851
20
9.515844
11
27.421638
21
8.906852
0
LINE
8
boundary
62
5
39
2
10
27.421638
20
8.906852
11
27.251205
21
8.576527
0
LINE
8
boundary
62
5
39
2
10
27.251205
20
8.576527
11
26.826916
21
7.707386
0
LINE
8
boundary
62
5
39
2
10
26.826916
20
7.707386
11
26.810469
21
7.673696
0
LINE
8
boundary
62
5
39
2
10
26.810469
20
7.673696
11
26.759458
21
7.562312
0
LINE
8
boundary
62
5
39
2
10
26.759458
20
7.562312
11
26.414615
21
6.809346
0
LINE
8
boundary
62
5
39
2
10
26.414615
20
6.809346
11
26.329503
21
6.609032
0
LINE
8
boundary
62
5
39
2
10
26.329503
20
6.609032
11
26.064521
21
5.985388
0
LINE
8
boundary
62
5
39
2
10
26.064521
20
5.985388
11
25.914456
21
5.598936
0
LINE
8
boundary
62
5
39
2
10
25.914456
20
5.598936
11
25.760955
21
5.203632
0
LINE
8
boundary
62
5
39
2
10
25.760955
20
5.203632
11
25.576970
21
4.674120
0
LINE
8
boundary
62
5
39
2
10
25.576970
20
4.674120
11
25.504589
21
4.465807
0
LINE
8
boundary
62
5
39
2
10
25.504589
20
4.465807
11
25.313965
21
3.833194
0
LINE
8
boundary
62
5
39
2
10
25.313965
20
3.833194
11
25.295991
21
3.773545
0
LINE
8
boundary
62
5
39
2
10
25.295991
20
3.773545
11
25.215401
21
3.449335
0
LINE
8
boundary
62
5
39
2
10
25.215401
20
3.449335
11
25.333643
21
3.348296
0
LINE
8
boundary
62
5
39
2
10
25.333643
20
3.348296
11
25.574092
21
3.142831
0
LINE
8
boundary
62
5
39
2
10
25.574092
20
3.142831
11
25.816782
21
2.935451
0
LINE
8
boundary
62
5
39
2
10
25.816782
20
2.935451
11
26.061176
21
2.726615
0
LINE
8
boundary
62
5
39
2
10
26.061176
20
2.726615
11
26.306738
21
2.516780
0
LINE
8
boundary
62
5
39
2
10
26.306738
20
2.516780
11
26.552923
21
2.306413
0
LINE
8
boundary
62
5
39
2
10
26.552923
20
2.306413
11
26.799191
21
2.095976
0
LINE
8
boundary
62
5
39
2
10
26.799191
20
2.095976
11
27.045000
21
1.885931
0
LINE
8
boundary
62
5
39
2
10
27.045000
20
1.885931
11
27.289804
21
1.676744
0
LINE
8
boundary
62
5
39
2
10
27.289804
20
1.676744
11
27.533064
21
1.468876
0
LINE
8
boundary
62
5
39
2
10
27.533064
20
1.468876
11
27.774246
21
1.262785
0
LINE
8
boundary
62
5
39
2
10
27.774246
20
1.262785
11
28.012817
21
1.058924
0
LINE
8
boundary
62
5
39
2
10
28.012817
20
1.058924
11
28.248249
21
0.857746
0
LINE
8
boundary
62
5
39
2
10
28.248249
20
0.857746
11
28.480023
21
0.659693
0
LINE
8
boundary
62
5
39
2
10
28.480023
20
0.659693
11
28.707631
21
0.465200
0
LINE
8
boundary
62
5
39
2
10
28.707631
20
0.465200
11
28.930570
21
0.274698
0
LINE
8
boundary
62
5
39
2
10
28.930570
20
0.274698
11
29.148347
21
0.088606
0
LINE
8
boundary
62
5
39
2
10
29.148347
20
0.088606
11
29.178898
21
0.062500
0
LINE
8
boundary
62
5
39
2
10
29.178898
20
0.062500
11
29.645266
21
0.270138
0
LINE
8
boundary
62
5
39
2
10
29.645266
20
0.270138
11
29.715172
21
0.301262
0
LINE
8
boundary
62
5
39
2
10
29.715172
20
0.301262
11
30.212299
21
0.550710
0
LINE
8
boundary
62
5
39
2
10
30.212299
20
0.550710
11
30.380156
21
0.634938
0
LINE
8
annotation
62
1
39
211
10
30.887902
20
3.922585
11
30.776852
21
3.922585
0
LINE
8
annotation
62
1
39
211
10
30.776852
20
3.922585
11
30.821202
21
4.078122
0
LINE
8
annotation
62
1
39
211
10
30.854615
20
3.878122
11
30.854615
21
3.966947
0
LINE
8
annotation
62
1
39
211
10
29.469019
20
7.955679
11
29.513431
21
7.955679
0
LINE
8
annotation
62
1
39
211
10
29.513431
20
7.955679
11
29.513431
21
7.955679
0
LINE
8
annotation
62
1
39
211
10
29.513431
20
7.955679
11
29.521402
21
7.956396
0
LINE
8
annotation
62
1
39
211
10
29.521402
20
7.956396
11
29.528910
21
7.958462
0
LINE
8
annotation
62
1
39
211
10
29.528910
20
7.958462
11
29.535827
21
7.961752
0
LINE
8
annotation
62
1
39
211
10
29.535827
20
7.961752
11
29.542027
21
7.966140
0
LINE
8
annotation
62
1
39
211
10
29.542027
20
7.966140
11
29.547383
21
7.971500
0
LINE
8
annotation
62
1
39
211
10
29.547383
20
7.971500
11
29.551770
21
7.977706
0
LINE
8
annotation
62
1
39
211
10
29.551770
20
7.977706
11
29.555060
21
7.984632
0
LINE
8
annotation
62
1
39
211
10
29.555060
20
7.984632
11
29.557126
21
7.992153
0
LINE
8
annotation
62
1
39
211
10
29.557126
20
7.992153
11
29.557843
21
8.000142
0
LINE
8
annotation
62
1
39
211
10
29.557843
20
8.000142
11
29.557843
21
8.022267
0
LINE
8
annotation
62
1
39
211
10
29.557843
20
8.022267
11
29.557843
21
8.022267
0
LINE
8
annotation
62
1
39
211
10
29.557843
20
8.022267
11
29.557127
21
8.030252
0
LINE
8
annotation
62
1
39
211
10
29.557127
20
8.030252
11
29.555061
21
8.037763
0
LINE
8
annotation
62
1
39
211
10
29.555061
20
8.037763
11
29.551773
21
8.044674
0
LINE
8
annotation
62
1
39
211
10
29.551773
20
8.044674
11
29.547387
21
8.050862
0
LINE
8
annotation
62
1
39
211
10
29.547387
20
8.050862
11
29.542032
21
8.056203
0
LINE
8
annotation
62
1
39
211
10
29.542032
20
8.056203
11
29.535832
21
8.060573
0
LINE
8
annotation
62
1
39
211
10
29.535832
20
8.060573
11
29.528915
21
8.063848
0
LINE
8
annotation
62
1
39
211
10
29.528915
20
8.063848
11
29.521406
21
8.065903
0
LINE
8
annotation
62
1
39
211
10
29.521406
20
8.065903
11
29.513431
21
8.066616
0
LINE
8
annotation
62
1
39
211
10
29.513431
20
8.066616
11
29.469019
21
8.066616
0
LINE
8
annotation
62
1
39
211
10
29.469019
20
8.066616
11
29.469019
21
8.155679
0
LINE
8
annotation
62
1
39
211
10
29.469019
20
8.155679
11
29.557843
21
8.155679
0
LINE
8
annotation
62
1
39
211
10
27.914666
20
3.719869
11
26.965623
21
3.719869
0
LINE
8
annotation
62
1
39
211
10
26.965623
20
3.719869
11
27.914666
21
5.429091
0
LINE
8
annotation
62
1
39
211
10
27.914666
20
5.429091
11
26.965623
21
5.429091
0
LINE
8
annotation
62
1
39
211
10
29.490359
20
4.574480
11
28.555786
21
4.574480
0
LINE
8
annotation
62
1
39
211
10
30.511192
20
3.719869
11
30.511192
21
5.429091
0
LINE
8
annotation
62
1
39
211
10
30.511192
20
5.429091
11
30.131210
21
5.049002
0
LINE
8
boundary
62
5
39
2
10
34.385000
20
14.256583
11
34.434262
21
14.353595
0
LINE
8
boundary
62
5
39
2
10
34.434262
20
14.353595
11
31.962084
21
14.359845
0
LINE
8
boundary
62
5
39
2
10
31.962084
20
14.359845
11
31.962084
21
14.474845
0
LINE
8
boundary
62
5
39
2
10
31.962084
20
14.474845
11
34.495832
21
14.474845
0
LINE
8
boundary
62
5
39
2
10
34.495832
20
14.474845
11
34.569299
21
14.627221
0
LINE
8
boundary
62
5
39
2
10
34.569299
20
14.627221
11
34.853880
21
15.220929
0
LINE
8
boundary
62
5
39
2
10
34.853880
20
15.220929
11
34.916314
21
15.351181
0
LINE
8
boundary
62
5
39
2
10
34.916314
20
15.351181
11
34.930755
21
15.381308
0
LINE
8
boundary
62
5
39
2
10
34.930755
20
15.381308
11
35.231671
21
16.052524
0
LINE
8
boundary
62
5
39
2
10
35.231671
20
16.052524
11
35.312874
21
16.233653
0
LINE
8
boundary
62
5
39
2
10
35.312874
20
16.233653
11
35.520149
21
16.734019
0
LINE
8
boundary
62
5
39
2
10
35.520149
20
16.734019
11
35.648997
21
17.045059
0
LINE
8
boundary
62
5
39
2
10
35.648997
20
17.045059
11
35.780431
21
17.394185
0
LINE
8
boundary
62
5
39
2
10
35.780431
20
17.394185
11
35.938371
21
17.813720
0
LINE
8
boundary
62
5
39
2
10
35.938371
20
17.813720
11
36.011117
21
18.031430
0
LINE
8
boundary
62
5
39
2
10
36.011117
20
18.031430
11
36.144681
21
18.431152
0
LINE
8
boundary
62
5
39
2
10
36.144681
20
18.431152
11
30.965176
21
18.437402
0
LINE
8
boundary
62
5
39
2
10
30.965176
20
18.437402
11
30.965176
21
18.552402
0
LINE
8
boundary
62
5
39
2
10
30.965176
20
18.552402
11
36.184503
21
18.552402
0
LINE
8
boundary
62
5
39
2
10
36.184503
20
18.552402
11
36.210730
21
18.644048
0
LINE
8
boundary
62
5
39
2
10
36.210730
20
18.644048
11
36.374453
21
19.216159
0
LINE
8
boundary
62
5
39
2
10
36.374453
20
19.216159
11
36.401048
21
19.331249
0
LINE
8
boundary
62
5
39
2
10
36.401048
20
19.331249
11
36.206957
21
19.497101
0
LINE
8
boundary
62
5
39
2
10
36.206957
20
19.497101
11
35.966802
21
19.702315
0
LINE
8
boundary
62
5
39
2
10
35.966802
20
19.702315
11
35.724433
21
19.909421
0
LINE
8
boundary
62
5
39
2
10
35.724433
20
19.909421
11
35.480379
21
20.117966
0
LINE
8
boundary
62
5
39
2
10
35.480379
20
20.117966
11
35.235175
21
20.327495
0
LINE
8
boundary
62
5
39
2
10
35.235175
20
20.327495
11
34.989361
21
20.537545
0
LINE
8
boundary
62
5
39
2
10
34.989361
20
20.537545
11
34.743476
21
20.747655
0
LINE
8
boundary
62
5
39
2
10
34.743476
20
20.747655
11
34.498061
21
20.957365
0
LINE
8
boundary
62
5
39
2
10
34.498061
20
20.957365
11
34.253658
21
21.166208
0
LINE
8
boundary
62
5
39
2
10
34.253658
20
21.166208
11
34.010806
21
21.373727
0
LINE
8
boundary
62
5
39
2
10
34.010806
20
21.373727
11
33.770043
21
21.579460
0
LINE
8
boundary
62
5
39
2
10
33.770043
20
21.579460
11
33.531903
21
21.782953
0
LINE
8
boundary
62
5
39
2
10
33.531903
20
21.782953
11
33.296915
21
21.983752
0
LINE
8
boundary
62
5
39
2
10
33.296915
20
21.983752
11
33.065599
21
22.181412
0
LINE
8
boundary
62
5
39
2
10
33.065599
20
22.181412
11
32.838474
21
22.375493
0
LINE
8
boundary
62
5
39
2
10
32.838474
20
22.375493
11
32.682575
21
22.508709
0
LINE
8
boundary
62
5
39
2
10
32.682575
20
22.508709
11
32.301852
21
22.514959
0
LINE
8
boundary
62
5
39
2
10
32.301852
20
22.514959
11
32.301852
21
22.629959
0
LINE
8
boundary
62
5
39
2
10
32.301852
20
22.629959
11
32.532616
21
22.629959
0
LINE
8
boundary
62
5
39
2
10
32.532616
20
22.629959
11
32.430480
21
22.724126
0
LINE
8
boundary
62
5
39
2
10
32.430480
20
22.724126
11
32.343188
21
22.689090
0
LINE
8
boundary
62
5
39
2
10
32.343188
20
22.689090
11
31.704916
21
22.393557
0
LINE
8
boundary
62
5
39
2
10
31.704916
20
22.393557
11
31.562193
21
22.319683
0
LINE
8
boundary
62
5
39
2
10
31.562193
20
22.319683
11
31.028603
21
22.043494
0
LINE
8
boundary
62
5
39
2
10
31.028603
20
22.043494
11
30.725583
21
21.871839
0
LINE
8
boundary
62
5
39
2
10
30.725583
20
21.871839
11
30.315730
21
21.639665
0
LINE
8
boundary
62
5
39
2
10
30.315730
20
21.639665
11
29.817088
21
21.335157
0
LINE
8
boundary
62
5
39
2
10
29.817088
20
21.335157
11
29.567879
21
21.182971
0
LINE
8
boundary
62
5
39
2
10
29.567879
20
21.182971
11
28.836076
21
20.706562
0
LINE
8
boundary
62
5
39
2
10
28.836076
20
20.706562
11
28.786698
21
20.674416
0
LINE
8
boundary
62
5
39
2
10
28.786698
20
20.674416
11
28.612295
21
20.554407
0
LINE
8
boundary
62
5
39
2
10
28.612295
20
20.554407
11
27.973907
21
20.115120
0
LINE
8
boundary
62
5
39
2
10
27.973907
20
20.115120
11
27.771694
21
19.969016
0
LINE
8
boundary
62
5
39
2
10
27.771694
20
19.969016
11
27.131299
21
19.506316
0
LINE
8
boundary
62
5
39
2
10
27.131299
20
19.506316
11
26.631697
21
19.129294
0
LINE
8
boundary
62
5
39
2
10
26.631697
20
19.129294
11
26.260733
21
18.849348
0
LINE
8
boundary
62
5
39
2
10
26.260733
20
18.849348
11
25.420257
21
18.189715
0
LINE
8
boundary
62
5
39
2
10
25.420257
20
18.189715
11
25.364129
21
18.145663
0
LINE
8
boundary
62
5
39
2
10
25.364129
20
18.145663
11
25.215401
21
18.024692
0
LINE
8
boundary
62
5
39
2
10
25.215401
20
18.024692
11
25.243054
21
18.001063
0
LINE
8
boundary
62
5
39
2
10
25.243054
20
18.001063
11
25.417444
21
17.852045
0
LINE
8
boundary
62
5
39
2
10
25.417444
20
17.852045
11
25.591629
21
17.703203
0
LINE
8
boundary
62
5
39
2
10
25.591629
20
17.703203
11
25.765799
21
17.554373
0
LINE
8
boundary
62
5
39
2
10
25.765799
20
17.554373
11
25.940148
21
17.405391
0
LINE
8
boundary
62
5
39
2
10
25.940148
20
17.405391
11
26.114868
21
17.256092
0
LINE
8
boundary
62
5
39
2
10
26.114868
20
17.256092
11
26.290154
21
17.106309
0
LINE
8
boundary
62
5
39
2
10
26.290154
20
17.106309
11
26.466203
21
16.955873
0
LINE
8
boundary
62
5
39
2
10
26.466203
20
16.955873
11
26.643215
21
16.804615
0
LINE
8
boundary
62
5
39
2
10
26.643215
20
16.804615
11
26.659837
21
16.790412
0
LINE
8
boundary
62
5
39
2
10
26.659837
20
16.790412
11
26.854636
21
16.623954
0
LINE
8
boundary
62
5
39
2
10
26.854636
20
16.623954
11
26.870176
21
16.610675
0
LINE
8
boundary
62
5
39
2
10
26.870176
20
16.610675
11
27.069451
21
16.440394
0
LINE
8
boundary
62
5
39
2
10
27.069451
20
16.440394
11
27.086299
21
16.425997
0
LINE
8
boundary
62
5
39
2
10
27.086299
20
16.425997
11
27.289702
21
16.252188
0
LINE
8
boundary
62
5
39
2
10
27.289702
20
16.252188
11
27.307729
21
16.236783
0
LINE
8
boundary
62
5
39
2
10
27.307729
20
16.236783
11
27.514915
21
16.059742
0
LINE
8
boundary
62
5
39
2
10
27.514915
20
16.059742
11
27.533981
21
16.043450
0
LINE
8
boundary
62
5
39
2
10
27.533981
20
16.043450
11
27.744596
21
15.863478
0
LINE
8
boundary
62
5
39
2
10
27.744596
20
15.863478
11
27.764552
21
15.846425
0
LINE
8
boundary
62
5
39
2
10
27.764552
20
15.846425
11
27.978244
21
15.663824
0
LINE
8
boundary
62
5
39
2
10
27.978244
20
15.663824
11
27.998934
21
15.646144
0
LINE
8
boundary
62
5
39
2
10
27.998934
20
15.646144
11
28.215348
21
15.461217
0
LINE
8
boundary
62
5
39
2
10
28.215348
20
15.461217
11
28.236612
21
15.443047
0
LINE
8
boundary
62
5
39
2
10
28.236612
20
15.443047
11
28.455388
21
15.256101
0
LINE
8
boundary
62
5
39
2
10
28.455388
20
15.256101
11
28.477060
21
15.237582
0
LINE
8
boundary
62
5
39
2
10
28.477060
20
15.237582
11
28.697839
21
15.048925
0
LINE
8
boundary
62
5
39
2
10
28.697839
20
15.048925
11
28.719750
21
15.030202
0
LINE
8
boundary
62
5
39
2
10
28.719750
20
15.030202
11
28.942166
21
14.840146
0
LINE
8
boundary
62
5
39
2
10
28.942166
20
14.840146
11
28.964144
21
14.821365
0
LINE
8
boundary
62
5
39
2
10
28.964144
20
14.821365
11
29.187833
21
14.630222
0
LINE
8
boundary
62
5
39
2
10
29.187833
20
14.630222
11
29.209707
21
14.611531
0
LINE
8
boundary
62
5
39
2
10
29.209707
20
14.611531
11
29.434296
21
14.419618
0
LINE
8
boundary
62
5
39
2
10
29.434296
20
14.419618
11
29.455892
21
14.401164
0
LINE
8
boundary
62
5
39
2
10
29.455892
20
14.401164
11
29.681012
21
14.208797
0
LINE
8
boundary
62
5
39
2
10
29.681012
20
14.208797
11
29.702160
21
14.190726
0
LINE
8
boundary
62
5
39
2
10
29.702160
20
14.190726
11
29.927438
21
13.998225
0
LINE
8
boundary
62
5
39
2
10
29.927438
20
13.998225
11
29.947968
21
13.980681
0
LINE
8
boundary
62
5
39
2
10
29.947968
20
13.980681
11
30.173025
21
13.788369
0
LINE
8
boundary
62
5
39
2
10
30.173025
20
13.788369
11
30.192772
21
13.771494
0
LINE
8
boundary
62
5
39
2
10
30.192772
20
13.771494
11
30.417228
21
13.579695
0
LINE
8
boundary
62
5
39
2
10
30.417228
20
13.579695
11
30.436033
21
13.563627
0
LINE
8
boundary
62
5
39
2
10
30.436033
20
13.563627
11
30.659508
21
13.372665
0
LINE
8
boundary
62
5
39
2
10
30.659508
20
13.372665
11
30.677214
21
13.357535
0
LINE
8
boundary
62
5
39
2
10
30.677214
20
13.357535
11
30.899327
21
13.167739
0
LINE
8
boundary
62
5
39
2
10
30.899327
20
13.167739
11
30.915785
21
13.153675
0
LINE
8
boundary
62
5
39
2
10
30.915785
20
13.153675
11
31.136147
21
12.965375
0
LINE
8
boundary
62
5
39
2
10
31.136147
20
12.965375
11
31.369440
21
12.766024
0
LINE
8
boundary
62
5
39
2
10
31.369440
20
12.766024
11
31.598688
21
12.570129
0
LINE
8
boundary
62
5
39
2
10
31.598688
20
12.570129
11
31.823377
21
12.378132
0
LINE
8
boundary
62
5
39
2
10
31.823377
20
12.378132
11
32.042999
21
12.190463
0
LINE
8
boundary
62
5
39
2
10
32.042999
20
12.190463
11
32.257062
21
12.007544
0
LINE
8
boundary
62
5
39
2
10
32.257062
20
12.007544
11
32.465084
21
11.829789
0
LINE
8
boundary
62
5
39
2
10
32.465084
20
11.829789
11
32.924740
21
11.437009
0
LINE
8
boundary
62
5
39
2
10
32.924740
20
11.437009
11
34.031976
21
13.561375
0
LINE
8
boundary
62
5
39
2
10
34.031976
20
13.561375
11
34.385000
21
14.256583
0
LINE
8
annotation
62
1
39
211
10
31.762584
20
14.361807
11
31.651534
21
14.361807
0
LINE
8
annotation
62
1
39
211
10
31.651534
20
14.361807
11
31.695884
21
14.517345
0
LINE
8
annotation
62
1
39
211
10
31.729297
20
14.317345
11
31.729297
21
14.406169
0
LINE
8
annotation
62
1
39
211
10
30.665739
20
18.394902
11
30.710151
21
18.394902
0
LINE
8
annotation
62
1
39
211
10
30.710151
20
18.394902
11
30.710151
21
18.394902
0
LINE
8
annotation
62
1
39
211
10
30.710151
20
18.394902
11
30.718122
21
18.395619
0
LINE
8
annotation
62
1
39
211
10
30.718122
20
18.395619
11
30.725629
21
18.397685
0
LINE
8
annotation
62
1
39
211
10
30.725629
20
18.397685
11
30.732546
21
18.400975
0
LINE
8
annotation
62
1
39
211
10
30.732546
20
18.400975
11
30.738747
21
18.405362
0
LINE
8
annotation
62
1
39
211
10
30.738747
20
18.405362
11
30.744103
21
18.410722
0
LINE
8
annotation
62
1
39
211
10
30.744103
20
18.410722
11
30.748490
21
18.416928
0
LINE
8
annotation
62
1
39
211
10
30.748490
20
18.416928
11
30.751780
21
18.423854
0
LINE
8
annotation
62
1
39
211
10
30.751780
20
18.423854
11
30.753846
21
18.431375
0
LINE
8
annotation
62
1
39
211
10
30.753846
20
18.431375
11
30.754563
21
18.439364
0
LINE
8
annotation
62
1
39
211
10
30.754563
20
18.439364
11
30.754563
21
18.461489
0
LINE
8
annotation
62
1
39
211
10
30.754563
20
18.461489
11
30.754563
21
18.461489
0
LINE
8
annotation
62
1
39
211
10
30.754563
20
18.461489
11
30.753847
21
18.469475
0
LINE
8
annotation
62
1
39
211
10
30.753847
20
18.469475
11
30.751781
21
18.476985
0
LINE
8
annotation
62
1
39
211
10
30.751781
20
18.476985
11
30.748492
21
18.483896
0
LINE
8
annotation
62
1
39
211
10
30.748492
20
18.483896
11
30.744107
21
18.490084
0
LINE
8
annotation
62
1
39
211
10
30.744107
20
18.490084
11
30.738752
21
18.495425
0
LINE
8
annotation
62
1
39
211
10
30.738752
20
18.495425
11
30.732552
21
18.499795
0
LINE
8
annotation
62
1
39
211
10
30.732552
20
18.499795
11
30.725635
21
18.503070
0
LINE
8
annotation
62
1
39
211
10
30.725635
20
18.503070
11
30.718125
21
18.505126
0
LINE
8
annotation
62
1
39
211
10
30.718125
20
18.505126
11
30.710151
21
18.505839
0
LINE
8
annotation
62
1
39
211
10
30.710151
20
18.505839
11
30.665739
21
18.505839
0
LINE
8
annotation
62
1
39
211
10
30.665739
20
18.505839
11
30.665739
21
18.594902
0
LINE
8
annotation
62
1
39
211
10
30.665739
20
18.594902
11
30.754563
21
18.594902
0
LINE
8
annotation
62
1
39
211
10
32.219385
20
22.606477
11
32.219385
21
22.606477
0
LINE
8
annotation
62
1
39
211
10
32.219385
20
22.606477
11
32.215057
21
22.604854
0
LINE
8
annotation
62
1
39
211
10
32.215057
20
22.604854
11
32.211085
21
22.602668
0
LINE
8
annotation
62
1
39
211
10
32.211085
20
22.602668
11
32.207511
21
22.599972
0
LINE
8
annotation
62
1
39
211
10
32.207511
20
22.599972
11
32.204374
21
22.596823
0
LINE
8
annotation
62
1
39
211
10
32.204374
20
22.596823
11
32.201717
21
22.593274
0
LINE
8
annotation
62
1
39
211
10
32.201717
20
22.593274
11
32.199579
21
22.589380
0
LINE
8
annotation
62
1
39
211
10
32.199579
20
22.589380
11
32.198002
21
22.585197
0
LINE
8
annotation
62
1
39
211
10
32.198002
20
22.585197
11
32.197025
21
22.580778
0
LINE
8
annotation
62
1
39
211
10
32.197025
20
22.580778
11
32.196691
21
22.576180
0
LINE
8
annotation
62
1
39
211
10
32.196691
20
22.576180
11
32.196691
21
22.553567
0
LINE
8
annotation
62
1
39
211
10
32.196691
20
22.553567
11
32.196691
21
22.553567
0
LINE
8
annotation
62
1
39
211
10
32.196691
20
22.553567
11
32.196935
21
22.550849
0
LINE
8
annotation
62
1
39
211
10
32.196935
20
22.550849
11
32.197638
21
22.548290
0
LINE
8
annotation
62
1
39
211
10
32.197638
20
22.548290
11
32.198757
21
22.545934
0
LINE
8
annotation
62
1
39
211
10
32.198757
20
22.545934
11
32.200249
21
22.543823
0
LINE
8
annotation
62
1
39
211
10
32.200249
20
22.543823
11
32.202071
21
22.542000
0
LINE
8
annotation
62
1
39
211
10
32.202071
20
22.542000
11
32.204180
21
22.540507
0
LINE
8
annotation
62
1
39
211
10
32.204180
20
22.540507
11
32.206533
21
22.539388
0
LINE
8
annotation
62
1
39
211
10
32.206533
20
22.539388
11
32.209087
21
22.538685
0
LINE
8
annotation
62
1
39
211
10
32.209087
20
22.538685
11
32.211799
21
22.538441
0
LINE
8
annotation
62
1
39
211
10
32.211799
20
22.538441
11
32.211799
21
22.538441
0
LINE
8
annotation
62
1
39
211
10
32.211799
20
22.538441
11
32.214516
21
22.538685
0
LINE
8
annotation
62
1
39
211
10
32.214516
20
22.538685
11
32.217073
21
22.539388
0
LINE
8
annotation
62
1
39
211
10
32.217073
20
22.539388
11
32.219427
21
22.540507
0
LINE
8
annotation
62
1
39
211
10
32.219427
20
22.540507
11
32.221535
21
22.542000
0
LINE
8
annotation
62
1
39
211
10
32.221535
20
22.542000
11
32.223355
21
22.543823
0
LINE
8
annotation
62
1
39
211
10
32.223355
20
22.543823
11
32.224845
21
22.545934
0
LINE
8
annotation
62
1
39
211
10
32.224845
20
22.545934
11
32.225962
21
22.548290
0
LINE
8
annotation
62
1
39
211
10
32.225962
20
22.548290
11
32.226664
21
22.550849
0
LINE
8
annotation
62
1
39
211
10
32.226664
20
22.550849
11
32.226907
21
22.553567
0
LINE
8
annotation
62
1
39
211
10
32.226907
20
22.553567
11
32.226907
21
22.561093
0
LINE
8
annotation
62
1
39
211
10
32.226907
20
22.561093
11
32.226907
21
22.561093
0
LINE
8
annotation
62
1
39
211
10
32.226907
20
22.561093
11
32.226664
21
22.563809
0
LINE
8
annotation
62
1
39
211
10
32.226664
20
22.563809
11
32.225962
21
22.566364
0
LINE
8
annotation
62
1
39
211
10
32.225962
20
22.566364
11
32.224845
21
22.568715
0
LINE
8
annotation
62
1
39
211
10
32.224845
20
22.568715
11
32.223355
21
22.570820
0
LINE
8
annotation
62
1
39
211
10
32.223355
20
22.570820
11
32.221535
21
22.572637
0
LINE
8
annotation
62
1
39
211
10
32.221535
20
22.572637
11
32.219427
21
22.574124
0
LINE
8
annotation
62
1
39
211
10
32.219427
20
22.574124
11
32.217073
21
22.575238
0
LINE
8
annotation
62
1
39
211
10
32.217073
20
22.575238
11
32.214516
21
22.575937
0
LINE
8
annotation
62
1
39
211
10
32.214516
20
22.575937
11
32.211799
21
22.576180
0
LINE
8
annotation
62
1
39
211
10
32.211799
20
22.576180
11
32.196691
21
22.576180
0
LINE
8
annotation
62
1
39
211
10
32.194798
20
22.529937
11
32.228816
21
22.529937
0
LINE
8
annotation
62
1
39
211
10
30.726267
20
15.738678
11
29.823706
21
15.738678
0
LINE
8
annotation
62
1
39
211
10
29.823706
20
15.738678
11
30.726267
21
17.364185
0
LINE
8
annotation
62
1
39
211
10
30.726267
20
17.364185
11
29.823706
21
17.364185
0
LINE
8
annotation
62
1
39
211
10
32.224785
20
16.551431
11
31.335985
21
16.551431
0
LINE
8
annotation
62
1
39
211
10
33.376407
20
17.364185
11
33.376407
21
17.364185
0
LINE
8
annotation
62
1
39
211
10
33.376407
20
17.364185
11
33.273000
21
17.325414
0
LINE
8
annotation
62
1
39
211
10
33.273000
20
17.325414
11
33.178110
21
17.273174
0
LINE
8
annotation
62
1
39
211
10
33.178110
20
17.273174
11
33.092713
21
17.208774
0
LINE
8
annotation
62
1
39
211
10
33.092713
20
17.208774
11
33.017780
21
17.133524
0
LINE
8
annotation
62
1
39
211
10
33.017780
20
17.133524
11
32.954288
21
17.048732
0
LINE
8
annotation
62
1
39
211
10
32.954288
20
17.048732
11
32.903209
21
16.955707
0
LINE
8
annotation
62
1
39
211
10
32.903209
20
16.955707
11
32.865519
21
16.855758
0
LINE
8
annotation
62
1
39
211
10
32.865519
20
16.855758
11
32.842190
21
16.750193
0
LINE
8
annotation
62
1
39
211
10
32.842190
20
16.750193
11
32.834197
21
16.640321
0
LINE
8
annotation
62
1
39
211
10
32.834197
20
16.640321
11
32.834197
21
16.100049
0
LINE
8
annotation
62
1
39
211
10
32.834197
20
16.100049
11
32.834197
21
16.100049
0
LINE
8
annotation
62
1
39
211
10
32.834197
20
16.100049
11
32.840025
21
16.035115
0
LINE
8
annotation
62
1
39
211
10
32.840025
20
16.035115
11
32.856823
21
15.973990
0
LINE
8
annotation
62
1
39
211
10
32.856823
20
15.973990
11
32.883562
21
15.917696
0
LINE
8
annotation
62
1
39
211
10
32.883562
20
15.917696
11
32.919213
21
15.867257
0
LINE
8
annotation
62
1
39
211
10
32.919213
20
15.867257
11
32.962749
21
15.823696
0
LINE
8
annotation
62
1
39
211
10
32.962749
20
15.823696
11
33.013140
21
15.788035
0
LINE
8
annotation
62
1
39
211
10
33.013140
20
15.788035
11
33.069358
21
15.761296
0
LINE
8
annotation
62
1
39
211
10
33.069358
20
15.761296
11
33.130375
21
15.744503
0
LINE
8
annotation
62
1
39
211
10
33.130375
20
15.744503
11
33.195161
21
15.738678
0
LINE
8
annotation
62
1
39
211
10
33.195161
20
15.738678
11
33.195161
21
15.738678
0
LINE
8
annotation
62
1
39
211
10
33.195161
20
15.738678
11
33.260081
21
15.744503
0
LINE
8
annotation
62
1
39
211
10
33.260081
20
15.744503
11
33.321168
21
15.761296
0
LINE
8
annotation
62
1
39
211
10
33.321168
20
15.761296
11
33.377407
21
15.788035
0
LINE
8
annotation
62
1
39
211
10
33.377407
20
15.788035
11
33.427782
21
15.823696
0
LINE
8
annotation
62
1
39
211
10
33.427782
20
15.823696
11
33.471276
21
15.867257
0
LINE
8
annotation
62
1
39
211
10
33.471276
20
15.867257
11
33.506873
21
15.917696
0
LINE
8
annotation
62
1
39
211
10
33.506873
20
15.917696
11
33.533557
21
15.973990
0
LINE
8
annotation
62
1
39
211
10
33.533557
20
15.973990
11
33.550313
21
16.035115
0
LINE
8
annotation
62
1
39
211
10
33.550313
20
16.035115
11
33.556124
21
16.100049
0
LINE
8
annotation
62
1
39
211
10
33.556124
20
16.100049
11
33.556124
21
16.279868
0
LINE
8
annotation
62
1
39
211
10
33.556124
20
16.279868
11
33.556124
21
16.279868
0
LINE
8
annotation
62
1
39
211
10
33.556124
20
16.279868
11
33.550313
21
16.344770
0
LINE
8
annotation
62
1
39
211
10
33.550313
20
16.344770
11
33.533557
21
16.405811
0
LINE
8
annotation
62
1
39
211
10
33.533557
20
16.405811
11
33.506873
21
16.461982
0
LINE
8
annotation
62
1
39
211
10
33.506873
20
16.461982
11
33.471276
21
16.512276
0
LINE
8
annotation
62
1
39
211
10
33.471276
20
16.512276
11
33.427782
21
16.555686
0
LINE
8
annotation
62
1
39
211
10
33.427782
20
16.555686
11
33.377407
21
16.591202
0
LINE
8
annotation
62
1
39
211
10
33.377407
20
16.591202
11
33.321168
21
16.617819
0
LINE
8
annotation
62
1
39
211
10
33.321168
20
16.617819
11
33.260081
21
16.634528
0
LINE
8
annotation
62
1
39
211
10
33.260081
20
16.634528
11
33.195161
21
16.640321
0
LINE
8
annotation
62
1
39
211
10
33.195161
20
16.640321
11
32.834197
21
16.640321
0
LINE
8
annotation
62
1
39
211
10
32.788988
20
15.535489
11
33.601741
21
15.535489
0
LINE
8
frame
62
5
39
2
10
0.000000
20
0.000000
11
38.000000
21
0.000000
0
LINE
8
frame
62
5
39
2
10
38.000000
20
0.000000
11
38.000000
21
26.000000
0
LINE
8
frame
62
5
39
2
10
38.000000
20
26.000000
11
0.000000
21
26.000000
0
LINE
8
frame
62
5
39
2
10
0.000000
20
26.000000
11
0.000000
21
0.000000
0
ENDSEC
0
EOF
