0
SECTION
2
HEADER
9
$ACADVER
1
AC1009
0
ENDSEC
0
SECTION
2
TABLES
0
TABLE
2
VPORT
70
1
0
VPORT
2
ACTIVE
70
0
10
0.0
20
0.0
11
0.0
21
0.0
12
0.0
22
0.0
13
0.0
23
0.0
14
0.0
24
0.0
15
0.0
25
0.0
16
0.0
26
0.0
36
0.0
17
0.0
27
0.0
37
0.0
40
0.0
41
0.0
42
0.0
43
0.0
44
0.0
50
0.0
51
0.0
71
0
72
1000
73
1
74
3
75
0
76
0
77
0
78
0
0
ENDTAB
0
ENDSEC
0
SECTION
2
ENTITIES
0
LINE
8
boundary
62
5
39
2
10
6.627942
20
7.705096
11
6.713386
21
7.632083
0
LINE
8
boundary
62
5
39
2
10
6.713386
20
7.632083
11
15.571809
21
0.062500
0
LINE
8
boundary
62
5
39
2
10
15.571809
20
0.062500
11
16.894714
21
2.600652
0
LINE
8
boundary
62
5
39
2
10
16.894714
20
2.600652
11
16.929159
21
2.666739
0
LINE
8
boundary
62
5
39
2
10
16.929159
20
2.666739
11
14.716644
21
2.672989
0
LINE
8
boundary
62
5
39
2
10
14.716644
20
2.672989
11
14.716645
21
2.787989
0
LINE
8
boundary
62
5
39
2
10
14.716645
20
2.787989
11
16.992355
21
2.787989
0
LINE
8
boundary
62
5
39
2
10
16.992355
20
2.787989
11
19.054414
21
6.744296
0
LINE
8
boundary
62
5
39
2
10
19.054414
20
6.744296
11
13.393359
21
6.750546
0
LINE
8
boundary
62
5
39
2
10
13.393359
20
6.750546
11
13.393359
21
6.865546
0
LINE
8
boundary
62
5
39
2
10
13.393359
20
6.865546
11
19.117610
21
6.865546
0
LINE
8
boundary
62
5
39
2
10
19.117610
20
6.865546
11
19.489685
21
7.579417
0
LINE
8
boundary
62
5
39
2
10
19.489685
20
7.579417
11
15.695173
21
10.821853
0
LINE
8
boundary
62
5
39
2
10
15.695173
20
10.821853
11
9.268236
21
10.828103
0
LINE
8
boundary
62
5
39
2
10
9.268236
20
10.828103
11
9.268236
21
10.943103
0
LINE
8
boundary
62
5
39
2
10
9.268236
20
10.943103
11
15.545214
21
10.943103
0
LINE
8
boundary
62
5
39
2
10
15.545214
20
10.943103
11
12.242185
21
13.772456
0
LINE
8
boundary
62
5
39
2
10
12.242185
20
13.772456
11
12.107755
21
13.887327
0
LINE
8
boundary
62
5
39
2
10
12.107755
20
13.887327
11
12.036159
21
13.948506
0
LINE
8
boundary
62
5
39
2
10
12.036159
20
13.948506
11
11.898476
21
14.066157
0
LINE
8
boundary
62
5
39
2
10
11.898476
20
14.066157
11
11.824025
21
14.129776
0
LINE
8
boundary
62
5
39
2
10
11.824025
20
14.129776
11
11.683383
21
14.249956
0
LINE
8
boundary
62
5
39
2
10
11.683383
20
14.249956
11
11.606248
21
14.315868
0
LINE
8
boundary
62
5
39
2
10
11.606248
20
14.315868
11
11.462943
21
14.438323
0
LINE
8
boundary
62
5
39
2
10
11.462943
20
14.438323
11
11.383310
21
14.506370
0
LINE
8
boundary
62
5
39
2
10
11.383310
20
14.506370
11
11.237641
21
14.630845
0
LINE
8
boundary
62
5
39
2
10
11.237641
20
14.630845
11
11.155702
21
14.700863
0
LINE
8
boundary
62
5
39
2
10
11.155702
20
14.700863
11
11.007972
21
14.827099
0
LINE
8
boundary
62
5
39
2
10
11.007972
20
14.827099
11
10.923927
21
14.898916
0
LINE
8
boundary
62
5
39
2
10
10.923927
20
14.898916
11
5.965019
21
14.905660
0
LINE
8
boundary
62
5
39
2
10
5.965019
20
14.905660
11
5.965019
21
15.020660
0
LINE
8
boundary
62
5
39
2
10
5.965019
20
15.020660
11
10.773389
21
15.020660
0
LINE
8
boundary
62
5
39
2
10
10.773389
20
15.020660
11
10.688495
21
15.100094
0
LINE
8
boundary
62
5
39
2
10
10.688495
20
15.100094
11
10.537548
21
15.229080
0
LINE
8
boundary
62
5
39
2
10
10.537548
20
15.229080
11
10.449924
21
15.303955
0
LINE
8
boundary
62
5
39
2
10
10.449924
20
15.303955
11
10.297826
21
15.433924
0
LINE
8
boundary
62
5
39
2
10
10.297826
20
15.433924
11
10.208742
21
15.510046
0
LINE
8
boundary
62
5
39
2
10
10.208742
20
15.510046
11
10.055798
21
15.640738
0
LINE
8
boundary
62
5
39
2
10
10.055798
20
15.640738
11
9.965482
21
15.717914
0
LINE
8
boundary
62
5
39
2
10
9.965482
20
15.717914
11
9.811996
21
15.849068
0
LINE
8
boundary
62
5
39
2
10
9.811996
20
15.849068
11
9.720678
21
15.927101
0
LINE
8
boundary
62
5
39
2
10
9.720678
20
15.927101
11
9.566955
21
16.058458
0
LINE
8
boundary
62
5
39
2
10
9.566955
20
16.058458
11
9.474869
21
16.137146
0
LINE
8
boundary
62
5
39
2
10
9.474869
20
16.137146
11
9.321214
21
16.268445
0
LINE
8
boundary
62
5
39
2
10
9.321214
20
16.268445
11
9.228601
21
16.347583
0
LINE
8
boundary
62
5
39
2
10
9.228601
20
16.347583
11
9.075317
21
16.478566
0
LINE
8
boundary
62
5
39
2
10
9.075317
20
16.478566
11
8.982416
21
16.557950
0
LINE
8
boundary
62
5
39
2
10
8.982416
20
16.557950
11
8.829800
21
16.688361
0
LINE
8
boundary
62
5
39
2
10
8.829800
20
16.688361
11
8.736854
21
16.767785
0
LINE
8
boundary
62
5
39
2
10
8.736854
20
16.767785
11
8.585208
21
16.897367
0
LINE
8
boundary
62
5
39
2
10
8.585208
20
16.897367
11
8.492460
21
16.976621
0
LINE
8
boundary
62
5
39
2
10
8.492460
20
16.976621
11
8.342078
21
17.105124
0
LINE
8
boundary
62
5
39
2
10
8.342078
20
17.105124
11
8.249770
21
17.184002
0
LINE
8
boundary
62
5
39
2
10
8.249770
20
17.184002
11
8.100946
21
17.311173
0
LINE
8
boundary
62
5
39
2
10
8.100946
20
17.311173
11
8.009322
21
17.389466
0
LINE
8
boundary
62
5
39
2
10
8.009322
20
17.389466
11
7.862344
21
17.515059
0
LINE
8
boundary
62
5
39
2
10
7.862344
20
17.515059
11
7.771644
21
17.592564
0
LINE
8
boundary
62
5
39
2
10
7.771644
20
17.592564
11
7.626799
21
17.716334
0
LINE
8
boundary
62
5
39
2
10
7.626799
20
17.716334
11
7.537261
21
17.792845
0
LINE
8
boundary
62
5
39
2
10
7.537261
20
17.792845
11
7.394829
21
17.914554
0
LINE
8
boundary
62
5
39
2
10
7.394829
20
17.914554
11
7.306690
21
17.989870
0
LINE
8
boundary
62
5
39
2
10
7.306690
20
17.989870
11
7.166948
21
18.109281
0
LINE
8
boundary
62
5
39
2
10
7.166948
20
18.109281
11
7.080439
21
18.183203
0
LINE
8
boundary
62
5
39
2
10
7.080439
20
18.183203
11
6.943659
21
18.300083
0
LINE
8
boundary
62
5
39
2
10
6.943659
20
18.300083
11
6.859009
21
18.372416
0
LINE
8
boundary
62
5
39
2
10
6.859009
20
18.372416
11
6.725456
21
18.486539
0
LINE
8
boundary
62
5
39
2
10
6.725456
20
18.486539
11
6.642886
21
18.557095
0
LINE
8
boundary
62
5
39
2
10
6.642886
20
18.557095
11
6.512820
21
18.668237
0
LINE
8
boundary
62
5
39
2
10
6.512820
20
18.668237
11
6.432547
21
18.736831
0
LINE
8
boundary
62
5
39
2
10
6.432547
20
18.736831
11
6.339121
21
18.816664
0
LINE
8
boundary
62
5
39
2
10
6.339121
20
18.816664
11
6.292212
21
18.856748
0
LINE
8
boundary
62
5
39
2
10
6.292212
20
18.856748
11
6.151523
21
18.976968
0
LINE
8
boundary
62
5
39
2
10
6.151523
20
18.976968
11
4.951281
21
18.983218
0
LINE
8
boundary
62
5
39
2
10
4.951281
20
18.983218
11
4.951281
21
19.098218
0
LINE
8
boundary
62
5
39
2
10
4.951281
20
19.098218
11
6.001564
21
19.098218
0
LINE
8
boundary
62
5
39
2
10
6.001564
20
19.098218
11
5.940893
21
19.156952
0
LINE
8
boundary
62
5
39
2
10
5.940893
20
19.156952
11
5.902109
21
19.190094
0
LINE
8
boundary
62
5
39
2
10
5.902109
20
19.190094
11
5.752471
21
19.317960
0
LINE
8
boundary
62
5
39
2
10
5.752471
20
19.317960
11
5.718035
21
19.347386
0
LINE
8
boundary
62
5
39
2
10
5.718035
20
19.347386
11
5.571739
21
19.472397
0
LINE
8
boundary
62
5
39
2
10
5.571739
20
19.472397
11
5.541828
21
19.497956
0
LINE
8
boundary
62
5
39
2
10
5.541828
20
19.497956
11
5.399092
21
19.619925
0
LINE
8
boundary
62
5
39
2
10
5.399092
20
19.619925
11
5.373875
21
19.641474
0
LINE
8
boundary
62
5
39
2
10
5.373875
20
19.641474
11
5.234914
21
19.760216
0
LINE
8
boundary
62
5
39
2
10
5.234914
20
19.760216
11
5.214547
21
19.777620
0
LINE
8
boundary
62
5
39
2
10
5.214547
20
19.777620
11
5.079563
21
19.892965
0
LINE
8
boundary
62
5
39
2
10
5.079563
20
19.892965
11
5.064194
21
19.906098
0
LINE
8
boundary
62
5
39
2
10
5.064194
20
19.906098
11
4.933387
21
20.017873
0
LINE
8
boundary
62
5
39
2
10
4.933387
20
20.017873
11
4.912970
21
20.035320
0
LINE
8
boundary
62
5
39
2
10
4.912970
20
20.035320
11
4.892730
21
20.052615
0
LINE
8
boundary
62
5
39
2
10
4.892730
20
20.052615
11
4.872577
21
20.069836
0
LINE
8
boundary
62
5
39
2
10
4.872577
20
20.069836
11
4.852420
21
20.087061
0
LINE
8
boundary
62
5
39
2
10
4.852420
20
20.087061
11
4.832170
21
20.104364
0
LINE
8
boundary
62
5
39
2
10
4.832170
20
20.104364
11
4.747474
21
20.176737
0
LINE
8
boundary
62
5
39
2
10
4.747474
20
20.176737
11
4.727463
21
20.193837
0
LINE
8
boundary
62
5
39
2
10
4.727463
20
20.193837
11
4.711994
21
20.207056
0
LINE
8
boundary
62
5
39
2
10
4.711994
20
20.207056
11
4.695933
21
20.220780
0
LINE
8
boundary
62
5
39
2
10
4.695933
20
20.220780
11
4.679074
21
20.235186
0
LINE
8
boundary
62
5
39
2
10
4.679074
20
20.235186
11
3.901734
21
19.146480
0
LINE
8
boundary
62
5
39
2
10
3.901734
20
19.146480
11
3.506003
21
18.578483
0
LINE
8
boundary
62
5
39
2
10
3.506003
20
18.578483
11
3.093279
21
17.986095
0
LINE
8
boundary
62
5
39
2
10
3.093279
20
17.986095
11
2.321136
21
16.848855
0
LINE
8
boundary
62
5
39
2
10
2.321136
20
16.848855
11
2.307893
21
16.828992
0
LINE
8
boundary
62
5
39
2
10
2.307893
20
16.828992
11
1.573647
21
15.717582
0
LINE
8
boundary
62
5
39
2
10
1.573647
20
15.717582
11
1.243183
21
15.202563
0
LINE
8
boundary
62
5
39
2
10
1.243183
20
15.202563
11
0.865821
21
14.614457
0
LINE
8
boundary
62
5
39
2
10
0.865821
20
14.614457
11
0.253893
21
13.630425
0
LINE
8
boundary
62
5
39
2
10
0.253893
20
13.630425
11
0.194765
21
13.535342
0
LINE
8
boundary
62
5
39
2
10
0.194765
20
13.535342
11
0.062500
21
13.315311
0
LINE
8
boundary
62
5
39
2
10
0.062500
20
13.315311
11
0.096466
21
13.286287
0
LINE
8
boundary
62
5
39
2
10
0.096466
20
13.286287
11
0.124310
21
13.262494
0
LINE
8
boundary
62
5
39
2
10
0.124310
20
13.262494
11
0.151059
21
13.239637
0
LINE
8
boundary
62
5
39
2
10
0.151059
20
13.239637
11
0.176806
21
13.217636
0
LINE
8
boundary
62
5
39
2
10
0.176806
20
13.217636
11
0.201633
21
13.196421
0
LINE
8
boundary
62
5
39
2
10
0.201633
20
13.196421
11
0.225613
21
13.175930
0
LINE
8
boundary
62
5
39
2
10
0.225613
20
13.175930
11
0.248816
21
13.156103
0
LINE
8
boundary
62
5
39
2
10
0.248816
20
13.156103
11
0.271301
21
13.136889
0
LINE
8
boundary
62
5
39
2
10
0.271301
20
13.136889
11
0.293127
21
13.118239
0
LINE
8
boundary
62
5
39
2
10
0.293127
20
13.118239
11
0.314344
21
13.100109
0
LINE
8
boundary
62
5
39
2
10
0.314344
20
13.100109
11
0.335000
21
13.082458
0
LINE
8
boundary
62
5
39
2
10
0.335000
20
13.082458
11
0.355139
21
13.065249
0
LINE
8
boundary
62
5
39
2
10
0.355139
20
13.065249
11
0.374802
21
13.048447
0
LINE
8
boundary
62
5
39
2
10
0.374802
20
13.048447
11
0.394026
21
13.032020
0
LINE
8
boundary
62
5
39
2
10
0.394026
20
13.032020
11
0.412846
21
13.015938
0
LINE
8
boundary
62
5
39
2
10
0.412846
20
13.015938
11
0.431295
21
13.000173
0
LINE
8
boundary
62
5
39
2
10
0.431295
20
13.000173
11
0.449403
21
12.984700
0
LINE
8
boundary
62
5
39
2
10
0.449403
20
12.984700
11
0.467200
21
12.969492
0
LINE
8
boundary
62
5
39
2
10
0.467200
20
12.969492
11
0.484713
21
12.954528
0
LINE
8
boundary
62
5
39
2
10
0.484713
20
12.954528
11
0.501966
21
12.939784
0
LINE
8
boundary
62
5
39
2
10
0.501966
20
12.939784
11
0.518985
21
12.925241
0
LINE
8
boundary
62
5
39
2
10
0.518985
20
12.925241
11
0.535793
21
12.910879
0
LINE
8
boundary
62
5
39
2
10
0.535793
20
12.910879
11
0.552412
21
12.896678
0
LINE
8
boundary
62
5
39
2
10
0.552412
20
12.896678
11
0.568862
21
12.882621
0
LINE
8
boundary
62
5
39
2
10
0.568862
20
12.882621
11
0.585165
21
12.868691
0
LINE
8
boundary
62
5
39
2
10
0.585165
20
12.868691
11
0.601340
21
12.854869
0
LINE
8
boundary
62
5
39
2
10
0.601340
20
12.854869
11
0.617406
21
12.841140
0
LINE
8
boundary
62
5
39
2
10
0.617406
20
12.841140
11
0.633382
21
12.827489
0
LINE
8
boundary
62
5
39
2
10
0.633382
20
12.827489
11
0.649286
21
12.813898
0
LINE
8
boundary
62
5
39
2
10
0.649286
20
12.813898
11
0.665137
21
12.800354
0
LINE
8
boundary
62
5
39
2
10
0.665137
20
12.800354
11
0.680951
21
12.786841
0
LINE
8
boundary
62
5
39
2
10
0.680951
20
12.786841
11
0.696746
21
12.773343
0
LINE
8
boundary
62
5
39
2
10
0.696746
20
12.773343
11
0.712540
21
12.759847
0
LINE
8
boundary
62
5
39
2
10
0.712540
20
12.759847
11
0.728351
21
12.746337
0
LINE
8
boundary
62
5
39
2
10
0.728351
20
12.746337
11
0.744195
21
12.732798
0
LINE
8
boundary
62
5
39
2
10
0.744195
20
12.732798
11
0.760090
21
12.719216
0
LINE
8
boundary
62
5
39
2
10
0.760090
20
12.719216
11
0.776054
21
12.705574
0
LINE
8
boundary
62
5
39
2
10
0.776054
20
12.705574
11
0.792106
21
12.691858
0
LINE
8
boundary
62
5
39
2
10
0.792106
20
12.691858
11
0.903748
21
12.596459
0
LINE
8
boundary
62
5
39
2
10
0.903748
20
12.596459
11
1.016659
21
12.499976
0
LINE
8
boundary
62
5
39
2
10
1.016659
20
12.499976
11
1.114087
21
12.416723
0
LINE
8
boundary
62
5
39
2
10
1.114087
20
12.416723
11
1.230379
21
12.317350
0
LINE
8
boundary
62
5
39
2
10
1.230379
20
12.317350
11
1.330210
21
12.232044
0
LINE
8
boundary
62
5
39
2
10
1.330210
20
12.232044
11
1.449654
21
12.129979
0
LINE
8
boundary
62
5
39
2
10
1.449654
20
12.129979
11
1.551640
21
12.042831
0
LINE
8
boundary
62
5
39
2
10
1.551640
20
12.042831
11
1.673999
21
11.938274
0
LINE
8
boundary
62
5
39
2
10
1.673999
20
11.938274
11
1.777891
21
11.849497
0
LINE
8
boundary
62
5
39
2
10
1.777891
20
11.849497
11
1.902919
21
11.742660
0
LINE
8
boundary
62
5
39
2
10
1.902919
20
11.742660
11
2.008463
21
11.652473
0
LINE
8
boundary
62
5
39
2
10
2.008463
20
11.652473
11
2.135909
21
11.543569
0
LINE
8
boundary
62
5
39
2
10
2.135909
20
11.543569
11
2.242845
21
11.452191
0
LINE
8
boundary
62
5
39
2
10
2.242845
20
11.452191
11
2.372453
21
11.341441
0
LINE
8
boundary
62
5
39
2
10
2.372453
20
11.341441
11
2.480523
21
11.249094
0
LINE
8
boundary
62
5
39
2
10
2.480523
20
11.249094
11
2.612028
21
11.136722
0
LINE
8
boundary
62
5
39
2
10
2.612028
20
11.136722
11
2.720971
21
11.043629
0
LINE
8
boundary
62
5
39
2
10
2.720971
20
11.043629
11
2.854108
21
10.929863
0
LINE
8
boundary
62
5
39
2
10
2.854108
20
10.929863
11
2.963661
21
10.836249
0
LINE
8
boundary
62
5
39
2
10
2.963661
20
10.836249
11
3.098155
21
10.721324
0
LINE
8
boundary
62
5
39
2
10
3.098155
20
10.721324
11
3.208055
21
10.627413
0
LINE
8
boundary
62
5
39
2
10
3.208055
20
10.627413
11
3.343631
21
10.511563
0
LINE
8
boundary
62
5
39
2
10
3.343631
20
10.511563
11
3.453617
21
10.417578
0
LINE
8
boundary
62
5
39
2
10
3.453617
20
10.417578
11
3.589992
21
10.301045
0
LINE
8
boundary
62
5
39
2
10
3.589992
20
10.301045
11
3.699803
21
10.207211
0
LINE
8
boundary
62
5
39
2
10
3.699803
20
10.207211
11
3.836695
21
10.090236
0
LINE
8
boundary
62
5
39
2
10
3.836695
20
10.090236
11
3.946071
21
9.996774
0
LINE
8
boundary
62
5
39
2
10
3.946071
20
9.996774
11
4.083195
21
9.879600
0
LINE
8
boundary
62
5
39
2
10
4.083195
20
9.879600
11
4.191879
21
9.786729
0
LINE
8
boundary
62
5
39
2
10
4.191879
20
9.786729
11
4.328946
21
9.669604
0
LINE
8
boundary
62
5
39
2
10
4.328946
20
9.669604
11
4.436683
21
9.577542
0
LINE
8
boundary
62
5
39
2
10
4.436683
20
9.577542
11
4.573403
21
9.460714
0
LINE
8
boundary
62
5
39
2
10
4.573403
20
9.460714
11
4.679944
21
9.369674
0
LINE
8
boundary
62
5
39
2
10
4.679944
20
9.369674
11
4.816026
21
9.253390
0
LINE
8
boundary
62
5
39
2
10
4.816026
20
9.253390
11
4.921125
21
9.163583
0
LINE
8
boundary
62
5
39
2
10
4.921125
20
9.163583
11
5.056281
21
9.048092
0
LINE
8
boundary
62
5
39
2
10
5.056281
20
9.048092
11
5.159696
21
8.959722
0
LINE
8
boundary
62
5
39
2
10
5.159696
20
8.959722
11
5.293632
21
8.845273
0
LINE
8
boundary
62
5
39
2
10
5.293632
20
8.845273
11
5.395128
21
8.758544
0
LINE
8
boundary
62
5
39
2
10
5.395128
20
8.758544
11
5.527555
21
8.645384
0
LINE
8
boundary
62
5
39
2
10
5.527555
20
8.645384
11
5.626903
21
8.560491
0
LINE
8
boundary
62
5
39
2
10
5.626903
20
8.560491
11
5.757532
21
8.448867
0
LINE
8
boundary
62
5
39
2
10
5.757532
20
8.448867
11
5.854511
21
8.365998
0
LINE
8
boundary
62
5
39
2
10
5.854511
20
8.365998
11
5.983054
21
8.256157
0
LINE
8
boundary
62
5
39
2
10
5.983054
20
8.256157
11
6.077450
21
8.175495
0
LINE
8
boundary
62
5
39
2
10
6.077450
20
8.175495
11
6.203621
21
8.067681
0
LINE
8
boundary
62
5
39
2
10
6.203621
20
8.067681
11
6.295226
21
7.989404
0
LINE
8
boundary
62
5
39
2
10
6.295226
20
7.989404
11
6.418742
21
7.883858
0
LINE
8
boundary
62
5
39
2
10
6.418742
20
7.883858
11
6.507360
21
7.808134
0
LINE
8
boundary
62
5
39
2
10
6.507360
20
7.808134
11
6.627942
21
7.705096
0
LINE
8
annotation
62
1
39
211
10
14.506032
20
2.630487
11
14.417207
21
2.630487
0
LINE
8
annotation
62
1
39
211
10
14.417207
20
2.630487
11
14.499284
21
2.762621
0
LINE
8
annotation
62
1
39
211
10
14.499284
20
2.762621
11
14.499284
21
2.762621
0
LINE
8
annotation
62
1
39
211
10
14.499284
20
2.762621
11
14.499382
21
2.762742
0
LINE
8
annotation
62
1
39
211
10
14.499382
20
2.762742
11
14.499476
21
2.762864
0
LINE
8
annotation
62
1
39
211
10
14.499476
20
2.762864
11
14.499567
21
2.762989
0
LINE
8
annotation
62
1
39
211
10
14.499567
20
2.762989
11
14.499655
21
2.763117
0
LINE
8
annotation
62
1
39
211
10
14.499655
20
2.763117
11
14.499741
21
2.763248
0
LINE
8
annotation
62
1
39
211
10
14.499741
20
2.763248
11
14.499825
21
2.763385
0
LINE
8
annotation
62
1
39
211
10
14.499825
20
2.763385
11
14.499908
21
2.763528
0
LINE
8
annotation
62
1
39
211
10
14.499908
20
2.763528
11
14.499991
21
2.763679
0
LINE
8
annotation
62
1
39
211
10
14.499991
20
2.763679
11
14.500074
21
2.763837
0
LINE
8
annotation
62
1
39
211
10
14.500074
20
2.763837
11
14.500074
21
2.763837
0
LINE
8
annotation
62
1
39
211
10
14.500074
20
2.763837
11
14.503463
21
2.771113
0
LINE
8
annotation
62
1
39
211
10
14.503463
20
2.771113
11
14.505443
21
2.778656
0
LINE
8
annotation
62
1
39
211
10
14.505443
20
2.778656
11
14.506062
21
2.786294
0
LINE
8
annotation
62
1
39
211
10
14.506062
20
2.786294
11
14.505369
21
2.793858
0
LINE
8
annotation
62
1
39
211
10
14.505369
20
2.793858
11
14.503412
21
2.801177
0
LINE
8
annotation
62
1
39
211
10
14.503412
20
2.801177
11
14.500240
21
2.808080
0
LINE
8
annotation
62
1
39
211
10
14.500240
20
2.808080
11
14.495902
21
2.814397
0
LINE
8
annotation
62
1
39
211
10
14.495902
20
2.814397
11
14.490446
21
2.819958
0
LINE
8
annotation
62
1
39
211
10
14.490446
20
2.819958
11
14.483920
21
2.824592
0
LINE
8
annotation
62
1
39
211
10
14.483920
20
2.824592
11
14.483920
21
2.824592
0
LINE
8
annotation
62
1
39
211
10
14.483920
20
2.824592
11
14.476623
21
2.827933
0
LINE
8
annotation
62
1
39
211
10
14.476623
20
2.827933
11
14.469069
21
2.829882
0
LINE
8
annotation
62
1
39
211
10
14.469069
20
2.829882
11
14.461426
21
2.830484
0
LINE
8
annotation
62
1
39
211
10
14.461426
20
2.830484
11
14.453864
21
2.829782
0
LINE
8
annotation
62
1
39
211
10
14.453864
20
2.829782
11
14.446550
21
2.827820
0
LINE
8
annotation
62
1
39
211
10
14.446550
20
2.827820
11
14.439655
21
2.824641
0
LINE
8
annotation
62
1
39
211
10
14.439655
20
2.824641
11
14.433346
21
2.820291
0
LINE
8
annotation
62
1
39
211
10
14.433346
20
2.820291
11
14.427793
21
2.814813
0
LINE
8
annotation
62
1
39
211
10
14.427793
20
2.814813
11
14.423165
21
2.808250
0
LINE
8
annotation
62
1
39
211
10
14.423165
20
2.808250
11
14.417332
21
2.797062
0
LINE
8
annotation
62
1
39
211
10
13.093922
20
6.708052
11
13.138334
21
6.708052
0
LINE
8
annotation
62
1
39
211
10
13.138334
20
6.708052
11
13.138334
21
6.708052
0
LINE
8
annotation
62
1
39
211
10
13.138334
20
6.708052
11
13.146322
21
6.708769
0
LINE
8
annotation
62
1
39
211
10
13.146322
20
6.708769
11
13.153838
21
6.710834
0
LINE
8
annotation
62
1
39
211
10
13.153838
20
6.710834
11
13.160758
21
6.714121
0
LINE
8
annotation
62
1
39
211
10
13.160758
20
6.714121
11
13.166956
21
6.718503
0
LINE
8
annotation
62
1
39
211
10
13.166956
20
6.718503
11
13.172307
21
6.723853
0
LINE
8
annotation
62
1
39
211
10
13.172307
20
6.723853
11
13.176687
21
6.730045
0
LINE
8
annotation
62
1
39
211
10
13.176687
20
6.730045
11
13.179970
21
6.736952
0
LINE
8
annotation
62
1
39
211
10
13.179970
20
6.736952
11
13.182032
21
6.744446
0
LINE
8
annotation
62
1
39
211
10
13.182032
20
6.744446
11
13.182747
21
6.752402
0
LINE
8
annotation
62
1
39
211
10
13.182747
20
6.752402
11
13.182747
21
6.774639
0
LINE
8
annotation
62
1
39
211
10
13.182747
20
6.774639
11
13.182747
21
6.774639
0
LINE
8
annotation
62
1
39
211
10
13.182747
20
6.774639
11
13.182032
21
6.782592
0
LINE
8
annotation
62
1
39
211
10
13.182032
20
6.782592
11
13.179970
21
6.790085
0
LINE
8
annotation
62
1
39
211
10
13.179970
20
6.790085
11
13.176687
21
6.796991
0
LINE
8
annotation
62
1
39
211
10
13.176687
20
6.796991
11
13.172307
21
6.803183
0
LINE
8
annotation
62
1
39
211
10
13.172307
20
6.803183
11
13.166956
21
6.808534
0
LINE
8
annotation
62
1
39
211
10
13.166956
20
6.808534
11
13.160758
21
6.812918
0
LINE
8
annotation
62
1
39
211
10
13.160758
20
6.812918
11
13.153838
21
6.816206
0
LINE
8
annotation
62
1
39
211
10
13.153838
20
6.816206
11
13.146322
21
6.818272
0
LINE
8
annotation
62
1
39
211
10
13.146322
20
6.818272
11
13.138334
21
6.818989
0
LINE
8
annotation
62
1
39
211
10
13.138334
20
6.818989
11
13.116097
21
6.818989
0
LINE
8
annotation
62
1
39
211
10
13.116097
20
6.818989
11
13.138334
21
6.818989
0
LINE
8
annotation
62
1
39
211
10
13.138334
20
6.818989
11
13.138334
21
6.818989
0
LINE
8
annotation
62
1
39
211
10
13.138334
20
6.818989
11
13.146322
21
6.819706
0
LINE
8
annotation
62
1
39
211
10
13.146322
20
6.819706
11
13.153838
21
6.821774
0
LINE
8
annotation
62
1
39
211
10
13.153838
20
6.821774
11
13.160758
21
6.825065
0
LINE
8
annotation
62
1
39
211
10
13.160758
20
6.825065
11
13.166956
21
6.829455
0
LINE
8
annotation
62
1
39
211
10
13.166956
20
6.829455
11
13.172307
21
6.834817
0
LINE
8
annotation
62
1
39
211
10
13.172307
20
6.834817
11
13.176687
21
6.841025
0
LINE
8
annotation
62
1
39
211
10
13.176687
20
6.841025
11
13.179970
21
6.847953
0
LINE
8
annotation
62
1
39
211
10
13.179970
20
6.847953
11
13.182032
21
6.855474
0
LINE
8
annotation
62
1
39
211
10
13.182032
20
6.855474
11
13.182747
21
6.863464
0
LINE
8
annotation
62
1
39
211
10
13.182747
20
6.863464
11
13.182747
21
6.863464
0
LINE
8
annotation
62
1
39
211
10
13.182747
20
6.863464
11
13.182032
21
6.871417
0
LINE
8
annotation
62
1
39
211
10
13.182032
20
6.871417
11
13.179970
21
6.878910
0
LINE
8
annotation
62
1
39
211
10
13.179970
20
6.878910
11
13.176687
21
6.885816
0
LINE
8
annotation
62
1
39
211
10
13.176687
20
6.885816
11
13.172307
21
6.892008
0
LINE
8
annotation
62
1
39
211
10
13.172307
20
6.892008
11
13.166956
21
6.897359
0
LINE
8
annotation
62
1
39
211
10
13.166956
20
6.897359
11
13.160758
21
6.901742
0
LINE
8
annotation
62
1
39
211
10
13.160758
20
6.901742
11
13.153838
21
6.905031
0
LINE
8
annotation
62
1
39
211
10
13.153838
20
6.905031
11
13.146322
21
6.907097
0
LINE
8
annotation
62
1
39
211
10
13.146322
20
6.907097
11
13.138334
21
6.907814
0
LINE
8
annotation
62
1
39
211
10
13.138334
20
6.907814
11
13.093922
21
6.907814
0
LINE
8
annotation
62
1
39
211
10
9.068736
20
10.830066
11
8.957686
21
10.830066
0
LINE
8
annotation
62
1
39
211
10
8.957686
20
10.830066
11
9.002036
21
10.985603
0
LINE
8
annotation
62
1
39
211
10
9.035449
20
10.785603
11
9.035449
21
10.874428
0
LINE
8
annotation
62
1
39
211
10
5.665581
20
14.863160
11
5.709994
21
14.863160
0
LINE
8
annotation
62
1
39
211
10
5.709994
20
14.863160
11
5.709994
21
14.863160
0
LINE
8
annotation
62
1
39
211
10
5.709994
20
14.863160
11
5.717965
21
14.863877
0
LINE
8
annotation
62
1
39
211
10
5.717965
20
14.863877
11
5.725472
21
14.865943
0
LINE
8
annotation
62
1
39
211
10
5.725472
20
14.865943
11
5.732389
21
14.869233
0
LINE
8
annotation
62
1
39
211
10
5.732389
20
14.869233
11
5.738589
21
14.873621
0
LINE
8
annotation
62
1
39
211
10
5.738589
20
14.873621
11
5.743946
21
14.878981
0
LINE
8
annotation
62
1
39
211
10
5.743946
20
14.878981
11
5.748332
21
14.885187
0
LINE
8
annotation
62
1
39
211
10
5.748332
20
14.885187
11
5.751622
21
14.892113
0
LINE
8
annotation
62
1
39
211
10
5.751622
20
14.892113
11
5.753689
21
14.899634
0
LINE
8
annotation
62
1
39
211
10
5.753689
20
14.899634
11
5.754406
21
14.907623
0
LINE
8
annotation
62
1
39
211
10
5.754406
20
14.907623
11
5.754406
21
14.929748
0
LINE
8
annotation
62
1
39
211
10
5.754406
20
14.929748
11
5.754406
21
14.929748
0
LINE
8
annotation
62
1
39
211
10
5.754406
20
14.929748
11
5.753690
21
14.937733
0
LINE
8
annotation
62
1
39
211
10
5.753690
20
14.937733
11
5.751624
21
14.945244
0
LINE
8
annotation
62
1
39
211
10
5.751624
20
14.945244
11
5.748335
21
14.952155
0
LINE
8
annotation
62
1
39
211
10
5.748335
20
14.952155
11
5.743950
21
14.958343
0
LINE
8
annotation
62
1
39
211
10
5.743950
20
14.958343
11
5.738595
21
14.963684
0
LINE
8
annotation
62
1
39
211
10
5.738595
20
14.963684
11
5.732395
21
14.968054
0
LINE
8
annotation
62
1
39
211
10
5.732395
20
14.968054
11
5.725477
21
14.971329
0
LINE
8
annotation
62
1
39
211
10
5.725477
20
14.971329
11
5.717968
21
14.973385
0
LINE
8
annotation
62
1
39
211
10
5.717968
20
14.973385
11
5.709994
21
14.974097
0
LINE
8
annotation
62
1
39
211
10
5.709994
20
14.974097
11
5.665581
21
14.974097
0
LINE
8
annotation
62
1
39
211
10
5.665581
20
14.974097
11
5.665581
21
15.063160
0
LINE
8
annotation
62
1
39
211
10
5.665581
20
15.063160
11
5.754406
21
15.063160
0
LINE
8
annotation
62
1
39
211
10
4.718556
20
19.140718
11
4.718556
21
19.140718
0
LINE
8
annotation
62
1
39
211
10
4.718556
20
19.140718
11
4.705833
21
19.135947
0
LINE
8
annotation
62
1
39
211
10
4.705833
20
19.135947
11
4.694158
21
19.129520
0
LINE
8
annotation
62
1
39
211
10
4.694158
20
19.129520
11
4.683651
21
19.121596
0
LINE
8
annotation
62
1
39
211
10
4.683651
20
19.121596
11
4.674431
21
19.112338
0
LINE
8
annotation
62
1
39
211
10
4.674431
20
19.112338
11
4.666619
21
19.101905
0
LINE
8
annotation
62
1
39
211
10
4.666619
20
19.101905
11
4.660335
21
19.090459
0
LINE
8
annotation
62
1
39
211
10
4.660335
20
19.090459
11
4.655697
21
19.078162
0
LINE
8
annotation
62
1
39
211
10
4.655697
20
19.078162
11
4.652827
21
19.065173
0
LINE
8
annotation
62
1
39
211
10
4.652827
20
19.065173
11
4.651844
21
19.051655
0
LINE
8
annotation
62
1
39
211
10
4.651844
20
19.051655
11
4.651844
21
18.985180
0
LINE
8
annotation
62
1
39
211
10
4.651844
20
18.985180
11
4.651844
21
18.985180
0
LINE
8
annotation
62
1
39
211
10
4.651844
20
18.985180
11
4.652561
21
18.977191
0
LINE
8
annotation
62
1
39
211
10
4.652561
20
18.977191
11
4.654627
21
18.969670
0
LINE
8
annotation
62
1
39
211
10
4.654627
20
18.969670
11
4.657917
21
18.962744
0
LINE
8
annotation
62
1
39
211
10
4.657917
20
18.962744
11
4.662304
21
18.956538
0
LINE
8
annotation
62
1
39
211
10
4.662304
20
18.956538
11
4.667660
21
18.951178
0
LINE
8
annotation
62
1
39
211
10
4.667660
20
18.951178
11
4.673861
21
18.946790
0
LINE
8
annotation
62
1
39
211
10
4.673861
20
18.946790
11
4.680778
21
18.943501
0
LINE
8
annotation
62
1
39
211
10
4.680778
20
18.943501
11
4.688285
21
18.941434
0
LINE
8
annotation
62
1
39
211
10
4.688285
20
18.941434
11
4.696256
21
18.940718
0
LINE
8
annotation
62
1
39
211
10
4.696256
20
18.940718
11
4.696256
21
18.940718
0
LINE
8
annotation
62
1
39
211
10
4.696256
20
18.940718
11
4.704244
21
18.941434
0
LINE
8
annotation
62
1
39
211
10
4.704244
20
18.941434
11
4.711760
21
18.943501
0
LINE
8
annotation
62
1
39
211
10
4.711760
20
18.943501
11
4.718679
21
18.946790
0
LINE
8
annotation
62
1
39
211
10
4.718679
20
18.946790
11
4.724877
21
18.951178
0
LINE
8
annotation
62
1
39
211
10
4.724877
20
18.951178
11
4.730229
21
18.956538
0
LINE
8
annotation
62
1
39
211
10
4.730229
20
18.956538
11
4.734609
21
18.962744
0
LINE
8
annotation
62
1
39
211
10
4.734609
20
18.962744
11
4.737892
21
18.969670
0
LINE
8
annotation
62
1
39
211
10
4.737892
20
18.969670
11
4.739953
21
18.977191
0
LINE
8
annotation
62
1
39
211
10
4.739953
20
18.977191
11
4.740668
21
18.985180
0
LINE
8
annotation
62
1
39
211
10
4.740668
20
18.985180
11
4.740668
21
19.007305
0
LINE
8
annotation
62
1
39
211
10
4.740668
20
19.007305
11
4.740668
21
19.007305
0
LINE
8
annotation
62
1
39
211
10
4.740668
20
19.007305
11
4.739953
21
19.015290
0
LINE
8
annotation
62
1
39
211
10
4.739953
20
19.015290
11
4.737892
21
19.022801
0
LINE
8
annotation
62
1
39
211
10
4.737892
20
19.022801
11
4.734609
21
19.029712
0
LINE
8
annotation
62
1
39
211
10
4.734609
20
19.029712
11
4.730229
21
19.035900
0
LINE
8
annotation
62
1
39
211
10
4.730229
20
19.035900
11
4.724877
21
19.041241
0
LINE
8
annotation
62
1
39
211
10
4.724877
20
19.041241
11
4.718679
21
19.045611
0
LINE
8
annotation
62
1
39
211
10
4.718679
20
19.045611
11
4.711760
21
19.048886
0
LINE
8
annotation
62
1
39
211
10
4.711760
20
19.048886
11
4.704244
21
19.050942
0
LINE
8
annotation
62
1
39
211
10
4.704244
20
19.050942
11
4.696256
21
19.051655
0
LINE
8
annotation
62
1
39
211
10
4.696256
20
19.051655
11
4.651844
21
19.051655
0
LINE
8
annotation
62
1
39
211
10
4.646281
20
18.915718
11
4.746281
21
18.915718
0
LINE
8
annotation
62
1
39
211
10
5.210763
20
11.896476
11
4.000948
21
11.896476
0
LINE
8
annotation
62
1
39
211
10
4.000948
20
11.896476
11
5.210763
21
14.075344
0
LINE
8
annotation
62
1
39
211
10
5.210763
20
14.075344
11
4.000948
21
14.075344
0
LINE
8
annotation
62
1
39
211
10
7.219411
20
12.985910
11
6.028043
21
12.985910
0
LINE
8
annotation
62
1
39
211
10
9.246095
20
12.380867
11
8.036281
21
12.380867
0
LINE
8
annotation
62
1
39
211
10
8.036281
20
12.380867
11
8.519442
21
14.075344
0
LINE
8
annotation
62
1
39
211
10
8.883452
20
11.896476
11
8.883452
21
12.864164
0
LINE
8
boundary
62
5
39
2
10
31.971494
20
15.645606
11
26.209948
21
20.429001
0
LINE
8
boundary
62
5
39
2
10
26.209948
20
20.429001
11
25.218414
21
17.367095
0
LINE
8
boundary
62
5
39
2
10
25.218414
20
17.367095
11
27.586942
21
17.360845
0
LINE
8
boundary
62
5
39
2
10
27.586942
20
17.360845
11
27.586942
21
17.245845
0
LINE
8
boundary
62
5
39
2
10
27.586942
20
17.245845
11
25.179150
21
17.245845
0
LINE
8
boundary
62
5
39
2
10
25.179150
20
17.245845
11
23.812993
21
13.027084
0
LINE
8
boundary
62
5
39
2
10
23.812993
20
13.027084
11
29.497979
21
13.020834
0
LINE
8
boundary
62
5
39
2
10
29.497979
20
13.020834
11
29.497979
21
12.905834
0
LINE
8
boundary
62
5
39
2
10
29.497979
20
12.905834
11
23.773729
21
12.905834
0
LINE
8
boundary
62
5
39
2
10
23.773729
20
12.905834
11
22.407572
21
8.687073
0
LINE
8
boundary
62
5
39
2
10
22.407572
20
8.687073
11
28.739260
21
8.680823
0
LINE
8
boundary
62
5
39
2
10
28.739260
20
8.680823
11
28.739260
21
8.565823
0
LINE
8
boundary
62
5
39
2
10
28.739260
20
8.565823
11
22.368307
21
8.565823
0
LINE
8
boundary
62
5
39
2
10
22.368307
20
8.565823
11
21.002150
21
4.347062
0
LINE
8
boundary
62
5
39
2
10
21.002150
20
4.347062
11
27.333839
21
4.340812
0
LINE
8
boundary
62
5
39
2
10
27.333839
20
4.340812
11
27.333839
21
4.225812
0
LINE
8
boundary
62
5
39
2
10
27.333839
20
4.225812
11
20.962886
21
4.225812
0
LINE
8
boundary
62
5
39
2
10
20.962886
20
4.225812
11
20.294613
21
2.162153
0
LINE
8
boundary
62
5
39
2
10
20.294613
20
2.162153
11
19.614685
21
0.062500
0
LINE
8
boundary
62
5
39
2
10
19.614685
20
0.062500
11
19.942277
21
0.142129
0
LINE
8
boundary
62
5
39
2
10
19.942277
20
0.142129
11
33.524719
21
3.753858
0
LINE
8
boundary
62
5
39
2
10
33.524719
20
3.753858
11
36.230555
21
12.109616
0
LINE
8
boundary
62
5
39
2
10
36.230555
20
12.109616
11
31.971494
21
15.645606
0
LINE
8
annotation
62
1
39
211
10
27.633226
20
4.183310
11
27.544401
21
4.183310
0
LINE
8
annotation
62
1
39
211
10
27.544401
20
4.183310
11
27.626478
21
4.315444
0
LINE
8
annotation
62
1
39
211
10
27.626478
20
4.315444
11
27.626478
21
4.315444
0
LINE
8
annotation
62
1
39
211
10
27.626478
20
4.315444
11
27.626576
21
4.315565
0
LINE
8
annotation
62
1
39
211
10
27.626576
20
4.315565
11
27.626671
21
4.315688
0
LINE
8
annotation
62
1
39
211
10
27.626671
20
4.315688
11
27.626761
21
4.315812
0
LINE
8
annotation
62
1
39
211
10
27.626761
20
4.315812
11
27.626849
21
4.315940
0
LINE
8
annotation
62
1
39
211
10
27.626849
20
4.315940
11
27.626935
21
4.316072
0
LINE
8
annotation
62
1
39
211
10
27.626935
20
4.316072
11
27.627019
21
4.316208
0
LINE
8
annotation
62
1
39
211
10
27.627019
20
4.316208
11
27.627102
21
4.316352
0
LINE
8
annotation
62
1
39
211
10
27.627102
20
4.316352
11
27.627185
21
4.316502
0
LINE
8
annotation
62
1
39
211
10
27.627185
20
4.316502
11
27.627269
21
4.316660
0
LINE
8
annotation
62
1
39
211
10
27.627269
20
4.316660
11
27.627269
21
4.316660
0
LINE
8
annotation
62
1
39
211
10
27.627269
20
4.316660
11
27.630657
21
4.323937
0
LINE
8
annotation
62
1
39
211
10
27.630657
20
4.323937
11
27.632637
21
4.331479
0
LINE
8
annotation
62
1
39
211
10
27.632637
20
4.331479
11
27.633256
21
4.339118
0
LINE
8
annotation
62
1
39
211
10
27.633256
20
4.339118
11
27.632563
21
4.346681
0
LINE
8
annotation
62
1
39
211
10
27.632563
20
4.346681
11
27.630607
21
4.354000
0
LINE
8
annotation
62
1
39
211
10
27.630607
20
4.354000
11
27.627435
21
4.360903
0
LINE
8
annotation
62
1
39
211
10
27.627435
20
4.360903
11
27.623096
21
4.367221
0
LINE
8
annotation
62
1
39
211
10
27.623096
20
4.367221
11
27.617640
21
4.372781
0
LINE
8
annotation
62
1
39
211
10
27.617640
20
4.372781
11
27.611114
21
4.377415
0
LINE
8
annotation
62
1
39
211
10
27.611114
20
4.377415
11
27.611114
21
4.377415
0
LINE
8
annotation
62
1
39
211
10
27.611114
20
4.377415
11
27.603817
21
4.380756
0
LINE
8
annotation
62
1
39
211
10
27.603817
20
4.380756
11
27.596263
21
4.382706
0
LINE
8
annotation
62
1
39
211
10
27.596263
20
4.382706
11
27.588620
21
4.383307
0
LINE
8
annotation
62
1
39
211
10
27.588620
20
4.383307
11
27.581058
21
4.382605
0
LINE
8
annotation
62
1
39
211
10
27.581058
20
4.382605
11
27.573744
21
4.380643
0
LINE
8
annotation
62
1
39
211
10
27.573744
20
4.380643
11
27.566849
21
4.377465
0
LINE
8
annotation
62
1
39
211
10
27.566849
20
4.377465
11
27.560540
21
4.373114
0
LINE
8
annotation
62
1
39
211
10
27.560540
20
4.373114
11
27.554987
21
4.367636
0
LINE
8
annotation
62
1
39
211
10
27.554987
20
4.367636
11
27.550359
21
4.361073
0
LINE
8
annotation
62
1
39
211
10
27.550359
20
4.361073
11
27.544527
21
4.349885
0
LINE
8
annotation
62
1
39
211
10
28.949823
20
8.523329
11
28.994235
21
8.523329
0
LINE
8
annotation
62
1
39
211
10
28.994235
20
8.523329
11
28.994235
21
8.523329
0
LINE
8
annotation
62
1
39
211
10
28.994235
20
8.523329
11
29.002223
21
8.524046
0
LINE
8
annotation
62
1
39
211
10
29.002223
20
8.524046
11
29.009739
21
8.526111
0
LINE
8
annotation
62
1
39
211
10
29.009739
20
8.526111
11
29.016658
21
8.529398
0
LINE
8
annotation
62
1
39
211
10
29.016658
20
8.529398
11
29.022856
21
8.533780
0
LINE
8
annotation
62
1
39
211
10
29.022856
20
8.533780
11
29.028208
21
8.539130
0
LINE
8
annotation
62
1
39
211
10
29.028208
20
8.539130
11
29.032588
21
8.545322
0
LINE
8
annotation
62
1
39
211
10
29.032588
20
8.545322
11
29.035871
21
8.552229
0
LINE
8
annotation
62
1
39
211
10
29.035871
20
8.552229
11
29.037932
21
8.559723
0
LINE
8
annotation
62
1
39
211
10
29.037932
20
8.559723
11
29.038647
21
8.567679
0
LINE
8
annotation
62
1
39
211
10
29.038647
20
8.567679
11
29.038647
21
8.589917
0
LINE
8
annotation
62
1
39
211
10
29.038647
20
8.589917
11
29.038647
21
8.589917
0
LINE
8
annotation
62
1
39
211
10
29.038647
20
8.589917
11
29.037932
21
8.597869
0
LINE
8
annotation
62
1
39
211
10
29.037932
20
8.597869
11
29.035871
21
8.605362
0
LINE
8
annotation
62
1
39
211
10
29.035871
20
8.605362
11
29.032588
21
8.612268
0
LINE
8
annotation
62
1
39
211
10
29.032588
20
8.612268
11
29.028208
21
8.618460
0
LINE
8
annotation
62
1
39
211
10
29.028208
20
8.618460
11
29.022856
21
8.623812
0
LINE
8
annotation
62
1
39
211
10
29.022856
20
8.623812
11
29.016658
21
8.628195
0
LINE
8
annotation
62
1
39
211
10
29.016658
20
8.628195
11
29.009739
21
8.631483
0
LINE
8
annotation
62
1
39
211
10
29.009739
20
8.631483
11
29.002223
21
8.633549
0
LINE
8
annotation
62
1
39
211
10
29.002223
20
8.633549
11
28.994235
21
8.634266
0
LINE
8
annotation
62
1
39
211
10
28.994235
20
8.634266
11
28.971997
21
8.634266
0
LINE
8
annotation
62
1
39
211
10
28.971997
20
8.634266
11
28.994235
21
8.634266
0
LINE
8
annotation
62
1
39
211
10
28.994235
20
8.634266
11
28.994235
21
8.634266
0
LINE
8
annotation
62
1
39
211
10
28.994235
20
8.634266
11
29.002223
21
8.634983
0
LINE
8
annotation
62
1
39
211
10
29.002223
20
8.634983
11
29.009739
21
8.637051
0
LINE
8
annotation
62
1
39
211
10
29.009739
20
8.637051
11
29.016658
21
8.640342
0
LINE
8
annotation
62
1
39
211
10
29.016658
20
8.640342
11
29.022856
21
8.644732
0
LINE
8
annotation
62
1
39
211
10
29.022856
20
8.644732
11
29.028208
21
8.650094
0
LINE
8
annotation
62
1
39
211
10
29.028208
20
8.650094
11
29.032588
21
8.656302
0
LINE
8
annotation
62
1
39
211
10
29.032588
20
8.656302
11
29.035871
21
8.663230
0
LINE
8
annotation
62
1
39
211
10
29.035871
20
8.663230
11
29.037932
21
8.670752
0
LINE
8
annotation
62
1
39
211
10
29.037932
20
8.670752
11
29.038647
21
8.678741
0
LINE
8
annotation
62
1
39
211
10
29.038647
20
8.678741
11
29.038647
21
8.678741
0
LINE
8
annotation
62
1
39
211
10
29.038647
20
8.678741
11
29.037932
21
8.686694
0
LINE
8
annotation
62
1
39
211
10
29.037932
20
8.686694
11
29.035871
21
8.694187
0
LINE
8
annotation
62
1
39
211
10
29.035871
20
8.694187
11
29.032588
21
8.701093
0
LINE
8
annotation
62
1
39
211
10
29.032588
20
8.701093
11
29.028208
21
8.707285
0
LINE
8
annotation
62
1
39
211
10
29.028208
20
8.707285
11
29.022856
21
8.712636
0
LINE
8
annotation
62
1
39
211
10
29.022856
20
8.712636
11
29.016658
21
8.717020
0
LINE
8
annotation
62
1
39
211
10
29.016658
20
8.717020
11
29.009739
21
8.720308
0
LINE
8
annotation
62
1
39
211
10
29.009739
20
8.720308
11
29.002223
21
8.722374
0
LINE
8
annotation
62
1
39
211
10
29.002223
20
8.722374
11
28.994235
21
8.723091
0
LINE
8
annotation
62
1
39
211
10
28.994235
20
8.723091
11
28.949823
21
8.723091
0
LINE
8
annotation
62
1
39
211
10
29.808479
20
12.907797
11
29.697429
21
12.907797
0
LINE
8
annotation
62
1
39
211
10
29.697429
20
12.907797
11
29.741779
21
13.063334
0
LINE
8
annotation
62
1
39
211
10
29.775192
20
12.863334
11
29.775192
21
12.952159
0
LINE
8
annotation
62
1
39
211
10
27.797505
20
17.203345
11
27.841917
21
17.203345
0
LINE
8
annotation
62
1
39
211
10
27.841917
20
17.203345
11
27.841917
21
17.203345
0
LINE
8
annotation
62
1
39
211
10
27.841917
20
17.203345
11
27.849889
21
17.204062
0
LINE
8
annotation
62
1
39
211
10
27.849889
20
17.204062
11
27.857396
21
17.206128
0
LINE
8
annotation
62
1
39
211
10
27.857396
20
17.206128
11
27.864313
21
17.209418
0
LINE
8
annotation
62
1
39
211
10
27.864313
20
17.209418
11
27.870513
21
17.213806
0
LINE
8
annotation
62
1
39
211
10
27.870513
20
17.213806
11
27.875869
21
17.219166
0
LINE
8
annotation
62
1
39
211
10
27.875869
20
17.219166
11
27.880256
21
17.225372
0
LINE
8
annotation
62
1
39
211
10
27.880256
20
17.225372
11
27.883546
21
17.232298
0
LINE
8
annotation
62
1
39
211
10
27.883546
20
17.232298
11
27.885613
21
17.239819
0
LINE
8
annotation
62
1
39
211
10
27.885613
20
17.239819
11
27.886330
21
17.247808
0
LINE
8
annotation
62
1
39
211
10
27.886330
20
17.247808
11
27.886330
21
17.269933
0
LINE
8
annotation
62
1
39
211
10
27.886330
20
17.269933
11
27.886330
21
17.269933
0
LINE
8
annotation
62
1
39
211
10
27.886330
20
17.269933
11
27.885613
21
17.277918
0
LINE
8
annotation
62
1
39
211
10
27.885613
20
17.277918
11
27.883547
21
17.285428
0
LINE
8
annotation
62
1
39
211
10
27.883547
20
17.285428
11
27.880259
21
17.292340
0
LINE
8
annotation
62
1
39
211
10
27.880259
20
17.292340
11
27.875874
21
17.298528
0
LINE
8
annotation
62
1
39
211
10
27.875874
20
17.298528
11
27.870518
21
17.303869
0
LINE
8
annotation
62
1
39
211
10
27.870518
20
17.303869
11
27.864318
21
17.308239
0
LINE
8
annotation
62
1
39
211
10
27.864318
20
17.308239
11
27.857401
21
17.311514
0
LINE
8
annotation
62
1
39
211
10
27.857401
20
17.311514
11
27.849892
21
17.313569
0
LINE
8
annotation
62
1
39
211
10
27.849892
20
17.313569
11
27.841917
21
17.314282
0
LINE
8
annotation
62
1
39
211
10
27.841917
20
17.314282
11
27.797505
21
17.314282
0
LINE
8
annotation
62
1
39
211
10
27.797505
20
17.314282
11
27.797505
21
17.403345
0
LINE
8
annotation
62
1
39
211
10
27.797505
20
17.403345
11
27.886330
21
17.403345
0
LINE
8
annotation
62
1
39
211
10
30.954077
20
10.024289
11
30.464987
21
9.316864
0
LINE
8
annotation
62
1
39
211
10
30.464987
20
9.316864
11
29.975805
21
10.024289
0
LINE
8
annotation
62
1
39
211
10
30.464987
20
9.373793
11
30.464987
21
8.557662
0
LINE
8
annotation
62
1
39
211
10
32.306088
20
9.290975
11
31.504211
21
9.290975
0
LINE
8
annotation
62
1
39
211
10
32.855900
20
8.557754
11
33.181562
21
8.557754
0
LINE
8
annotation
62
1
39
211
10
33.181562
20
8.557754
11
33.181562
21
8.557754
0
LINE
8
annotation
62
1
39
211
10
33.181562
20
8.557754
11
33.240133
21
8.563008
0
LINE
8
annotation
62
1
39
211
10
33.240133
20
8.563008
11
33.295246
21
8.578151
0
LINE
8
annotation
62
1
39
211
10
33.295246
20
8.578151
11
33.345985
21
8.602253
0
LINE
8
annotation
62
1
39
211
10
33.345985
20
8.602253
11
33.391433
21
8.634385
0
LINE
8
annotation
62
1
39
211
10
33.391433
20
8.634385
11
33.430673
21
8.673617
0
LINE
8
annotation
62
1
39
211
10
33.430673
20
8.673617
11
33.462789
21
8.719019
0
LINE
8
annotation
62
1
39
211
10
33.462789
20
8.719019
11
33.486863
21
8.769663
0
LINE
8
annotation
62
1
39
211
10
33.486863
20
8.769663
11
33.501980
21
8.824618
0
LINE
8
annotation
62
1
39
211
10
33.501980
20
8.824618
11
33.507223
21
8.882956
0
LINE
8
annotation
62
1
39
211
10
33.507223
20
8.882956
11
33.507223
21
9.046016
0
LINE
8
annotation
62
1
39
211
10
33.507223
20
9.046016
11
33.507223
21
9.046016
0
LINE
8
annotation
62
1
39
211
10
33.507223
20
9.046016
11
33.501980
21
9.104329
0
LINE
8
annotation
62
1
39
211
10
33.501980
20
9.104329
11
33.486863
21
9.159272
0
LINE
8
annotation
62
1
39
211
10
33.486863
20
9.159272
11
33.462789
21
9.209912
0
LINE
8
annotation
62
1
39
211
10
33.462789
20
9.209912
11
33.430673
21
9.255317
0
LINE
8
annotation
62
1
39
211
10
33.430673
20
9.255317
11
33.391433
21
9.294557
0
LINE
8
annotation
62
1
39
211
10
33.391433
20
9.294557
11
33.345985
21
9.326698
0
LINE
8
annotation
62
1
39
211
10
33.345985
20
9.326698
11
33.295246
21
9.350810
0
LINE
8
annotation
62
1
39
211
10
33.295246
20
9.350810
11
33.240133
21
9.365961
0
LINE
8
annotation
62
1
39
211
10
33.240133
20
9.365961
11
33.181562
21
9.371218
0
LINE
8
annotation
62
1
39
211
10
33.181562
20
9.371218
11
33.018501
21
9.371218
0
LINE
8
annotation
62
1
39
211
10
33.018501
20
9.371218
11
33.181562
21
9.371218
0
LINE
8
annotation
62
1
39
211
10
33.181562
20
9.371218
11
33.181562
21
9.371218
0
LINE
8
annotation
62
1
39
211
10
33.181562
20
9.371218
11
33.240133
21
9.376476
0
LINE
8
annotation
62
1
39
211
10
33.240133
20
9.376476
11
33.295246
21
9.391636
0
LINE
8
annotation
62
1
39
211
10
33.295246
20
9.391636
11
33.345985
21
9.415772
0
LINE
8
annotation
62
1
39
211
10
33.345985
20
9.415772
11
33.391433
21
9.447960
0
LINE
8
annotation
62
1
39
211
10
33.391433
20
9.447960
11
33.430673
21
9.487277
0
LINE
8
annotation
62
1
39
211
10
33.430673
20
9.487277
11
33.462789
21
9.532797
0
LINE
8
annotation
62
1
39
211
10
33.462789
20
9.532797
11
33.486863
21
9.583597
0
LINE
8
annotation
62
1
39
211
10
33.486863
20
9.583597
11
33.501980
21
9.638753
0
LINE
8
annotation
62
1
39
211
10
33.501980
20
9.638753
11
33.507223
21
9.697339
0
LINE
8
annotation
62
1
39
211
10
33.507223
20
9.697339
11
33.507223
21
9.697339
0
LINE
8
annotation
62
1
39
211
10
33.507223
20
9.697339
11
33.501980
21
9.755652
0
LINE
8
annotation
62
1
39
211
10
33.501980
20
9.755652
11
33.486863
21
9.810595
0
LINE
8
annotation
62
1
39
211
10
33.486863
20
9.810595
11
33.462789
21
9.861235
0
LINE
8
annotation
62
1
39
211
10
33.462789
20
9.861235
11
33.430673
21
9.906640
0
LINE
8
annotation
62
1
39
211
10
33.430673
20
9.906640
11
33.391433
21
9.945880
0
LINE
8
annotation
62
1
39
211
10
33.391433
20
9.945880
11
33.345985
21
9.978021
0
LINE
8
annotation
62
1
39
211
10
33.345985
20
9.978021
11
33.295246
21
10.002133
0
LINE
8
annotation
62
1
39
211
10
33.295246
20
10.002133
11
33.240133
21
10.017284
0
LINE
8
annotation
62
1
39
211
10
33.240133
20
10.017284
11
33.181562
21
10.022541
0
LINE
8
annotation
62
1
39
211
10
33.181562
20
10.022541
11
32.855900
21
10.022541
0
LINE
8
boundary
62
5
39
2
10
22.086607
20
23.672352
11
20.934298
21
24.629031
0
LINE
8
boundary
62
5
39
2
10
20.934298
20
24.629031
11
20.054709
21
21.912817
0
LINE
8
boundary
62
5
39
2
10
20.054709
20
21.912817
11
22.144089
21
21.906567
0
LINE
8
boundary
62
5
39
2
10
22.144089
20
21.906567
11
22.144089
21
21.791567
0
LINE
8
boundary
62
5
39
2
10
22.144089
20
21.791567
11
20.015445
21
21.791567
0
LINE
8
boundary
62
5
39
2
10
20.015445
20
21.791567
11
19.614685
21
20.554001
0
LINE
8
boundary
62
5
39
2
10
19.614685
20
20.554001
11
24.331664
21
21.808444
0
LINE
8
boundary
62
5
39
2
10
24.331664
20
21.808444
11
22.086607
21
23.672352
0
LINE
8
annotation
62
1
39
211
10
22.354652
20
21.749073
11
22.399064
21
21.749073
0
LINE
8
annotation
62
1
39
211
10
22.399064
20
21.749073
11
22.399064
21
21.749073
0
LINE
8
annotation
62
1
39
211
10
22.399064
20
21.749073
11
22.407052
21
21.749790
0
LINE
8
annotation
62
1
39
211
10
22.407052
20
21.749790
11
22.414568
21
21.751855
0
LINE
8
annotation
62
1
39
211
10
22.414568
20
21.751855
11
22.421488
21
21.755142
0
LINE
8
annotation
62
1
39
211
10
22.421488
20
21.755142
11
22.427686
21
21.759524
0
LINE
8
annotation
62
1
39
211
10
22.427686
20
21.759524
11
22.433037
21
21.764874
0
LINE
8
annotation
62
1
39
211
10
22.433037
20
21.764874
11
22.437417
21
21.771066
0
LINE
8
annotation
62
1
39
211
10
22.437417
20
21.771066
11
22.440700
21
21.777973
0
LINE
8
annotation
62
1
39
211
10
22.440700
20
21.777973
11
22.442762
21
21.785467
0
LINE
8
annotation
62
1
39
211
10
22.442762
20
21.785467
11
22.443477
21
21.793423
0
LINE
8
annotation
62
1
39
211
10
22.443477
20
21.793423
11
22.443477
21
21.815660
0
LINE
8
annotation
62
1
39
211
10
22.443477
20
21.815660
11
22.443477
21
21.815660
0
LINE
8
annotation
62
1
39
211
10
22.443477
20
21.815660
11
22.442762
21
21.823613
0
LINE
8
annotation
62
1
39
211
10
22.442762
20
21.823613
11
22.440700
21
21.831106
0
LINE
8
annotation
62
1
39
211
10
22.440700
20
21.831106
11
22.437417
21
21.838012
0
LINE
8
annotation
62
1
39
211
10
22.437417
20
21.838012
11
22.433037
21
21.844204
0
LINE
8
annotation
62
1
39
211
10
22.433037
20
21.844204
11
22.427686
21
21.849555
0
LINE
8
annotation
62
1
39
211
10
22.427686
20
21.849555
11
22.421488
21
21.853939
0
LINE
8
annotation
62
1
39
211
10
22.421488
20
21.853939
11
22.414568
21
21.857227
0
LINE
8
annotation
62
1
39
211
10
22.414568
20
21.857227
11
22.407052
21
21.859293
0
LINE
8
annotation
62
1
39
211
10
22.407052
20
21.859293
11
22.399064
21
21.860010
0
LINE
8
annotation
62
1
39
211
10
22.399064
20
21.860010
11
22.376827
21
21.860010
0
LINE
8
annotation
62
1
39
211
10
22.376827
20
21.860010
11
22.399064
21
21.860010
0
LINE
8
annotation
62
1
39
211
10
22.399064
20
21.860010
11
22.399064
21
21.860010
0
LINE
8
annotation
62
1
39
211
10
22.399064
20
21.860010
11
22.407052
21
21.860727
0
LINE
8
annotation
62
1
39
211
10
22.407052
20
21.860727
11
22.414568
21
21.862795
0
LINE
8
annotation
62
1
39
211
10
22.414568
20
21.862795
11
22.421488
21
21.866086
0
LINE
8
annotation
62
1
39
211
10
22.421488
20
21.866086
11
22.427686
21
21.870476
0
LINE
8
annotation
62
1
39
211
10
22.427686
20
21.870476
11
22.433037
21
21.875838
0
LINE
8
annotation
62
1
39
211
10
22.433037
20
21.875838
11
22.437417
21
21.882046
0
LINE
8
annotation
62
1
39
211
10
22.437417
20
21.882046
11
22.440700
21
21.888973
0
LINE
8
annotation
62
1
39
211
10
22.440700
20
21.888973
11
22.442762
21
21.896495
0
LINE
8
annotation
62
1
39
211
10
22.442762
20
21.896495
11
22.443477
21
21.904485
0
LINE
8
annotation
62
1
39
211
10
22.443477
20
21.904485
11
22.443477
21
21.904485
0
LINE
8
annotation
62
1
39
211
10
22.443477
20
21.904485
11
22.442762
21
21.912438
0
LINE
8
annotation
62
1
39
211
10
22.442762
20
21.912438
11
22.440700
21
21.919931
0
LINE
8
annotation
62
1
39
211
10
22.440700
20
21.919931
11
22.437417
21
21.926837
0
LINE
8
annotation
62
1
39
211
10
22.437417
20
21.926837
11
22.433037
21
21.933029
0
LINE
8
annotation
62
1
39
211
10
22.433037
20
21.933029
11
22.427686
21
21.938380
0
LINE
8
annotation
62
1
39
211
10
22.427686
20
21.938380
11
22.421488
21
21.942763
0
LINE
8
annotation
62
1
39
211
10
22.421488
20
21.942763
11
22.414568
21
21.946052
0
LINE
8
annotation
62
1
39
211
10
22.414568
20
21.946052
11
22.407052
21
21.948118
0
LINE
8
annotation
62
1
39
211
10
22.407052
20
21.948118
11
22.399064
21
21.948835
0
LINE
8
annotation
62
1
39
211
10
22.399064
20
21.948835
11
22.354652
21
21.948835
0
LINE
8
annotation
62
1
39
211
10
21.315119
20
22.857483
11
21.088568
21
22.529798
0
LINE
8
annotation
62
1
39
211
10
21.088568
20
22.529798
11
20.861974
21
22.857483
0
LINE
8
annotation
62
1
39
211
10
21.088568
20
22.556168
11
21.088568
21
22.178128
0
LINE
8
annotation
62
1
39
211
10
21.941383
20
22.517806
11
21.569947
21
22.517806
0
LINE
8
annotation
62
1
39
211
10
22.347103
20
22.178149
11
22.347103
21
22.857462
0
LINE
8
annotation
62
1
39
211
10
22.347103
20
22.857462
11
22.196083
21
22.706400
0
LINE
8
frame
62
5
39
2
10
0.000000
20
0.000000
11
38.000000
21
0.000000
0
LINE
8
frame
62
5
39
2
10
38.000000
20
0.000000
11
38.000000
21
26.000000
0
LINE
8
frame
62
5
39
2
10
38.000000
20
26.000000
11
0.000000
21
26.000000
0
LINE
8
frame
62
5
39
2
10
0.000000
20
26.000000
11
0.000000
21
0.000000
0
ENDSEC
0
EOF
