<?xml version="1.0" encoding="UTF-8" standalone="no"?>
<!DOCTYPE svg PUBLIC "-//W3C//DTD SVG 1.1//EN" "http://www.w3.org/Graphics/SVG/1.1/DTD/svg11.dtd">
<svg width="100%" height="100%" viewBox="0 0 14291 3882" version="1.1" xmlns="http://www.w3.org/2000/svg" xmlns:xlink="http://www.w3.org/1999/xlink" xml:space="preserve" xmlns:serif="http://www.serif.com/" style="fill-rule:evenodd;clip-rule:evenodd;stroke-linecap:round;stroke-linejoin:round;">
    <g transform="matrix(5.55556,0,0,5.55556,0,0)">
        <g id="p-0">
        </g>
        <g id="p-1">
        </g>
        <g id="p-2">
        </g>
        <g id="p-3">
        </g>
        <g id="p-4">
        </g>
        <g id="p-5">
        </g>
        <g id="p-6">
        </g>
        <g id="p-7">
        </g>
        <g id="p-8">
        </g>
        <g id="p-9">
        </g>
        <g id="p-10">
        </g>
        <g id="p-11">
        </g>
        <g id="p-12">
        </g>
        <g id="p-13">
        </g>
        <g id="p-14">
            <g transform="matrix(1,0,0,1,-1702.84,3.82479)">
                <path d="M1774.2,321.378L1789.63,321.378C1789.91,321.378 1789.63,321.094 1789.63,321.378L1789.63,330.094C1789.63,330.25 1789.76,330.378 1789.91,330.378L1807.91,330.378C1808.07,330.378 1808.19,330.25 1808.19,330.094L1808.19,321.378C1808.19,321.094 1807.91,321.378 1808.19,321.378L1822.44,321.378L1820.35,321.378C1820.5,321.378 1820.63,321.25 1820.63,321.094L1820.63,296.646C1820.63,296.362 1820.35,296.646 1820.63,296.646L1824.85,296.646C1825,296.646 1825.13,296.518 1825.13,296.362L1825.13,278.362C1825.13,278.206 1825,278.079 1824.85,278.079L1820.63,278.079C1820.35,278.079 1820.63,278.362 1820.63,278.079L1820.63,260.646C1820.63,260.362 1820.35,260.646 1820.63,260.646L1824.85,260.646C1825,260.646 1825.13,260.518 1825.13,260.362L1825.13,242.362C1825.13,242.206 1825,242.079 1824.85,242.079L1820.63,242.079C1820.35,242.079 1820.63,242.362 1820.63,242.079L1820.63,224.646C1820.63,224.362 1820.35,224.646 1820.63,224.646L1824.85,224.646C1825,224.646 1825.13,224.518 1825.13,224.362L1825.13,206.362C1825.13,206.206 1825,206.079 1824.85,206.079L1820.63,206.079C1820.35,206.079 1820.63,206.362 1820.63,206.079L1820.63,188.646C1820.63,188.362 1820.35,188.646 1820.63,188.646L1824.85,188.646C1825,188.646 1825.13,188.518 1825.13,188.362L1825.13,170.362C1825.13,170.206 1825,170.079 1824.85,170.079L1820.63,170.079C1820.35,170.079 1820.63,170.362 1820.63,170.079L1820.63,152.646C1820.63,152.362 1820.35,152.646 1820.63,152.646L1824.85,152.646C1825,152.646 1825.13,152.518 1825.13,152.362L1825.13,134.362C1825.13,134.206 1825,134.079 1824.85,134.079L1820.63,134.079C1820.35,134.079 1820.63,134.362 1820.63,134.079L1820.63,116.646C1820.63,116.362 1820.35,116.646 1820.63,116.646L1824.85,116.646C1825,116.646 1825.13,116.518 1825.13,116.362L1825.13,98.362C1825.13,98.206 1825,98.079 1824.85,98.079L1820.63,98.079C1820.35,98.079 1820.63,98.362 1820.63,98.079L1820.63,80.646C1820.63,80.362 1820.35,80.646 1820.63,80.646L1824.85,80.646C1825,80.646 1825.13,80.518 1825.13,80.362L1825.13,62.362C1825.13,62.206 1825,62.079 1824.85,62.079L1820.63,62.079C1820.35,62.079 1820.63,62.362 1820.63,62.079L1820.63,37.63C1820.63,37.474 1820.5,37.346 1820.35,37.346L1822.44,37.346L1808.19,37.346C1807.91,37.346 1808.19,37.63 1808.19,37.346L1808.19,28.63C1808.19,28.474 1808.07,28.346 1807.91,28.346L1789.91,28.346C1789.76,28.346 1789.63,28.474 1789.63,28.63L1789.63,37.346C1789.63,37.63 1789.91,37.346 1789.63,37.346L1774.2,37.346C1774.05,37.346 1773.92,37.474 1773.92,37.63L1773.92,62.362C1773.92,62.518 1774.05,62.646 1774.2,62.646L1776.25,62.646C1776.54,62.646 1776.25,62.362 1776.25,62.646L1776.25,80.079C1776.25,80.362 1776.54,80.079 1776.25,80.079L1774.2,80.079C1774.05,80.079 1773.92,80.206 1773.92,80.362L1773.92,98.362C1773.92,98.518 1774.05,98.646 1774.2,98.646L1776.25,98.646C1776.54,98.646 1776.25,98.362 1776.25,98.646L1776.25,116.079C1776.25,116.362 1776.54,116.079 1776.25,116.079L1774.2,116.079C1774.05,116.079 1773.92,116.206 1773.92,116.362L1773.92,134.362C1773.92,134.518 1774.05,134.646 1774.2,134.646L1776.25,134.646C1776.54,134.646 1776.25,134.362 1776.25,134.646L1776.25,152.079C1776.25,152.362 1776.54,152.079 1776.25,152.079L1774.2,152.079C1774.05,152.079 1773.92,152.206 1773.92,152.362L1773.92,170.362C1773.92,170.518 1774.05,170.646 1774.2,170.646L1776.25,170.646C1776.54,170.646 1776.25,170.362 1776.25,170.646L1776.25,188.079C1776.25,188.362 1776.54,188.079 1776.25,188.079L1774.2,188.079C1774.05,188.079 1773.92,188.206 1773.92,188.362L1773.92,206.362C1773.92,206.518 1774.05,206.646 1774.2,206.646L1776.25,206.646C1776.54,206.646 1776.25,206.362 1776.25,206.646L1776.25,224.079C1776.25,224.362 1776.54,224.079 1776.25,224.079L1774.2,224.079C1774.05,224.079 1773.92,224.206 1773.92,224.362L1773.92,242.362C1773.92,242.518 1774.05,242.646 1774.2,242.646L1776.25,242.646C1776.54,242.646 1776.25,242.362 1776.25,242.646L1776.25,260.079C1776.25,260.362 1776.54,260.079 1776.25,260.079L1774.2,260.079C1774.05,260.079 1773.92,260.206 1773.92,260.362L1773.92,278.362C1773.92,278.518 1774.05,278.646 1774.2,278.646L1776.25,278.646C1776.54,278.646 1776.25,278.362 1776.25,278.646L1776.25,296.079C1776.25,296.362 1776.54,296.079 1776.25,296.079L1774.2,296.079C1774.05,296.079 1773.92,296.206 1773.92,296.362L1773.92,321.094C1773.92,321.25 1774.05,321.378 1774.2,321.378Z" style="fill:none;fill-rule:nonzero;stroke:black;stroke-width:0.03px;"/>
            </g>
            <g transform="matrix(1,0,0,1,-1702.84,3.82479)">
                <path d="M1829.91,321.378L1846.57,321.378C1846.85,321.378 1846.57,321.094 1846.57,321.378L1846.57,330.094C1846.57,330.25 1846.69,330.378 1846.85,330.378L1864.85,330.378C1865,330.378 1865.13,330.25 1865.13,330.094L1865.13,321.378C1865.13,321.094 1864.85,321.378 1865.13,321.378L1879.37,321.378L1877.28,321.378C1877.44,321.378 1877.57,321.25 1877.57,321.094L1877.57,296.646C1877.57,296.362 1877.28,296.646 1877.57,296.646L1881.78,296.646C1881.94,296.646 1882.07,296.518 1882.07,296.362L1882.07,278.362C1882.07,278.206 1881.94,278.079 1881.78,278.079L1877.57,278.079C1877.28,278.079 1877.57,278.362 1877.57,278.079L1877.57,260.646C1877.57,260.362 1877.28,260.646 1877.57,260.646L1881.78,260.646C1881.94,260.646 1882.07,260.518 1882.07,260.362L1882.07,242.362C1882.07,242.206 1881.94,242.079 1881.78,242.079L1877.57,242.079C1877.28,242.079 1877.57,242.362 1877.57,242.079L1877.57,224.646C1877.57,224.362 1877.28,224.646 1877.57,224.646L1881.78,224.646C1881.94,224.646 1882.07,224.518 1882.07,224.362L1882.07,206.362C1882.07,206.206 1881.94,206.079 1881.78,206.079L1877.57,206.079C1877.28,206.079 1877.57,206.362 1877.57,206.079L1877.57,188.646C1877.57,188.362 1877.28,188.646 1877.57,188.646L1881.78,188.646C1881.94,188.646 1882.07,188.518 1882.07,188.362L1882.07,170.362C1882.07,170.206 1881.94,170.079 1881.78,170.079L1877.57,170.079C1877.28,170.079 1877.57,170.362 1877.57,170.079L1877.57,152.646C1877.57,152.362 1877.28,152.646 1877.57,152.646L1881.78,152.646C1881.94,152.646 1882.07,152.518 1882.07,152.362L1882.07,134.362C1882.07,134.206 1881.94,134.079 1881.78,134.079L1877.57,134.079C1877.28,134.079 1877.57,134.362 1877.57,134.079L1877.57,116.646C1877.57,116.362 1877.28,116.646 1877.57,116.646L1881.78,116.646C1881.94,116.646 1882.07,116.518 1882.07,116.362L1882.07,98.362C1882.07,98.206 1881.94,98.079 1881.78,98.079L1877.57,98.079C1877.28,98.079 1877.57,98.362 1877.57,98.079L1877.57,80.646C1877.57,80.362 1877.28,80.646 1877.57,80.646L1881.78,80.646C1881.94,80.646 1882.07,80.518 1882.07,80.362L1882.07,62.362C1882.07,62.206 1881.94,62.079 1881.78,62.079L1877.57,62.079C1877.28,62.079 1877.57,62.362 1877.57,62.079L1877.57,37.63C1877.57,37.474 1877.44,37.346 1877.28,37.346L1879.37,37.346L1865.13,37.346C1864.85,37.346 1865.13,37.63 1865.13,37.346L1865.13,28.63C1865.13,28.474 1865,28.346 1864.85,28.346L1846.85,28.346C1846.69,28.346 1846.57,28.474 1846.57,28.63L1846.57,37.346C1846.57,37.63 1846.85,37.346 1846.57,37.346L1829.91,37.346C1829.76,37.346 1829.63,37.474 1829.63,37.63L1829.63,62.362C1829.63,62.518 1829.76,62.646 1829.91,62.646L1834.13,62.646C1834.41,62.646 1834.13,62.362 1834.13,62.646L1834.13,80.079C1834.13,80.362 1834.41,80.079 1834.13,80.079L1829.91,80.079C1829.76,80.079 1829.63,80.206 1829.63,80.362L1829.63,98.362C1829.63,98.518 1829.76,98.646 1829.91,98.646L1834.13,98.646C1834.41,98.646 1834.13,98.362 1834.13,98.646L1834.13,116.079C1834.13,116.362 1834.41,116.079 1834.13,116.079L1829.91,116.079C1829.76,116.079 1829.63,116.206 1829.63,116.362L1829.63,134.362C1829.63,134.518 1829.76,134.646 1829.91,134.646L1834.13,134.646C1834.41,134.646 1834.13,134.362 1834.13,134.646L1834.13,152.079C1834.13,152.362 1834.41,152.079 1834.13,152.079L1829.91,152.079C1829.76,152.079 1829.63,152.206 1829.63,152.362L1829.63,170.362C1829.63,170.518 1829.76,170.646 1829.91,170.646L1834.13,170.646C1834.41,170.646 1834.13,170.362 1834.13,170.646L1834.13,188.079C1834.13,188.362 1834.41,188.079 1834.13,188.079L1829.91,188.079C1829.76,188.079 1829.63,188.206 1829.63,188.362L1829.63,206.362C1829.63,206.518 1829.76,206.646 1829.91,206.646L1834.13,206.646C1834.41,206.646 1834.13,206.362 1834.13,206.646L1834.13,224.079C1834.13,224.362 1834.41,224.079 1834.13,224.079L1829.91,224.079C1829.76,224.079 1829.63,224.206 1829.63,224.362L1829.63,242.362C1829.63,242.518 1829.76,242.646 1829.91,242.646L1834.13,242.646C1834.41,242.646 1834.13,242.362 1834.13,242.646L1834.13,260.079C1834.13,260.362 1834.41,260.079 1834.13,260.079L1829.91,260.079C1829.76,260.079 1829.63,260.206 1829.63,260.362L1829.63,278.362C1829.63,278.518 1829.76,278.646 1829.91,278.646L1834.13,278.646C1834.41,278.646 1834.13,278.362 1834.13,278.646L1834.13,296.079C1834.13,296.362 1834.41,296.079 1834.13,296.079L1829.91,296.079C1829.76,296.079 1829.63,296.206 1829.63,296.362L1829.63,321.094C1829.63,321.25 1829.76,321.378 1829.91,321.378Z" style="fill:none;fill-rule:nonzero;stroke:black;stroke-width:0.03px;"/>
            </g>
        </g>
    </g>
</svg>
